%TF.GenerationSoftware,KiCad,Pcbnew,9.0.6*%
%TF.CreationDate,2026-02-28T12:54:14-08:00*%
%TF.ProjectId,display,64697370-6c61-4792-9e6b-696361645f70,rev?*%
%TF.SameCoordinates,Original*%
%TF.FileFunction,Profile,NP*%
%FSLAX46Y46*%
G04 Gerber Fmt 4.6, Leading zero omitted, Abs format (unit mm)*
G04 Created by KiCad (PCBNEW 9.0.6) date 2026-02-28 12:54:14*
%MOMM*%
%LPD*%
G01*
G04 APERTURE LIST*
%TA.AperFunction,Profile*%
%ADD10C,0.050000*%
%TD*%
G04 APERTURE END LIST*
D10*
X92500000Y-117500000D02*
G75*
G02*
X87500000Y-117500000I-2500000J0D01*
G01*
X87500000Y-117500000D02*
G75*
G02*
X92500000Y-117500000I2500000J0D01*
G01*
X163000000Y-117500000D02*
G75*
G02*
X158000000Y-117500000I-2500000J0D01*
G01*
X158000000Y-117500000D02*
G75*
G02*
X163000000Y-117500000I2500000J0D01*
G01*
X163000000Y-78500000D02*
G75*
G02*
X158000000Y-78500000I-2500000J0D01*
G01*
X158000000Y-78500000D02*
G75*
G02*
X163000000Y-78500000I2500000J0D01*
G01*
X92500000Y-78500000D02*
G75*
G02*
X87500000Y-78500000I-2500000J0D01*
G01*
X87500000Y-78500000D02*
G75*
G02*
X92500000Y-78500000I2500000J0D01*
G01*
X85000000Y-78500000D02*
G75*
G02*
X90000000Y-73500000I5000000J0D01*
G01*
X90000000Y-122500000D02*
G75*
G02*
X85000000Y-117500000I0J5000000D01*
G01*
X165500000Y-117500000D02*
G75*
G02*
X160500000Y-122500000I-5000000J0D01*
G01*
X160500000Y-73500000D02*
G75*
G02*
X165500000Y-78500000I0J-5000000D01*
G01*
X85000000Y-117500000D02*
X85000000Y-78500000D01*
X160500000Y-122500000D02*
X90000000Y-122500000D01*
X90000000Y-73500000D02*
X160500000Y-73500000D01*
X165500000Y-78500000D02*
X165500000Y-117500000D01*
%TO.C,M1*%
X115490000Y-95660000D02*
G75*
G02*
X113590000Y-95660000I-950000J0D01*
G01*
X113590000Y-95660000D02*
G75*
G02*
X115490000Y-95660000I950000J0D01*
G01*
X111340000Y-86660000D02*
G75*
G02*
X108740000Y-86660000I-1300000J0D01*
G01*
X108740000Y-86660000D02*
G75*
G02*
X111340000Y-86660000I1300000J0D01*
G01*
X102990000Y-105660000D02*
G75*
G02*
X99090000Y-105660000I-1950000J0D01*
G01*
X99090000Y-105660000D02*
G75*
G02*
X102990000Y-105660000I1950000J0D01*
G01*
X93340000Y-86660000D02*
G75*
G02*
X90740000Y-86660000I-1300000J0D01*
G01*
X90740000Y-86660000D02*
G75*
G02*
X93340000Y-86660000I1300000J0D01*
G01*
X88490000Y-95660000D02*
G75*
G02*
X86590000Y-95660000I-950000J0D01*
G01*
X86590000Y-95660000D02*
G75*
G02*
X88490000Y-95660000I950000J0D01*
G01*
%TD*%
M02*
