M48
; DRILL file {KiCad 9.0.6} date 2026-02-28T12:54:10-0800
; FORMAT={-:-/ absolute / metric / decimal}
; #@! TF.CreationDate,2026-02-28T12:54:10-08:00
; #@! TF.GenerationSoftware,Kicad,Pcbnew,9.0.6
; #@! TF.FileFunction,Plated,1,2,PTH
FMAT,2
METRIC
; #@! TA.AperFunction,Plated,PTH,ViaDrill
T1C0.300
; #@! TA.AperFunction,Plated,PTH,ComponentDrill
T2C0.750
; #@! TA.AperFunction,Plated,PTH,ComponentDrill
T3C0.850
; #@! TA.AperFunction,Plated,PTH,ComponentDrill
T4C1.016
%
G90
G05
T1
X117.0Y-87.0
X118.5Y-82.5
X118.5Y-86.5
X119.5Y-83.35
X120.5Y-111.0
X121.5Y-87.5
X123.0Y-79.5
X123.5Y-83.0
X126.0Y-110.5
X128.0Y-103.5
X128.339Y-83.45
X128.5Y-87.5
X129.0Y-81.5
X129.0Y-83.0
X129.0Y-85.5
X131.0Y-81.0
X132.0Y-95.0
X133.0Y-79.0
X154.5Y-85.5
X157.0Y-91.0
X157.0Y-97.5
X160.0Y-87.0
T2
X139.45Y-114.0
X139.45Y-116.0
X139.45Y-118.0
X159.45Y-96.0
X159.45Y-98.0
T3
X89.61Y-91.85
X89.61Y-99.47
X112.47Y-91.85
X112.47Y-99.47
T4
X135.88Y-82.88
X135.88Y-85.42
X135.88Y-87.96
X135.88Y-90.5
X135.88Y-93.04
X135.88Y-95.58
X135.88Y-98.12
X140.96Y-108.28
X146.04Y-108.28
X151.12Y-82.88
X151.12Y-85.42
X151.12Y-87.96
X151.12Y-90.5
X151.12Y-93.04
X151.12Y-95.58
X151.12Y-98.12
M30
