%TF.GenerationSoftware,KiCad,Pcbnew,9.0.6*%
%TF.CreationDate,2026-02-28T12:54:14-08:00*%
%TF.ProjectId,display,64697370-6c61-4792-9e6b-696361645f70,rev?*%
%TF.SameCoordinates,Original*%
%TF.FileFunction,Copper,L2,Bot*%
%TF.FilePolarity,Positive*%
%FSLAX46Y46*%
G04 Gerber Fmt 4.6, Leading zero omitted, Abs format (unit mm)*
G04 Created by KiCad (PCBNEW 9.0.6) date 2026-02-28 12:54:14*
%MOMM*%
%LPD*%
G01*
G04 APERTURE LIST*
G04 Aperture macros list*
%AMRoundRect*
0 Rectangle with rounded corners*
0 $1 Rounding radius*
0 $2 $3 $4 $5 $6 $7 $8 $9 X,Y pos of 4 corners*
0 Add a 4 corners polygon primitive as box body*
4,1,4,$2,$3,$4,$5,$6,$7,$8,$9,$2,$3,0*
0 Add four circle primitives for the rounded corners*
1,1,$1+$1,$2,$3*
1,1,$1+$1,$4,$5*
1,1,$1+$1,$6,$7*
1,1,$1+$1,$8,$9*
0 Add four rect primitives between the rounded corners*
20,1,$1+$1,$2,$3,$4,$5,0*
20,1,$1+$1,$4,$5,$6,$7,0*
20,1,$1+$1,$6,$7,$8,$9,0*
20,1,$1+$1,$8,$9,$2,$3,0*%
G04 Aperture macros list end*
%TA.AperFunction,ComponentPad*%
%ADD10O,3.556000X1.778000*%
%TD*%
%TA.AperFunction,ComponentPad*%
%ADD11C,1.905000*%
%TD*%
%TA.AperFunction,ComponentPad*%
%ADD12C,1.700000*%
%TD*%
%TA.AperFunction,ComponentPad*%
%ADD13RoundRect,0.250000X0.625000X-0.350000X0.625000X0.350000X-0.625000X0.350000X-0.625000X-0.350000X0*%
%TD*%
%TA.AperFunction,ComponentPad*%
%ADD14O,1.750000X1.200000*%
%TD*%
%TA.AperFunction,ViaPad*%
%ADD15C,0.600000*%
%TD*%
%TA.AperFunction,Conductor*%
%ADD16C,0.500000*%
%TD*%
%TA.AperFunction,Conductor*%
%ADD17C,0.300000*%
%TD*%
G04 APERTURE END LIST*
D10*
%TO.P,U2,1,GPIO1_A0_D0*%
%TO.N,unconnected-(U2-GPIO1_A0_D0-Pad1)*%
X135118000Y-82880000D03*
%TO.P,U2,2,GPIO2_A1_D1*%
%TO.N,/MOTOR_A1*%
X135118000Y-85420000D03*
%TO.P,U2,3,GPIO3_A2_D2*%
%TO.N,/MOTOR_A2*%
X135118000Y-87960000D03*
%TO.P,U2,4,GPIO4_A3_D3*%
%TO.N,/MOTOR_B1*%
X135118000Y-90500000D03*
%TO.P,U2,5,GPIO5_A4_D4_SDA*%
%TO.N,Net-(U2-GPIO5_A4_D4_SDA)*%
X135118000Y-93040000D03*
%TO.P,U2,6,GPIO6_A5_D5_SCL*%
%TO.N,unconnected-(U2-GPIO6_A5_D5_SCL-Pad6)*%
X135118000Y-95580000D03*
%TO.P,U2,7,GPIO43_TX_D6*%
%TO.N,unconnected-(U2-GPIO43_TX_D6-Pad7)*%
X135118000Y-98120000D03*
%TO.P,U2,8,GPIO44_D7_RX*%
%TO.N,unconnected-(U2-GPIO44_D7_RX-Pad8)*%
X151882000Y-98120000D03*
%TO.P,U2,9,GPIO7_A8_D8_SCK*%
%TO.N,unconnected-(U2-GPIO7_A8_D8_SCK-Pad9)*%
X151882000Y-95580000D03*
%TO.P,U2,10,GPIO8_A9_D9_CIPO*%
%TO.N,/RESET_BTN*%
X151882000Y-93040000D03*
%TO.P,U2,11,GPIO9_A10_D10_COPI*%
%TO.N,/MOTOR_B2*%
X151882000Y-90500000D03*
%TO.P,U2,12,3V3*%
%TO.N,+3.3V*%
X151882000Y-87960000D03*
%TO.P,U2,13,GND*%
%TO.N,GND*%
X151882000Y-85420000D03*
%TO.P,U2,14,5V*%
%TO.N,+5V*%
X151882000Y-82880000D03*
D11*
%TO.P,U2,15,+BATT*%
%TO.N,unconnected-(U2-+BATT-Pad15)*%
X140960000Y-108280000D03*
%TO.P,U2,16,-BATT*%
%TO.N,unconnected-(U2--BATT-Pad16)*%
X146040000Y-108280000D03*
%TD*%
D12*
%TO.P,M1,1*%
%TO.N,Net-(U1-BOUT1)*%
X89610000Y-99470000D03*
%TO.P,M1,2,-*%
%TO.N,Net-(M1--)*%
X89610000Y-91850000D03*
%TO.P,M1,3*%
%TO.N,Net-(U1-AOUT2)*%
X112470000Y-99470000D03*
%TO.P,M1,4*%
%TO.N,Net-(U1-AOUT1)*%
X112470000Y-91850000D03*
%TD*%
D13*
%TO.P,J2,1,Pin_1*%
%TO.N,/RESET_BTN*%
X159450000Y-98000000D03*
D14*
%TO.P,J2,2,Pin_2*%
%TO.N,GND*%
X159450000Y-96000000D03*
%TD*%
D13*
%TO.P,J1,1,Pin_1*%
%TO.N,+5V*%
X139450000Y-118000000D03*
D14*
%TO.P,J1,2,Pin_2*%
%TO.N,GND*%
X139450000Y-116000000D03*
%TO.P,J1,3,Pin_3*%
%TO.N,/NEO_DATA*%
X139450000Y-114000000D03*
%TD*%
D15*
%TO.N,Net-(U1-VINT)*%
X128000000Y-103500000D03*
%TO.N,/RESET_BTN*%
X157000000Y-97500000D03*
%TO.N,GND*%
X154500000Y-85500000D03*
%TO.N,+3.3V*%
X160000000Y-87000000D03*
%TO.N,Net-(U1-VINT)*%
X128338563Y-83450000D03*
%TO.N,GND*%
X126000000Y-110500000D03*
X120500000Y-111000000D03*
%TO.N,Net-(U1-AISEN)*%
X123500000Y-83000000D03*
X121500000Y-87500000D03*
%TO.N,Net-(U1-AOUT2)*%
X119500000Y-83349997D03*
X118500000Y-86500000D03*
%TO.N,Net-(U1-AOUT1)*%
X118500000Y-82500000D03*
X117000000Y-87000000D03*
%TO.N,Net-(U2-GPIO5_A4_D4_SDA)*%
X132000000Y-95000000D03*
%TO.N,/RESET_BTN*%
X157000000Y-91000000D03*
%TO.N,/MOTOR_B2*%
X128500000Y-87500000D03*
%TO.N,+3.3V*%
X123000000Y-79500000D03*
%TO.N,GND*%
X131000000Y-81000000D03*
%TO.N,+5V*%
X133000000Y-79000000D03*
%TO.N,/MOTOR_B1*%
X129000000Y-85500000D03*
%TO.N,/MOTOR_A2*%
X129000000Y-83000000D03*
%TO.N,/MOTOR_A1*%
X129000000Y-81500000D03*
%TD*%
D16*
%TO.N,/RESET_BTN*%
X154960000Y-95460000D02*
X157000000Y-97500000D01*
X154960000Y-93040000D02*
X154960000Y-95460000D01*
%TO.N,GND*%
X154420000Y-85420000D02*
X154500000Y-85500000D01*
X151120000Y-85420000D02*
X154420000Y-85420000D01*
%TO.N,+3.3V*%
X160000000Y-87000000D02*
X158500000Y-85500000D01*
X123000000Y-79500000D02*
X124251000Y-78249000D01*
X124251000Y-78249000D02*
X152749000Y-78249000D01*
X152749000Y-78249000D02*
X158500000Y-84000000D01*
X158500000Y-84000000D02*
X158500000Y-85500000D01*
X156040000Y-87960000D02*
X158500000Y-85500000D01*
X151120000Y-87960000D02*
X156040000Y-87960000D01*
D17*
%TO.N,Net-(U1-VINT)*%
X128500000Y-84000000D02*
X128500000Y-83500000D01*
X128500000Y-83500000D02*
X128388563Y-83500000D01*
X128388563Y-83500000D02*
X128338563Y-83450000D01*
X128500000Y-84000000D02*
X127000000Y-85500000D01*
X127000000Y-85500000D02*
X127000000Y-102500000D01*
X127000000Y-102500000D02*
X128000000Y-103500000D01*
D16*
%TO.N,GND*%
X125500000Y-111000000D02*
X126000000Y-110500000D01*
X120500000Y-111000000D02*
X125500000Y-111000000D01*
D17*
%TO.N,Net-(U1-AISEN)*%
X123500000Y-85500000D02*
X123500000Y-83000000D01*
X121500000Y-87500000D02*
X123500000Y-85500000D01*
%TO.N,Net-(U1-AOUT2)*%
X118500000Y-84500000D02*
X119500000Y-83500000D01*
X118500000Y-86500000D02*
X118500000Y-84500000D01*
X119500000Y-83500000D02*
X119500000Y-83349997D01*
D16*
%TO.N,Net-(U1-AOUT1)*%
X117000000Y-84000000D02*
X118500000Y-82500000D01*
X117000000Y-87000000D02*
X117000000Y-84000000D01*
%TO.N,Net-(U2-GPIO5_A4_D4_SDA)*%
X133960000Y-93040000D02*
X132000000Y-95000000D01*
X135880000Y-93040000D02*
X133960000Y-93040000D01*
%TO.N,/RESET_BTN*%
X154960000Y-93040000D02*
X157000000Y-91000000D01*
X151120000Y-93040000D02*
X154960000Y-93040000D01*
%TO.N,/MOTOR_B2*%
X128500000Y-94286046D02*
X128500000Y-87500000D01*
X142160000Y-99460000D02*
X133673954Y-99460000D01*
X133673954Y-99460000D02*
X128500000Y-94286046D01*
X151120000Y-90500000D02*
X142160000Y-99460000D01*
%TO.N,GND*%
X146700000Y-81000000D02*
X131000000Y-81000000D01*
X151120000Y-85420000D02*
X146700000Y-81000000D01*
%TO.N,+5V*%
X147240000Y-79000000D02*
X133000000Y-79000000D01*
X151120000Y-82880000D02*
X147240000Y-79000000D01*
%TO.N,/MOTOR_B1*%
X134000000Y-90500000D02*
X129000000Y-85500000D01*
X135880000Y-90500000D02*
X134000000Y-90500000D01*
%TO.N,/MOTOR_A2*%
X133960000Y-87960000D02*
X129000000Y-83000000D01*
X135880000Y-87960000D02*
X133960000Y-87960000D01*
%TO.N,/MOTOR_A1*%
X132920000Y-85420000D02*
X129000000Y-81500000D01*
X135880000Y-85420000D02*
X132920000Y-85420000D01*
%TD*%
%TA.AperFunction,Conductor*%
%TO.N,GND*%
G36*
X152453809Y-79019185D02*
G01*
X152474451Y-79035819D01*
X157713181Y-84274548D01*
X157746666Y-84335871D01*
X157749500Y-84362229D01*
X157749500Y-85137770D01*
X157729815Y-85204809D01*
X157713181Y-85225451D01*
X155765451Y-87173181D01*
X155704128Y-87206666D01*
X155677770Y-87209500D01*
X154006428Y-87209500D01*
X153939389Y-87189815D01*
X153906111Y-87158387D01*
X153830852Y-87054801D01*
X153676199Y-86900148D01*
X153676197Y-86900146D01*
X153676192Y-86900142D01*
X153524605Y-86790008D01*
X153481939Y-86734678D01*
X153475960Y-86665065D01*
X153508565Y-86603270D01*
X153524605Y-86589371D01*
X153675873Y-86479469D01*
X153830471Y-86324871D01*
X153830475Y-86324866D01*
X153958976Y-86147998D01*
X154058237Y-85953191D01*
X154058238Y-85953188D01*
X154125798Y-85745258D01*
X154137718Y-85670000D01*
X151562251Y-85670000D01*
X151593381Y-85616081D01*
X151628000Y-85486880D01*
X151628000Y-85353120D01*
X151593381Y-85223919D01*
X151562251Y-85170000D01*
X154137718Y-85170000D01*
X154125798Y-85094741D01*
X154058238Y-84886811D01*
X154058237Y-84886808D01*
X153958976Y-84692001D01*
X153830475Y-84515133D01*
X153830471Y-84515128D01*
X153675871Y-84360528D01*
X153675866Y-84360524D01*
X153524605Y-84250627D01*
X153481939Y-84195297D01*
X153475960Y-84125684D01*
X153508565Y-84063889D01*
X153524599Y-84049994D01*
X153676199Y-83939852D01*
X153830852Y-83785199D01*
X153830854Y-83785195D01*
X153830857Y-83785193D01*
X153933071Y-83644505D01*
X153959407Y-83608257D01*
X154058701Y-83413383D01*
X154126286Y-83205375D01*
X154147597Y-83070821D01*
X154160500Y-82989361D01*
X154160500Y-82770638D01*
X154136769Y-82620814D01*
X154126286Y-82554625D01*
X154068967Y-82378213D01*
X154058702Y-82346619D01*
X154058701Y-82346616D01*
X154017884Y-82266510D01*
X153959407Y-82151743D01*
X153937642Y-82121786D01*
X153830857Y-81974806D01*
X153676193Y-81820142D01*
X153499260Y-81691595D01*
X153499259Y-81691594D01*
X153499257Y-81691593D01*
X153436825Y-81659782D01*
X153304383Y-81592298D01*
X153304380Y-81592297D01*
X153096376Y-81524714D01*
X152880361Y-81490500D01*
X152880356Y-81490500D01*
X150883644Y-81490500D01*
X150866816Y-81493165D01*
X150797523Y-81484209D01*
X150759739Y-81458372D01*
X148512549Y-79211181D01*
X148479064Y-79149858D01*
X148484048Y-79080166D01*
X148525920Y-79024233D01*
X148591384Y-78999816D01*
X148600230Y-78999500D01*
X152386770Y-78999500D01*
X152453809Y-79019185D01*
G37*
%TD.AperFunction*%
%TA.AperFunction,Conductor*%
G36*
X160502702Y-74000617D02*
G01*
X160886771Y-74017386D01*
X160897506Y-74018326D01*
X161275971Y-74068152D01*
X161286597Y-74070025D01*
X161659284Y-74152648D01*
X161669710Y-74155442D01*
X162033765Y-74270227D01*
X162043911Y-74273920D01*
X162396578Y-74420000D01*
X162406369Y-74424566D01*
X162744942Y-74600816D01*
X162754310Y-74606224D01*
X163076244Y-74811318D01*
X163085105Y-74817523D01*
X163387930Y-75049889D01*
X163396217Y-75056843D01*
X163677635Y-75314715D01*
X163685284Y-75322364D01*
X163943156Y-75603782D01*
X163950110Y-75612069D01*
X164182476Y-75914894D01*
X164188681Y-75923755D01*
X164393775Y-76245689D01*
X164399183Y-76255057D01*
X164575430Y-76593623D01*
X164580002Y-76603427D01*
X164726075Y-76956078D01*
X164729775Y-76966244D01*
X164844554Y-77330278D01*
X164847354Y-77340727D01*
X164929971Y-77713389D01*
X164931849Y-77724042D01*
X164981671Y-78102473D01*
X164982614Y-78113249D01*
X164999382Y-78497297D01*
X164999500Y-78502706D01*
X164999500Y-117497293D01*
X164999382Y-117502702D01*
X164982614Y-117886750D01*
X164981671Y-117897526D01*
X164931849Y-118275957D01*
X164929971Y-118286610D01*
X164847354Y-118659272D01*
X164844554Y-118669721D01*
X164729775Y-119033755D01*
X164726075Y-119043921D01*
X164580002Y-119396572D01*
X164575430Y-119406376D01*
X164399183Y-119744942D01*
X164393775Y-119754310D01*
X164188681Y-120076244D01*
X164182476Y-120085105D01*
X163950110Y-120387930D01*
X163943156Y-120396217D01*
X163685284Y-120677635D01*
X163677635Y-120685284D01*
X163396217Y-120943156D01*
X163387930Y-120950110D01*
X163085105Y-121182476D01*
X163076244Y-121188681D01*
X162754310Y-121393775D01*
X162744942Y-121399183D01*
X162406376Y-121575430D01*
X162396572Y-121580002D01*
X162043921Y-121726075D01*
X162033755Y-121729775D01*
X161669721Y-121844554D01*
X161659272Y-121847354D01*
X161286610Y-121929971D01*
X161275957Y-121931849D01*
X160897526Y-121981671D01*
X160886750Y-121982614D01*
X160502703Y-121999382D01*
X160497294Y-121999500D01*
X90002706Y-121999500D01*
X89997297Y-121999382D01*
X89613249Y-121982614D01*
X89602473Y-121981671D01*
X89224042Y-121931849D01*
X89213389Y-121929971D01*
X88840727Y-121847354D01*
X88830278Y-121844554D01*
X88466244Y-121729775D01*
X88456078Y-121726075D01*
X88103427Y-121580002D01*
X88093623Y-121575430D01*
X87755057Y-121399183D01*
X87745689Y-121393775D01*
X87423755Y-121188681D01*
X87414894Y-121182476D01*
X87112069Y-120950110D01*
X87103782Y-120943156D01*
X86822364Y-120685284D01*
X86814715Y-120677635D01*
X86556843Y-120396217D01*
X86549889Y-120387930D01*
X86317523Y-120085105D01*
X86311318Y-120076244D01*
X86106224Y-119754310D01*
X86100816Y-119744942D01*
X85970818Y-119495219D01*
X85924566Y-119406369D01*
X85919997Y-119396572D01*
X85797360Y-119100500D01*
X85773920Y-119043911D01*
X85770224Y-119033755D01*
X85760623Y-119003304D01*
X85655442Y-118669710D01*
X85652648Y-118659284D01*
X85570025Y-118286597D01*
X85568152Y-118275971D01*
X85518326Y-117897506D01*
X85517386Y-117886771D01*
X85500618Y-117502702D01*
X85500500Y-117497293D01*
X85500500Y-117331491D01*
X86999500Y-117331491D01*
X86999500Y-117668508D01*
X87037231Y-118003381D01*
X87037233Y-118003397D01*
X87112223Y-118331953D01*
X87112227Y-118331965D01*
X87223532Y-118650054D01*
X87369752Y-118953683D01*
X87369754Y-118953686D01*
X87549054Y-119239039D01*
X87759175Y-119502523D01*
X87997477Y-119740825D01*
X88260961Y-119950946D01*
X88546314Y-120130246D01*
X88849949Y-120276469D01*
X89088848Y-120360063D01*
X89168034Y-120387772D01*
X89168046Y-120387776D01*
X89496606Y-120462767D01*
X89831492Y-120500499D01*
X89831493Y-120500500D01*
X89831496Y-120500500D01*
X90168507Y-120500500D01*
X90168507Y-120500499D01*
X90503394Y-120462767D01*
X90831954Y-120387776D01*
X91150051Y-120276469D01*
X91453686Y-120130246D01*
X91739039Y-119950946D01*
X92002523Y-119740825D01*
X92240825Y-119502523D01*
X92450946Y-119239039D01*
X92630246Y-118953686D01*
X92776469Y-118650051D01*
X92887776Y-118331954D01*
X92962767Y-118003394D01*
X93000500Y-117668504D01*
X93000500Y-117331496D01*
X92962767Y-116996606D01*
X92887776Y-116668046D01*
X92776469Y-116349949D01*
X92630246Y-116046314D01*
X92450946Y-115760961D01*
X92240825Y-115497477D01*
X92002523Y-115259175D01*
X91739039Y-115049054D01*
X91453686Y-114869754D01*
X91453683Y-114869752D01*
X91150054Y-114723532D01*
X90831965Y-114612227D01*
X90831953Y-114612223D01*
X90503397Y-114537233D01*
X90503381Y-114537231D01*
X90168508Y-114499500D01*
X90168504Y-114499500D01*
X89831496Y-114499500D01*
X89831491Y-114499500D01*
X89496618Y-114537231D01*
X89496602Y-114537233D01*
X89168046Y-114612223D01*
X89168034Y-114612227D01*
X88849945Y-114723532D01*
X88546316Y-114869752D01*
X88260962Y-115049053D01*
X87997477Y-115259174D01*
X87759174Y-115497477D01*
X87549053Y-115760962D01*
X87369752Y-116046316D01*
X87223532Y-116349945D01*
X87112227Y-116668034D01*
X87112223Y-116668046D01*
X87037233Y-116996602D01*
X87037231Y-116996618D01*
X86999500Y-117331491D01*
X85500500Y-117331491D01*
X85500500Y-113913389D01*
X138074500Y-113913389D01*
X138074500Y-114086611D01*
X138101598Y-114257701D01*
X138155127Y-114422445D01*
X138233768Y-114576788D01*
X138335586Y-114716928D01*
X138458072Y-114839414D01*
X138541449Y-114899991D01*
X138584114Y-114955322D01*
X138590093Y-115024935D01*
X138557487Y-115086730D01*
X138541448Y-115100627D01*
X138458404Y-115160961D01*
X138458399Y-115160965D01*
X138335967Y-115283397D01*
X138234195Y-115423475D01*
X138155591Y-115577744D01*
X138102085Y-115742415D01*
X138100884Y-115749999D01*
X138100885Y-115750000D01*
X139169670Y-115750000D01*
X139149925Y-115769745D01*
X139100556Y-115855255D01*
X139075000Y-115950630D01*
X139075000Y-116049370D01*
X139100556Y-116144745D01*
X139149925Y-116230255D01*
X139169670Y-116250000D01*
X138100885Y-116250000D01*
X138102085Y-116257584D01*
X138155591Y-116422255D01*
X138234195Y-116576524D01*
X138335967Y-116716602D01*
X138443565Y-116824200D01*
X138477050Y-116885523D01*
X138472066Y-116955215D01*
X138430194Y-117011148D01*
X138420981Y-117017420D01*
X138356342Y-117057289D01*
X138232289Y-117181342D01*
X138140187Y-117330663D01*
X138140185Y-117330668D01*
X138139912Y-117331493D01*
X138085001Y-117497203D01*
X138085001Y-117497204D01*
X138085000Y-117497204D01*
X138074500Y-117599983D01*
X138074500Y-118400001D01*
X138074501Y-118400019D01*
X138085000Y-118502796D01*
X138085001Y-118502799D01*
X138140185Y-118669331D01*
X138140187Y-118669336D01*
X138175069Y-118725888D01*
X138232288Y-118818656D01*
X138356344Y-118942712D01*
X138505666Y-119034814D01*
X138672203Y-119089999D01*
X138774991Y-119100500D01*
X140125008Y-119100499D01*
X140227797Y-119089999D01*
X140394334Y-119034814D01*
X140543656Y-118942712D01*
X140667712Y-118818656D01*
X140759814Y-118669334D01*
X140814999Y-118502797D01*
X140825500Y-118400009D01*
X140825499Y-117599992D01*
X140814999Y-117497203D01*
X140760088Y-117331493D01*
X140760087Y-117331491D01*
X157499500Y-117331491D01*
X157499500Y-117668508D01*
X157537231Y-118003381D01*
X157537233Y-118003397D01*
X157612223Y-118331953D01*
X157612227Y-118331965D01*
X157723532Y-118650054D01*
X157869752Y-118953683D01*
X157869754Y-118953686D01*
X158049054Y-119239039D01*
X158259175Y-119502523D01*
X158497477Y-119740825D01*
X158760961Y-119950946D01*
X159046314Y-120130246D01*
X159349949Y-120276469D01*
X159588848Y-120360063D01*
X159668034Y-120387772D01*
X159668046Y-120387776D01*
X159996606Y-120462767D01*
X160331492Y-120500499D01*
X160331493Y-120500500D01*
X160331496Y-120500500D01*
X160668507Y-120500500D01*
X160668507Y-120500499D01*
X161003394Y-120462767D01*
X161331954Y-120387776D01*
X161650051Y-120276469D01*
X161953686Y-120130246D01*
X162239039Y-119950946D01*
X162502523Y-119740825D01*
X162740825Y-119502523D01*
X162950946Y-119239039D01*
X163130246Y-118953686D01*
X163276469Y-118650051D01*
X163387776Y-118331954D01*
X163462767Y-118003394D01*
X163500500Y-117668504D01*
X163500500Y-117331496D01*
X163462767Y-116996606D01*
X163387776Y-116668046D01*
X163276469Y-116349949D01*
X163130246Y-116046314D01*
X162950946Y-115760961D01*
X162740825Y-115497477D01*
X162502523Y-115259175D01*
X162239039Y-115049054D01*
X161953686Y-114869754D01*
X161953683Y-114869752D01*
X161650054Y-114723532D01*
X161331965Y-114612227D01*
X161331953Y-114612223D01*
X161003397Y-114537233D01*
X161003381Y-114537231D01*
X160668508Y-114499500D01*
X160668504Y-114499500D01*
X160331496Y-114499500D01*
X160331491Y-114499500D01*
X159996618Y-114537231D01*
X159996602Y-114537233D01*
X159668046Y-114612223D01*
X159668034Y-114612227D01*
X159349945Y-114723532D01*
X159046316Y-114869752D01*
X158760962Y-115049053D01*
X158497477Y-115259174D01*
X158259174Y-115497477D01*
X158049053Y-115760962D01*
X157869752Y-116046316D01*
X157723532Y-116349945D01*
X157612227Y-116668034D01*
X157612223Y-116668046D01*
X157537233Y-116996602D01*
X157537231Y-116996618D01*
X157499500Y-117331491D01*
X140760087Y-117331491D01*
X140759817Y-117330674D01*
X140759815Y-117330671D01*
X140759814Y-117330666D01*
X140667712Y-117181344D01*
X140543656Y-117057288D01*
X140543655Y-117057287D01*
X140479019Y-117017420D01*
X140432294Y-116965472D01*
X140421071Y-116896510D01*
X140448914Y-116832428D01*
X140456434Y-116824199D01*
X140564035Y-116716598D01*
X140665804Y-116576524D01*
X140744408Y-116422255D01*
X140797914Y-116257584D01*
X140799115Y-116250000D01*
X139730330Y-116250000D01*
X139750075Y-116230255D01*
X139799444Y-116144745D01*
X139825000Y-116049370D01*
X139825000Y-115950630D01*
X139799444Y-115855255D01*
X139750075Y-115769745D01*
X139730330Y-115750000D01*
X140799115Y-115750000D01*
X140799115Y-115749999D01*
X140797914Y-115742415D01*
X140744408Y-115577744D01*
X140665804Y-115423475D01*
X140564032Y-115283397D01*
X140441602Y-115160967D01*
X140358551Y-115100628D01*
X140315885Y-115045298D01*
X140309906Y-114975685D01*
X140342511Y-114913889D01*
X140358551Y-114899991D01*
X140441928Y-114839414D01*
X140564414Y-114716928D01*
X140666232Y-114576788D01*
X140744873Y-114422445D01*
X140798402Y-114257701D01*
X140825500Y-114086611D01*
X140825500Y-113913389D01*
X140798402Y-113742299D01*
X140744873Y-113577555D01*
X140666232Y-113423212D01*
X140564414Y-113283072D01*
X140441928Y-113160586D01*
X140301788Y-113058768D01*
X140147445Y-112980127D01*
X139982701Y-112926598D01*
X139982699Y-112926597D01*
X139982698Y-112926597D01*
X139851271Y-112905781D01*
X139811611Y-112899500D01*
X139088389Y-112899500D01*
X139048728Y-112905781D01*
X138917302Y-112926597D01*
X138752552Y-112980128D01*
X138598211Y-113058768D01*
X138518256Y-113116859D01*
X138458072Y-113160586D01*
X138458070Y-113160588D01*
X138458069Y-113160588D01*
X138335588Y-113283069D01*
X138335588Y-113283070D01*
X138335586Y-113283072D01*
X138291859Y-113343256D01*
X138233768Y-113423211D01*
X138155128Y-113577552D01*
X138101597Y-113742302D01*
X138074500Y-113913389D01*
X85500500Y-113913389D01*
X85500500Y-108165646D01*
X139507000Y-108165646D01*
X139507000Y-108394353D01*
X139542778Y-108620246D01*
X139542778Y-108620249D01*
X139613450Y-108837755D01*
X139613452Y-108837758D01*
X139717283Y-109041538D01*
X139851714Y-109226566D01*
X140013434Y-109388286D01*
X140198462Y-109522717D01*
X140402242Y-109626548D01*
X140402244Y-109626549D01*
X140619751Y-109697221D01*
X140619752Y-109697221D01*
X140619755Y-109697222D01*
X140845646Y-109733000D01*
X140845647Y-109733000D01*
X141074353Y-109733000D01*
X141074354Y-109733000D01*
X141300245Y-109697222D01*
X141300248Y-109697221D01*
X141300249Y-109697221D01*
X141517755Y-109626549D01*
X141517755Y-109626548D01*
X141517758Y-109626548D01*
X141721538Y-109522717D01*
X141906566Y-109388286D01*
X142068286Y-109226566D01*
X142202717Y-109041538D01*
X142306548Y-108837758D01*
X142377222Y-108620245D01*
X142413000Y-108394354D01*
X142413000Y-108165646D01*
X144587000Y-108165646D01*
X144587000Y-108394353D01*
X144622778Y-108620246D01*
X144622778Y-108620249D01*
X144693450Y-108837755D01*
X144693452Y-108837758D01*
X144797283Y-109041538D01*
X144931714Y-109226566D01*
X145093434Y-109388286D01*
X145278462Y-109522717D01*
X145482242Y-109626548D01*
X145482244Y-109626549D01*
X145699751Y-109697221D01*
X145699752Y-109697221D01*
X145699755Y-109697222D01*
X145925646Y-109733000D01*
X145925647Y-109733000D01*
X146154353Y-109733000D01*
X146154354Y-109733000D01*
X146380245Y-109697222D01*
X146380248Y-109697221D01*
X146380249Y-109697221D01*
X146597755Y-109626549D01*
X146597755Y-109626548D01*
X146597758Y-109626548D01*
X146801538Y-109522717D01*
X146986566Y-109388286D01*
X147148286Y-109226566D01*
X147282717Y-109041538D01*
X147386548Y-108837758D01*
X147457222Y-108620245D01*
X147493000Y-108394354D01*
X147493000Y-108165646D01*
X147457222Y-107939755D01*
X147457221Y-107939751D01*
X147457221Y-107939750D01*
X147386549Y-107722244D01*
X147386548Y-107722242D01*
X147282717Y-107518462D01*
X147148286Y-107333434D01*
X146986566Y-107171714D01*
X146801538Y-107037283D01*
X146597755Y-106933450D01*
X146380248Y-106862778D01*
X146210826Y-106835944D01*
X146154354Y-106827000D01*
X145925646Y-106827000D01*
X145850349Y-106838926D01*
X145699753Y-106862778D01*
X145699750Y-106862778D01*
X145482244Y-106933450D01*
X145278461Y-107037283D01*
X145219301Y-107080266D01*
X145093434Y-107171714D01*
X145093432Y-107171716D01*
X145093431Y-107171716D01*
X144931716Y-107333431D01*
X144931716Y-107333432D01*
X144931714Y-107333434D01*
X144873980Y-107412896D01*
X144797283Y-107518461D01*
X144693450Y-107722244D01*
X144622778Y-107939750D01*
X144622778Y-107939753D01*
X144587000Y-108165646D01*
X142413000Y-108165646D01*
X142377222Y-107939755D01*
X142377221Y-107939751D01*
X142377221Y-107939750D01*
X142306549Y-107722244D01*
X142306548Y-107722242D01*
X142202717Y-107518462D01*
X142068286Y-107333434D01*
X141906566Y-107171714D01*
X141721538Y-107037283D01*
X141517755Y-106933450D01*
X141300248Y-106862778D01*
X141130826Y-106835944D01*
X141074354Y-106827000D01*
X140845646Y-106827000D01*
X140770349Y-106838926D01*
X140619753Y-106862778D01*
X140619750Y-106862778D01*
X140402244Y-106933450D01*
X140198461Y-107037283D01*
X140139301Y-107080266D01*
X140013434Y-107171714D01*
X140013432Y-107171716D01*
X140013431Y-107171716D01*
X139851716Y-107333431D01*
X139851716Y-107333432D01*
X139851714Y-107333434D01*
X139793980Y-107412896D01*
X139717283Y-107518461D01*
X139613450Y-107722244D01*
X139542778Y-107939750D01*
X139542778Y-107939753D01*
X139507000Y-108165646D01*
X85500500Y-108165646D01*
X85500500Y-105522378D01*
X98589500Y-105522378D01*
X98589500Y-105797621D01*
X98620315Y-106071108D01*
X98620317Y-106071124D01*
X98681561Y-106339453D01*
X98681565Y-106339465D01*
X98772467Y-106599246D01*
X98891884Y-106847218D01*
X98891886Y-106847221D01*
X99038319Y-107080268D01*
X99209925Y-107295455D01*
X99404545Y-107490075D01*
X99619732Y-107661681D01*
X99852779Y-107808114D01*
X100100757Y-107927534D01*
X100295865Y-107995805D01*
X100360534Y-108018434D01*
X100360543Y-108018437D01*
X100360546Y-108018438D01*
X100628879Y-108079683D01*
X100902378Y-108110499D01*
X100902379Y-108110500D01*
X100902383Y-108110500D01*
X101177621Y-108110500D01*
X101177621Y-108110499D01*
X101451121Y-108079683D01*
X101719454Y-108018438D01*
X101979243Y-107927534D01*
X102227221Y-107808114D01*
X102460268Y-107661681D01*
X102675455Y-107490075D01*
X102870075Y-107295455D01*
X103041681Y-107080268D01*
X103188114Y-106847221D01*
X103307534Y-106599243D01*
X103398438Y-106339454D01*
X103459683Y-106071121D01*
X103490500Y-105797617D01*
X103490500Y-105522383D01*
X103459683Y-105248879D01*
X103398438Y-104980546D01*
X103307534Y-104720757D01*
X103188114Y-104472779D01*
X103041681Y-104239732D01*
X102870075Y-104024545D01*
X102675455Y-103829925D01*
X102460268Y-103658319D01*
X102227221Y-103511886D01*
X102227218Y-103511884D01*
X101979246Y-103392467D01*
X101719465Y-103301565D01*
X101719453Y-103301561D01*
X101451124Y-103240317D01*
X101451108Y-103240315D01*
X101177621Y-103209500D01*
X101177617Y-103209500D01*
X100902383Y-103209500D01*
X100902379Y-103209500D01*
X100628891Y-103240315D01*
X100628875Y-103240317D01*
X100360546Y-103301561D01*
X100360534Y-103301565D01*
X100100753Y-103392467D01*
X99852781Y-103511884D01*
X99619733Y-103658318D01*
X99404545Y-103829924D01*
X99209924Y-104024545D01*
X99038318Y-104239733D01*
X98891884Y-104472781D01*
X98772467Y-104720753D01*
X98681565Y-104980534D01*
X98681561Y-104980546D01*
X98620317Y-105248875D01*
X98620315Y-105248891D01*
X98589500Y-105522378D01*
X85500500Y-105522378D01*
X85500500Y-99363713D01*
X88259500Y-99363713D01*
X88259500Y-99576286D01*
X88292753Y-99786239D01*
X88358444Y-99988414D01*
X88454951Y-100177820D01*
X88579890Y-100349786D01*
X88730213Y-100500109D01*
X88902179Y-100625048D01*
X88902181Y-100625049D01*
X88902184Y-100625051D01*
X89091588Y-100721557D01*
X89293757Y-100787246D01*
X89503713Y-100820500D01*
X89503714Y-100820500D01*
X89716286Y-100820500D01*
X89716287Y-100820500D01*
X89926243Y-100787246D01*
X90128412Y-100721557D01*
X90317816Y-100625051D01*
X90339789Y-100609086D01*
X90489786Y-100500109D01*
X90489788Y-100500106D01*
X90489792Y-100500104D01*
X90640104Y-100349792D01*
X90640106Y-100349788D01*
X90640109Y-100349786D01*
X90765048Y-100177820D01*
X90765047Y-100177820D01*
X90765051Y-100177816D01*
X90861557Y-99988412D01*
X90927246Y-99786243D01*
X90960500Y-99576287D01*
X90960500Y-99363713D01*
X111119500Y-99363713D01*
X111119500Y-99576286D01*
X111152753Y-99786239D01*
X111218444Y-99988414D01*
X111314951Y-100177820D01*
X111439890Y-100349786D01*
X111590213Y-100500109D01*
X111762179Y-100625048D01*
X111762181Y-100625049D01*
X111762184Y-100625051D01*
X111951588Y-100721557D01*
X112153757Y-100787246D01*
X112363713Y-100820500D01*
X112363714Y-100820500D01*
X112576286Y-100820500D01*
X112576287Y-100820500D01*
X112786243Y-100787246D01*
X112988412Y-100721557D01*
X113177816Y-100625051D01*
X113199789Y-100609086D01*
X113349786Y-100500109D01*
X113349788Y-100500106D01*
X113349792Y-100500104D01*
X113500104Y-100349792D01*
X113500106Y-100349788D01*
X113500109Y-100349786D01*
X113625048Y-100177820D01*
X113625047Y-100177820D01*
X113625051Y-100177816D01*
X113721557Y-99988412D01*
X113787246Y-99786243D01*
X113820500Y-99576287D01*
X113820500Y-99363713D01*
X113787246Y-99153757D01*
X113721557Y-98951588D01*
X113625051Y-98762184D01*
X113625049Y-98762181D01*
X113625048Y-98762179D01*
X113500109Y-98590213D01*
X113349786Y-98439890D01*
X113177820Y-98314951D01*
X112988414Y-98218444D01*
X112988413Y-98218443D01*
X112988412Y-98218443D01*
X112786243Y-98152754D01*
X112786241Y-98152753D01*
X112786240Y-98152753D01*
X112624957Y-98127208D01*
X112576287Y-98119500D01*
X112363713Y-98119500D01*
X112315042Y-98127208D01*
X112153760Y-98152753D01*
X111951585Y-98218444D01*
X111762179Y-98314951D01*
X111590213Y-98439890D01*
X111439890Y-98590213D01*
X111314951Y-98762179D01*
X111218444Y-98951585D01*
X111152753Y-99153760D01*
X111119500Y-99363713D01*
X90960500Y-99363713D01*
X90927246Y-99153757D01*
X90861557Y-98951588D01*
X90765051Y-98762184D01*
X90765049Y-98762181D01*
X90765048Y-98762179D01*
X90640109Y-98590213D01*
X90489786Y-98439890D01*
X90317820Y-98314951D01*
X90128414Y-98218444D01*
X90128413Y-98218443D01*
X90128412Y-98218443D01*
X89926243Y-98152754D01*
X89926241Y-98152753D01*
X89926240Y-98152753D01*
X89764957Y-98127208D01*
X89716287Y-98119500D01*
X89503713Y-98119500D01*
X89455042Y-98127208D01*
X89293760Y-98152753D01*
X89091585Y-98218444D01*
X88902179Y-98314951D01*
X88730213Y-98439890D01*
X88579890Y-98590213D01*
X88454951Y-98762179D01*
X88358444Y-98951585D01*
X88292753Y-99153760D01*
X88259500Y-99363713D01*
X85500500Y-99363713D01*
X85500500Y-95545837D01*
X86089500Y-95545837D01*
X86089500Y-95774162D01*
X86125215Y-95999660D01*
X86195770Y-96216803D01*
X86276376Y-96375000D01*
X86299421Y-96420228D01*
X86433621Y-96604937D01*
X86595063Y-96766379D01*
X86779772Y-96900579D01*
X86840641Y-96931593D01*
X86983196Y-97004229D01*
X86983198Y-97004229D01*
X86983201Y-97004231D01*
X87099592Y-97042049D01*
X87200339Y-97074784D01*
X87425838Y-97110500D01*
X87425843Y-97110500D01*
X87654162Y-97110500D01*
X87879660Y-97074784D01*
X88096799Y-97004231D01*
X88300228Y-96900579D01*
X88484937Y-96766379D01*
X88646379Y-96604937D01*
X88780579Y-96420228D01*
X88884231Y-96216799D01*
X88954784Y-95999660D01*
X88965241Y-95933638D01*
X88990500Y-95774162D01*
X88990500Y-95545837D01*
X113089500Y-95545837D01*
X113089500Y-95774162D01*
X113125215Y-95999660D01*
X113195770Y-96216803D01*
X113276376Y-96375000D01*
X113299421Y-96420228D01*
X113433621Y-96604937D01*
X113595063Y-96766379D01*
X113779772Y-96900579D01*
X113840641Y-96931593D01*
X113983196Y-97004229D01*
X113983198Y-97004229D01*
X113983201Y-97004231D01*
X114099592Y-97042049D01*
X114200339Y-97074784D01*
X114425838Y-97110500D01*
X114425843Y-97110500D01*
X114654162Y-97110500D01*
X114879660Y-97074784D01*
X115096799Y-97004231D01*
X115300228Y-96900579D01*
X115484937Y-96766379D01*
X115646379Y-96604937D01*
X115780579Y-96420228D01*
X115884231Y-96216799D01*
X115954784Y-95999660D01*
X115965241Y-95933638D01*
X115990500Y-95774162D01*
X115990500Y-95545837D01*
X115954784Y-95320339D01*
X115899155Y-95149132D01*
X115884231Y-95103201D01*
X115884229Y-95103198D01*
X115884229Y-95103196D01*
X115800502Y-94938874D01*
X115780579Y-94899772D01*
X115646379Y-94715063D01*
X115484937Y-94553621D01*
X115300228Y-94419421D01*
X115255086Y-94396420D01*
X115096803Y-94315770D01*
X114879660Y-94245215D01*
X114654162Y-94209500D01*
X114654157Y-94209500D01*
X114425843Y-94209500D01*
X114425838Y-94209500D01*
X114200339Y-94245215D01*
X113983196Y-94315770D01*
X113779771Y-94419421D01*
X113595061Y-94553622D01*
X113433622Y-94715061D01*
X113299421Y-94899771D01*
X113195770Y-95103196D01*
X113125215Y-95320339D01*
X113089500Y-95545837D01*
X88990500Y-95545837D01*
X88954784Y-95320339D01*
X88899155Y-95149132D01*
X88884231Y-95103201D01*
X88884229Y-95103198D01*
X88884229Y-95103196D01*
X88800502Y-94938874D01*
X88780579Y-94899772D01*
X88646379Y-94715063D01*
X88484937Y-94553621D01*
X88300228Y-94419421D01*
X88255086Y-94396420D01*
X88096803Y-94315770D01*
X87879660Y-94245215D01*
X87654162Y-94209500D01*
X87654157Y-94209500D01*
X87425843Y-94209500D01*
X87425838Y-94209500D01*
X87200339Y-94245215D01*
X86983196Y-94315770D01*
X86779771Y-94419421D01*
X86595061Y-94553622D01*
X86433622Y-94715061D01*
X86299421Y-94899771D01*
X86195770Y-95103196D01*
X86125215Y-95320339D01*
X86089500Y-95545837D01*
X85500500Y-95545837D01*
X85500500Y-91743713D01*
X88259500Y-91743713D01*
X88259500Y-91956287D01*
X88292754Y-92166243D01*
X88316194Y-92238385D01*
X88358444Y-92368414D01*
X88454951Y-92557820D01*
X88579890Y-92729786D01*
X88730213Y-92880109D01*
X88902179Y-93005048D01*
X88902181Y-93005049D01*
X88902184Y-93005051D01*
X89091588Y-93101557D01*
X89293757Y-93167246D01*
X89503713Y-93200500D01*
X89503714Y-93200500D01*
X89716286Y-93200500D01*
X89716287Y-93200500D01*
X89926243Y-93167246D01*
X90128412Y-93101557D01*
X90317816Y-93005051D01*
X90339789Y-92989086D01*
X90489786Y-92880109D01*
X90489788Y-92880106D01*
X90489792Y-92880104D01*
X90640104Y-92729792D01*
X90640106Y-92729788D01*
X90640109Y-92729786D01*
X90765048Y-92557820D01*
X90765047Y-92557820D01*
X90765051Y-92557816D01*
X90861557Y-92368412D01*
X90927246Y-92166243D01*
X90960500Y-91956287D01*
X90960500Y-91743713D01*
X111119500Y-91743713D01*
X111119500Y-91956287D01*
X111152754Y-92166243D01*
X111176194Y-92238385D01*
X111218444Y-92368414D01*
X111314951Y-92557820D01*
X111439890Y-92729786D01*
X111590213Y-92880109D01*
X111762179Y-93005048D01*
X111762181Y-93005049D01*
X111762184Y-93005051D01*
X111951588Y-93101557D01*
X112153757Y-93167246D01*
X112363713Y-93200500D01*
X112363714Y-93200500D01*
X112576286Y-93200500D01*
X112576287Y-93200500D01*
X112786243Y-93167246D01*
X112988412Y-93101557D01*
X113177816Y-93005051D01*
X113199789Y-92989086D01*
X113349786Y-92880109D01*
X113349788Y-92880106D01*
X113349792Y-92880104D01*
X113500104Y-92729792D01*
X113500106Y-92729788D01*
X113500109Y-92729786D01*
X113625048Y-92557820D01*
X113625047Y-92557820D01*
X113625051Y-92557816D01*
X113721557Y-92368412D01*
X113787246Y-92166243D01*
X113820500Y-91956287D01*
X113820500Y-91743713D01*
X113787246Y-91533757D01*
X113721557Y-91331588D01*
X113625051Y-91142184D01*
X113625049Y-91142181D01*
X113625048Y-91142179D01*
X113500109Y-90970213D01*
X113349786Y-90819890D01*
X113177820Y-90694951D01*
X112988414Y-90598444D01*
X112988413Y-90598443D01*
X112988412Y-90598443D01*
X112786243Y-90532754D01*
X112786241Y-90532753D01*
X112786240Y-90532753D01*
X112624957Y-90507208D01*
X112576287Y-90499500D01*
X112363713Y-90499500D01*
X112315042Y-90507208D01*
X112153760Y-90532753D01*
X111951585Y-90598444D01*
X111762179Y-90694951D01*
X111590213Y-90819890D01*
X111439890Y-90970213D01*
X111314951Y-91142179D01*
X111218444Y-91331585D01*
X111152753Y-91533760D01*
X111131225Y-91669682D01*
X111119500Y-91743713D01*
X90960500Y-91743713D01*
X90927246Y-91533757D01*
X90861557Y-91331588D01*
X90765051Y-91142184D01*
X90765049Y-91142181D01*
X90765048Y-91142179D01*
X90640109Y-90970213D01*
X90489786Y-90819890D01*
X90317820Y-90694951D01*
X90128414Y-90598444D01*
X90128413Y-90598443D01*
X90128412Y-90598443D01*
X89926243Y-90532754D01*
X89926241Y-90532753D01*
X89926240Y-90532753D01*
X89764957Y-90507208D01*
X89716287Y-90499500D01*
X89503713Y-90499500D01*
X89455042Y-90507208D01*
X89293760Y-90532753D01*
X89091585Y-90598444D01*
X88902179Y-90694951D01*
X88730213Y-90819890D01*
X88579890Y-90970213D01*
X88454951Y-91142179D01*
X88358444Y-91331585D01*
X88292753Y-91533760D01*
X88271225Y-91669682D01*
X88259500Y-91743713D01*
X85500500Y-91743713D01*
X85500500Y-86541995D01*
X90239500Y-86541995D01*
X90239500Y-86778004D01*
X90239501Y-86778020D01*
X90270306Y-87012010D01*
X90331394Y-87239993D01*
X90421714Y-87458045D01*
X90421719Y-87458056D01*
X90491456Y-87578842D01*
X90539727Y-87662450D01*
X90539729Y-87662453D01*
X90539730Y-87662454D01*
X90683406Y-87849697D01*
X90683412Y-87849704D01*
X90850295Y-88016587D01*
X90850302Y-88016593D01*
X90919064Y-88069356D01*
X91037550Y-88160273D01*
X91168918Y-88236118D01*
X91241943Y-88278280D01*
X91241948Y-88278282D01*
X91241951Y-88278284D01*
X91460007Y-88368606D01*
X91687986Y-88429693D01*
X91921989Y-88460500D01*
X91921996Y-88460500D01*
X92158004Y-88460500D01*
X92158011Y-88460500D01*
X92392014Y-88429693D01*
X92619993Y-88368606D01*
X92838049Y-88278284D01*
X93042450Y-88160273D01*
X93229699Y-88016592D01*
X93396592Y-87849699D01*
X93540273Y-87662450D01*
X93658284Y-87458049D01*
X93748606Y-87239993D01*
X93809693Y-87012014D01*
X93840500Y-86778011D01*
X93840500Y-86541995D01*
X108239500Y-86541995D01*
X108239500Y-86778004D01*
X108239501Y-86778020D01*
X108270306Y-87012010D01*
X108331394Y-87239993D01*
X108421714Y-87458045D01*
X108421719Y-87458056D01*
X108491456Y-87578842D01*
X108539727Y-87662450D01*
X108539729Y-87662453D01*
X108539730Y-87662454D01*
X108683406Y-87849697D01*
X108683412Y-87849704D01*
X108850295Y-88016587D01*
X108850302Y-88016593D01*
X108919064Y-88069356D01*
X109037550Y-88160273D01*
X109168918Y-88236118D01*
X109241943Y-88278280D01*
X109241948Y-88278282D01*
X109241951Y-88278284D01*
X109460007Y-88368606D01*
X109687986Y-88429693D01*
X109921989Y-88460500D01*
X109921996Y-88460500D01*
X110158004Y-88460500D01*
X110158011Y-88460500D01*
X110392014Y-88429693D01*
X110619993Y-88368606D01*
X110838049Y-88278284D01*
X111042450Y-88160273D01*
X111229699Y-88016592D01*
X111396592Y-87849699D01*
X111540273Y-87662450D01*
X111658284Y-87458049D01*
X111748606Y-87239993D01*
X111809693Y-87012014D01*
X111821654Y-86921158D01*
X116199500Y-86921158D01*
X116199500Y-86929001D01*
X116199500Y-87078846D01*
X116230261Y-87233489D01*
X116230264Y-87233501D01*
X116290602Y-87379172D01*
X116290609Y-87379185D01*
X116378210Y-87510288D01*
X116378213Y-87510292D01*
X116489707Y-87621786D01*
X116489711Y-87621789D01*
X116620814Y-87709390D01*
X116620827Y-87709397D01*
X116736117Y-87757151D01*
X116766503Y-87769737D01*
X116921153Y-87800499D01*
X116921156Y-87800500D01*
X116921158Y-87800500D01*
X117078844Y-87800500D01*
X117078845Y-87800499D01*
X117233497Y-87769737D01*
X117379179Y-87709394D01*
X117510289Y-87621789D01*
X117621789Y-87510289D01*
X117681348Y-87421153D01*
X120699500Y-87421153D01*
X120699500Y-87578846D01*
X120730261Y-87733489D01*
X120730264Y-87733501D01*
X120790602Y-87879172D01*
X120790609Y-87879185D01*
X120878210Y-88010288D01*
X120878213Y-88010292D01*
X120989707Y-88121786D01*
X120989711Y-88121789D01*
X121120814Y-88209390D01*
X121120827Y-88209397D01*
X121266498Y-88269735D01*
X121266503Y-88269737D01*
X121421153Y-88300499D01*
X121421156Y-88300500D01*
X121421158Y-88300500D01*
X121578844Y-88300500D01*
X121578845Y-88300499D01*
X121733497Y-88269737D01*
X121879179Y-88209394D01*
X122010289Y-88121789D01*
X122121789Y-88010289D01*
X122209394Y-87879179D01*
X122269737Y-87733497D01*
X122283079Y-87666417D01*
X122315462Y-87604508D01*
X122316956Y-87602987D01*
X124005276Y-85914669D01*
X124076465Y-85808127D01*
X124125501Y-85689744D01*
X124147561Y-85578842D01*
X124150500Y-85564069D01*
X124150500Y-83504935D01*
X124170185Y-83437896D01*
X124171366Y-83436090D01*
X124209394Y-83379179D01*
X124212719Y-83371153D01*
X124223067Y-83346166D01*
X124269737Y-83233497D01*
X124300500Y-83078842D01*
X124300500Y-82921158D01*
X124300500Y-82921155D01*
X124300499Y-82921153D01*
X124284298Y-82839708D01*
X124269737Y-82766503D01*
X124269735Y-82766498D01*
X124209397Y-82620827D01*
X124209390Y-82620814D01*
X124121789Y-82489711D01*
X124121786Y-82489707D01*
X124010292Y-82378213D01*
X124010288Y-82378210D01*
X123879185Y-82290609D01*
X123879172Y-82290602D01*
X123733501Y-82230264D01*
X123733489Y-82230261D01*
X123578845Y-82199500D01*
X123578842Y-82199500D01*
X123421158Y-82199500D01*
X123421155Y-82199500D01*
X123266510Y-82230261D01*
X123266498Y-82230264D01*
X123120827Y-82290602D01*
X123120814Y-82290609D01*
X122989711Y-82378210D01*
X122989707Y-82378213D01*
X122878213Y-82489707D01*
X122878210Y-82489711D01*
X122790609Y-82620814D01*
X122790602Y-82620827D01*
X122730264Y-82766498D01*
X122730261Y-82766510D01*
X122699500Y-82921153D01*
X122699500Y-83078846D01*
X122730261Y-83233489D01*
X122730264Y-83233501D01*
X122790602Y-83379172D01*
X122790606Y-83379179D01*
X122828602Y-83436044D01*
X122849480Y-83502721D01*
X122849500Y-83504935D01*
X122849500Y-85179192D01*
X122829815Y-85246231D01*
X122813181Y-85266873D01*
X121397069Y-86682984D01*
X121335746Y-86716469D01*
X121333580Y-86716920D01*
X121266508Y-86730261D01*
X121266498Y-86730264D01*
X121120827Y-86790602D01*
X121120814Y-86790609D01*
X120989711Y-86878210D01*
X120989707Y-86878213D01*
X120878213Y-86989707D01*
X120878210Y-86989711D01*
X120790609Y-87120814D01*
X120790602Y-87120827D01*
X120730264Y-87266498D01*
X120730261Y-87266510D01*
X120699500Y-87421153D01*
X117681348Y-87421153D01*
X117709394Y-87379179D01*
X117769737Y-87233497D01*
X117779508Y-87184373D01*
X117811892Y-87122464D01*
X117872607Y-87087890D01*
X117942377Y-87091629D01*
X117984696Y-87118295D01*
X117985001Y-87117924D01*
X117987957Y-87120350D01*
X117988806Y-87120885D01*
X117989707Y-87121786D01*
X117989711Y-87121789D01*
X118120814Y-87209390D01*
X118120827Y-87209397D01*
X118258683Y-87266498D01*
X118266503Y-87269737D01*
X118421153Y-87300499D01*
X118421156Y-87300500D01*
X118421158Y-87300500D01*
X118578844Y-87300500D01*
X118578845Y-87300499D01*
X118589179Y-87298443D01*
X118614287Y-87293450D01*
X118614292Y-87293449D01*
X118699800Y-87276439D01*
X118733497Y-87269737D01*
X118879179Y-87209394D01*
X119010289Y-87121789D01*
X119121789Y-87010289D01*
X119209394Y-86879179D01*
X119269737Y-86733497D01*
X119300500Y-86578842D01*
X119300500Y-86421158D01*
X119300500Y-86421155D01*
X119300499Y-86421153D01*
X119277989Y-86307989D01*
X119269737Y-86266503D01*
X119269735Y-86266498D01*
X119209397Y-86120828D01*
X119209396Y-86120827D01*
X119209394Y-86120821D01*
X119171396Y-86063953D01*
X119150520Y-85997276D01*
X119150500Y-85995064D01*
X119150500Y-84820807D01*
X119170185Y-84753768D01*
X119186815Y-84733130D01*
X119829946Y-84089998D01*
X119870176Y-84063119D01*
X119879179Y-84059391D01*
X120010289Y-83971786D01*
X120121789Y-83860286D01*
X120209394Y-83729176D01*
X120269737Y-83583494D01*
X120300500Y-83428839D01*
X120300500Y-83271155D01*
X120300500Y-83271152D01*
X120300499Y-83271150D01*
X120289628Y-83216498D01*
X120269737Y-83116500D01*
X120269735Y-83116495D01*
X120209397Y-82970824D01*
X120209390Y-82970811D01*
X120121789Y-82839708D01*
X120121786Y-82839704D01*
X120010292Y-82728210D01*
X120010288Y-82728207D01*
X119879185Y-82640606D01*
X119879172Y-82640599D01*
X119733501Y-82580261D01*
X119733489Y-82580258D01*
X119578845Y-82549497D01*
X119578842Y-82549497D01*
X119424500Y-82549497D01*
X119357461Y-82529812D01*
X119311706Y-82477008D01*
X119300500Y-82425497D01*
X119300500Y-82421155D01*
X119300499Y-82421153D01*
X119285673Y-82346617D01*
X119269737Y-82266503D01*
X119269735Y-82266498D01*
X119209397Y-82120827D01*
X119209390Y-82120814D01*
X119121789Y-81989711D01*
X119121786Y-81989707D01*
X119010292Y-81878213D01*
X119010288Y-81878210D01*
X118879185Y-81790609D01*
X118879172Y-81790602D01*
X118733501Y-81730264D01*
X118733489Y-81730261D01*
X118578845Y-81699500D01*
X118578842Y-81699500D01*
X118421158Y-81699500D01*
X118421155Y-81699500D01*
X118266510Y-81730261D01*
X118266498Y-81730264D01*
X118120827Y-81790602D01*
X118120814Y-81790609D01*
X117989711Y-81878210D01*
X117989707Y-81878213D01*
X117878213Y-81989707D01*
X117878207Y-81989715D01*
X117790607Y-82120818D01*
X117790605Y-82120822D01*
X117780805Y-82144480D01*
X117753927Y-82184704D01*
X116417052Y-83521578D01*
X116417049Y-83521581D01*
X116388660Y-83564068D01*
X116388661Y-83564069D01*
X116334914Y-83644508D01*
X116278343Y-83781082D01*
X116278340Y-83781092D01*
X116249500Y-83926079D01*
X116249500Y-86695396D01*
X116248049Y-86702687D01*
X116246408Y-86722916D01*
X116244079Y-86733147D01*
X116230263Y-86766503D01*
X116199500Y-86921158D01*
X111821654Y-86921158D01*
X111840500Y-86778011D01*
X111840500Y-86541989D01*
X111809693Y-86307986D01*
X111748606Y-86080007D01*
X111658284Y-85861951D01*
X111658282Y-85861948D01*
X111658280Y-85861943D01*
X111604876Y-85769446D01*
X111540273Y-85657550D01*
X111441910Y-85529361D01*
X111396593Y-85470302D01*
X111396587Y-85470295D01*
X111229704Y-85303412D01*
X111229697Y-85303406D01*
X111042454Y-85159730D01*
X111042453Y-85159729D01*
X111042450Y-85159727D01*
X110952995Y-85108080D01*
X110838056Y-85041719D01*
X110838045Y-85041714D01*
X110619993Y-84951394D01*
X110609681Y-84948631D01*
X110392014Y-84890307D01*
X110392013Y-84890306D01*
X110392010Y-84890306D01*
X110158020Y-84859501D01*
X110158017Y-84859500D01*
X110158011Y-84859500D01*
X109921989Y-84859500D01*
X109921983Y-84859500D01*
X109921979Y-84859501D01*
X109687989Y-84890306D01*
X109460006Y-84951394D01*
X109241954Y-85041714D01*
X109241943Y-85041719D01*
X109037545Y-85159730D01*
X108850302Y-85303406D01*
X108850295Y-85303412D01*
X108683412Y-85470295D01*
X108683406Y-85470302D01*
X108539730Y-85657545D01*
X108421719Y-85861943D01*
X108421714Y-85861954D01*
X108331394Y-86080006D01*
X108270306Y-86307989D01*
X108239501Y-86541979D01*
X108239500Y-86541995D01*
X93840500Y-86541995D01*
X93840500Y-86541989D01*
X93809693Y-86307986D01*
X93748606Y-86080007D01*
X93658284Y-85861951D01*
X93658282Y-85861948D01*
X93658280Y-85861943D01*
X93604876Y-85769446D01*
X93540273Y-85657550D01*
X93441910Y-85529361D01*
X93396593Y-85470302D01*
X93396587Y-85470295D01*
X93229704Y-85303412D01*
X93229697Y-85303406D01*
X93042454Y-85159730D01*
X93042453Y-85159729D01*
X93042450Y-85159727D01*
X92952995Y-85108080D01*
X92838056Y-85041719D01*
X92838045Y-85041714D01*
X92619993Y-84951394D01*
X92609681Y-84948631D01*
X92392014Y-84890307D01*
X92392013Y-84890306D01*
X92392010Y-84890306D01*
X92158020Y-84859501D01*
X92158017Y-84859500D01*
X92158011Y-84859500D01*
X91921989Y-84859500D01*
X91921983Y-84859500D01*
X91921979Y-84859501D01*
X91687989Y-84890306D01*
X91460006Y-84951394D01*
X91241954Y-85041714D01*
X91241943Y-85041719D01*
X91037545Y-85159730D01*
X90850302Y-85303406D01*
X90850295Y-85303412D01*
X90683412Y-85470295D01*
X90683406Y-85470302D01*
X90539730Y-85657545D01*
X90421719Y-85861943D01*
X90421714Y-85861954D01*
X90331394Y-86080006D01*
X90270306Y-86307989D01*
X90239501Y-86541979D01*
X90239500Y-86541995D01*
X85500500Y-86541995D01*
X85500500Y-78502706D01*
X85500618Y-78497297D01*
X85507857Y-78331491D01*
X86999500Y-78331491D01*
X86999500Y-78668508D01*
X87037231Y-79003381D01*
X87037233Y-79003397D01*
X87112223Y-79331953D01*
X87112227Y-79331965D01*
X87223532Y-79650054D01*
X87369752Y-79953683D01*
X87369754Y-79953686D01*
X87549054Y-80239039D01*
X87759175Y-80502523D01*
X87997477Y-80740825D01*
X88260961Y-80950946D01*
X88546314Y-81130246D01*
X88849949Y-81276469D01*
X89088848Y-81360063D01*
X89168034Y-81387772D01*
X89168046Y-81387776D01*
X89496606Y-81462767D01*
X89831492Y-81500499D01*
X89831493Y-81500500D01*
X89831496Y-81500500D01*
X90168507Y-81500500D01*
X90168507Y-81500499D01*
X90503394Y-81462767D01*
X90831954Y-81387776D01*
X91150051Y-81276469D01*
X91453686Y-81130246D01*
X91739039Y-80950946D01*
X92002523Y-80740825D01*
X92240825Y-80502523D01*
X92450946Y-80239039D01*
X92630246Y-79953686D01*
X92776469Y-79650051D01*
X92856564Y-79421153D01*
X122199500Y-79421153D01*
X122199500Y-79578846D01*
X122230261Y-79733489D01*
X122230264Y-79733501D01*
X122290602Y-79879172D01*
X122290609Y-79879185D01*
X122378210Y-80010288D01*
X122378213Y-80010292D01*
X122489707Y-80121786D01*
X122489711Y-80121789D01*
X122620814Y-80209390D01*
X122620827Y-80209397D01*
X122766498Y-80269735D01*
X122766503Y-80269737D01*
X122921153Y-80300499D01*
X122921156Y-80300500D01*
X122921158Y-80300500D01*
X123078844Y-80300500D01*
X123078845Y-80300499D01*
X123233497Y-80269737D01*
X123379179Y-80209394D01*
X123510289Y-80121789D01*
X123621789Y-80010289D01*
X123709394Y-79879179D01*
X123719191Y-79855524D01*
X123746069Y-79815297D01*
X124525548Y-79035819D01*
X124586871Y-79002334D01*
X124613229Y-78999500D01*
X132081954Y-78999500D01*
X132148993Y-79019185D01*
X132194748Y-79071989D01*
X132203571Y-79099309D01*
X132230261Y-79233489D01*
X132230264Y-79233501D01*
X132290602Y-79379172D01*
X132290609Y-79379185D01*
X132378210Y-79510288D01*
X132378213Y-79510292D01*
X132489707Y-79621786D01*
X132489711Y-79621789D01*
X132620814Y-79709390D01*
X132620827Y-79709397D01*
X132720060Y-79750500D01*
X132766503Y-79769737D01*
X132921153Y-79800499D01*
X132921156Y-79800500D01*
X132921158Y-79800500D01*
X133078844Y-79800500D01*
X133078845Y-79800499D01*
X133155152Y-79785320D01*
X133233488Y-79769739D01*
X133233489Y-79769738D01*
X133233497Y-79769737D01*
X133257155Y-79759937D01*
X133304604Y-79750500D01*
X146877770Y-79750500D01*
X146944809Y-79770185D01*
X146965451Y-79786819D01*
X149607413Y-82428780D01*
X149640898Y-82490103D01*
X149637924Y-82549660D01*
X149638852Y-82549883D01*
X149637714Y-82554622D01*
X149603500Y-82770638D01*
X149603500Y-82989361D01*
X149637714Y-83205376D01*
X149705297Y-83413380D01*
X149705298Y-83413383D01*
X149760431Y-83521585D01*
X149791971Y-83583486D01*
X149804595Y-83608260D01*
X149933142Y-83785193D01*
X150087802Y-83939853D01*
X150087807Y-83939857D01*
X150239394Y-84049991D01*
X150282060Y-84105320D01*
X150288039Y-84174934D01*
X150255434Y-84236729D01*
X150239394Y-84250627D01*
X150088133Y-84360524D01*
X150088128Y-84360528D01*
X149933528Y-84515128D01*
X149933524Y-84515133D01*
X149805023Y-84692001D01*
X149705762Y-84886808D01*
X149705761Y-84886811D01*
X149638201Y-85094741D01*
X149626282Y-85170000D01*
X150677749Y-85170000D01*
X150646619Y-85223919D01*
X150612000Y-85353120D01*
X150612000Y-85486880D01*
X150646619Y-85616081D01*
X150677749Y-85670000D01*
X149626282Y-85670000D01*
X149638201Y-85745258D01*
X149705761Y-85953188D01*
X149705762Y-85953191D01*
X149805023Y-86147998D01*
X149933524Y-86324866D01*
X149933528Y-86324871D01*
X150088128Y-86479471D01*
X150088133Y-86479475D01*
X150239394Y-86589372D01*
X150282060Y-86644701D01*
X150288039Y-86714315D01*
X150255434Y-86776110D01*
X150239394Y-86790008D01*
X150087807Y-86900142D01*
X150087802Y-86900146D01*
X149933142Y-87054806D01*
X149804595Y-87231739D01*
X149705298Y-87426616D01*
X149705297Y-87426619D01*
X149637714Y-87634623D01*
X149603500Y-87850638D01*
X149603500Y-88069361D01*
X149637714Y-88285376D01*
X149705297Y-88493380D01*
X149705298Y-88493383D01*
X149772404Y-88625083D01*
X149801231Y-88681659D01*
X149804595Y-88688260D01*
X149933142Y-88865193D01*
X150087806Y-89019857D01*
X150238969Y-89129682D01*
X150281635Y-89185011D01*
X150287614Y-89254625D01*
X150255009Y-89316420D01*
X150238969Y-89330318D01*
X150087806Y-89440142D01*
X149933142Y-89594806D01*
X149804595Y-89771739D01*
X149705298Y-89966616D01*
X149705297Y-89966619D01*
X149637714Y-90174623D01*
X149603500Y-90390638D01*
X149603500Y-90609361D01*
X149637714Y-90825375D01*
X149638853Y-90830121D01*
X149637810Y-90830371D01*
X149639658Y-90895060D01*
X149607413Y-90951218D01*
X141885451Y-98673181D01*
X141824128Y-98706666D01*
X141797770Y-98709500D01*
X137447139Y-98709500D01*
X137380100Y-98689815D01*
X137334345Y-98637011D01*
X137324401Y-98567853D01*
X137329208Y-98547183D01*
X137362285Y-98445378D01*
X137362284Y-98445378D01*
X137362286Y-98445375D01*
X137382943Y-98314951D01*
X137396500Y-98229361D01*
X137396500Y-98010638D01*
X137365559Y-97815293D01*
X137362286Y-97794625D01*
X137299047Y-97599992D01*
X137294702Y-97586619D01*
X137294701Y-97586616D01*
X137244005Y-97487121D01*
X137195407Y-97391743D01*
X137151034Y-97330668D01*
X137066857Y-97214806D01*
X136912199Y-97060148D01*
X136908264Y-97057289D01*
X136761028Y-96950316D01*
X136718364Y-96894989D01*
X136712385Y-96825376D01*
X136744990Y-96763580D01*
X136761023Y-96749686D01*
X136912199Y-96639852D01*
X137066852Y-96485199D01*
X137066854Y-96485195D01*
X137066857Y-96485193D01*
X137123229Y-96407601D01*
X137195407Y-96308257D01*
X137294701Y-96113383D01*
X137362286Y-95905375D01*
X137386895Y-95749999D01*
X137396500Y-95689361D01*
X137396500Y-95470638D01*
X137366843Y-95283397D01*
X137362286Y-95254625D01*
X137313086Y-95103201D01*
X137294702Y-95046619D01*
X137294701Y-95046616D01*
X137260315Y-94979132D01*
X137195407Y-94851743D01*
X137176762Y-94826080D01*
X137066857Y-94674806D01*
X136912199Y-94520148D01*
X136891293Y-94504959D01*
X136761028Y-94410316D01*
X136718364Y-94354989D01*
X136712385Y-94285376D01*
X136744990Y-94223580D01*
X136761023Y-94209686D01*
X136912199Y-94099852D01*
X137066852Y-93945199D01*
X137066854Y-93945195D01*
X137066857Y-93945193D01*
X137126581Y-93862989D01*
X137195407Y-93768257D01*
X137294701Y-93573383D01*
X137362286Y-93365375D01*
X137379912Y-93254082D01*
X137396500Y-93149361D01*
X137396500Y-92930638D01*
X137364687Y-92729786D01*
X137362286Y-92714625D01*
X137311338Y-92557820D01*
X137294702Y-92506619D01*
X137294701Y-92506616D01*
X137260315Y-92439132D01*
X137195407Y-92311743D01*
X137142110Y-92238385D01*
X137066857Y-92134806D01*
X136912199Y-91980148D01*
X136879357Y-91956287D01*
X136761028Y-91870316D01*
X136718364Y-91814989D01*
X136712385Y-91745376D01*
X136744990Y-91683580D01*
X136761023Y-91669686D01*
X136912199Y-91559852D01*
X137066852Y-91405199D01*
X137066854Y-91405195D01*
X137066857Y-91405193D01*
X137123229Y-91327601D01*
X137195407Y-91228257D01*
X137294701Y-91033383D01*
X137362286Y-90825375D01*
X137382943Y-90694951D01*
X137396500Y-90609361D01*
X137396500Y-90390638D01*
X137371098Y-90230261D01*
X137362286Y-90174625D01*
X137294701Y-89966617D01*
X137294701Y-89966616D01*
X137260315Y-89899132D01*
X137195407Y-89771743D01*
X137187147Y-89760374D01*
X137066857Y-89594806D01*
X136912199Y-89440148D01*
X136912191Y-89440142D01*
X136761028Y-89330316D01*
X136718364Y-89274989D01*
X136712385Y-89205376D01*
X136744990Y-89143580D01*
X136761023Y-89129686D01*
X136912199Y-89019852D01*
X137066852Y-88865199D01*
X137066854Y-88865195D01*
X137066857Y-88865193D01*
X137123229Y-88787601D01*
X137195407Y-88688257D01*
X137294701Y-88493383D01*
X137362286Y-88285375D01*
X137382101Y-88160269D01*
X137396500Y-88069361D01*
X137396500Y-87850638D01*
X137374128Y-87709394D01*
X137362286Y-87634625D01*
X137304914Y-87458049D01*
X137294702Y-87426619D01*
X137294701Y-87426616D01*
X137237978Y-87315293D01*
X137195407Y-87231743D01*
X137142110Y-87158385D01*
X137066857Y-87054806D01*
X136912199Y-86900148D01*
X136887864Y-86882468D01*
X136761028Y-86790316D01*
X136718364Y-86734989D01*
X136712385Y-86665376D01*
X136744990Y-86603580D01*
X136761023Y-86589686D01*
X136912199Y-86479852D01*
X137066852Y-86325199D01*
X137066854Y-86325195D01*
X137066857Y-86325193D01*
X137137013Y-86228630D01*
X137195407Y-86148257D01*
X137294701Y-85953383D01*
X137362286Y-85745375D01*
X137388662Y-85578845D01*
X137396500Y-85529361D01*
X137396500Y-85310638D01*
X137374224Y-85170000D01*
X137362286Y-85094625D01*
X137314197Y-84946619D01*
X137294702Y-84886619D01*
X137294701Y-84886616D01*
X137260315Y-84819132D01*
X137195407Y-84691743D01*
X137121376Y-84589847D01*
X137066857Y-84514806D01*
X136912199Y-84360148D01*
X136878784Y-84335871D01*
X136761028Y-84250316D01*
X136718364Y-84194989D01*
X136712385Y-84125376D01*
X136744990Y-84063580D01*
X136761023Y-84049686D01*
X136912199Y-83939852D01*
X137066852Y-83785199D01*
X137066854Y-83785195D01*
X137066857Y-83785193D01*
X137169071Y-83644505D01*
X137195407Y-83608257D01*
X137294701Y-83413383D01*
X137362286Y-83205375D01*
X137383597Y-83070821D01*
X137396500Y-82989361D01*
X137396500Y-82770638D01*
X137372769Y-82620814D01*
X137362286Y-82554625D01*
X137304967Y-82378213D01*
X137294702Y-82346619D01*
X137294701Y-82346616D01*
X137253884Y-82266510D01*
X137195407Y-82151743D01*
X137173642Y-82121786D01*
X137066857Y-81974806D01*
X136912193Y-81820142D01*
X136735260Y-81691595D01*
X136735259Y-81691594D01*
X136735257Y-81691593D01*
X136672825Y-81659782D01*
X136540383Y-81592298D01*
X136540380Y-81592297D01*
X136332376Y-81524714D01*
X136116361Y-81490500D01*
X136116356Y-81490500D01*
X134119644Y-81490500D01*
X134119639Y-81490500D01*
X133903623Y-81524714D01*
X133695619Y-81592297D01*
X133695616Y-81592298D01*
X133500739Y-81691595D01*
X133323806Y-81820142D01*
X133169142Y-81974806D01*
X133040595Y-82151739D01*
X132941298Y-82346616D01*
X132941297Y-82346619D01*
X132873714Y-82554623D01*
X132839500Y-82770638D01*
X132839500Y-82989361D01*
X132873714Y-83205376D01*
X132941297Y-83413380D01*
X132941298Y-83413383D01*
X132996431Y-83521585D01*
X133027971Y-83583486D01*
X133040595Y-83608260D01*
X133169142Y-83785193D01*
X133323806Y-83939857D01*
X133474969Y-84049682D01*
X133517635Y-84105011D01*
X133523614Y-84174625D01*
X133491009Y-84236420D01*
X133474969Y-84250318D01*
X133323808Y-84360141D01*
X133210339Y-84473610D01*
X133149016Y-84507094D01*
X133079324Y-84502110D01*
X133034977Y-84473609D01*
X129746071Y-81184703D01*
X129719191Y-81144475D01*
X129709394Y-81120821D01*
X129709389Y-81120814D01*
X129621789Y-80989710D01*
X129510292Y-80878213D01*
X129510288Y-80878210D01*
X129379185Y-80790609D01*
X129379172Y-80790602D01*
X129233501Y-80730264D01*
X129233489Y-80730261D01*
X129078845Y-80699500D01*
X129078842Y-80699500D01*
X128921158Y-80699500D01*
X128921155Y-80699500D01*
X128766510Y-80730261D01*
X128766498Y-80730264D01*
X128620827Y-80790602D01*
X128620814Y-80790609D01*
X128489711Y-80878210D01*
X128489707Y-80878213D01*
X128378213Y-80989707D01*
X128378210Y-80989711D01*
X128290609Y-81120814D01*
X128290602Y-81120827D01*
X128230264Y-81266498D01*
X128230261Y-81266510D01*
X128199500Y-81421153D01*
X128199500Y-81578846D01*
X128230261Y-81733489D01*
X128230264Y-81733501D01*
X128290602Y-81879172D01*
X128290609Y-81879185D01*
X128378210Y-82010288D01*
X128378213Y-82010292D01*
X128489707Y-82121786D01*
X128527289Y-82146898D01*
X128572093Y-82200511D01*
X128580800Y-82269836D01*
X128550645Y-82332863D01*
X128527289Y-82353102D01*
X128489707Y-82378213D01*
X128378213Y-82489707D01*
X128378210Y-82489711D01*
X128301775Y-82604104D01*
X128248163Y-82648909D01*
X128222865Y-82656830D01*
X128105071Y-82680261D01*
X128105061Y-82680264D01*
X127959390Y-82740602D01*
X127959377Y-82740609D01*
X127828274Y-82828210D01*
X127828270Y-82828213D01*
X127716776Y-82939707D01*
X127716773Y-82939711D01*
X127629172Y-83070814D01*
X127629165Y-83070827D01*
X127568827Y-83216498D01*
X127568824Y-83216510D01*
X127538063Y-83371153D01*
X127538063Y-83528846D01*
X127568824Y-83683489D01*
X127568827Y-83683501D01*
X127631500Y-83834807D01*
X127629893Y-83835472D01*
X127642452Y-83895788D01*
X127617452Y-83961032D01*
X127606533Y-83973519D01*
X126494724Y-85085328D01*
X126451179Y-85150498D01*
X126451180Y-85150499D01*
X126423534Y-85191874D01*
X126374499Y-85310255D01*
X126374497Y-85310261D01*
X126349500Y-85435928D01*
X126349500Y-85435931D01*
X126349500Y-102564069D01*
X126349500Y-102564071D01*
X126349499Y-102564071D01*
X126374497Y-102689738D01*
X126374499Y-102689744D01*
X126416277Y-102790606D01*
X126423535Y-102808127D01*
X126494723Y-102914669D01*
X126494726Y-102914673D01*
X126494727Y-102914674D01*
X127182984Y-103602930D01*
X127216469Y-103664253D01*
X127216920Y-103666420D01*
X127230261Y-103733489D01*
X127230264Y-103733501D01*
X127290602Y-103879172D01*
X127290609Y-103879185D01*
X127378210Y-104010288D01*
X127378213Y-104010292D01*
X127489707Y-104121786D01*
X127489711Y-104121789D01*
X127620814Y-104209390D01*
X127620827Y-104209397D01*
X127694066Y-104239733D01*
X127766503Y-104269737D01*
X127921153Y-104300499D01*
X127921156Y-104300500D01*
X127921158Y-104300500D01*
X128078844Y-104300500D01*
X128078845Y-104300499D01*
X128233497Y-104269737D01*
X128379179Y-104209394D01*
X128510289Y-104121789D01*
X128621789Y-104010289D01*
X128709394Y-103879179D01*
X128769737Y-103733497D01*
X128800500Y-103578842D01*
X128800500Y-103421158D01*
X128800500Y-103421155D01*
X128800499Y-103421153D01*
X128776711Y-103301565D01*
X128769737Y-103266503D01*
X128769735Y-103266498D01*
X128709397Y-103120827D01*
X128709390Y-103120814D01*
X128621789Y-102989711D01*
X128621786Y-102989707D01*
X128510292Y-102878213D01*
X128510288Y-102878210D01*
X128379185Y-102790609D01*
X128379172Y-102790602D01*
X128233501Y-102730264D01*
X128233489Y-102730261D01*
X128166420Y-102716920D01*
X128104509Y-102684535D01*
X128102930Y-102682984D01*
X127686819Y-102266873D01*
X127653334Y-102205550D01*
X127650500Y-102179192D01*
X127650500Y-94774316D01*
X127670185Y-94707277D01*
X127722989Y-94661522D01*
X127792147Y-94651578D01*
X127855703Y-94680603D01*
X127877600Y-94705422D01*
X127884042Y-94715063D01*
X127917048Y-94764462D01*
X133195540Y-100042954D01*
X133225012Y-100062645D01*
X133269224Y-100092186D01*
X133318459Y-100125084D01*
X133318460Y-100125084D01*
X133318461Y-100125085D01*
X133318463Y-100125086D01*
X133445775Y-100177820D01*
X133455041Y-100181658D01*
X133455045Y-100181658D01*
X133455046Y-100181659D01*
X133600033Y-100210500D01*
X133600036Y-100210500D01*
X142233920Y-100210500D01*
X142331462Y-100191096D01*
X142378913Y-100181658D01*
X142515495Y-100125084D01*
X142564729Y-100092186D01*
X142564734Y-100092183D01*
X142589071Y-100075921D01*
X142638416Y-100042952D01*
X149421643Y-93259723D01*
X149482964Y-93226240D01*
X149552656Y-93231224D01*
X149608589Y-93273096D01*
X149631795Y-93328007D01*
X149637714Y-93365376D01*
X149705297Y-93573380D01*
X149705298Y-93573383D01*
X149804595Y-93768260D01*
X149933142Y-93945193D01*
X150087806Y-94099857D01*
X150238969Y-94209682D01*
X150281635Y-94265011D01*
X150287614Y-94334625D01*
X150255009Y-94396420D01*
X150238969Y-94410318D01*
X150087806Y-94520142D01*
X149933142Y-94674806D01*
X149804595Y-94851739D01*
X149705298Y-95046616D01*
X149705297Y-95046619D01*
X149637714Y-95254623D01*
X149603500Y-95470638D01*
X149603500Y-95689361D01*
X149637714Y-95905376D01*
X149705297Y-96113380D01*
X149705298Y-96113383D01*
X149804595Y-96308260D01*
X149933142Y-96485193D01*
X150087806Y-96639857D01*
X150238969Y-96749682D01*
X150281635Y-96805011D01*
X150287614Y-96874625D01*
X150255009Y-96936420D01*
X150238969Y-96950318D01*
X150087806Y-97060142D01*
X149933142Y-97214806D01*
X149804595Y-97391739D01*
X149705298Y-97586616D01*
X149705297Y-97586619D01*
X149637714Y-97794623D01*
X149603500Y-98010638D01*
X149603500Y-98229361D01*
X149637714Y-98445376D01*
X149705297Y-98653380D01*
X149705298Y-98653383D01*
X149732448Y-98706666D01*
X149789510Y-98818656D01*
X149804595Y-98848260D01*
X149933142Y-99025193D01*
X150087806Y-99179857D01*
X150253374Y-99300147D01*
X150264743Y-99308407D01*
X150392132Y-99373315D01*
X150459616Y-99407701D01*
X150459619Y-99407702D01*
X150563621Y-99441493D01*
X150667625Y-99475286D01*
X150767672Y-99491132D01*
X150883639Y-99509500D01*
X150883644Y-99509500D01*
X152880361Y-99509500D01*
X152985082Y-99492912D01*
X153096375Y-99475286D01*
X153304383Y-99407701D01*
X153499257Y-99308407D01*
X153598601Y-99236229D01*
X153676193Y-99179857D01*
X153676195Y-99179854D01*
X153676199Y-99179852D01*
X153830852Y-99025199D01*
X153830854Y-99025195D01*
X153830857Y-99025193D01*
X153890783Y-98942710D01*
X153959407Y-98848257D01*
X154058701Y-98653383D01*
X154126286Y-98445375D01*
X154146943Y-98314951D01*
X154160500Y-98229361D01*
X154160500Y-98010638D01*
X154129559Y-97815293D01*
X154126286Y-97794625D01*
X154063047Y-97599992D01*
X154058702Y-97586619D01*
X154058701Y-97586616D01*
X154008005Y-97487121D01*
X153959407Y-97391743D01*
X153915034Y-97330668D01*
X153830857Y-97214806D01*
X153676199Y-97060148D01*
X153672264Y-97057289D01*
X153525028Y-96950316D01*
X153482364Y-96894989D01*
X153476385Y-96825376D01*
X153508990Y-96763580D01*
X153525023Y-96749686D01*
X153676199Y-96639852D01*
X153830852Y-96485199D01*
X153830854Y-96485195D01*
X153830857Y-96485193D01*
X153887229Y-96407601D01*
X153959407Y-96308257D01*
X154058701Y-96113383D01*
X154079500Y-96049370D01*
X154122106Y-95918241D01*
X154161543Y-95860565D01*
X154225901Y-95833366D01*
X154294748Y-95845280D01*
X154343139Y-95887667D01*
X154377049Y-95938418D01*
X154377052Y-95938421D01*
X156253926Y-97815293D01*
X156280805Y-97855519D01*
X156290603Y-97879172D01*
X156290606Y-97879178D01*
X156290609Y-97879185D01*
X156378210Y-98010288D01*
X156378213Y-98010292D01*
X156489707Y-98121786D01*
X156489711Y-98121789D01*
X156620814Y-98209390D01*
X156620827Y-98209397D01*
X156766498Y-98269735D01*
X156766503Y-98269737D01*
X156921153Y-98300499D01*
X156921156Y-98300500D01*
X156921158Y-98300500D01*
X157078844Y-98300500D01*
X157078845Y-98300499D01*
X157233497Y-98269737D01*
X157379179Y-98209394D01*
X157510289Y-98121789D01*
X157621789Y-98010289D01*
X157709394Y-97879179D01*
X157769737Y-97733497D01*
X157796295Y-97599983D01*
X158074500Y-97599983D01*
X158074500Y-98400001D01*
X158074501Y-98400019D01*
X158085000Y-98502796D01*
X158085001Y-98502799D01*
X158099709Y-98547183D01*
X158140186Y-98669334D01*
X158232288Y-98818656D01*
X158356344Y-98942712D01*
X158505666Y-99034814D01*
X158672203Y-99089999D01*
X158774991Y-99100500D01*
X160125008Y-99100499D01*
X160227797Y-99089999D01*
X160394334Y-99034814D01*
X160543656Y-98942712D01*
X160667712Y-98818656D01*
X160759814Y-98669334D01*
X160814999Y-98502797D01*
X160825500Y-98400009D01*
X160825499Y-97599992D01*
X160823338Y-97578841D01*
X160814999Y-97497203D01*
X160814998Y-97497200D01*
X160780053Y-97391743D01*
X160759814Y-97330666D01*
X160667712Y-97181344D01*
X160543656Y-97057288D01*
X160543655Y-97057287D01*
X160479019Y-97017420D01*
X160432294Y-96965472D01*
X160421071Y-96896510D01*
X160448914Y-96832428D01*
X160456434Y-96824199D01*
X160564035Y-96716598D01*
X160665804Y-96576524D01*
X160744408Y-96422255D01*
X160797914Y-96257584D01*
X160799115Y-96250000D01*
X159730330Y-96250000D01*
X159750075Y-96230255D01*
X159799444Y-96144745D01*
X159825000Y-96049370D01*
X159825000Y-95950630D01*
X159799444Y-95855255D01*
X159750075Y-95769745D01*
X159730330Y-95750000D01*
X160799115Y-95750000D01*
X160799115Y-95749999D01*
X160797914Y-95742415D01*
X160744408Y-95577744D01*
X160665804Y-95423475D01*
X160564032Y-95283397D01*
X160441602Y-95160967D01*
X160301524Y-95059195D01*
X160147257Y-94980591D01*
X159982584Y-94927085D01*
X159811571Y-94900000D01*
X159700000Y-94900000D01*
X159700000Y-95719670D01*
X159680255Y-95699925D01*
X159594745Y-95650556D01*
X159499370Y-95625000D01*
X159400630Y-95625000D01*
X159305255Y-95650556D01*
X159219745Y-95699925D01*
X159200000Y-95719670D01*
X159200000Y-94900000D01*
X159088429Y-94900000D01*
X158917415Y-94927085D01*
X158752742Y-94980591D01*
X158598475Y-95059195D01*
X158458397Y-95160967D01*
X158335967Y-95283397D01*
X158234195Y-95423475D01*
X158155591Y-95577744D01*
X158102085Y-95742415D01*
X158100884Y-95749999D01*
X158100885Y-95750000D01*
X159169670Y-95750000D01*
X159149925Y-95769745D01*
X159100556Y-95855255D01*
X159075000Y-95950630D01*
X159075000Y-96049370D01*
X159100556Y-96144745D01*
X159149925Y-96230255D01*
X159169670Y-96250000D01*
X158100885Y-96250000D01*
X158102085Y-96257584D01*
X158155591Y-96422255D01*
X158234195Y-96576524D01*
X158335967Y-96716602D01*
X158443565Y-96824200D01*
X158477050Y-96885523D01*
X158472066Y-96955215D01*
X158430194Y-97011148D01*
X158420981Y-97017420D01*
X158356342Y-97057289D01*
X158232289Y-97181342D01*
X158140187Y-97330663D01*
X158140186Y-97330666D01*
X158085001Y-97497203D01*
X158085001Y-97497204D01*
X158085000Y-97497204D01*
X158074500Y-97599983D01*
X157796295Y-97599983D01*
X157800499Y-97578849D01*
X157800500Y-97578841D01*
X157800500Y-97421155D01*
X157800499Y-97421153D01*
X157769738Y-97266510D01*
X157769737Y-97266503D01*
X157748324Y-97214806D01*
X157709397Y-97120827D01*
X157709390Y-97120814D01*
X157621789Y-96989711D01*
X157621786Y-96989707D01*
X157510292Y-96878213D01*
X157510288Y-96878210D01*
X157379185Y-96790609D01*
X157379180Y-96790607D01*
X157379179Y-96790606D01*
X157355519Y-96780805D01*
X157315293Y-96753926D01*
X156436114Y-95874746D01*
X155746819Y-95185451D01*
X155713334Y-95124128D01*
X155710500Y-95097770D01*
X155710500Y-93402228D01*
X155730185Y-93335189D01*
X155746814Y-93314552D01*
X157315295Y-91746070D01*
X157355519Y-91719193D01*
X157379179Y-91709394D01*
X157510289Y-91621789D01*
X157621789Y-91510289D01*
X157709394Y-91379179D01*
X157769737Y-91233497D01*
X157800500Y-91078842D01*
X157800500Y-90921158D01*
X157800500Y-90921155D01*
X157800499Y-90921153D01*
X157782391Y-90830121D01*
X157769737Y-90766503D01*
X157769735Y-90766498D01*
X157709397Y-90620827D01*
X157709390Y-90620814D01*
X157621789Y-90489711D01*
X157621786Y-90489707D01*
X157510292Y-90378213D01*
X157510288Y-90378210D01*
X157379185Y-90290609D01*
X157379172Y-90290602D01*
X157233501Y-90230264D01*
X157233489Y-90230261D01*
X157078845Y-90199500D01*
X157078842Y-90199500D01*
X156921158Y-90199500D01*
X156921155Y-90199500D01*
X156766510Y-90230261D01*
X156766498Y-90230264D01*
X156620827Y-90290602D01*
X156620814Y-90290609D01*
X156489711Y-90378210D01*
X156489707Y-90378213D01*
X156378213Y-90489707D01*
X156378207Y-90489715D01*
X156290607Y-90620818D01*
X156290605Y-90620822D01*
X156280805Y-90644480D01*
X156253927Y-90684704D01*
X154685451Y-92253181D01*
X154624128Y-92286666D01*
X154597770Y-92289500D01*
X154006428Y-92289500D01*
X153939389Y-92269815D01*
X153906111Y-92238387D01*
X153830852Y-92134801D01*
X153676199Y-91980148D01*
X153525028Y-91870316D01*
X153482364Y-91814989D01*
X153476385Y-91745376D01*
X153508990Y-91683580D01*
X153525023Y-91669686D01*
X153676199Y-91559852D01*
X153830852Y-91405199D01*
X153830854Y-91405195D01*
X153830857Y-91405193D01*
X153887229Y-91327601D01*
X153959407Y-91228257D01*
X154058701Y-91033383D01*
X154126286Y-90825375D01*
X154146943Y-90694951D01*
X154160500Y-90609361D01*
X154160500Y-90390638D01*
X154135098Y-90230261D01*
X154126286Y-90174625D01*
X154058701Y-89966617D01*
X154058701Y-89966616D01*
X154024315Y-89899132D01*
X153959407Y-89771743D01*
X153951147Y-89760374D01*
X153830857Y-89594806D01*
X153676199Y-89440148D01*
X153676191Y-89440142D01*
X153525028Y-89330316D01*
X153482364Y-89274989D01*
X153476385Y-89205376D01*
X153508990Y-89143580D01*
X153525023Y-89129686D01*
X153676199Y-89019852D01*
X153830852Y-88865199D01*
X153906111Y-88761613D01*
X153961439Y-88718949D01*
X154006428Y-88710500D01*
X156113920Y-88710500D01*
X156225738Y-88688257D01*
X156258913Y-88681658D01*
X156395495Y-88625084D01*
X156444729Y-88592186D01*
X156518416Y-88542952D01*
X158412320Y-86649045D01*
X158473641Y-86615562D01*
X158543332Y-86620546D01*
X158587677Y-86649045D01*
X158887266Y-86948633D01*
X159253926Y-87315293D01*
X159280805Y-87355519D01*
X159290603Y-87379172D01*
X159290606Y-87379178D01*
X159290609Y-87379185D01*
X159378210Y-87510288D01*
X159378213Y-87510292D01*
X159489707Y-87621786D01*
X159489711Y-87621789D01*
X159620814Y-87709390D01*
X159620827Y-87709397D01*
X159736117Y-87757151D01*
X159766503Y-87769737D01*
X159921153Y-87800499D01*
X159921156Y-87800500D01*
X159921158Y-87800500D01*
X160078844Y-87800500D01*
X160078845Y-87800499D01*
X160233497Y-87769737D01*
X160379179Y-87709394D01*
X160510289Y-87621789D01*
X160621789Y-87510289D01*
X160709394Y-87379179D01*
X160769737Y-87233497D01*
X160800500Y-87078842D01*
X160800500Y-86921158D01*
X160800500Y-86921155D01*
X160800499Y-86921153D01*
X160774531Y-86790606D01*
X160769737Y-86766503D01*
X160756062Y-86733489D01*
X160709397Y-86620827D01*
X160709390Y-86620814D01*
X160621789Y-86489711D01*
X160621786Y-86489707D01*
X160510292Y-86378213D01*
X160510288Y-86378210D01*
X160379185Y-86290609D01*
X160379180Y-86290607D01*
X160379179Y-86290606D01*
X160355519Y-86280805D01*
X160315293Y-86253926D01*
X159286819Y-85225451D01*
X159253334Y-85164128D01*
X159250500Y-85137770D01*
X159250500Y-83926079D01*
X159221659Y-83781092D01*
X159221658Y-83781091D01*
X159221658Y-83781087D01*
X159221656Y-83781082D01*
X159165087Y-83644511D01*
X159165080Y-83644498D01*
X159082952Y-83521585D01*
X159064088Y-83502721D01*
X158978416Y-83417049D01*
X156512313Y-80950946D01*
X153977066Y-78415698D01*
X153892859Y-78331491D01*
X157499500Y-78331491D01*
X157499500Y-78668508D01*
X157537231Y-79003381D01*
X157537233Y-79003397D01*
X157612223Y-79331953D01*
X157612227Y-79331965D01*
X157723532Y-79650054D01*
X157869752Y-79953683D01*
X157869754Y-79953686D01*
X158049054Y-80239039D01*
X158259175Y-80502523D01*
X158497477Y-80740825D01*
X158760961Y-80950946D01*
X159046314Y-81130246D01*
X159349949Y-81276469D01*
X159588848Y-81360063D01*
X159668034Y-81387772D01*
X159668046Y-81387776D01*
X159996606Y-81462767D01*
X160331492Y-81500499D01*
X160331493Y-81500500D01*
X160331496Y-81500500D01*
X160668507Y-81500500D01*
X160668507Y-81500499D01*
X161003394Y-81462767D01*
X161331954Y-81387776D01*
X161650051Y-81276469D01*
X161953686Y-81130246D01*
X162239039Y-80950946D01*
X162502523Y-80740825D01*
X162740825Y-80502523D01*
X162950946Y-80239039D01*
X163130246Y-79953686D01*
X163276469Y-79650051D01*
X163387776Y-79331954D01*
X163462767Y-79003394D01*
X163500500Y-78668504D01*
X163500500Y-78331496D01*
X163462767Y-77996606D01*
X163387776Y-77668046D01*
X163369440Y-77615646D01*
X163338542Y-77527343D01*
X163276469Y-77349949D01*
X163130246Y-77046314D01*
X162950946Y-76760961D01*
X162740825Y-76497477D01*
X162502523Y-76259175D01*
X162491331Y-76250250D01*
X162280520Y-76082134D01*
X162239039Y-76049054D01*
X161953686Y-75869754D01*
X161953683Y-75869752D01*
X161650054Y-75723532D01*
X161331965Y-75612227D01*
X161331953Y-75612223D01*
X161003397Y-75537233D01*
X161003381Y-75537231D01*
X160668508Y-75499500D01*
X160668504Y-75499500D01*
X160331496Y-75499500D01*
X160331491Y-75499500D01*
X159996618Y-75537231D01*
X159996602Y-75537233D01*
X159668046Y-75612223D01*
X159668034Y-75612227D01*
X159349945Y-75723532D01*
X159046316Y-75869752D01*
X158760962Y-76049053D01*
X158497477Y-76259174D01*
X158259174Y-76497477D01*
X158049053Y-76760962D01*
X157869752Y-77046316D01*
X157723532Y-77349945D01*
X157612227Y-77668034D01*
X157612223Y-77668046D01*
X157537233Y-77996602D01*
X157537231Y-77996618D01*
X157499500Y-78331491D01*
X153892859Y-78331491D01*
X153227413Y-77666045D01*
X153182153Y-77635805D01*
X153151979Y-77615644D01*
X153104495Y-77583916D01*
X153104494Y-77583915D01*
X153104492Y-77583914D01*
X153104490Y-77583913D01*
X152967917Y-77527343D01*
X152967907Y-77527340D01*
X152822920Y-77498500D01*
X152822918Y-77498500D01*
X124324917Y-77498500D01*
X124177082Y-77498500D01*
X124177080Y-77498500D01*
X124032092Y-77527340D01*
X124032082Y-77527343D01*
X123895511Y-77583912D01*
X123895498Y-77583919D01*
X123772584Y-77666048D01*
X123772580Y-77666051D01*
X122684703Y-78753927D01*
X122644480Y-78780805D01*
X122620819Y-78790606D01*
X122620818Y-78790607D01*
X122489715Y-78878207D01*
X122489707Y-78878213D01*
X122378213Y-78989707D01*
X122378210Y-78989711D01*
X122290609Y-79120814D01*
X122290602Y-79120827D01*
X122230264Y-79266498D01*
X122230261Y-79266510D01*
X122199500Y-79421153D01*
X92856564Y-79421153D01*
X92869440Y-79384356D01*
X92873025Y-79374111D01*
X92873025Y-79374110D01*
X92887774Y-79331959D01*
X92887776Y-79331953D01*
X92902713Y-79266510D01*
X92962767Y-79003394D01*
X93000500Y-78668504D01*
X93000500Y-78331496D01*
X92962767Y-77996606D01*
X92887776Y-77668046D01*
X92869440Y-77615646D01*
X92838542Y-77527343D01*
X92776469Y-77349949D01*
X92630246Y-77046314D01*
X92450946Y-76760961D01*
X92240825Y-76497477D01*
X92002523Y-76259175D01*
X91991331Y-76250250D01*
X91780520Y-76082134D01*
X91739039Y-76049054D01*
X91453686Y-75869754D01*
X91453683Y-75869752D01*
X91150054Y-75723532D01*
X90831965Y-75612227D01*
X90831953Y-75612223D01*
X90503397Y-75537233D01*
X90503381Y-75537231D01*
X90168508Y-75499500D01*
X90168504Y-75499500D01*
X89831496Y-75499500D01*
X89831491Y-75499500D01*
X89496618Y-75537231D01*
X89496602Y-75537233D01*
X89168046Y-75612223D01*
X89168034Y-75612227D01*
X88849945Y-75723532D01*
X88546316Y-75869752D01*
X88260962Y-76049053D01*
X87997477Y-76259174D01*
X87759174Y-76497477D01*
X87549053Y-76760962D01*
X87369752Y-77046316D01*
X87223532Y-77349945D01*
X87112227Y-77668034D01*
X87112223Y-77668046D01*
X87037233Y-77996602D01*
X87037231Y-77996618D01*
X86999500Y-78331491D01*
X85507857Y-78331491D01*
X85508245Y-78322608D01*
X85508245Y-78322607D01*
X85510433Y-78272498D01*
X85517386Y-78113228D01*
X85518326Y-78102495D01*
X85568152Y-77724025D01*
X85570025Y-77713405D01*
X85652649Y-77340709D01*
X85655440Y-77330295D01*
X85770230Y-76966227D01*
X85773917Y-76956095D01*
X85920003Y-76603412D01*
X85924561Y-76593638D01*
X86100822Y-76255045D01*
X86106217Y-76245700D01*
X86311325Y-75923744D01*
X86317515Y-75914905D01*
X86549896Y-75612060D01*
X86556834Y-75603791D01*
X86814726Y-75322352D01*
X86822352Y-75314726D01*
X87103791Y-75056834D01*
X87112060Y-75049896D01*
X87414905Y-74817515D01*
X87423744Y-74811325D01*
X87745700Y-74606217D01*
X87755045Y-74600822D01*
X88093638Y-74424561D01*
X88103412Y-74420003D01*
X88456095Y-74273917D01*
X88466227Y-74270230D01*
X88830295Y-74155440D01*
X88840709Y-74152649D01*
X89213405Y-74070025D01*
X89224025Y-74068152D01*
X89602495Y-74018326D01*
X89613226Y-74017386D01*
X89997297Y-74000617D01*
X90002706Y-74000500D01*
X90065892Y-74000500D01*
X160434108Y-74000500D01*
X160497294Y-74000500D01*
X160502702Y-74000617D01*
G37*
%TD.AperFunction*%
%TD*%
M02*
