%TF.GenerationSoftware,KiCad,Pcbnew,9.0.6*%
%TF.CreationDate,2026-02-28T12:54:14-08:00*%
%TF.ProjectId,display,64697370-6c61-4792-9e6b-696361645f70,rev?*%
%TF.SameCoordinates,Original*%
%TF.FileFunction,Soldermask,Top*%
%TF.FilePolarity,Negative*%
%FSLAX46Y46*%
G04 Gerber Fmt 4.6, Leading zero omitted, Abs format (unit mm)*
G04 Created by KiCad (PCBNEW 9.0.6) date 2026-02-28 12:54:14*
%MOMM*%
%LPD*%
G01*
G04 APERTURE LIST*
G04 Aperture macros list*
%AMRoundRect*
0 Rectangle with rounded corners*
0 $1 Rounding radius*
0 $2 $3 $4 $5 $6 $7 $8 $9 X,Y pos of 4 corners*
0 Add a 4 corners polygon primitive as box body*
4,1,4,$2,$3,$4,$5,$6,$7,$8,$9,$2,$3,0*
0 Add four circle primitives for the rounded corners*
1,1,$1+$1,$2,$3*
1,1,$1+$1,$4,$5*
1,1,$1+$1,$6,$7*
1,1,$1+$1,$8,$9*
0 Add four rect primitives between the rounded corners*
20,1,$1+$1,$2,$3,$4,$5,0*
20,1,$1+$1,$4,$5,$6,$7,0*
20,1,$1+$1,$6,$7,$8,$9,0*
20,1,$1+$1,$8,$9,$2,$3,0*%
G04 Aperture macros list end*
%ADD10O,3.556000X1.778000*%
%ADD11C,1.905000*%
%ADD12R,1.168400X0.304800*%
%ADD13RoundRect,0.250000X0.450000X-0.350000X0.450000X0.350000X-0.450000X0.350000X-0.450000X-0.350000X0*%
%ADD14RoundRect,0.250000X-0.450000X0.350000X-0.450000X-0.350000X0.450000X-0.350000X0.450000X0.350000X0*%
%ADD15RoundRect,0.250000X0.350000X0.450000X-0.350000X0.450000X-0.350000X-0.450000X0.350000X-0.450000X0*%
%ADD16RoundRect,0.250000X-0.350000X-0.450000X0.350000X-0.450000X0.350000X0.450000X-0.350000X0.450000X0*%
%ADD17C,1.700000*%
%ADD18RoundRect,0.250000X0.625000X-0.350000X0.625000X0.350000X-0.625000X0.350000X-0.625000X-0.350000X0*%
%ADD19O,1.750000X1.200000*%
%ADD20RoundRect,0.250000X0.337500X0.475000X-0.337500X0.475000X-0.337500X-0.475000X0.337500X-0.475000X0*%
%ADD21RoundRect,0.250000X-0.337500X-0.475000X0.337500X-0.475000X0.337500X0.475000X-0.337500X0.475000X0*%
G04 APERTURE END LIST*
D10*
%TO.C,U2*%
X135118000Y-82880000D03*
X135118000Y-85420000D03*
X135118000Y-87960000D03*
X135118000Y-90500000D03*
X135118000Y-93040000D03*
X135118000Y-95580000D03*
X135118000Y-98120000D03*
X151882000Y-98120000D03*
X151882000Y-95580000D03*
X151882000Y-93040000D03*
X151882000Y-90500000D03*
X151882000Y-87960000D03*
X151882000Y-85420000D03*
X151882000Y-82880000D03*
D11*
X140960000Y-108280000D03*
X146040000Y-108280000D03*
%TD*%
D12*
%TO.C,U1*%
X121259600Y-81500000D03*
X121259600Y-82149998D03*
X121259600Y-82800000D03*
X121259600Y-83449998D03*
X121259600Y-84099997D03*
X121259600Y-84749998D03*
X121259600Y-85399997D03*
X121259600Y-86049998D03*
X127000000Y-86049998D03*
X127000000Y-85400000D03*
X127000000Y-84749998D03*
X127000000Y-84100000D03*
X127000000Y-83450001D03*
X127000000Y-82800000D03*
X127000000Y-82150001D03*
X127000000Y-81500000D03*
%TD*%
D13*
%TO.C,R4*%
X160000000Y-90000000D03*
X160000000Y-88000000D03*
%TD*%
D14*
%TO.C,R3*%
X135500000Y-107000000D03*
X135500000Y-109000000D03*
%TD*%
D15*
%TO.C,R2*%
X125000000Y-90000000D03*
X123000000Y-90000000D03*
%TD*%
D16*
%TO.C,R1*%
X119500000Y-94500000D03*
X121500000Y-94500000D03*
%TD*%
D17*
%TO.C,M1*%
X89610000Y-99470000D03*
X89610000Y-91850000D03*
X112470000Y-99470000D03*
X112470000Y-91850000D03*
%TD*%
D18*
%TO.C,J2*%
X159450000Y-98000000D03*
D19*
X159450000Y-96000000D03*
%TD*%
D18*
%TO.C,J1*%
X139450000Y-118000000D03*
D19*
X139450000Y-116000000D03*
X139450000Y-114000000D03*
%TD*%
D20*
%TO.C,C4*%
X121537500Y-108500000D03*
X119462500Y-108500000D03*
%TD*%
D21*
%TO.C,C3*%
X125962500Y-108500000D03*
X128037500Y-108500000D03*
%TD*%
D20*
%TO.C,C2*%
X128000000Y-100000000D03*
X125925000Y-100000000D03*
%TD*%
%TO.C,C1*%
X121500000Y-100000000D03*
X119425000Y-100000000D03*
%TD*%
M02*
