%TF.GenerationSoftware,KiCad,Pcbnew,9.0.6*%
%TF.CreationDate,2026-02-28T12:54:14-08:00*%
%TF.ProjectId,display,64697370-6c61-4792-9e6b-696361645f70,rev?*%
%TF.SameCoordinates,Original*%
%TF.FileFunction,Copper,L1,Top*%
%TF.FilePolarity,Positive*%
%FSLAX46Y46*%
G04 Gerber Fmt 4.6, Leading zero omitted, Abs format (unit mm)*
G04 Created by KiCad (PCBNEW 9.0.6) date 2026-02-28 12:54:14*
%MOMM*%
%LPD*%
G01*
G04 APERTURE LIST*
G04 Aperture macros list*
%AMRoundRect*
0 Rectangle with rounded corners*
0 $1 Rounding radius*
0 $2 $3 $4 $5 $6 $7 $8 $9 X,Y pos of 4 corners*
0 Add a 4 corners polygon primitive as box body*
4,1,4,$2,$3,$4,$5,$6,$7,$8,$9,$2,$3,0*
0 Add four circle primitives for the rounded corners*
1,1,$1+$1,$2,$3*
1,1,$1+$1,$4,$5*
1,1,$1+$1,$6,$7*
1,1,$1+$1,$8,$9*
0 Add four rect primitives between the rounded corners*
20,1,$1+$1,$2,$3,$4,$5,0*
20,1,$1+$1,$4,$5,$6,$7,0*
20,1,$1+$1,$6,$7,$8,$9,0*
20,1,$1+$1,$8,$9,$2,$3,0*%
G04 Aperture macros list end*
%TA.AperFunction,ComponentPad*%
%ADD10O,3.556000X1.778000*%
%TD*%
%TA.AperFunction,ComponentPad*%
%ADD11C,1.905000*%
%TD*%
%TA.AperFunction,SMDPad,CuDef*%
%ADD12R,1.168400X0.304800*%
%TD*%
%TA.AperFunction,SMDPad,CuDef*%
%ADD13RoundRect,0.250000X0.450000X-0.350000X0.450000X0.350000X-0.450000X0.350000X-0.450000X-0.350000X0*%
%TD*%
%TA.AperFunction,SMDPad,CuDef*%
%ADD14RoundRect,0.250000X-0.450000X0.350000X-0.450000X-0.350000X0.450000X-0.350000X0.450000X0.350000X0*%
%TD*%
%TA.AperFunction,SMDPad,CuDef*%
%ADD15RoundRect,0.250000X0.350000X0.450000X-0.350000X0.450000X-0.350000X-0.450000X0.350000X-0.450000X0*%
%TD*%
%TA.AperFunction,SMDPad,CuDef*%
%ADD16RoundRect,0.250000X-0.350000X-0.450000X0.350000X-0.450000X0.350000X0.450000X-0.350000X0.450000X0*%
%TD*%
%TA.AperFunction,ComponentPad*%
%ADD17C,1.700000*%
%TD*%
%TA.AperFunction,ComponentPad*%
%ADD18RoundRect,0.250000X0.625000X-0.350000X0.625000X0.350000X-0.625000X0.350000X-0.625000X-0.350000X0*%
%TD*%
%TA.AperFunction,ComponentPad*%
%ADD19O,1.750000X1.200000*%
%TD*%
%TA.AperFunction,SMDPad,CuDef*%
%ADD20RoundRect,0.250000X0.337500X0.475000X-0.337500X0.475000X-0.337500X-0.475000X0.337500X-0.475000X0*%
%TD*%
%TA.AperFunction,SMDPad,CuDef*%
%ADD21RoundRect,0.250000X-0.337500X-0.475000X0.337500X-0.475000X0.337500X0.475000X-0.337500X0.475000X0*%
%TD*%
%TA.AperFunction,ViaPad*%
%ADD22C,0.600000*%
%TD*%
%TA.AperFunction,Conductor*%
%ADD23C,0.500000*%
%TD*%
%TA.AperFunction,Conductor*%
%ADD24C,0.300000*%
%TD*%
%TA.AperFunction,Conductor*%
%ADD25C,0.200000*%
%TD*%
G04 APERTURE END LIST*
D10*
%TO.P,U2,1,GPIO1_A0_D0*%
%TO.N,unconnected-(U2-GPIO1_A0_D0-Pad1)*%
X135118000Y-82880000D03*
%TO.P,U2,2,GPIO2_A1_D1*%
%TO.N,/MOTOR_A1*%
X135118000Y-85420000D03*
%TO.P,U2,3,GPIO3_A2_D2*%
%TO.N,/MOTOR_A2*%
X135118000Y-87960000D03*
%TO.P,U2,4,GPIO4_A3_D3*%
%TO.N,/MOTOR_B1*%
X135118000Y-90500000D03*
%TO.P,U2,5,GPIO5_A4_D4_SDA*%
%TO.N,Net-(U2-GPIO5_A4_D4_SDA)*%
X135118000Y-93040000D03*
%TO.P,U2,6,GPIO6_A5_D5_SCL*%
%TO.N,unconnected-(U2-GPIO6_A5_D5_SCL-Pad6)*%
X135118000Y-95580000D03*
%TO.P,U2,7,GPIO43_TX_D6*%
%TO.N,unconnected-(U2-GPIO43_TX_D6-Pad7)*%
X135118000Y-98120000D03*
%TO.P,U2,8,GPIO44_D7_RX*%
%TO.N,unconnected-(U2-GPIO44_D7_RX-Pad8)*%
X151882000Y-98120000D03*
%TO.P,U2,9,GPIO7_A8_D8_SCK*%
%TO.N,unconnected-(U2-GPIO7_A8_D8_SCK-Pad9)*%
X151882000Y-95580000D03*
%TO.P,U2,10,GPIO8_A9_D9_CIPO*%
%TO.N,/RESET_BTN*%
X151882000Y-93040000D03*
%TO.P,U2,11,GPIO9_A10_D10_COPI*%
%TO.N,/MOTOR_B2*%
X151882000Y-90500000D03*
%TO.P,U2,12,3V3*%
%TO.N,+3.3V*%
X151882000Y-87960000D03*
%TO.P,U2,13,GND*%
%TO.N,GND*%
X151882000Y-85420000D03*
%TO.P,U2,14,5V*%
%TO.N,+5V*%
X151882000Y-82880000D03*
D11*
%TO.P,U2,15,+BATT*%
%TO.N,unconnected-(U2-+BATT-Pad15)*%
X140960000Y-108280000D03*
%TO.P,U2,16,-BATT*%
%TO.N,unconnected-(U2--BATT-Pad16)*%
X146040000Y-108280000D03*
%TD*%
D12*
%TO.P,U1,1,NSLEEP*%
%TO.N,+3.3V*%
X121259600Y-81500000D03*
%TO.P,U1,2,AOUT1*%
%TO.N,Net-(U1-AOUT1)*%
X121259600Y-82149998D03*
%TO.P,U1,3,AISEN*%
%TO.N,Net-(U1-AISEN)*%
X121259600Y-82800000D03*
%TO.P,U1,4,AOUT2*%
%TO.N,Net-(U1-AOUT2)*%
X121259600Y-83449998D03*
%TO.P,U1,5,BOUT2*%
%TO.N,Net-(M1--)*%
X121259600Y-84099997D03*
%TO.P,U1,6,BISEN*%
%TO.N,Net-(U1-BISEN)*%
X121259600Y-84749998D03*
%TO.P,U1,7,BOUT1*%
%TO.N,Net-(U1-BOUT1)*%
X121259600Y-85399997D03*
%TO.P,U1,8,NFAULT*%
%TO.N,unconnected-(U1-NFAULT-Pad8)*%
X121259600Y-86049998D03*
%TO.P,U1,9,BIN1*%
%TO.N,/MOTOR_B2*%
X127000000Y-86049998D03*
%TO.P,U1,10,BIN2*%
%TO.N,/MOTOR_B1*%
X127000000Y-85400000D03*
%TO.P,U1,11,VCP*%
%TO.N,Net-(U1-VCP)*%
X127000000Y-84749998D03*
%TO.P,U1,12,VM*%
%TO.N,+5V*%
X127000000Y-84100000D03*
%TO.P,U1,13,GND*%
%TO.N,GND*%
X127000000Y-83450001D03*
%TO.P,U1,14,VINT*%
%TO.N,Net-(U1-VINT)*%
X127000000Y-82800000D03*
%TO.P,U1,15,AIN2*%
%TO.N,/MOTOR_A2*%
X127000000Y-82150001D03*
%TO.P,U1,16,AIN1*%
%TO.N,/MOTOR_A1*%
X127000000Y-81500000D03*
%TD*%
D13*
%TO.P,R4,1*%
%TO.N,/RESET_BTN*%
X160000000Y-90000000D03*
%TO.P,R4,2*%
%TO.N,+3.3V*%
X160000000Y-88000000D03*
%TD*%
D14*
%TO.P,R3,1*%
%TO.N,Net-(U2-GPIO5_A4_D4_SDA)*%
X135500000Y-107000000D03*
%TO.P,R3,2*%
%TO.N,/NEO_DATA*%
X135500000Y-109000000D03*
%TD*%
D15*
%TO.P,R2,1*%
%TO.N,GND*%
X125000000Y-90000000D03*
%TO.P,R2,2*%
%TO.N,Net-(U1-BISEN)*%
X123000000Y-90000000D03*
%TD*%
D16*
%TO.P,R1,1*%
%TO.N,Net-(U1-AISEN)*%
X119500000Y-94500000D03*
%TO.P,R1,2*%
%TO.N,GND*%
X121500000Y-94500000D03*
%TD*%
D17*
%TO.P,M1,1*%
%TO.N,Net-(U1-BOUT1)*%
X89610000Y-99470000D03*
%TO.P,M1,2,-*%
%TO.N,Net-(M1--)*%
X89610000Y-91850000D03*
%TO.P,M1,3*%
%TO.N,Net-(U1-AOUT2)*%
X112470000Y-99470000D03*
%TO.P,M1,4*%
%TO.N,Net-(U1-AOUT1)*%
X112470000Y-91850000D03*
%TD*%
D18*
%TO.P,J2,1,Pin_1*%
%TO.N,/RESET_BTN*%
X159450000Y-98000000D03*
D19*
%TO.P,J2,2,Pin_2*%
%TO.N,GND*%
X159450000Y-96000000D03*
%TD*%
D18*
%TO.P,J1,1,Pin_1*%
%TO.N,+5V*%
X139450000Y-118000000D03*
D19*
%TO.P,J1,2,Pin_2*%
%TO.N,GND*%
X139450000Y-116000000D03*
%TO.P,J1,3,Pin_3*%
%TO.N,/NEO_DATA*%
X139450000Y-114000000D03*
%TD*%
D20*
%TO.P,C4,1*%
%TO.N,+5V*%
X121537500Y-108500000D03*
%TO.P,C4,2*%
%TO.N,GND*%
X119462500Y-108500000D03*
%TD*%
D21*
%TO.P,C3,1*%
%TO.N,GND*%
X125962500Y-108500000D03*
%TO.P,C3,2*%
%TO.N,Net-(U1-VINT)*%
X128037500Y-108500000D03*
%TD*%
D20*
%TO.P,C2,1*%
%TO.N,+5V*%
X128000000Y-100000000D03*
%TO.P,C2,2*%
%TO.N,Net-(U1-VCP)*%
X125925000Y-100000000D03*
%TD*%
%TO.P,C1,1*%
%TO.N,+5V*%
X121500000Y-100000000D03*
%TO.P,C1,2*%
%TO.N,GND*%
X119425000Y-100000000D03*
%TD*%
D22*
%TO.N,Net-(U1-VINT)*%
X128000000Y-103500000D03*
%TO.N,/RESET_BTN*%
X157000000Y-97500000D03*
%TO.N,GND*%
X154500000Y-85500000D03*
%TO.N,+3.3V*%
X160000000Y-87000000D03*
%TO.N,Net-(U1-VINT)*%
X128338563Y-83450000D03*
%TO.N,GND*%
X126000000Y-110500000D03*
X120500000Y-111000000D03*
%TO.N,Net-(U1-AISEN)*%
X123500000Y-83000000D03*
X121500000Y-87500000D03*
%TO.N,Net-(U1-AOUT2)*%
X119500000Y-83349997D03*
X118500000Y-86500000D03*
%TO.N,Net-(U1-AOUT1)*%
X118500000Y-82500000D03*
X117000000Y-87000000D03*
%TO.N,Net-(U2-GPIO5_A4_D4_SDA)*%
X132000000Y-95000000D03*
%TO.N,/RESET_BTN*%
X157000000Y-91000000D03*
%TO.N,/MOTOR_B2*%
X128500000Y-87500000D03*
%TO.N,+3.3V*%
X123000000Y-79500000D03*
%TO.N,GND*%
X131000000Y-81000000D03*
%TO.N,+5V*%
X133000000Y-79000000D03*
%TO.N,/MOTOR_B1*%
X129000000Y-85500000D03*
%TO.N,/MOTOR_A2*%
X129000000Y-83000000D03*
%TO.N,/MOTOR_A1*%
X129000000Y-81500000D03*
%TD*%
D23*
%TO.N,/RESET_BTN*%
X157000000Y-97500000D02*
X158950000Y-97500000D01*
X158950000Y-97500000D02*
X159450000Y-98000000D01*
%TO.N,GND*%
X154500000Y-85500000D02*
X155500000Y-86500000D01*
X155500000Y-86500000D02*
X155500000Y-92050000D01*
X155500000Y-92050000D02*
X159450000Y-96000000D01*
%TO.N,+3.3V*%
X160000000Y-87000000D02*
X160000000Y-88000000D01*
%TO.N,/NEO_DATA*%
X135500000Y-109000000D02*
X135500000Y-110050000D01*
X135500000Y-110050000D02*
X139450000Y-114000000D01*
D24*
%TO.N,Net-(U1-VINT)*%
X128338563Y-83450000D02*
X127688563Y-82800000D01*
X127688563Y-82800000D02*
X127000000Y-82800000D01*
X128037500Y-103537500D02*
X128000000Y-103500000D01*
X128037500Y-108500000D02*
X128037500Y-103537500D01*
%TO.N,Net-(U1-VCP)*%
X125925000Y-100000000D02*
X126064800Y-99860200D01*
X126064800Y-84800998D02*
X126115800Y-84749998D01*
X126064800Y-99860200D02*
X126064800Y-84800998D01*
X126115800Y-84749998D02*
X127000000Y-84749998D01*
%TO.N,+5V*%
X133000000Y-80062075D02*
X130281037Y-82781037D01*
X128000000Y-100000000D02*
X130281037Y-97718963D01*
X130281037Y-97718963D02*
X130281037Y-82781037D01*
D23*
%TO.N,GND*%
X126000000Y-110500000D02*
X131500000Y-116000000D01*
X131500000Y-116000000D02*
X139450000Y-116000000D01*
X126000000Y-110500000D02*
X126000000Y-108537500D01*
X126000000Y-108537500D02*
X125962500Y-108500000D01*
X119462500Y-109962500D02*
X120500000Y-111000000D01*
X119462500Y-108500000D02*
X119462500Y-109962500D01*
D24*
%TO.N,+5V*%
X121537500Y-108500000D02*
X131037500Y-118000000D01*
X131037500Y-118000000D02*
X139450000Y-118000000D01*
X121500000Y-100000000D02*
X122576000Y-101076000D01*
X122576000Y-101076000D02*
X126924000Y-101076000D01*
X126924000Y-101076000D02*
X128000000Y-100000000D01*
X121500000Y-100000000D02*
X121500000Y-108462500D01*
X121500000Y-108462500D02*
X121537500Y-108500000D01*
D23*
%TO.N,GND*%
X119425000Y-100000000D02*
X119425000Y-108462500D01*
X119425000Y-108462500D02*
X119462500Y-108500000D01*
X121500000Y-94500000D02*
X121500000Y-97925000D01*
X121500000Y-97925000D02*
X119425000Y-100000000D01*
X125000000Y-90000000D02*
X125000000Y-91000000D01*
X125000000Y-91000000D02*
X121500000Y-94500000D01*
D24*
X125964800Y-83403400D02*
X125964800Y-83535200D01*
X125964800Y-83535200D02*
X125000000Y-84500000D01*
X125000000Y-84500000D02*
X125000000Y-90000000D01*
%TO.N,Net-(U1-AISEN)*%
X123500000Y-83000000D02*
X123000000Y-83000000D01*
X122753398Y-82753398D02*
X121412942Y-82753398D01*
X123000000Y-83000000D02*
X122753398Y-82753398D01*
X119500000Y-89500000D02*
X121500000Y-87500000D01*
X119500000Y-94500000D02*
X119500000Y-89500000D01*
%TO.N,Net-(U1-BISEN)*%
X123000000Y-90000000D02*
X123000000Y-85606198D01*
X123000000Y-85606198D02*
X122143800Y-84749998D01*
X122143800Y-84749998D02*
X121259600Y-84749998D01*
%TO.N,Net-(U1-AOUT2)*%
X119500000Y-83349997D02*
X121159599Y-83349997D01*
X121159599Y-83349997D02*
X121259600Y-83449998D01*
X112470000Y-95030000D02*
X112470000Y-94030000D01*
X118500000Y-88000000D02*
X118500000Y-86500000D01*
X112470000Y-94030000D02*
X118500000Y-88000000D01*
X112470000Y-99470000D02*
X112470000Y-95030000D01*
D23*
%TO.N,Net-(U1-AOUT1)*%
X118500000Y-82500000D02*
X119000000Y-82500000D01*
X119000000Y-82500000D02*
X119303400Y-82196600D01*
X119303400Y-82196600D02*
X120964836Y-82196600D01*
X117000000Y-87320000D02*
X117000000Y-87000000D01*
X112470000Y-91850000D02*
X117000000Y-87320000D01*
D25*
%TO.N,/MOTOR_A2*%
X129000000Y-83000000D02*
X128150001Y-82150001D01*
X128150001Y-82150001D02*
X127000000Y-82150001D01*
D23*
%TO.N,Net-(U2-GPIO5_A4_D4_SDA)*%
X132000000Y-95000000D02*
X132000000Y-103500000D01*
X132000000Y-103500000D02*
X135500000Y-107000000D01*
%TO.N,/RESET_BTN*%
X157000000Y-91000000D02*
X159000000Y-91000000D01*
X159000000Y-91000000D02*
X160000000Y-90000000D01*
D24*
%TO.N,/MOTOR_B2*%
X128500000Y-87500000D02*
X127101000Y-86101000D01*
X127101000Y-86101000D02*
X127000000Y-86101000D01*
D23*
%TO.N,+3.3V*%
X123000000Y-79500000D02*
X123000000Y-79759600D01*
X123000000Y-79759600D02*
X121259600Y-81500000D01*
D24*
%TO.N,GND*%
X131000000Y-81000000D02*
X130749000Y-80749000D01*
X125964800Y-83403400D02*
X126705236Y-83403400D01*
X130749000Y-80749000D02*
X126112400Y-80749000D01*
X126112400Y-80749000D02*
X125964800Y-80896600D01*
X125964800Y-80896600D02*
X125964800Y-83403400D01*
%TO.N,+5V*%
X133000000Y-79000000D02*
X133000000Y-80062075D01*
X130281037Y-82781037D02*
X128962075Y-84100000D01*
X128962075Y-84100000D02*
X127000000Y-84100000D01*
%TO.N,/MOTOR_B1*%
X129000000Y-85500000D02*
X128900000Y-85400000D01*
X128900000Y-85400000D02*
X127000000Y-85400000D01*
%TO.N,/MOTOR_A1*%
X129000000Y-81500000D02*
X127000000Y-81500000D01*
D23*
%TO.N,Net-(U1-BOUT1)*%
X89610000Y-99470000D02*
X100130553Y-99470000D01*
X100130553Y-99470000D02*
X114200556Y-85399997D01*
X114200556Y-85399997D02*
X121259600Y-85399997D01*
%TO.N,Net-(M1--)*%
X89610000Y-91850000D02*
X97360003Y-84099997D01*
X97360003Y-84099997D02*
X121259600Y-84099997D01*
%TD*%
%TA.AperFunction,Conductor*%
%TO.N,GND*%
G36*
X160502702Y-74000617D02*
G01*
X160886771Y-74017386D01*
X160897506Y-74018326D01*
X161275971Y-74068152D01*
X161286597Y-74070025D01*
X161659284Y-74152648D01*
X161669710Y-74155442D01*
X162033765Y-74270227D01*
X162043911Y-74273920D01*
X162396578Y-74420000D01*
X162406369Y-74424566D01*
X162744942Y-74600816D01*
X162754310Y-74606224D01*
X163076244Y-74811318D01*
X163085105Y-74817523D01*
X163387930Y-75049889D01*
X163396217Y-75056843D01*
X163677635Y-75314715D01*
X163685284Y-75322364D01*
X163943156Y-75603782D01*
X163950110Y-75612069D01*
X164182476Y-75914894D01*
X164188681Y-75923755D01*
X164393775Y-76245689D01*
X164399183Y-76255057D01*
X164575430Y-76593623D01*
X164580002Y-76603427D01*
X164726075Y-76956078D01*
X164729775Y-76966244D01*
X164844554Y-77330278D01*
X164847354Y-77340727D01*
X164929971Y-77713389D01*
X164931849Y-77724042D01*
X164981671Y-78102473D01*
X164982614Y-78113249D01*
X164999382Y-78497297D01*
X164999500Y-78502706D01*
X164999500Y-117497293D01*
X164999382Y-117502702D01*
X164982614Y-117886750D01*
X164981671Y-117897526D01*
X164931849Y-118275957D01*
X164929971Y-118286610D01*
X164847354Y-118659272D01*
X164844554Y-118669721D01*
X164729775Y-119033755D01*
X164726075Y-119043921D01*
X164580002Y-119396572D01*
X164575430Y-119406376D01*
X164399183Y-119744942D01*
X164393775Y-119754310D01*
X164188681Y-120076244D01*
X164182476Y-120085105D01*
X163950110Y-120387930D01*
X163943156Y-120396217D01*
X163685284Y-120677635D01*
X163677635Y-120685284D01*
X163396217Y-120943156D01*
X163387930Y-120950110D01*
X163085105Y-121182476D01*
X163076244Y-121188681D01*
X162754310Y-121393775D01*
X162744942Y-121399183D01*
X162406376Y-121575430D01*
X162396572Y-121580002D01*
X162043921Y-121726075D01*
X162033755Y-121729775D01*
X161669721Y-121844554D01*
X161659272Y-121847354D01*
X161286610Y-121929971D01*
X161275957Y-121931849D01*
X160897526Y-121981671D01*
X160886750Y-121982614D01*
X160502703Y-121999382D01*
X160497294Y-121999500D01*
X90002706Y-121999500D01*
X89997297Y-121999382D01*
X89613249Y-121982614D01*
X89602473Y-121981671D01*
X89224042Y-121931849D01*
X89213389Y-121929971D01*
X88840727Y-121847354D01*
X88830278Y-121844554D01*
X88466244Y-121729775D01*
X88456078Y-121726075D01*
X88103427Y-121580002D01*
X88093623Y-121575430D01*
X87755057Y-121399183D01*
X87745689Y-121393775D01*
X87423755Y-121188681D01*
X87414894Y-121182476D01*
X87112069Y-120950110D01*
X87103782Y-120943156D01*
X86822364Y-120685284D01*
X86814715Y-120677635D01*
X86556843Y-120396217D01*
X86549889Y-120387930D01*
X86317523Y-120085105D01*
X86311318Y-120076244D01*
X86106224Y-119754310D01*
X86100816Y-119744942D01*
X85970818Y-119495219D01*
X85924566Y-119406369D01*
X85919997Y-119396572D01*
X85797360Y-119100500D01*
X85773920Y-119043911D01*
X85770224Y-119033755D01*
X85760623Y-119003304D01*
X85655442Y-118669710D01*
X85652648Y-118659284D01*
X85570025Y-118286597D01*
X85568152Y-118275971D01*
X85518326Y-117897506D01*
X85517386Y-117886771D01*
X85500618Y-117502702D01*
X85500500Y-117497293D01*
X85500500Y-117331491D01*
X86999500Y-117331491D01*
X86999500Y-117668508D01*
X87037231Y-118003381D01*
X87037233Y-118003397D01*
X87112223Y-118331953D01*
X87112227Y-118331965D01*
X87223532Y-118650054D01*
X87369752Y-118953683D01*
X87369754Y-118953686D01*
X87549054Y-119239039D01*
X87759175Y-119502523D01*
X87997477Y-119740825D01*
X88260961Y-119950946D01*
X88546314Y-120130246D01*
X88849949Y-120276469D01*
X89088848Y-120360063D01*
X89168034Y-120387772D01*
X89168046Y-120387776D01*
X89496606Y-120462767D01*
X89831492Y-120500499D01*
X89831493Y-120500500D01*
X89831496Y-120500500D01*
X90168507Y-120500500D01*
X90168507Y-120500499D01*
X90503394Y-120462767D01*
X90831954Y-120387776D01*
X91150051Y-120276469D01*
X91453686Y-120130246D01*
X91739039Y-119950946D01*
X92002523Y-119740825D01*
X92240825Y-119502523D01*
X92450946Y-119239039D01*
X92630246Y-118953686D01*
X92776469Y-118650051D01*
X92887776Y-118331954D01*
X92962767Y-118003394D01*
X93000500Y-117668504D01*
X93000500Y-117331496D01*
X92962767Y-116996606D01*
X92887776Y-116668046D01*
X92776469Y-116349949D01*
X92630246Y-116046314D01*
X92450946Y-115760961D01*
X92240825Y-115497477D01*
X92002523Y-115259175D01*
X91739039Y-115049054D01*
X91453686Y-114869754D01*
X91453683Y-114869752D01*
X91150054Y-114723532D01*
X90831965Y-114612227D01*
X90831953Y-114612223D01*
X90503397Y-114537233D01*
X90503381Y-114537231D01*
X90168508Y-114499500D01*
X90168504Y-114499500D01*
X89831496Y-114499500D01*
X89831491Y-114499500D01*
X89496618Y-114537231D01*
X89496602Y-114537233D01*
X89168046Y-114612223D01*
X89168034Y-114612227D01*
X88849945Y-114723532D01*
X88546316Y-114869752D01*
X88260962Y-115049053D01*
X87997477Y-115259174D01*
X87759174Y-115497477D01*
X87549053Y-115760962D01*
X87369752Y-116046316D01*
X87223532Y-116349945D01*
X87112227Y-116668034D01*
X87112223Y-116668046D01*
X87037233Y-116996602D01*
X87037231Y-116996618D01*
X86999500Y-117331491D01*
X85500500Y-117331491D01*
X85500500Y-109024986D01*
X118375001Y-109024986D01*
X118385494Y-109127697D01*
X118440641Y-109294119D01*
X118440643Y-109294124D01*
X118532684Y-109443345D01*
X118656654Y-109567315D01*
X118805875Y-109659356D01*
X118805880Y-109659358D01*
X118972302Y-109714505D01*
X118972309Y-109714506D01*
X119075019Y-109724999D01*
X119212499Y-109724999D01*
X119212500Y-109724998D01*
X119212500Y-108750000D01*
X118375001Y-108750000D01*
X118375001Y-109024986D01*
X85500500Y-109024986D01*
X85500500Y-105522378D01*
X98589500Y-105522378D01*
X98589500Y-105797621D01*
X98620315Y-106071108D01*
X98620317Y-106071124D01*
X98681561Y-106339453D01*
X98681565Y-106339465D01*
X98772467Y-106599246D01*
X98891884Y-106847218D01*
X98891886Y-106847221D01*
X99038319Y-107080268D01*
X99166343Y-107240804D01*
X99201980Y-107285493D01*
X99209925Y-107295455D01*
X99404545Y-107490075D01*
X99619732Y-107661681D01*
X99852779Y-107808114D01*
X100100757Y-107927534D01*
X100271304Y-107987211D01*
X100360534Y-108018434D01*
X100360546Y-108018438D01*
X100628879Y-108079683D01*
X100902378Y-108110499D01*
X100902379Y-108110500D01*
X100902383Y-108110500D01*
X101177621Y-108110500D01*
X101177621Y-108110499D01*
X101451121Y-108079683D01*
X101719454Y-108018438D01*
X101843556Y-107975013D01*
X118375000Y-107975013D01*
X118375000Y-108250000D01*
X119212500Y-108250000D01*
X119212500Y-107275000D01*
X119075027Y-107275000D01*
X119075012Y-107275001D01*
X118972302Y-107285494D01*
X118805880Y-107340641D01*
X118805875Y-107340643D01*
X118656654Y-107432684D01*
X118532684Y-107556654D01*
X118440643Y-107705875D01*
X118440641Y-107705880D01*
X118385494Y-107872302D01*
X118385493Y-107872309D01*
X118375000Y-107975013D01*
X101843556Y-107975013D01*
X101979243Y-107927534D01*
X102227221Y-107808114D01*
X102460268Y-107661681D01*
X102675455Y-107490075D01*
X102870075Y-107295455D01*
X103041681Y-107080268D01*
X103188114Y-106847221D01*
X103307534Y-106599243D01*
X103398438Y-106339454D01*
X103459683Y-106071121D01*
X103490500Y-105797617D01*
X103490500Y-105522383D01*
X103459683Y-105248879D01*
X103398438Y-104980546D01*
X103307534Y-104720757D01*
X103188114Y-104472779D01*
X103041681Y-104239732D01*
X102870075Y-104024545D01*
X102675455Y-103829925D01*
X102460268Y-103658319D01*
X102227221Y-103511886D01*
X102227218Y-103511884D01*
X101979246Y-103392467D01*
X101719465Y-103301565D01*
X101719453Y-103301561D01*
X101451124Y-103240317D01*
X101451108Y-103240315D01*
X101177621Y-103209500D01*
X101177617Y-103209500D01*
X100902383Y-103209500D01*
X100902379Y-103209500D01*
X100628891Y-103240315D01*
X100628875Y-103240317D01*
X100360546Y-103301561D01*
X100360534Y-103301565D01*
X100100753Y-103392467D01*
X99852781Y-103511884D01*
X99619733Y-103658318D01*
X99404545Y-103829924D01*
X99209924Y-104024545D01*
X99038318Y-104239733D01*
X98891884Y-104472781D01*
X98772467Y-104720753D01*
X98681565Y-104980534D01*
X98681561Y-104980546D01*
X98620317Y-105248875D01*
X98620315Y-105248891D01*
X98589500Y-105522378D01*
X85500500Y-105522378D01*
X85500500Y-95545837D01*
X86089500Y-95545837D01*
X86089500Y-95774162D01*
X86125215Y-95999660D01*
X86195770Y-96216803D01*
X86276376Y-96375000D01*
X86299421Y-96420228D01*
X86433621Y-96604937D01*
X86595063Y-96766379D01*
X86779772Y-96900579D01*
X86840641Y-96931593D01*
X86983196Y-97004229D01*
X86983198Y-97004229D01*
X86983201Y-97004231D01*
X87099592Y-97042049D01*
X87200339Y-97074784D01*
X87425838Y-97110500D01*
X87425843Y-97110500D01*
X87654162Y-97110500D01*
X87879660Y-97074784D01*
X88096799Y-97004231D01*
X88300228Y-96900579D01*
X88484937Y-96766379D01*
X88646379Y-96604937D01*
X88780579Y-96420228D01*
X88884231Y-96216799D01*
X88954784Y-95999660D01*
X88969717Y-95905376D01*
X88990500Y-95774162D01*
X88990500Y-95545837D01*
X88954784Y-95320339D01*
X88884229Y-95103196D01*
X88821758Y-94980591D01*
X88780579Y-94899772D01*
X88646379Y-94715063D01*
X88484937Y-94553621D01*
X88300228Y-94419421D01*
X88255086Y-94396420D01*
X88096803Y-94315770D01*
X87879660Y-94245215D01*
X87654162Y-94209500D01*
X87654157Y-94209500D01*
X87425843Y-94209500D01*
X87425838Y-94209500D01*
X87200339Y-94245215D01*
X86983196Y-94315770D01*
X86779771Y-94419421D01*
X86595061Y-94553622D01*
X86433622Y-94715061D01*
X86299421Y-94899771D01*
X86195770Y-95103196D01*
X86125215Y-95320339D01*
X86089500Y-95545837D01*
X85500500Y-95545837D01*
X85500500Y-91743713D01*
X88259500Y-91743713D01*
X88259500Y-91956286D01*
X88292753Y-92166239D01*
X88358444Y-92368414D01*
X88454951Y-92557820D01*
X88579890Y-92729786D01*
X88730213Y-92880109D01*
X88902179Y-93005048D01*
X88902181Y-93005049D01*
X88902184Y-93005051D01*
X89091588Y-93101557D01*
X89293757Y-93167246D01*
X89503713Y-93200500D01*
X89503714Y-93200500D01*
X89716286Y-93200500D01*
X89716287Y-93200500D01*
X89926243Y-93167246D01*
X90128412Y-93101557D01*
X90317816Y-93005051D01*
X90339789Y-92989086D01*
X90489786Y-92880109D01*
X90489788Y-92880106D01*
X90489792Y-92880104D01*
X90640104Y-92729792D01*
X90640106Y-92729788D01*
X90640109Y-92729786D01*
X90765048Y-92557820D01*
X90765047Y-92557820D01*
X90765051Y-92557816D01*
X90861557Y-92368412D01*
X90927246Y-92166243D01*
X90960500Y-91956287D01*
X90960500Y-91743713D01*
X90945382Y-91648268D01*
X90954336Y-91578979D01*
X90980171Y-91541195D01*
X97634551Y-84886816D01*
X97695874Y-84853331D01*
X97722232Y-84850497D01*
X109110378Y-84850497D01*
X109177417Y-84870182D01*
X109223172Y-84922986D01*
X109233116Y-84992144D01*
X109204091Y-85055700D01*
X109172378Y-85081884D01*
X109037545Y-85159730D01*
X108850302Y-85303406D01*
X108850295Y-85303412D01*
X108683412Y-85470295D01*
X108683406Y-85470302D01*
X108539730Y-85657545D01*
X108421719Y-85861943D01*
X108421714Y-85861954D01*
X108331394Y-86080006D01*
X108270306Y-86307989D01*
X108239501Y-86541979D01*
X108239500Y-86541995D01*
X108239500Y-86778004D01*
X108239501Y-86778020D01*
X108270306Y-87012010D01*
X108331394Y-87239993D01*
X108421714Y-87458045D01*
X108421719Y-87458056D01*
X108468403Y-87538913D01*
X108539727Y-87662450D01*
X108539729Y-87662453D01*
X108539730Y-87662454D01*
X108683406Y-87849697D01*
X108683412Y-87849704D01*
X108850295Y-88016587D01*
X108850301Y-88016592D01*
X109037550Y-88160273D01*
X109168918Y-88236118D01*
X109241943Y-88278280D01*
X109241948Y-88278282D01*
X109241951Y-88278284D01*
X109460007Y-88368606D01*
X109687986Y-88429693D01*
X109808502Y-88445559D01*
X109811159Y-88445909D01*
X109875056Y-88474175D01*
X109913527Y-88532500D01*
X109914358Y-88602365D01*
X109882655Y-88656529D01*
X99856004Y-98683181D01*
X99794681Y-98716666D01*
X99768323Y-98719500D01*
X90797221Y-98719500D01*
X90730182Y-98699815D01*
X90696903Y-98668385D01*
X90640107Y-98590211D01*
X90489786Y-98439890D01*
X90317820Y-98314951D01*
X90128414Y-98218444D01*
X90128413Y-98218443D01*
X90128412Y-98218443D01*
X89926243Y-98152754D01*
X89926241Y-98152753D01*
X89926240Y-98152753D01*
X89764957Y-98127208D01*
X89716287Y-98119500D01*
X89503713Y-98119500D01*
X89455042Y-98127208D01*
X89293760Y-98152753D01*
X89091585Y-98218444D01*
X88902179Y-98314951D01*
X88730213Y-98439890D01*
X88579890Y-98590213D01*
X88454951Y-98762179D01*
X88358444Y-98951585D01*
X88292753Y-99153760D01*
X88259500Y-99363713D01*
X88259500Y-99576286D01*
X88292753Y-99786239D01*
X88358444Y-99988414D01*
X88454951Y-100177820D01*
X88579890Y-100349786D01*
X88730213Y-100500109D01*
X88902179Y-100625048D01*
X88902181Y-100625049D01*
X88902184Y-100625051D01*
X89091588Y-100721557D01*
X89293757Y-100787246D01*
X89503713Y-100820500D01*
X89503714Y-100820500D01*
X89716286Y-100820500D01*
X89716287Y-100820500D01*
X89926243Y-100787246D01*
X90128412Y-100721557D01*
X90317816Y-100625051D01*
X90339789Y-100609086D01*
X90489786Y-100500109D01*
X90489788Y-100500106D01*
X90489792Y-100500104D01*
X90640104Y-100349792D01*
X90675190Y-100301500D01*
X90696903Y-100271615D01*
X90752233Y-100228949D01*
X90797221Y-100220500D01*
X100204473Y-100220500D01*
X100302015Y-100201096D01*
X100349466Y-100191658D01*
X100486048Y-100135084D01*
X100545288Y-100095501D01*
X100608969Y-100052952D01*
X114475105Y-86186816D01*
X114536428Y-86153331D01*
X114562786Y-86150497D01*
X116421735Y-86150497D01*
X116488774Y-86170182D01*
X116534529Y-86222986D01*
X116544473Y-86292144D01*
X116515448Y-86355700D01*
X116494374Y-86374292D01*
X116494419Y-86374347D01*
X116492896Y-86375596D01*
X116490629Y-86377597D01*
X116489712Y-86378209D01*
X116489707Y-86378213D01*
X116378213Y-86489707D01*
X116378210Y-86489711D01*
X116290609Y-86620814D01*
X116290602Y-86620827D01*
X116230264Y-86766498D01*
X116230261Y-86766510D01*
X116199500Y-86921153D01*
X116199500Y-87007769D01*
X116179815Y-87074808D01*
X116163181Y-87095450D01*
X112778806Y-90479824D01*
X112717483Y-90513309D01*
X112671726Y-90514616D01*
X112576291Y-90499500D01*
X112576287Y-90499500D01*
X112363713Y-90499500D01*
X112342897Y-90502797D01*
X112153760Y-90532753D01*
X111951585Y-90598444D01*
X111762179Y-90694951D01*
X111590213Y-90819890D01*
X111439890Y-90970213D01*
X111314951Y-91142179D01*
X111218444Y-91331585D01*
X111152753Y-91533760D01*
X111119500Y-91743713D01*
X111119500Y-91956286D01*
X111152753Y-92166239D01*
X111218444Y-92368414D01*
X111314951Y-92557820D01*
X111439890Y-92729786D01*
X111590213Y-92880109D01*
X111762179Y-93005048D01*
X111762181Y-93005049D01*
X111762184Y-93005051D01*
X111951588Y-93101557D01*
X112153757Y-93167246D01*
X112153759Y-93167246D01*
X112156833Y-93168245D01*
X112214509Y-93207683D01*
X112241707Y-93272041D01*
X112229792Y-93340888D01*
X112206196Y-93373857D01*
X111964727Y-93615325D01*
X111964726Y-93615326D01*
X111893534Y-93721874D01*
X111844499Y-93840255D01*
X111844497Y-93840261D01*
X111819500Y-93965928D01*
X111819500Y-98210382D01*
X111799815Y-98277421D01*
X111765408Y-98311099D01*
X111766125Y-98312085D01*
X111590213Y-98439890D01*
X111439890Y-98590213D01*
X111314951Y-98762179D01*
X111218444Y-98951585D01*
X111152753Y-99153760D01*
X111119500Y-99363713D01*
X111119500Y-99576286D01*
X111152753Y-99786239D01*
X111218444Y-99988414D01*
X111314951Y-100177820D01*
X111439890Y-100349786D01*
X111590213Y-100500109D01*
X111762179Y-100625048D01*
X111762181Y-100625049D01*
X111762184Y-100625051D01*
X111951588Y-100721557D01*
X112153757Y-100787246D01*
X112363713Y-100820500D01*
X112363714Y-100820500D01*
X112576286Y-100820500D01*
X112576287Y-100820500D01*
X112786243Y-100787246D01*
X112988412Y-100721557D01*
X113177816Y-100625051D01*
X113199789Y-100609086D01*
X113315545Y-100524986D01*
X118337501Y-100524986D01*
X118347994Y-100627697D01*
X118403141Y-100794119D01*
X118403143Y-100794124D01*
X118495184Y-100943345D01*
X118619154Y-101067315D01*
X118768375Y-101159356D01*
X118768380Y-101159358D01*
X118934802Y-101214505D01*
X118934809Y-101214506D01*
X119037519Y-101224999D01*
X119174999Y-101224999D01*
X119175000Y-101224998D01*
X119175000Y-100250000D01*
X118337501Y-100250000D01*
X118337501Y-100524986D01*
X113315545Y-100524986D01*
X113349786Y-100500109D01*
X113349788Y-100500106D01*
X113349792Y-100500104D01*
X113500104Y-100349792D01*
X113500106Y-100349788D01*
X113500109Y-100349786D01*
X113605757Y-100204372D01*
X113625051Y-100177816D01*
X113721557Y-99988412D01*
X113787246Y-99786243D01*
X113820500Y-99576287D01*
X113820500Y-99475013D01*
X118337500Y-99475013D01*
X118337500Y-99750000D01*
X119175000Y-99750000D01*
X119175000Y-98775000D01*
X119675000Y-98775000D01*
X119675000Y-101224999D01*
X119812472Y-101224999D01*
X119812486Y-101224998D01*
X119915197Y-101214505D01*
X120081619Y-101159358D01*
X120081624Y-101159356D01*
X120230845Y-101067315D01*
X120354818Y-100943342D01*
X120356665Y-100940348D01*
X120358469Y-100938724D01*
X120359298Y-100937677D01*
X120359476Y-100937818D01*
X120408610Y-100893621D01*
X120477573Y-100882396D01*
X120541656Y-100910236D01*
X120567743Y-100940341D01*
X120569788Y-100943656D01*
X120693844Y-101067712D01*
X120790597Y-101127389D01*
X120837321Y-101179335D01*
X120849500Y-101232927D01*
X120849500Y-107290201D01*
X120829815Y-107357240D01*
X120790598Y-107395739D01*
X120731344Y-107432287D01*
X120607288Y-107556343D01*
X120607283Y-107556349D01*
X120605241Y-107559661D01*
X120603247Y-107561453D01*
X120602807Y-107562011D01*
X120602711Y-107561935D01*
X120553291Y-107606383D01*
X120484328Y-107617602D01*
X120420247Y-107589755D01*
X120394168Y-107559656D01*
X120392319Y-107556659D01*
X120392316Y-107556655D01*
X120268345Y-107432684D01*
X120119124Y-107340643D01*
X120119119Y-107340641D01*
X119952697Y-107285494D01*
X119952690Y-107285493D01*
X119849986Y-107275000D01*
X119712500Y-107275000D01*
X119712500Y-109724999D01*
X119849972Y-109724999D01*
X119849986Y-109724998D01*
X119952697Y-109714505D01*
X120119119Y-109659358D01*
X120119124Y-109659356D01*
X120268345Y-109567315D01*
X120392318Y-109443342D01*
X120394165Y-109440348D01*
X120395969Y-109438724D01*
X120396798Y-109437677D01*
X120396976Y-109437818D01*
X120446110Y-109393621D01*
X120515073Y-109382396D01*
X120579156Y-109410236D01*
X120605243Y-109440341D01*
X120607288Y-109443656D01*
X120731344Y-109567712D01*
X120880666Y-109659814D01*
X121047203Y-109714999D01*
X121149991Y-109725500D01*
X121791691Y-109725499D01*
X121858730Y-109745183D01*
X121879372Y-109761818D01*
X130622825Y-118505272D01*
X130622828Y-118505275D01*
X130622831Y-118505277D01*
X130701886Y-118558099D01*
X130729373Y-118576465D01*
X130847756Y-118625501D01*
X130847760Y-118625501D01*
X130847761Y-118625502D01*
X130973428Y-118650500D01*
X130973431Y-118650500D01*
X138059362Y-118650500D01*
X138126401Y-118670185D01*
X138164899Y-118709401D01*
X138232288Y-118818656D01*
X138356344Y-118942712D01*
X138505666Y-119034814D01*
X138672203Y-119089999D01*
X138774991Y-119100500D01*
X140125008Y-119100499D01*
X140227797Y-119089999D01*
X140394334Y-119034814D01*
X140543656Y-118942712D01*
X140667712Y-118818656D01*
X140759814Y-118669334D01*
X140814999Y-118502797D01*
X140825500Y-118400009D01*
X140825499Y-117599992D01*
X140814999Y-117497203D01*
X140766055Y-117349500D01*
X140760088Y-117331491D01*
X157499500Y-117331491D01*
X157499500Y-117668508D01*
X157537231Y-118003381D01*
X157537233Y-118003397D01*
X157612223Y-118331953D01*
X157612227Y-118331965D01*
X157723532Y-118650054D01*
X157869752Y-118953683D01*
X157869754Y-118953686D01*
X158049054Y-119239039D01*
X158259175Y-119502523D01*
X158497477Y-119740825D01*
X158760961Y-119950946D01*
X159046314Y-120130246D01*
X159349949Y-120276469D01*
X159588848Y-120360063D01*
X159668034Y-120387772D01*
X159668046Y-120387776D01*
X159996606Y-120462767D01*
X160331492Y-120500499D01*
X160331493Y-120500500D01*
X160331496Y-120500500D01*
X160668507Y-120500500D01*
X160668507Y-120500499D01*
X161003394Y-120462767D01*
X161331954Y-120387776D01*
X161650051Y-120276469D01*
X161953686Y-120130246D01*
X162239039Y-119950946D01*
X162502523Y-119740825D01*
X162740825Y-119502523D01*
X162950946Y-119239039D01*
X163130246Y-118953686D01*
X163276469Y-118650051D01*
X163387776Y-118331954D01*
X163462767Y-118003394D01*
X163500500Y-117668504D01*
X163500500Y-117331496D01*
X163462767Y-116996606D01*
X163387776Y-116668046D01*
X163276469Y-116349949D01*
X163130246Y-116046314D01*
X162950946Y-115760961D01*
X162740825Y-115497477D01*
X162502523Y-115259175D01*
X162239039Y-115049054D01*
X161953686Y-114869754D01*
X161953683Y-114869752D01*
X161650054Y-114723532D01*
X161331965Y-114612227D01*
X161331953Y-114612223D01*
X161003397Y-114537233D01*
X161003381Y-114537231D01*
X160668508Y-114499500D01*
X160668504Y-114499500D01*
X160331496Y-114499500D01*
X160331491Y-114499500D01*
X159996618Y-114537231D01*
X159996602Y-114537233D01*
X159668046Y-114612223D01*
X159668034Y-114612227D01*
X159349945Y-114723532D01*
X159046316Y-114869752D01*
X158760962Y-115049053D01*
X158497477Y-115259174D01*
X158259174Y-115497477D01*
X158049053Y-115760962D01*
X157869752Y-116046316D01*
X157723532Y-116349945D01*
X157612227Y-116668034D01*
X157612223Y-116668046D01*
X157537233Y-116996602D01*
X157537231Y-116996618D01*
X157499500Y-117331491D01*
X140760088Y-117331491D01*
X140759817Y-117330674D01*
X140759815Y-117330671D01*
X140759814Y-117330666D01*
X140667712Y-117181344D01*
X140543656Y-117057288D01*
X140543655Y-117057287D01*
X140479019Y-117017420D01*
X140432294Y-116965472D01*
X140421071Y-116896510D01*
X140448914Y-116832428D01*
X140456434Y-116824199D01*
X140564035Y-116716598D01*
X140665804Y-116576524D01*
X140744408Y-116422255D01*
X140797914Y-116257584D01*
X140799115Y-116250000D01*
X139730330Y-116250000D01*
X139750075Y-116230255D01*
X139799444Y-116144745D01*
X139825000Y-116049370D01*
X139825000Y-115950630D01*
X139799444Y-115855255D01*
X139750075Y-115769745D01*
X139730330Y-115750000D01*
X140799115Y-115750000D01*
X140799115Y-115749999D01*
X140797914Y-115742415D01*
X140744408Y-115577744D01*
X140665804Y-115423475D01*
X140564032Y-115283397D01*
X140441602Y-115160967D01*
X140358551Y-115100628D01*
X140315885Y-115045298D01*
X140309906Y-114975685D01*
X140342511Y-114913889D01*
X140358551Y-114899991D01*
X140441928Y-114839414D01*
X140564414Y-114716928D01*
X140666232Y-114576788D01*
X140744873Y-114422445D01*
X140798402Y-114257701D01*
X140825500Y-114086611D01*
X140825500Y-113913389D01*
X140798402Y-113742299D01*
X140744873Y-113577555D01*
X140666232Y-113423212D01*
X140564414Y-113283072D01*
X140441928Y-113160586D01*
X140301788Y-113058768D01*
X140147445Y-112980127D01*
X139982701Y-112926598D01*
X139982699Y-112926597D01*
X139982698Y-112926597D01*
X139851271Y-112905781D01*
X139811611Y-112899500D01*
X139811610Y-112899500D01*
X139462229Y-112899500D01*
X139395190Y-112879815D01*
X139374548Y-112863181D01*
X136524048Y-110012681D01*
X136490563Y-109951358D01*
X136495547Y-109881666D01*
X136524047Y-109837320D01*
X136542712Y-109818656D01*
X136634814Y-109669334D01*
X136689999Y-109502797D01*
X136700500Y-109400009D01*
X136700499Y-108599992D01*
X136689999Y-108497203D01*
X136634814Y-108330666D01*
X136542712Y-108181344D01*
X136527014Y-108165646D01*
X139507000Y-108165646D01*
X139507000Y-108394353D01*
X139542778Y-108620246D01*
X139542778Y-108620249D01*
X139613450Y-108837755D01*
X139613452Y-108837758D01*
X139717283Y-109041538D01*
X139851714Y-109226566D01*
X140013434Y-109388286D01*
X140198462Y-109522717D01*
X140285991Y-109567315D01*
X140402244Y-109626549D01*
X140619751Y-109697221D01*
X140619752Y-109697221D01*
X140619755Y-109697222D01*
X140845646Y-109733000D01*
X140845647Y-109733000D01*
X141074353Y-109733000D01*
X141074354Y-109733000D01*
X141300245Y-109697222D01*
X141300248Y-109697221D01*
X141300249Y-109697221D01*
X141517755Y-109626549D01*
X141517755Y-109626548D01*
X141517758Y-109626548D01*
X141721538Y-109522717D01*
X141906566Y-109388286D01*
X142068286Y-109226566D01*
X142202717Y-109041538D01*
X142306548Y-108837758D01*
X142349888Y-108704372D01*
X142377221Y-108620249D01*
X142377221Y-108620248D01*
X142377222Y-108620245D01*
X142413000Y-108394354D01*
X142413000Y-108165646D01*
X144587000Y-108165646D01*
X144587000Y-108394353D01*
X144622778Y-108620246D01*
X144622778Y-108620249D01*
X144693450Y-108837755D01*
X144693452Y-108837758D01*
X144797283Y-109041538D01*
X144931714Y-109226566D01*
X145093434Y-109388286D01*
X145278462Y-109522717D01*
X145365991Y-109567315D01*
X145482244Y-109626549D01*
X145699751Y-109697221D01*
X145699752Y-109697221D01*
X145699755Y-109697222D01*
X145925646Y-109733000D01*
X145925647Y-109733000D01*
X146154353Y-109733000D01*
X146154354Y-109733000D01*
X146380245Y-109697222D01*
X146380248Y-109697221D01*
X146380249Y-109697221D01*
X146597755Y-109626549D01*
X146597755Y-109626548D01*
X146597758Y-109626548D01*
X146801538Y-109522717D01*
X146986566Y-109388286D01*
X147148286Y-109226566D01*
X147282717Y-109041538D01*
X147386548Y-108837758D01*
X147429888Y-108704372D01*
X147457221Y-108620249D01*
X147457221Y-108620248D01*
X147457222Y-108620245D01*
X147493000Y-108394354D01*
X147493000Y-108165646D01*
X147457222Y-107939755D01*
X147457221Y-107939751D01*
X147457221Y-107939750D01*
X147386549Y-107722244D01*
X147359590Y-107669334D01*
X147282717Y-107518462D01*
X147148286Y-107333434D01*
X146986566Y-107171714D01*
X146801538Y-107037283D01*
X146597755Y-106933450D01*
X146380248Y-106862778D01*
X146210826Y-106835944D01*
X146154354Y-106827000D01*
X145925646Y-106827000D01*
X145850349Y-106838926D01*
X145699753Y-106862778D01*
X145699750Y-106862778D01*
X145482244Y-106933450D01*
X145278461Y-107037283D01*
X145219301Y-107080266D01*
X145093434Y-107171714D01*
X145093432Y-107171716D01*
X145093431Y-107171716D01*
X144931716Y-107333431D01*
X144931716Y-107333432D01*
X144931714Y-107333434D01*
X144914418Y-107357240D01*
X144797283Y-107518461D01*
X144693450Y-107722244D01*
X144622778Y-107939750D01*
X144622778Y-107939753D01*
X144587000Y-108165646D01*
X142413000Y-108165646D01*
X142377222Y-107939755D01*
X142377221Y-107939751D01*
X142377221Y-107939750D01*
X142306549Y-107722244D01*
X142279590Y-107669334D01*
X142202717Y-107518462D01*
X142068286Y-107333434D01*
X141906566Y-107171714D01*
X141721538Y-107037283D01*
X141517755Y-106933450D01*
X141300248Y-106862778D01*
X141130826Y-106835944D01*
X141074354Y-106827000D01*
X140845646Y-106827000D01*
X140770349Y-106838926D01*
X140619753Y-106862778D01*
X140619750Y-106862778D01*
X140402244Y-106933450D01*
X140198461Y-107037283D01*
X140139301Y-107080266D01*
X140013434Y-107171714D01*
X140013432Y-107171716D01*
X140013431Y-107171716D01*
X139851716Y-107333431D01*
X139851716Y-107333432D01*
X139851714Y-107333434D01*
X139834418Y-107357240D01*
X139717283Y-107518461D01*
X139613450Y-107722244D01*
X139542778Y-107939750D01*
X139542778Y-107939753D01*
X139507000Y-108165646D01*
X136527014Y-108165646D01*
X136445863Y-108084495D01*
X136442923Y-108081094D01*
X136430235Y-108053226D01*
X136415564Y-108026358D01*
X136415895Y-108021728D01*
X136413972Y-108017505D01*
X136418363Y-107987211D01*
X136420548Y-107956666D01*
X136423445Y-107952158D01*
X136423996Y-107948358D01*
X136431269Y-107939983D01*
X136449049Y-107912319D01*
X136489168Y-107872200D01*
X136542712Y-107818656D01*
X136634814Y-107669334D01*
X136689999Y-107502797D01*
X136700500Y-107400009D01*
X136700499Y-106599992D01*
X136700422Y-106599243D01*
X136689999Y-106497203D01*
X136689998Y-106497200D01*
X136663542Y-106417362D01*
X136634814Y-106330666D01*
X136542712Y-106181344D01*
X136418656Y-106057288D01*
X136269334Y-105965186D01*
X136102797Y-105910001D01*
X136102795Y-105910000D01*
X136000016Y-105899500D01*
X136000009Y-105899500D01*
X135512229Y-105899500D01*
X135445190Y-105879815D01*
X135424548Y-105863181D01*
X132786819Y-103225451D01*
X132753334Y-103164128D01*
X132750500Y-103137770D01*
X132750500Y-98795415D01*
X132770185Y-98728376D01*
X132822989Y-98682621D01*
X132892147Y-98672677D01*
X132955703Y-98701702D01*
X132984983Y-98739118D01*
X133025511Y-98818657D01*
X133040595Y-98848261D01*
X133169142Y-99025193D01*
X133323806Y-99179857D01*
X133422408Y-99251494D01*
X133500743Y-99308407D01*
X133625943Y-99372200D01*
X133695616Y-99407701D01*
X133695619Y-99407702D01*
X133799621Y-99441493D01*
X133903625Y-99475286D01*
X134003672Y-99491132D01*
X134119639Y-99509500D01*
X134119644Y-99509500D01*
X136116361Y-99509500D01*
X136221082Y-99492912D01*
X136332375Y-99475286D01*
X136540383Y-99407701D01*
X136735257Y-99308407D01*
X136834601Y-99236229D01*
X136912193Y-99179857D01*
X136912195Y-99179854D01*
X136912199Y-99179852D01*
X137066852Y-99025199D01*
X137066854Y-99025195D01*
X137066857Y-99025193D01*
X137126783Y-98942710D01*
X137195407Y-98848257D01*
X137294701Y-98653383D01*
X137362286Y-98445375D01*
X137382943Y-98314951D01*
X137396500Y-98229361D01*
X137396500Y-98010638D01*
X137375677Y-97879172D01*
X137362286Y-97794625D01*
X137294701Y-97586617D01*
X137294701Y-97586616D01*
X137246092Y-97491217D01*
X137195407Y-97391743D01*
X137151034Y-97330668D01*
X137066857Y-97214806D01*
X136912199Y-97060148D01*
X136912191Y-97060142D01*
X136761028Y-96950316D01*
X136718364Y-96894989D01*
X136712385Y-96825376D01*
X136744990Y-96763580D01*
X136761023Y-96749686D01*
X136912199Y-96639852D01*
X137066852Y-96485199D01*
X137066854Y-96485195D01*
X137066857Y-96485193D01*
X137123229Y-96407601D01*
X137195407Y-96308257D01*
X137294701Y-96113383D01*
X137362286Y-95905375D01*
X137386895Y-95749999D01*
X137396500Y-95689361D01*
X137396500Y-95470638D01*
X137366295Y-95279939D01*
X137362286Y-95254625D01*
X137313086Y-95103201D01*
X137294702Y-95046619D01*
X137294701Y-95046616D01*
X137250117Y-94959116D01*
X137195407Y-94851743D01*
X137152356Y-94792488D01*
X137066857Y-94674806D01*
X136912199Y-94520148D01*
X136912191Y-94520142D01*
X136761028Y-94410316D01*
X136718364Y-94354989D01*
X136712385Y-94285376D01*
X136744990Y-94223580D01*
X136761023Y-94209686D01*
X136912199Y-94099852D01*
X137066852Y-93945199D01*
X137066854Y-93945195D01*
X137066857Y-93945193D01*
X137143098Y-93840255D01*
X137195407Y-93768257D01*
X137294701Y-93573383D01*
X137362286Y-93365375D01*
X137388400Y-93200500D01*
X137396500Y-93149361D01*
X137396500Y-92930638D01*
X137364687Y-92729786D01*
X137362286Y-92714625D01*
X137311338Y-92557820D01*
X137294702Y-92506619D01*
X137294701Y-92506616D01*
X137260315Y-92439132D01*
X137195407Y-92311743D01*
X137187147Y-92300374D01*
X137066857Y-92134806D01*
X136912199Y-91980148D01*
X136879357Y-91956287D01*
X136761028Y-91870316D01*
X136718364Y-91814989D01*
X136712385Y-91745376D01*
X136744990Y-91683580D01*
X136761023Y-91669686D01*
X136912199Y-91559852D01*
X137066852Y-91405199D01*
X137066854Y-91405195D01*
X137066857Y-91405193D01*
X137125847Y-91323999D01*
X137195407Y-91228257D01*
X137294701Y-91033383D01*
X137362286Y-90825375D01*
X137382943Y-90694951D01*
X137396500Y-90609361D01*
X137396500Y-90390638D01*
X137371098Y-90230261D01*
X137362286Y-90174625D01*
X137294701Y-89966617D01*
X137294701Y-89966616D01*
X137260315Y-89899132D01*
X137195407Y-89771743D01*
X137187147Y-89760374D01*
X137066857Y-89594806D01*
X136912199Y-89440148D01*
X136853091Y-89397204D01*
X136761028Y-89330316D01*
X136718364Y-89274989D01*
X136712385Y-89205376D01*
X136744990Y-89143580D01*
X136761023Y-89129686D01*
X136912199Y-89019852D01*
X137066852Y-88865199D01*
X137066854Y-88865195D01*
X137066857Y-88865193D01*
X137125583Y-88784362D01*
X137195407Y-88688257D01*
X137294701Y-88493383D01*
X137362286Y-88285375D01*
X137382101Y-88160269D01*
X137396500Y-88069361D01*
X137396500Y-87850638D01*
X137368759Y-87675495D01*
X137362286Y-87634625D01*
X137317636Y-87497204D01*
X137294702Y-87426619D01*
X137294701Y-87426616D01*
X137245811Y-87330666D01*
X137195407Y-87231743D01*
X137187147Y-87220374D01*
X137066857Y-87054806D01*
X136912199Y-86900148D01*
X136882005Y-86878211D01*
X136761028Y-86790316D01*
X136718364Y-86734989D01*
X136712385Y-86665376D01*
X136744990Y-86603580D01*
X136761023Y-86589686D01*
X136912199Y-86479852D01*
X137066852Y-86325199D01*
X137066854Y-86325195D01*
X137066857Y-86325193D01*
X137135826Y-86230264D01*
X137195407Y-86148257D01*
X137294701Y-85953383D01*
X137362286Y-85745375D01*
X137382764Y-85616081D01*
X137396500Y-85529361D01*
X137396500Y-85310638D01*
X137374224Y-85170000D01*
X137362286Y-85094625D01*
X137306518Y-84922986D01*
X137294702Y-84886619D01*
X137294701Y-84886616D01*
X137260315Y-84819132D01*
X137195407Y-84691743D01*
X137155378Y-84636647D01*
X137066857Y-84514806D01*
X136912199Y-84360148D01*
X136912191Y-84360142D01*
X136761028Y-84250316D01*
X136718364Y-84194989D01*
X136712385Y-84125376D01*
X136744990Y-84063580D01*
X136761023Y-84049686D01*
X136912199Y-83939852D01*
X137066852Y-83785199D01*
X137066854Y-83785195D01*
X137066857Y-83785193D01*
X137124924Y-83705269D01*
X137195407Y-83608257D01*
X137294701Y-83413383D01*
X137362286Y-83205375D01*
X137385330Y-83059883D01*
X137396500Y-82989361D01*
X137396500Y-82770638D01*
X149603500Y-82770638D01*
X149603500Y-82989361D01*
X149637714Y-83205376D01*
X149705297Y-83413380D01*
X149705298Y-83413383D01*
X149754675Y-83510288D01*
X149801609Y-83602401D01*
X149804595Y-83608260D01*
X149933142Y-83785193D01*
X150087802Y-83939853D01*
X150087807Y-83939857D01*
X150239394Y-84049991D01*
X150282060Y-84105320D01*
X150288039Y-84174934D01*
X150255434Y-84236729D01*
X150239394Y-84250627D01*
X150088133Y-84360524D01*
X150088128Y-84360528D01*
X149933528Y-84515128D01*
X149933524Y-84515133D01*
X149805023Y-84692001D01*
X149705762Y-84886808D01*
X149705761Y-84886811D01*
X149638201Y-85094741D01*
X149626282Y-85170000D01*
X150677749Y-85170000D01*
X150646619Y-85223919D01*
X150612000Y-85353120D01*
X150612000Y-85486880D01*
X150646619Y-85616081D01*
X150677749Y-85670000D01*
X149626282Y-85670000D01*
X149638201Y-85745258D01*
X149705761Y-85953188D01*
X149705762Y-85953191D01*
X149805023Y-86147998D01*
X149933524Y-86324866D01*
X149933528Y-86324871D01*
X150088128Y-86479471D01*
X150088133Y-86479475D01*
X150239394Y-86589372D01*
X150282060Y-86644701D01*
X150288039Y-86714315D01*
X150255434Y-86776110D01*
X150239394Y-86790008D01*
X150087807Y-86900142D01*
X150087802Y-86900146D01*
X149933142Y-87054806D01*
X149804595Y-87231739D01*
X149705298Y-87426616D01*
X149705297Y-87426619D01*
X149637714Y-87634623D01*
X149603500Y-87850638D01*
X149603500Y-88069361D01*
X149637714Y-88285376D01*
X149705297Y-88493380D01*
X149705298Y-88493383D01*
X149772782Y-88625825D01*
X149794952Y-88669336D01*
X149804595Y-88688260D01*
X149933142Y-88865193D01*
X150087806Y-89019857D01*
X150238969Y-89129682D01*
X150281635Y-89185011D01*
X150287614Y-89254625D01*
X150255009Y-89316420D01*
X150238969Y-89330318D01*
X150087806Y-89440142D01*
X149933142Y-89594806D01*
X149804595Y-89771739D01*
X149705298Y-89966616D01*
X149705297Y-89966619D01*
X149637714Y-90174623D01*
X149603500Y-90390638D01*
X149603500Y-90609361D01*
X149637714Y-90825376D01*
X149705297Y-91033380D01*
X149705298Y-91033383D01*
X149756980Y-91134812D01*
X149790449Y-91200499D01*
X149804595Y-91228260D01*
X149933142Y-91405193D01*
X150087806Y-91559857D01*
X150238969Y-91669682D01*
X150281635Y-91725011D01*
X150287614Y-91794625D01*
X150255009Y-91856420D01*
X150238969Y-91870318D01*
X150087806Y-91980142D01*
X149933142Y-92134806D01*
X149804595Y-92311739D01*
X149705298Y-92506616D01*
X149705297Y-92506619D01*
X149637714Y-92714623D01*
X149603500Y-92930638D01*
X149603500Y-93149361D01*
X149637714Y-93365376D01*
X149705297Y-93573380D01*
X149705298Y-93573383D01*
X149772782Y-93705825D01*
X149785548Y-93730880D01*
X149804595Y-93768260D01*
X149933142Y-93945193D01*
X150087806Y-94099857D01*
X150238969Y-94209682D01*
X150281635Y-94265011D01*
X150287614Y-94334625D01*
X150255009Y-94396420D01*
X150238969Y-94410318D01*
X150087806Y-94520142D01*
X149933142Y-94674806D01*
X149804595Y-94851739D01*
X149705298Y-95046616D01*
X149705297Y-95046619D01*
X149637714Y-95254623D01*
X149603500Y-95470638D01*
X149603500Y-95689361D01*
X149637714Y-95905376D01*
X149705297Y-96113380D01*
X149705298Y-96113383D01*
X149764849Y-96230255D01*
X149777668Y-96255415D01*
X149804595Y-96308260D01*
X149933142Y-96485193D01*
X150087806Y-96639857D01*
X150238969Y-96749682D01*
X150281635Y-96805011D01*
X150287614Y-96874625D01*
X150255009Y-96936420D01*
X150238969Y-96950318D01*
X150087806Y-97060142D01*
X149933142Y-97214806D01*
X149804595Y-97391739D01*
X149705298Y-97586616D01*
X149705297Y-97586619D01*
X149637714Y-97794623D01*
X149603500Y-98010638D01*
X149603500Y-98229361D01*
X149637714Y-98445376D01*
X149705297Y-98653380D01*
X149705298Y-98653383D01*
X149760734Y-98762179D01*
X149800713Y-98840643D01*
X149804595Y-98848260D01*
X149933142Y-99025193D01*
X150087806Y-99179857D01*
X150186408Y-99251494D01*
X150264743Y-99308407D01*
X150389943Y-99372200D01*
X150459616Y-99407701D01*
X150459619Y-99407702D01*
X150563621Y-99441493D01*
X150667625Y-99475286D01*
X150767672Y-99491132D01*
X150883639Y-99509500D01*
X150883644Y-99509500D01*
X152880361Y-99509500D01*
X152985082Y-99492912D01*
X153096375Y-99475286D01*
X153304383Y-99407701D01*
X153499257Y-99308407D01*
X153598601Y-99236229D01*
X153676193Y-99179857D01*
X153676195Y-99179854D01*
X153676199Y-99179852D01*
X153830852Y-99025199D01*
X153830854Y-99025195D01*
X153830857Y-99025193D01*
X153890783Y-98942710D01*
X153959407Y-98848257D01*
X154058701Y-98653383D01*
X154126286Y-98445375D01*
X154146943Y-98314951D01*
X154160500Y-98229361D01*
X154160500Y-98010638D01*
X154139677Y-97879172D01*
X154126286Y-97794625D01*
X154058701Y-97586617D01*
X154058701Y-97586616D01*
X153999975Y-97471361D01*
X153999974Y-97471359D01*
X153974392Y-97421153D01*
X156199500Y-97421153D01*
X156199500Y-97578846D01*
X156230261Y-97733489D01*
X156230264Y-97733501D01*
X156290602Y-97879172D01*
X156290609Y-97879185D01*
X156378210Y-98010288D01*
X156378213Y-98010292D01*
X156489707Y-98121786D01*
X156489711Y-98121789D01*
X156620814Y-98209390D01*
X156620827Y-98209397D01*
X156766498Y-98269735D01*
X156766503Y-98269737D01*
X156921153Y-98300499D01*
X156921156Y-98300500D01*
X156921158Y-98300500D01*
X157078844Y-98300500D01*
X157078845Y-98300499D01*
X157155152Y-98285320D01*
X157233488Y-98269739D01*
X157233489Y-98269738D01*
X157233497Y-98269737D01*
X157257155Y-98259937D01*
X157304604Y-98250500D01*
X157950501Y-98250500D01*
X158017540Y-98270185D01*
X158063295Y-98322989D01*
X158074501Y-98374500D01*
X158074501Y-98400018D01*
X158085000Y-98502796D01*
X158085001Y-98502799D01*
X158113966Y-98590208D01*
X158140186Y-98669334D01*
X158232288Y-98818656D01*
X158356344Y-98942712D01*
X158505666Y-99034814D01*
X158672203Y-99089999D01*
X158774991Y-99100500D01*
X160125008Y-99100499D01*
X160227797Y-99089999D01*
X160394334Y-99034814D01*
X160543656Y-98942712D01*
X160667712Y-98818656D01*
X160759814Y-98669334D01*
X160814999Y-98502797D01*
X160825500Y-98400009D01*
X160825499Y-97599992D01*
X160814999Y-97497203D01*
X160759814Y-97330666D01*
X160667712Y-97181344D01*
X160543656Y-97057288D01*
X160543655Y-97057287D01*
X160479019Y-97017420D01*
X160432294Y-96965472D01*
X160421071Y-96896510D01*
X160448914Y-96832428D01*
X160456434Y-96824199D01*
X160564035Y-96716598D01*
X160665804Y-96576524D01*
X160744408Y-96422255D01*
X160797914Y-96257584D01*
X160799115Y-96250000D01*
X159730330Y-96250000D01*
X159750075Y-96230255D01*
X159799444Y-96144745D01*
X159825000Y-96049370D01*
X159825000Y-95950630D01*
X159799444Y-95855255D01*
X159750075Y-95769745D01*
X159730330Y-95750000D01*
X160799115Y-95750000D01*
X160799115Y-95749999D01*
X160797914Y-95742415D01*
X160744408Y-95577744D01*
X160665804Y-95423475D01*
X160564032Y-95283397D01*
X160441602Y-95160967D01*
X160301524Y-95059195D01*
X160147257Y-94980591D01*
X159982584Y-94927085D01*
X159811571Y-94900000D01*
X159700000Y-94900000D01*
X159700000Y-95719670D01*
X159680255Y-95699925D01*
X159594745Y-95650556D01*
X159499370Y-95625000D01*
X159400630Y-95625000D01*
X159305255Y-95650556D01*
X159219745Y-95699925D01*
X159200000Y-95719670D01*
X159200000Y-94900000D01*
X159088429Y-94900000D01*
X158917415Y-94927085D01*
X158752742Y-94980591D01*
X158598475Y-95059195D01*
X158458397Y-95160967D01*
X158335967Y-95283397D01*
X158234195Y-95423475D01*
X158155591Y-95577744D01*
X158102085Y-95742415D01*
X158100884Y-95749999D01*
X158100885Y-95750000D01*
X159169670Y-95750000D01*
X159149925Y-95769745D01*
X159100556Y-95855255D01*
X159075000Y-95950630D01*
X159075000Y-96049370D01*
X159100556Y-96144745D01*
X159149925Y-96230255D01*
X159169670Y-96250000D01*
X158100885Y-96250000D01*
X158102085Y-96257584D01*
X158155591Y-96422255D01*
X158230466Y-96569205D01*
X158243362Y-96637874D01*
X158217086Y-96702615D01*
X158159979Y-96742872D01*
X158119981Y-96749500D01*
X157304604Y-96749500D01*
X157257155Y-96740062D01*
X157233497Y-96730263D01*
X157233493Y-96730262D01*
X157233488Y-96730260D01*
X157078845Y-96699500D01*
X157078842Y-96699500D01*
X156921158Y-96699500D01*
X156921155Y-96699500D01*
X156766510Y-96730261D01*
X156766498Y-96730264D01*
X156620827Y-96790602D01*
X156620814Y-96790609D01*
X156489711Y-96878210D01*
X156489707Y-96878213D01*
X156378213Y-96989707D01*
X156378210Y-96989711D01*
X156290609Y-97120814D01*
X156290602Y-97120827D01*
X156230264Y-97266498D01*
X156230261Y-97266510D01*
X156199500Y-97421153D01*
X153974392Y-97421153D01*
X153959406Y-97391741D01*
X153830857Y-97214806D01*
X153676199Y-97060148D01*
X153676191Y-97060142D01*
X153525028Y-96950316D01*
X153482364Y-96894989D01*
X153476385Y-96825376D01*
X153508990Y-96763580D01*
X153525023Y-96749686D01*
X153676199Y-96639852D01*
X153830852Y-96485199D01*
X153830854Y-96485195D01*
X153830857Y-96485193D01*
X153887229Y-96407601D01*
X153959407Y-96308257D01*
X154058701Y-96113383D01*
X154126286Y-95905375D01*
X154150895Y-95749999D01*
X154160500Y-95689360D01*
X154160500Y-95470638D01*
X154130295Y-95279939D01*
X154126286Y-95254625D01*
X154077086Y-95103201D01*
X154058702Y-95046619D01*
X154058701Y-95046616D01*
X154014117Y-94959116D01*
X153959407Y-94851743D01*
X153916356Y-94792488D01*
X153830857Y-94674806D01*
X153676199Y-94520148D01*
X153676191Y-94520142D01*
X153525028Y-94410316D01*
X153482364Y-94354989D01*
X153476385Y-94285376D01*
X153508990Y-94223580D01*
X153525023Y-94209686D01*
X153676199Y-94099852D01*
X153830852Y-93945199D01*
X153830854Y-93945195D01*
X153830857Y-93945193D01*
X153907098Y-93840255D01*
X153959407Y-93768257D01*
X154058701Y-93573383D01*
X154126286Y-93365375D01*
X154152400Y-93200500D01*
X154160500Y-93149361D01*
X154160500Y-92930638D01*
X154128687Y-92729786D01*
X154126286Y-92714625D01*
X154075338Y-92557820D01*
X154058702Y-92506619D01*
X154058701Y-92506616D01*
X154024315Y-92439132D01*
X153959407Y-92311743D01*
X153951147Y-92300374D01*
X153830857Y-92134806D01*
X153676199Y-91980148D01*
X153643357Y-91956287D01*
X153525028Y-91870316D01*
X153482364Y-91814989D01*
X153476385Y-91745376D01*
X153508990Y-91683580D01*
X153525023Y-91669686D01*
X153676199Y-91559852D01*
X153830852Y-91405199D01*
X153830854Y-91405195D01*
X153830857Y-91405193D01*
X153889847Y-91323999D01*
X153959407Y-91228257D01*
X154058701Y-91033383D01*
X154079228Y-90970208D01*
X154095167Y-90921153D01*
X156199500Y-90921153D01*
X156199500Y-91078846D01*
X156230261Y-91233489D01*
X156230264Y-91233501D01*
X156290602Y-91379172D01*
X156290609Y-91379185D01*
X156378210Y-91510288D01*
X156378213Y-91510292D01*
X156489707Y-91621786D01*
X156489711Y-91621789D01*
X156620814Y-91709390D01*
X156620827Y-91709397D01*
X156720060Y-91750500D01*
X156766503Y-91769737D01*
X156891623Y-91794625D01*
X156921153Y-91800499D01*
X156921156Y-91800500D01*
X156921158Y-91800500D01*
X157078844Y-91800500D01*
X157078845Y-91800499D01*
X157155152Y-91785320D01*
X157233488Y-91769739D01*
X157233489Y-91769738D01*
X157233497Y-91769737D01*
X157257155Y-91759937D01*
X157304604Y-91750500D01*
X159073920Y-91750500D01*
X159171462Y-91731096D01*
X159218913Y-91721658D01*
X159355495Y-91665084D01*
X159420291Y-91621789D01*
X159420294Y-91621786D01*
X159420296Y-91621786D01*
X159449547Y-91602240D01*
X159478416Y-91582952D01*
X159924549Y-91136817D01*
X159985872Y-91103333D01*
X160012230Y-91100499D01*
X160500002Y-91100499D01*
X160500008Y-91100499D01*
X160602797Y-91089999D01*
X160769334Y-91034814D01*
X160918656Y-90942712D01*
X161042712Y-90818656D01*
X161134814Y-90669334D01*
X161189999Y-90502797D01*
X161200500Y-90400009D01*
X161200499Y-89599992D01*
X161189999Y-89497203D01*
X161134814Y-89330666D01*
X161042712Y-89181344D01*
X160949049Y-89087681D01*
X160915564Y-89026358D01*
X160920548Y-88956666D01*
X160949049Y-88912319D01*
X160995727Y-88865641D01*
X161042712Y-88818656D01*
X161134814Y-88669334D01*
X161189999Y-88502797D01*
X161200500Y-88400009D01*
X161200499Y-87599992D01*
X161189999Y-87497203D01*
X161134814Y-87330666D01*
X161042712Y-87181344D01*
X160918656Y-87057288D01*
X160918655Y-87057287D01*
X160859402Y-87020739D01*
X160812678Y-86968791D01*
X160803184Y-86927012D01*
X160801097Y-86927218D01*
X160800500Y-86921163D01*
X160800500Y-86921158D01*
X160769737Y-86766503D01*
X160756062Y-86733489D01*
X160709397Y-86620827D01*
X160709390Y-86620814D01*
X160621789Y-86489711D01*
X160621786Y-86489707D01*
X160510292Y-86378213D01*
X160510288Y-86378210D01*
X160379185Y-86290609D01*
X160379172Y-86290602D01*
X160233501Y-86230264D01*
X160233489Y-86230261D01*
X160078845Y-86199500D01*
X160078842Y-86199500D01*
X159921158Y-86199500D01*
X159921155Y-86199500D01*
X159766510Y-86230261D01*
X159766498Y-86230264D01*
X159620827Y-86290602D01*
X159620814Y-86290609D01*
X159489711Y-86378210D01*
X159489707Y-86378213D01*
X159378213Y-86489707D01*
X159378210Y-86489711D01*
X159290609Y-86620814D01*
X159290602Y-86620827D01*
X159230264Y-86766498D01*
X159230261Y-86766510D01*
X159199500Y-86921153D01*
X159198903Y-86927218D01*
X159196053Y-86926937D01*
X159179815Y-86982240D01*
X159140598Y-87020739D01*
X159081344Y-87057287D01*
X158957289Y-87181342D01*
X158865187Y-87330663D01*
X158865185Y-87330668D01*
X158844226Y-87393918D01*
X158810001Y-87497203D01*
X158810001Y-87497204D01*
X158810000Y-87497204D01*
X158799500Y-87599983D01*
X158799500Y-88400001D01*
X158799501Y-88400019D01*
X158810000Y-88502796D01*
X158810001Y-88502799D01*
X158865185Y-88669331D01*
X158865187Y-88669336D01*
X158900069Y-88725888D01*
X158936135Y-88784362D01*
X158957289Y-88818657D01*
X159050951Y-88912319D01*
X159084436Y-88973642D01*
X159079452Y-89043334D01*
X159050951Y-89087681D01*
X158957289Y-89181342D01*
X158865187Y-89330663D01*
X158865186Y-89330666D01*
X158810001Y-89497203D01*
X158810001Y-89497204D01*
X158810000Y-89497204D01*
X158799500Y-89599983D01*
X158799500Y-90087768D01*
X158790855Y-90117207D01*
X158784333Y-90147193D01*
X158780577Y-90152209D01*
X158779815Y-90154807D01*
X158763182Y-90175448D01*
X158725451Y-90213180D01*
X158664129Y-90246666D01*
X158637769Y-90249500D01*
X157304604Y-90249500D01*
X157257155Y-90240062D01*
X157233497Y-90230263D01*
X157233493Y-90230262D01*
X157233488Y-90230260D01*
X157078845Y-90199500D01*
X157078842Y-90199500D01*
X156921158Y-90199500D01*
X156921155Y-90199500D01*
X156766510Y-90230261D01*
X156766498Y-90230264D01*
X156620827Y-90290602D01*
X156620814Y-90290609D01*
X156489711Y-90378210D01*
X156489707Y-90378213D01*
X156378213Y-90489707D01*
X156378210Y-90489711D01*
X156290609Y-90620814D01*
X156290602Y-90620827D01*
X156230264Y-90766498D01*
X156230261Y-90766510D01*
X156199500Y-90921153D01*
X154095167Y-90921153D01*
X154109594Y-90876749D01*
X154109594Y-90876747D01*
X154126286Y-90825375D01*
X154146943Y-90694951D01*
X154160500Y-90609361D01*
X154160500Y-90390638D01*
X154135098Y-90230261D01*
X154126286Y-90174625D01*
X154058701Y-89966617D01*
X154058701Y-89966616D01*
X154024315Y-89899132D01*
X153959407Y-89771743D01*
X153951147Y-89760374D01*
X153830857Y-89594806D01*
X153676199Y-89440148D01*
X153617091Y-89397204D01*
X153525028Y-89330316D01*
X153482364Y-89274989D01*
X153476385Y-89205376D01*
X153508990Y-89143580D01*
X153525023Y-89129686D01*
X153676199Y-89019852D01*
X153830852Y-88865199D01*
X153830854Y-88865195D01*
X153830857Y-88865193D01*
X153889583Y-88784362D01*
X153959407Y-88688257D01*
X154058701Y-88493383D01*
X154126286Y-88285375D01*
X154146101Y-88160269D01*
X154160500Y-88069361D01*
X154160500Y-87850638D01*
X154132759Y-87675495D01*
X154126286Y-87634625D01*
X154081636Y-87497204D01*
X154058702Y-87426619D01*
X154058701Y-87426616D01*
X154009811Y-87330666D01*
X153959407Y-87231743D01*
X153951147Y-87220374D01*
X153830857Y-87054806D01*
X153676197Y-86900146D01*
X153676192Y-86900142D01*
X153524605Y-86790008D01*
X153481939Y-86734678D01*
X153475960Y-86665065D01*
X153508565Y-86603270D01*
X153524605Y-86589371D01*
X153675873Y-86479469D01*
X153830471Y-86324871D01*
X153830475Y-86324866D01*
X153958976Y-86147998D01*
X154058237Y-85953191D01*
X154058238Y-85953188D01*
X154125798Y-85745258D01*
X154137718Y-85670000D01*
X151562251Y-85670000D01*
X151593381Y-85616081D01*
X151628000Y-85486880D01*
X151628000Y-85353120D01*
X151593381Y-85223919D01*
X151562251Y-85170000D01*
X154137718Y-85170000D01*
X154125798Y-85094741D01*
X154058238Y-84886811D01*
X154058237Y-84886808D01*
X153958976Y-84692001D01*
X153830475Y-84515133D01*
X153830471Y-84515128D01*
X153675871Y-84360528D01*
X153675866Y-84360524D01*
X153524605Y-84250627D01*
X153481939Y-84195297D01*
X153475960Y-84125684D01*
X153508565Y-84063889D01*
X153524599Y-84049994D01*
X153676199Y-83939852D01*
X153830852Y-83785199D01*
X153830854Y-83785195D01*
X153830857Y-83785193D01*
X153888924Y-83705269D01*
X153959407Y-83608257D01*
X154058701Y-83413383D01*
X154126286Y-83205375D01*
X154149330Y-83059883D01*
X154160500Y-82989361D01*
X154160500Y-82770638D01*
X154130122Y-82578846D01*
X154126286Y-82554625D01*
X154081681Y-82417343D01*
X154058702Y-82346619D01*
X154058701Y-82346616D01*
X154017884Y-82266510D01*
X153959407Y-82151743D01*
X153942081Y-82127895D01*
X153830857Y-81974806D01*
X153676193Y-81820142D01*
X153499260Y-81691595D01*
X153499259Y-81691594D01*
X153499257Y-81691593D01*
X153436825Y-81659782D01*
X153304383Y-81592298D01*
X153304380Y-81592297D01*
X153096376Y-81524714D01*
X152880361Y-81490500D01*
X152880356Y-81490500D01*
X150883644Y-81490500D01*
X150883639Y-81490500D01*
X150667623Y-81524714D01*
X150459619Y-81592297D01*
X150459616Y-81592298D01*
X150264739Y-81691595D01*
X150087806Y-81820142D01*
X149933142Y-81974806D01*
X149804595Y-82151739D01*
X149705298Y-82346616D01*
X149705297Y-82346619D01*
X149637714Y-82554623D01*
X149603500Y-82770638D01*
X137396500Y-82770638D01*
X137366122Y-82578846D01*
X137362286Y-82554625D01*
X137317681Y-82417343D01*
X137294702Y-82346619D01*
X137294701Y-82346616D01*
X137253884Y-82266510D01*
X137195407Y-82151743D01*
X137178081Y-82127895D01*
X137066857Y-81974806D01*
X136912193Y-81820142D01*
X136735260Y-81691595D01*
X136735259Y-81691594D01*
X136735257Y-81691593D01*
X136672825Y-81659782D01*
X136540383Y-81592298D01*
X136540380Y-81592297D01*
X136332376Y-81524714D01*
X136116361Y-81490500D01*
X136116356Y-81490500D01*
X134119644Y-81490500D01*
X134119639Y-81490500D01*
X133903623Y-81524714D01*
X133695619Y-81592297D01*
X133695616Y-81592298D01*
X133500739Y-81691595D01*
X133323806Y-81820142D01*
X133169142Y-81974806D01*
X133040595Y-82151739D01*
X132941298Y-82346616D01*
X132941297Y-82346619D01*
X132873714Y-82554623D01*
X132839500Y-82770638D01*
X132839500Y-82989361D01*
X132873714Y-83205376D01*
X132941297Y-83413380D01*
X132941298Y-83413383D01*
X132990675Y-83510288D01*
X133037609Y-83602401D01*
X133040595Y-83608260D01*
X133169142Y-83785193D01*
X133323806Y-83939857D01*
X133474969Y-84049682D01*
X133517635Y-84105011D01*
X133523614Y-84174625D01*
X133491009Y-84236420D01*
X133474969Y-84250318D01*
X133323806Y-84360142D01*
X133169142Y-84514806D01*
X133040595Y-84691739D01*
X132941298Y-84886616D01*
X132941297Y-84886619D01*
X132873714Y-85094623D01*
X132839500Y-85310638D01*
X132839500Y-85529361D01*
X132873714Y-85745376D01*
X132941297Y-85953380D01*
X132941298Y-85953383D01*
X132990783Y-86050500D01*
X133040461Y-86147998D01*
X133040595Y-86148260D01*
X133169142Y-86325193D01*
X133323806Y-86479857D01*
X133474969Y-86589682D01*
X133517635Y-86645011D01*
X133523614Y-86714625D01*
X133491009Y-86776420D01*
X133474969Y-86790318D01*
X133323806Y-86900142D01*
X133169142Y-87054806D01*
X133040595Y-87231739D01*
X132941298Y-87426616D01*
X132941297Y-87426619D01*
X132873714Y-87634623D01*
X132839500Y-87850638D01*
X132839500Y-88069361D01*
X132873714Y-88285376D01*
X132941297Y-88493380D01*
X132941298Y-88493383D01*
X133008782Y-88625825D01*
X133030952Y-88669336D01*
X133040595Y-88688260D01*
X133169142Y-88865193D01*
X133323806Y-89019857D01*
X133474969Y-89129682D01*
X133517635Y-89185011D01*
X133523614Y-89254625D01*
X133491009Y-89316420D01*
X133474969Y-89330318D01*
X133323806Y-89440142D01*
X133169142Y-89594806D01*
X133040595Y-89771739D01*
X132941298Y-89966616D01*
X132941297Y-89966619D01*
X132873714Y-90174623D01*
X132839500Y-90390638D01*
X132839500Y-90609361D01*
X132873714Y-90825376D01*
X132941297Y-91033380D01*
X132941298Y-91033383D01*
X132992980Y-91134812D01*
X133026449Y-91200499D01*
X133040595Y-91228260D01*
X133169142Y-91405193D01*
X133323806Y-91559857D01*
X133474969Y-91669682D01*
X133517635Y-91725011D01*
X133523614Y-91794625D01*
X133491009Y-91856420D01*
X133474969Y-91870318D01*
X133323806Y-91980142D01*
X133169142Y-92134806D01*
X133040595Y-92311739D01*
X132941298Y-92506616D01*
X132941297Y-92506619D01*
X132873714Y-92714623D01*
X132839500Y-92930638D01*
X132839500Y-93149361D01*
X132873714Y-93365376D01*
X132941297Y-93573380D01*
X132941298Y-93573383D01*
X133008782Y-93705825D01*
X133021548Y-93730880D01*
X133040595Y-93768260D01*
X133169142Y-93945193D01*
X133323806Y-94099857D01*
X133474969Y-94209682D01*
X133517635Y-94265011D01*
X133523614Y-94334625D01*
X133491009Y-94396420D01*
X133474969Y-94410318D01*
X133323806Y-94520142D01*
X133169142Y-94674806D01*
X133040594Y-94851739D01*
X133020321Y-94891527D01*
X132972345Y-94942322D01*
X132904524Y-94959116D01*
X132838389Y-94936577D01*
X132794939Y-94881861D01*
X132788220Y-94859421D01*
X132769738Y-94766510D01*
X132769737Y-94766503D01*
X132731753Y-94674801D01*
X132709397Y-94620827D01*
X132709390Y-94620814D01*
X132621789Y-94489711D01*
X132621786Y-94489707D01*
X132510292Y-94378213D01*
X132510288Y-94378210D01*
X132379185Y-94290609D01*
X132379172Y-94290602D01*
X132233501Y-94230264D01*
X132233489Y-94230261D01*
X132078845Y-94199500D01*
X132078842Y-94199500D01*
X131921158Y-94199500D01*
X131921155Y-94199500D01*
X131766510Y-94230261D01*
X131766498Y-94230264D01*
X131620827Y-94290602D01*
X131620814Y-94290609D01*
X131489711Y-94378210D01*
X131489707Y-94378213D01*
X131378213Y-94489707D01*
X131378210Y-94489711D01*
X131290609Y-94620814D01*
X131290602Y-94620827D01*
X131230264Y-94766498D01*
X131230261Y-94766510D01*
X131199500Y-94921153D01*
X131199500Y-95078846D01*
X131230261Y-95233489D01*
X131230263Y-95233497D01*
X131240061Y-95257151D01*
X131249500Y-95304604D01*
X131249500Y-103573918D01*
X131249500Y-103573920D01*
X131249499Y-103573920D01*
X131278340Y-103718907D01*
X131278343Y-103718917D01*
X131334914Y-103855491D01*
X131334916Y-103855495D01*
X131350741Y-103879179D01*
X131350740Y-103879179D01*
X131417046Y-103978414D01*
X131417052Y-103978421D01*
X134263181Y-106824548D01*
X134296666Y-106885871D01*
X134299500Y-106912229D01*
X134299500Y-107400001D01*
X134299501Y-107400019D01*
X134310000Y-107502796D01*
X134310001Y-107502799D01*
X134365185Y-107669331D01*
X134365187Y-107669336D01*
X134387728Y-107705880D01*
X134450786Y-107808115D01*
X134457289Y-107818657D01*
X134550951Y-107912319D01*
X134584436Y-107973642D01*
X134579452Y-108043334D01*
X134550951Y-108087681D01*
X134457289Y-108181342D01*
X134365187Y-108330663D01*
X134365186Y-108330666D01*
X134310001Y-108497203D01*
X134310001Y-108497204D01*
X134310000Y-108497204D01*
X134299500Y-108599983D01*
X134299500Y-109400001D01*
X134299501Y-109400019D01*
X134310000Y-109502796D01*
X134310001Y-109502799D01*
X134365185Y-109669331D01*
X134365187Y-109669336D01*
X134393048Y-109714506D01*
X134457288Y-109818656D01*
X134581344Y-109942712D01*
X134690597Y-110010099D01*
X134737321Y-110062047D01*
X134749500Y-110115638D01*
X134749500Y-110123918D01*
X134749500Y-110123920D01*
X134749499Y-110123920D01*
X134778340Y-110268907D01*
X134778343Y-110268917D01*
X134834914Y-110405492D01*
X134867812Y-110454727D01*
X134867813Y-110454730D01*
X134917046Y-110528414D01*
X134917052Y-110528421D01*
X138060933Y-113672300D01*
X138094418Y-113733623D01*
X138095725Y-113779379D01*
X138074500Y-113913389D01*
X138074500Y-114086611D01*
X138101598Y-114257701D01*
X138155127Y-114422445D01*
X138233768Y-114576788D01*
X138335586Y-114716928D01*
X138458072Y-114839414D01*
X138541449Y-114899991D01*
X138584114Y-114955322D01*
X138590093Y-115024935D01*
X138557487Y-115086730D01*
X138541448Y-115100627D01*
X138458404Y-115160961D01*
X138458399Y-115160965D01*
X138335967Y-115283397D01*
X138234195Y-115423475D01*
X138155591Y-115577744D01*
X138102085Y-115742415D01*
X138100884Y-115749999D01*
X138100885Y-115750000D01*
X139169670Y-115750000D01*
X139149925Y-115769745D01*
X139100556Y-115855255D01*
X139075000Y-115950630D01*
X139075000Y-116049370D01*
X139100556Y-116144745D01*
X139149925Y-116230255D01*
X139169670Y-116250000D01*
X138100885Y-116250000D01*
X138102085Y-116257584D01*
X138155591Y-116422255D01*
X138234195Y-116576524D01*
X138335967Y-116716602D01*
X138443565Y-116824200D01*
X138477050Y-116885523D01*
X138472066Y-116955215D01*
X138430194Y-117011148D01*
X138420981Y-117017420D01*
X138356342Y-117057289D01*
X138232289Y-117181342D01*
X138164901Y-117290597D01*
X138112953Y-117337321D01*
X138059362Y-117349500D01*
X131358308Y-117349500D01*
X131291269Y-117329815D01*
X131270627Y-117313181D01*
X122982432Y-109024986D01*
X124875001Y-109024986D01*
X124885494Y-109127697D01*
X124940641Y-109294119D01*
X124940643Y-109294124D01*
X125032684Y-109443345D01*
X125156654Y-109567315D01*
X125305875Y-109659356D01*
X125305880Y-109659358D01*
X125472302Y-109714505D01*
X125472309Y-109714506D01*
X125575019Y-109724999D01*
X125712499Y-109724999D01*
X125712500Y-109724998D01*
X125712500Y-108750000D01*
X124875001Y-108750000D01*
X124875001Y-109024986D01*
X122982432Y-109024986D01*
X122661818Y-108704372D01*
X122628333Y-108643049D01*
X122625499Y-108616691D01*
X122625499Y-107975013D01*
X124875000Y-107975013D01*
X124875000Y-108250000D01*
X125712500Y-108250000D01*
X125712500Y-107275000D01*
X126212500Y-107275000D01*
X126212500Y-109724999D01*
X126349972Y-109724999D01*
X126349986Y-109724998D01*
X126452697Y-109714505D01*
X126619119Y-109659358D01*
X126619124Y-109659356D01*
X126768345Y-109567315D01*
X126892318Y-109443342D01*
X126894165Y-109440348D01*
X126895969Y-109438724D01*
X126896798Y-109437677D01*
X126896976Y-109437818D01*
X126946110Y-109393621D01*
X127015073Y-109382396D01*
X127079156Y-109410236D01*
X127105243Y-109440341D01*
X127107288Y-109443656D01*
X127231344Y-109567712D01*
X127380666Y-109659814D01*
X127547203Y-109714999D01*
X127649991Y-109725500D01*
X128425008Y-109725499D01*
X128425016Y-109725498D01*
X128425019Y-109725498D01*
X128481302Y-109719748D01*
X128527797Y-109714999D01*
X128694334Y-109659814D01*
X128843656Y-109567712D01*
X128967712Y-109443656D01*
X129059814Y-109294334D01*
X129114999Y-109127797D01*
X129125500Y-109025009D01*
X129125499Y-107974992D01*
X129123166Y-107952158D01*
X129114999Y-107872203D01*
X129114998Y-107872200D01*
X129111003Y-107860144D01*
X129059814Y-107705666D01*
X128967712Y-107556344D01*
X128843656Y-107432288D01*
X128746902Y-107372610D01*
X128700179Y-107320663D01*
X128688000Y-107267072D01*
X128688000Y-103948811D01*
X128706823Y-103884705D01*
X128706525Y-103884546D01*
X128707291Y-103883112D01*
X128707685Y-103881772D01*
X128708826Y-103880027D01*
X128709394Y-103879179D01*
X128769737Y-103733497D01*
X128800500Y-103578842D01*
X128800500Y-103421158D01*
X128800500Y-103421155D01*
X128800499Y-103421153D01*
X128776711Y-103301565D01*
X128769737Y-103266503D01*
X128769735Y-103266498D01*
X128709397Y-103120827D01*
X128709390Y-103120814D01*
X128621789Y-102989711D01*
X128621786Y-102989707D01*
X128510292Y-102878213D01*
X128510288Y-102878210D01*
X128379185Y-102790609D01*
X128379172Y-102790602D01*
X128233501Y-102730264D01*
X128233489Y-102730261D01*
X128078845Y-102699500D01*
X128078842Y-102699500D01*
X127921158Y-102699500D01*
X127921155Y-102699500D01*
X127766510Y-102730261D01*
X127766498Y-102730264D01*
X127620827Y-102790602D01*
X127620814Y-102790609D01*
X127489711Y-102878210D01*
X127489707Y-102878213D01*
X127378213Y-102989707D01*
X127378210Y-102989711D01*
X127290609Y-103120814D01*
X127290602Y-103120827D01*
X127230264Y-103266498D01*
X127230261Y-103266510D01*
X127199500Y-103421153D01*
X127199500Y-103578846D01*
X127230261Y-103733489D01*
X127230264Y-103733501D01*
X127290602Y-103879172D01*
X127290609Y-103879185D01*
X127366102Y-103992167D01*
X127386980Y-104058844D01*
X127387000Y-104061058D01*
X127387000Y-107267072D01*
X127367315Y-107334111D01*
X127328098Y-107372609D01*
X127290600Y-107395739D01*
X127231342Y-107432289D01*
X127107288Y-107556343D01*
X127107283Y-107556349D01*
X127105241Y-107559661D01*
X127103247Y-107561453D01*
X127102807Y-107562011D01*
X127102711Y-107561935D01*
X127053291Y-107606383D01*
X126984328Y-107617602D01*
X126920247Y-107589755D01*
X126894168Y-107559656D01*
X126892319Y-107556659D01*
X126892316Y-107556655D01*
X126768345Y-107432684D01*
X126619124Y-107340643D01*
X126619119Y-107340641D01*
X126452697Y-107285494D01*
X126452690Y-107285493D01*
X126349986Y-107275000D01*
X126212500Y-107275000D01*
X125712500Y-107275000D01*
X125575027Y-107275000D01*
X125575012Y-107275001D01*
X125472302Y-107285494D01*
X125305880Y-107340641D01*
X125305875Y-107340643D01*
X125156654Y-107432684D01*
X125032684Y-107556654D01*
X124940643Y-107705875D01*
X124940641Y-107705880D01*
X124885494Y-107872302D01*
X124885493Y-107872309D01*
X124875000Y-107975013D01*
X122625499Y-107975013D01*
X122625499Y-107974998D01*
X122625498Y-107974981D01*
X122614999Y-107872203D01*
X122614998Y-107872200D01*
X122611003Y-107860144D01*
X122559814Y-107705666D01*
X122467712Y-107556344D01*
X122343656Y-107432288D01*
X122209402Y-107349480D01*
X122162679Y-107297533D01*
X122150500Y-107243942D01*
X122150500Y-101789426D01*
X122170185Y-101722387D01*
X122222989Y-101676632D01*
X122292147Y-101666688D01*
X122321945Y-101674862D01*
X122386256Y-101701501D01*
X122386260Y-101701501D01*
X122386261Y-101701502D01*
X122511928Y-101726500D01*
X122511931Y-101726500D01*
X126988071Y-101726500D01*
X127072615Y-101709682D01*
X127113744Y-101701501D01*
X127232127Y-101652465D01*
X127338669Y-101581277D01*
X127658128Y-101261816D01*
X127719450Y-101228333D01*
X127745808Y-101225499D01*
X128387502Y-101225499D01*
X128387508Y-101225499D01*
X128490297Y-101214999D01*
X128656834Y-101159814D01*
X128806156Y-101067712D01*
X128930212Y-100943656D01*
X129022314Y-100794334D01*
X129077499Y-100627797D01*
X129088000Y-100525009D01*
X129087999Y-99883306D01*
X129107683Y-99816268D01*
X129124313Y-99795631D01*
X130786313Y-98133633D01*
X130857502Y-98027090D01*
X130906538Y-97908707D01*
X130929231Y-97794625D01*
X130931537Y-97783034D01*
X130931537Y-83101845D01*
X130951222Y-83034806D01*
X130967856Y-83014164D01*
X132222136Y-81759885D01*
X133505277Y-80476744D01*
X133576465Y-80370202D01*
X133587918Y-80342551D01*
X133625501Y-80251819D01*
X133650500Y-80126144D01*
X133650500Y-79504935D01*
X133670185Y-79437896D01*
X133671366Y-79436090D01*
X133709394Y-79379179D01*
X133769737Y-79233497D01*
X133800500Y-79078842D01*
X133800500Y-78921158D01*
X133800500Y-78921155D01*
X133800499Y-78921153D01*
X133774531Y-78790606D01*
X133769737Y-78766503D01*
X133769735Y-78766498D01*
X133709397Y-78620827D01*
X133709390Y-78620814D01*
X133621789Y-78489711D01*
X133621786Y-78489707D01*
X133510292Y-78378213D01*
X133510288Y-78378210D01*
X133440369Y-78331491D01*
X157499500Y-78331491D01*
X157499500Y-78668508D01*
X157537231Y-79003381D01*
X157537233Y-79003397D01*
X157612223Y-79331953D01*
X157612227Y-79331965D01*
X157723532Y-79650054D01*
X157869752Y-79953683D01*
X157869754Y-79953686D01*
X158049054Y-80239039D01*
X158259175Y-80502523D01*
X158497477Y-80740825D01*
X158760961Y-80950946D01*
X159046314Y-81130246D01*
X159349949Y-81276469D01*
X159588848Y-81360063D01*
X159668034Y-81387772D01*
X159668046Y-81387776D01*
X159996606Y-81462767D01*
X160331492Y-81500499D01*
X160331493Y-81500500D01*
X160331496Y-81500500D01*
X160668507Y-81500500D01*
X160668507Y-81500499D01*
X161003394Y-81462767D01*
X161331954Y-81387776D01*
X161650051Y-81276469D01*
X161953686Y-81130246D01*
X162239039Y-80950946D01*
X162502523Y-80740825D01*
X162740825Y-80502523D01*
X162950946Y-80239039D01*
X163130246Y-79953686D01*
X163276469Y-79650051D01*
X163387776Y-79331954D01*
X163462767Y-79003394D01*
X163500500Y-78668504D01*
X163500500Y-78331496D01*
X163462767Y-77996606D01*
X163387776Y-77668046D01*
X163276469Y-77349949D01*
X163130246Y-77046314D01*
X162950946Y-76760961D01*
X162740825Y-76497477D01*
X162502523Y-76259175D01*
X162491331Y-76250250D01*
X162280520Y-76082134D01*
X162239039Y-76049054D01*
X161953686Y-75869754D01*
X161953683Y-75869752D01*
X161650054Y-75723532D01*
X161331965Y-75612227D01*
X161331953Y-75612223D01*
X161003397Y-75537233D01*
X161003381Y-75537231D01*
X160668508Y-75499500D01*
X160668504Y-75499500D01*
X160331496Y-75499500D01*
X160331491Y-75499500D01*
X159996618Y-75537231D01*
X159996602Y-75537233D01*
X159668046Y-75612223D01*
X159668034Y-75612227D01*
X159349945Y-75723532D01*
X159046316Y-75869752D01*
X158760962Y-76049053D01*
X158497477Y-76259174D01*
X158259174Y-76497477D01*
X158049053Y-76760962D01*
X157869752Y-77046316D01*
X157723532Y-77349945D01*
X157612227Y-77668034D01*
X157612223Y-77668046D01*
X157537233Y-77996602D01*
X157537231Y-77996618D01*
X157499500Y-78331491D01*
X133440369Y-78331491D01*
X133379185Y-78290609D01*
X133379172Y-78290602D01*
X133233501Y-78230264D01*
X133233489Y-78230261D01*
X133078845Y-78199500D01*
X133078842Y-78199500D01*
X132921158Y-78199500D01*
X132921155Y-78199500D01*
X132766510Y-78230261D01*
X132766498Y-78230264D01*
X132620827Y-78290602D01*
X132620814Y-78290609D01*
X132489711Y-78378210D01*
X132489707Y-78378213D01*
X132378213Y-78489707D01*
X132378210Y-78489711D01*
X132290609Y-78620814D01*
X132290602Y-78620827D01*
X132230264Y-78766498D01*
X132230261Y-78766510D01*
X132199500Y-78921153D01*
X132199500Y-79078846D01*
X132230261Y-79233489D01*
X132230264Y-79233501D01*
X132290602Y-79379172D01*
X132290606Y-79379179D01*
X132328602Y-79436044D01*
X132334253Y-79454091D01*
X132344477Y-79470000D01*
X132348928Y-79500959D01*
X132349480Y-79502721D01*
X132349500Y-79504935D01*
X132349500Y-79741265D01*
X132329815Y-79808304D01*
X132313181Y-79828946D01*
X129724784Y-82417343D01*
X129663461Y-82450828D01*
X129593769Y-82445844D01*
X129549422Y-82417343D01*
X129510292Y-82378213D01*
X129510284Y-82378207D01*
X129472712Y-82353102D01*
X129427906Y-82299490D01*
X129419199Y-82230165D01*
X129449353Y-82167138D01*
X129472712Y-82146898D01*
X129501151Y-82127895D01*
X129510289Y-82121789D01*
X129621789Y-82010289D01*
X129709394Y-81879179D01*
X129769737Y-81733497D01*
X129800500Y-81578842D01*
X129800500Y-81421158D01*
X129800500Y-81421155D01*
X129800499Y-81421153D01*
X129776347Y-81299735D01*
X129769737Y-81266503D01*
X129758806Y-81240113D01*
X129709397Y-81120827D01*
X129709390Y-81120814D01*
X129621789Y-80989711D01*
X129621786Y-80989707D01*
X129510292Y-80878213D01*
X129510288Y-80878210D01*
X129379185Y-80790609D01*
X129379172Y-80790602D01*
X129233501Y-80730264D01*
X129233489Y-80730261D01*
X129078845Y-80699500D01*
X129078842Y-80699500D01*
X128921158Y-80699500D01*
X128921155Y-80699500D01*
X128766510Y-80730261D01*
X128766498Y-80730264D01*
X128620827Y-80790602D01*
X128620820Y-80790606D01*
X128591928Y-80809911D01*
X128563955Y-80828602D01*
X128497279Y-80849480D01*
X128495065Y-80849500D01*
X127661038Y-80849500D01*
X127647782Y-80848789D01*
X127632073Y-80847100D01*
X127632072Y-80847100D01*
X126367929Y-80847100D01*
X126367923Y-80847101D01*
X126308316Y-80853508D01*
X126173471Y-80903802D01*
X126173464Y-80903806D01*
X126058255Y-80990052D01*
X126058252Y-80990055D01*
X125972006Y-81105264D01*
X125972002Y-81105271D01*
X125921710Y-81240113D01*
X125921709Y-81240117D01*
X125915300Y-81299727D01*
X125915300Y-81299734D01*
X125915300Y-81299735D01*
X125915300Y-81700270D01*
X125915301Y-81700276D01*
X125921708Y-81759883D01*
X125929834Y-81781669D01*
X125934817Y-81851361D01*
X125929834Y-81868329D01*
X125921710Y-81890111D01*
X125921710Y-81890115D01*
X125921709Y-81890118D01*
X125915300Y-81949728D01*
X125915300Y-81949735D01*
X125915300Y-81949736D01*
X125915300Y-82350271D01*
X125915301Y-82350277D01*
X125921708Y-82409884D01*
X125929833Y-82431667D01*
X125934817Y-82501359D01*
X125929835Y-82518327D01*
X125921708Y-82540117D01*
X125915301Y-82599717D01*
X125915300Y-82599736D01*
X125915300Y-83000270D01*
X125915301Y-83000276D01*
X125921708Y-83059883D01*
X125930100Y-83082382D01*
X125935084Y-83152074D01*
X125930101Y-83169043D01*
X125922202Y-83190221D01*
X125922201Y-83190225D01*
X125915800Y-83249756D01*
X125915800Y-83297601D01*
X126000491Y-83297601D01*
X126021739Y-83303840D01*
X126043825Y-83305420D01*
X126063261Y-83316032D01*
X126067530Y-83317286D01*
X126074802Y-83322334D01*
X126112738Y-83350733D01*
X126154609Y-83406667D01*
X126159593Y-83476359D01*
X126126108Y-83537682D01*
X126112739Y-83549266D01*
X126074801Y-83577667D01*
X126009337Y-83602085D01*
X126000489Y-83602401D01*
X125915800Y-83602401D01*
X125915800Y-83650245D01*
X125922201Y-83709773D01*
X125922203Y-83709780D01*
X125930100Y-83730954D01*
X125935083Y-83800646D01*
X125930101Y-83817613D01*
X125921710Y-83840111D01*
X125921708Y-83840120D01*
X125915301Y-83899716D01*
X125915301Y-83899725D01*
X125915300Y-83899735D01*
X125915300Y-84046097D01*
X125895615Y-84113136D01*
X125842811Y-84158891D01*
X125838756Y-84160657D01*
X125807674Y-84173532D01*
X125701126Y-84244724D01*
X125559525Y-84386325D01*
X125559519Y-84386333D01*
X125490181Y-84490104D01*
X125490182Y-84490105D01*
X125488337Y-84492865D01*
X125488336Y-84492868D01*
X125439299Y-84611253D01*
X125439297Y-84611259D01*
X125414300Y-84736926D01*
X125414300Y-88676000D01*
X125394615Y-88743039D01*
X125341811Y-88788794D01*
X125290300Y-88800000D01*
X125250000Y-88800000D01*
X125250000Y-91199999D01*
X125290300Y-91199999D01*
X125357339Y-91219684D01*
X125403094Y-91272488D01*
X125414300Y-91323999D01*
X125414300Y-98702220D01*
X125394615Y-98769259D01*
X125341811Y-98815014D01*
X125329305Y-98819925D01*
X125268170Y-98840183D01*
X125268169Y-98840184D01*
X125118842Y-98932289D01*
X124994789Y-99056342D01*
X124902687Y-99205663D01*
X124902685Y-99205668D01*
X124902615Y-99205880D01*
X124847501Y-99372203D01*
X124847501Y-99372204D01*
X124847500Y-99372204D01*
X124837000Y-99474983D01*
X124837000Y-99474996D01*
X124837001Y-100301500D01*
X124817317Y-100368539D01*
X124764513Y-100414294D01*
X124713001Y-100425500D01*
X122896808Y-100425500D01*
X122829769Y-100405815D01*
X122809127Y-100389181D01*
X122624318Y-100204372D01*
X122590833Y-100143049D01*
X122587999Y-100116691D01*
X122587999Y-99474998D01*
X122587998Y-99474981D01*
X122577499Y-99372203D01*
X122577498Y-99372200D01*
X122556358Y-99308404D01*
X122522314Y-99205666D01*
X122430212Y-99056344D01*
X122306156Y-98932288D01*
X122169924Y-98848260D01*
X122156836Y-98840187D01*
X122156831Y-98840185D01*
X122095690Y-98819925D01*
X121990297Y-98785001D01*
X121990295Y-98785000D01*
X121887510Y-98774500D01*
X121112498Y-98774500D01*
X121112480Y-98774501D01*
X121009703Y-98785000D01*
X121009700Y-98785001D01*
X120843168Y-98840185D01*
X120843163Y-98840187D01*
X120693842Y-98932289D01*
X120569788Y-99056343D01*
X120569783Y-99056349D01*
X120567741Y-99059661D01*
X120565747Y-99061453D01*
X120565307Y-99062011D01*
X120565211Y-99061935D01*
X120515791Y-99106383D01*
X120446828Y-99117602D01*
X120382747Y-99089755D01*
X120356668Y-99059656D01*
X120354819Y-99056659D01*
X120354816Y-99056655D01*
X120230845Y-98932684D01*
X120081624Y-98840643D01*
X120081619Y-98840641D01*
X119915197Y-98785494D01*
X119915190Y-98785493D01*
X119812486Y-98775000D01*
X119675000Y-98775000D01*
X119175000Y-98775000D01*
X119037527Y-98775000D01*
X119037512Y-98775001D01*
X118934802Y-98785494D01*
X118768380Y-98840641D01*
X118768375Y-98840643D01*
X118619154Y-98932684D01*
X118495184Y-99056654D01*
X118403143Y-99205875D01*
X118403141Y-99205880D01*
X118347994Y-99372302D01*
X118347993Y-99372309D01*
X118337500Y-99475013D01*
X113820500Y-99475013D01*
X113820500Y-99363713D01*
X113787246Y-99153757D01*
X113721557Y-98951588D01*
X113625051Y-98762184D01*
X113625049Y-98762181D01*
X113625048Y-98762179D01*
X113500109Y-98590213D01*
X113349786Y-98439890D01*
X113173875Y-98312085D01*
X113174851Y-98310740D01*
X113132834Y-98264295D01*
X113120500Y-98210382D01*
X113120500Y-96555596D01*
X113140185Y-96488557D01*
X113192989Y-96442802D01*
X113262147Y-96432858D01*
X113325703Y-96461883D01*
X113344814Y-96482705D01*
X113433621Y-96604937D01*
X113595063Y-96766379D01*
X113779772Y-96900579D01*
X113840641Y-96931593D01*
X113983196Y-97004229D01*
X113983198Y-97004229D01*
X113983201Y-97004231D01*
X114099592Y-97042049D01*
X114200339Y-97074784D01*
X114425838Y-97110500D01*
X114425843Y-97110500D01*
X114654162Y-97110500D01*
X114879660Y-97074784D01*
X115096799Y-97004231D01*
X115300228Y-96900579D01*
X115484937Y-96766379D01*
X115646379Y-96604937D01*
X115780579Y-96420228D01*
X115884231Y-96216799D01*
X115954784Y-95999660D01*
X115969717Y-95905376D01*
X115990500Y-95774162D01*
X115990500Y-95545837D01*
X115954784Y-95320339D01*
X115884229Y-95103196D01*
X115821758Y-94980591D01*
X115780579Y-94899772D01*
X115646379Y-94715063D01*
X115484937Y-94553621D01*
X115300228Y-94419421D01*
X115255086Y-94396420D01*
X115096803Y-94315770D01*
X114879660Y-94245215D01*
X114654162Y-94209500D01*
X114654157Y-94209500D01*
X114425843Y-94209500D01*
X114425838Y-94209500D01*
X114200339Y-94245215D01*
X113983196Y-94315770D01*
X113779771Y-94419421D01*
X113595061Y-94553622D01*
X113433622Y-94715061D01*
X113344818Y-94837289D01*
X113289487Y-94879954D01*
X113219874Y-94885933D01*
X113158079Y-94853327D01*
X113123722Y-94792488D01*
X113120500Y-94764403D01*
X113120500Y-94350808D01*
X113140185Y-94283769D01*
X113156819Y-94263127D01*
X119005273Y-88414673D01*
X119005277Y-88414669D01*
X119076465Y-88308127D01*
X119098815Y-88254169D01*
X119125501Y-88189744D01*
X119133682Y-88148615D01*
X119150500Y-88064071D01*
X119150500Y-87004935D01*
X119170185Y-86937896D01*
X119171366Y-86936090D01*
X119209394Y-86879179D01*
X119269737Y-86733497D01*
X119300500Y-86578842D01*
X119300500Y-86421158D01*
X119300500Y-86421155D01*
X119300499Y-86421153D01*
X119276140Y-86298688D01*
X119282367Y-86229097D01*
X119325230Y-86173919D01*
X119391120Y-86150675D01*
X119397757Y-86150497D01*
X120052791Y-86150497D01*
X120119830Y-86170182D01*
X120165585Y-86222986D01*
X120176080Y-86261243D01*
X120176646Y-86266503D01*
X120181308Y-86309881D01*
X120231602Y-86444726D01*
X120231606Y-86444733D01*
X120317852Y-86559942D01*
X120317855Y-86559945D01*
X120433064Y-86646191D01*
X120433071Y-86646195D01*
X120478018Y-86662959D01*
X120567917Y-86696489D01*
X120627527Y-86702898D01*
X120865662Y-86702897D01*
X120932700Y-86722581D01*
X120978455Y-86775385D01*
X120988399Y-86844544D01*
X120959374Y-86908099D01*
X120953343Y-86914578D01*
X120878210Y-86989711D01*
X120790609Y-87120814D01*
X120790602Y-87120827D01*
X120730263Y-87266500D01*
X120730261Y-87266506D01*
X120716919Y-87333581D01*
X120684533Y-87395491D01*
X120682983Y-87397069D01*
X118994725Y-89085328D01*
X118994724Y-89085329D01*
X118994723Y-89085331D01*
X118952578Y-89148407D01*
X118938056Y-89170140D01*
X118923535Y-89191872D01*
X118923533Y-89191875D01*
X118874499Y-89310255D01*
X118874497Y-89310261D01*
X118849500Y-89435928D01*
X118849500Y-93284362D01*
X118829815Y-93351401D01*
X118790598Y-93389899D01*
X118722288Y-93432033D01*
X118681342Y-93457289D01*
X118557289Y-93581342D01*
X118465187Y-93730663D01*
X118465185Y-93730668D01*
X118437349Y-93814670D01*
X118410001Y-93897203D01*
X118410001Y-93897204D01*
X118410000Y-93897204D01*
X118399500Y-93999983D01*
X118399500Y-95000001D01*
X118399501Y-95000019D01*
X118410000Y-95102796D01*
X118410001Y-95102799D01*
X118465185Y-95269331D01*
X118465187Y-95269336D01*
X118496646Y-95320339D01*
X118557288Y-95418656D01*
X118681344Y-95542712D01*
X118830666Y-95634814D01*
X118997203Y-95689999D01*
X119099991Y-95700500D01*
X119900008Y-95700499D01*
X119900016Y-95700498D01*
X119900019Y-95700498D01*
X119956302Y-95694748D01*
X120002797Y-95689999D01*
X120169334Y-95634814D01*
X120318656Y-95542712D01*
X120412675Y-95448692D01*
X120473994Y-95415210D01*
X120543686Y-95420194D01*
X120588034Y-95448695D01*
X120681654Y-95542315D01*
X120830875Y-95634356D01*
X120830880Y-95634358D01*
X120997302Y-95689505D01*
X120997309Y-95689506D01*
X121100019Y-95699999D01*
X121249999Y-95699999D01*
X121750000Y-95699999D01*
X121899972Y-95699999D01*
X121899986Y-95699998D01*
X122002697Y-95689505D01*
X122169119Y-95634358D01*
X122169124Y-95634356D01*
X122318345Y-95542315D01*
X122442315Y-95418345D01*
X122534356Y-95269124D01*
X122534358Y-95269119D01*
X122589505Y-95102697D01*
X122589506Y-95102690D01*
X122599999Y-94999986D01*
X122600000Y-94999973D01*
X122600000Y-94750000D01*
X121750000Y-94750000D01*
X121750000Y-95699999D01*
X121249999Y-95699999D01*
X121250000Y-95699998D01*
X121250000Y-94250000D01*
X121750000Y-94250000D01*
X122599999Y-94250000D01*
X122599999Y-94000028D01*
X122599998Y-94000013D01*
X122589505Y-93897302D01*
X122534358Y-93730880D01*
X122534356Y-93730875D01*
X122442315Y-93581654D01*
X122318345Y-93457684D01*
X122169124Y-93365643D01*
X122169119Y-93365641D01*
X122002697Y-93310494D01*
X122002690Y-93310493D01*
X121899986Y-93300000D01*
X121750000Y-93300000D01*
X121750000Y-94250000D01*
X121250000Y-94250000D01*
X121250000Y-93300000D01*
X121100027Y-93300000D01*
X121100012Y-93300001D01*
X120997302Y-93310494D01*
X120830880Y-93365641D01*
X120830875Y-93365643D01*
X120681657Y-93457682D01*
X120588034Y-93551305D01*
X120526710Y-93584789D01*
X120457019Y-93579805D01*
X120412672Y-93551304D01*
X120318657Y-93457289D01*
X120318656Y-93457288D01*
X120209402Y-93389900D01*
X120162679Y-93337953D01*
X120150500Y-93284362D01*
X120150500Y-89820807D01*
X120170185Y-89753768D01*
X120186819Y-89733126D01*
X120893587Y-89026358D01*
X121602931Y-88317013D01*
X121664252Y-88283530D01*
X121666284Y-88283106D01*
X121733497Y-88269737D01*
X121879179Y-88209394D01*
X122010289Y-88121789D01*
X122121789Y-88010289D01*
X122122397Y-88009378D01*
X122122839Y-88009008D01*
X122125653Y-88005581D01*
X122126303Y-88006114D01*
X122176010Y-87964573D01*
X122245334Y-87955866D01*
X122308362Y-87986020D01*
X122345082Y-88045463D01*
X122349500Y-88078269D01*
X122349500Y-88784362D01*
X122329815Y-88851401D01*
X122290598Y-88889899D01*
X122254251Y-88912319D01*
X122181342Y-88957289D01*
X122057289Y-89081342D01*
X121965187Y-89230663D01*
X121965186Y-89230666D01*
X121910001Y-89397203D01*
X121910001Y-89397204D01*
X121910000Y-89397204D01*
X121899500Y-89499983D01*
X121899500Y-90500001D01*
X121899501Y-90500019D01*
X121910000Y-90602796D01*
X121910001Y-90602799D01*
X121940537Y-90694949D01*
X121965186Y-90769334D01*
X122057288Y-90918656D01*
X122181344Y-91042712D01*
X122330666Y-91134814D01*
X122497203Y-91189999D01*
X122599991Y-91200500D01*
X123400008Y-91200499D01*
X123400016Y-91200498D01*
X123400019Y-91200498D01*
X123456302Y-91194748D01*
X123502797Y-91189999D01*
X123669334Y-91134814D01*
X123818656Y-91042712D01*
X123912675Y-90948692D01*
X123973994Y-90915210D01*
X124043686Y-90920194D01*
X124088034Y-90948695D01*
X124181654Y-91042315D01*
X124330875Y-91134356D01*
X124330880Y-91134358D01*
X124497302Y-91189505D01*
X124497309Y-91189506D01*
X124600019Y-91199999D01*
X124749999Y-91199999D01*
X124750000Y-91199998D01*
X124750000Y-88800000D01*
X124600027Y-88800000D01*
X124600012Y-88800001D01*
X124497302Y-88810494D01*
X124330880Y-88865641D01*
X124330875Y-88865643D01*
X124181657Y-88957682D01*
X124088034Y-89051305D01*
X124026710Y-89084789D01*
X123957019Y-89079805D01*
X123912672Y-89051304D01*
X123818657Y-88957289D01*
X123818656Y-88957288D01*
X123709402Y-88889900D01*
X123662679Y-88837953D01*
X123650500Y-88784362D01*
X123650500Y-85542126D01*
X123625502Y-85416459D01*
X123625501Y-85416458D01*
X123625501Y-85416454D01*
X123592147Y-85335931D01*
X123592146Y-85335928D01*
X123576468Y-85298076D01*
X123576462Y-85298066D01*
X123505278Y-85191530D01*
X123505272Y-85191523D01*
X122558473Y-84244724D01*
X122558469Y-84244721D01*
X122451927Y-84173533D01*
X122451925Y-84173532D01*
X122451922Y-84173530D01*
X122420845Y-84160657D01*
X122366442Y-84116816D01*
X122344378Y-84050521D01*
X122344299Y-84046097D01*
X122344299Y-83899726D01*
X122344298Y-83899720D01*
X122337891Y-83840115D01*
X122329766Y-83818331D01*
X122322635Y-83761959D01*
X122324284Y-83746362D01*
X122337891Y-83709881D01*
X122344300Y-83650271D01*
X122344299Y-83557061D01*
X122344986Y-83550570D01*
X122355908Y-83524069D01*
X122363983Y-83496570D01*
X122369054Y-83492175D01*
X122371611Y-83485972D01*
X122395122Y-83469586D01*
X122416786Y-83450814D01*
X122423429Y-83449858D01*
X122428933Y-83446023D01*
X122457572Y-83444949D01*
X122485945Y-83440870D01*
X122492048Y-83443657D01*
X122498754Y-83443406D01*
X122523427Y-83457986D01*
X122549501Y-83469894D01*
X122555980Y-83475927D01*
X122585328Y-83505275D01*
X122666599Y-83559578D01*
X122666598Y-83559578D01*
X122685574Y-83572256D01*
X122691873Y-83576465D01*
X122810256Y-83625501D01*
X122810260Y-83625501D01*
X122810261Y-83625502D01*
X122935928Y-83650500D01*
X122935931Y-83650500D01*
X122995065Y-83650500D01*
X123062104Y-83670185D01*
X123063909Y-83671366D01*
X123120821Y-83709394D01*
X123120823Y-83709395D01*
X123120827Y-83709397D01*
X123247725Y-83761959D01*
X123266503Y-83769737D01*
X123421153Y-83800499D01*
X123421156Y-83800500D01*
X123421158Y-83800500D01*
X123578844Y-83800500D01*
X123578845Y-83800499D01*
X123733497Y-83769737D01*
X123846166Y-83723067D01*
X123879172Y-83709397D01*
X123879172Y-83709396D01*
X123879179Y-83709394D01*
X124010289Y-83621789D01*
X124121789Y-83510289D01*
X124209394Y-83379179D01*
X124269737Y-83233497D01*
X124300500Y-83078842D01*
X124300500Y-82921158D01*
X124300500Y-82921155D01*
X124300499Y-82921153D01*
X124292148Y-82879172D01*
X124269737Y-82766503D01*
X124256062Y-82733489D01*
X124209397Y-82620827D01*
X124209390Y-82620814D01*
X124121789Y-82489711D01*
X124121786Y-82489707D01*
X124010292Y-82378213D01*
X124010288Y-82378210D01*
X123879185Y-82290609D01*
X123879172Y-82290602D01*
X123733501Y-82230264D01*
X123733489Y-82230261D01*
X123578845Y-82199500D01*
X123578842Y-82199500D01*
X123421158Y-82199500D01*
X123421155Y-82199500D01*
X123266505Y-82230261D01*
X123266494Y-82230265D01*
X123250465Y-82236904D01*
X123180995Y-82244370D01*
X123134128Y-82225444D01*
X123095299Y-82199500D01*
X123061525Y-82176933D01*
X123000701Y-82151739D01*
X122943142Y-82127897D01*
X122943136Y-82127895D01*
X122817469Y-82102898D01*
X122817467Y-82102898D01*
X122468299Y-82102898D01*
X122401260Y-82083213D01*
X122355505Y-82030409D01*
X122345586Y-81996720D01*
X122344299Y-81987858D01*
X122344299Y-81949726D01*
X122337891Y-81890115D01*
X122325137Y-81855922D01*
X122323235Y-81842821D01*
X122326367Y-81820813D01*
X122324781Y-81798643D01*
X122329765Y-81781669D01*
X122337891Y-81759883D01*
X122344300Y-81700273D01*
X122344299Y-81528029D01*
X122363983Y-81460990D01*
X122380613Y-81440353D01*
X123582951Y-80238016D01*
X123665084Y-80115095D01*
X123721658Y-79978513D01*
X123750500Y-79833518D01*
X123750500Y-79804604D01*
X123759939Y-79757151D01*
X123766519Y-79741265D01*
X123769737Y-79733497D01*
X123800500Y-79578842D01*
X123800500Y-79421158D01*
X123800500Y-79421155D01*
X123800499Y-79421153D01*
X123769737Y-79266503D01*
X123718464Y-79142718D01*
X123709397Y-79120827D01*
X123709390Y-79120814D01*
X123621789Y-78989711D01*
X123621786Y-78989707D01*
X123510292Y-78878213D01*
X123510288Y-78878210D01*
X123379185Y-78790609D01*
X123379172Y-78790602D01*
X123233501Y-78730264D01*
X123233489Y-78730261D01*
X123078845Y-78699500D01*
X123078842Y-78699500D01*
X122921158Y-78699500D01*
X122921155Y-78699500D01*
X122766510Y-78730261D01*
X122766498Y-78730264D01*
X122620827Y-78790602D01*
X122620814Y-78790609D01*
X122489711Y-78878210D01*
X122489707Y-78878213D01*
X122378213Y-78989707D01*
X122378210Y-78989711D01*
X122290609Y-79120814D01*
X122290602Y-79120827D01*
X122230264Y-79266498D01*
X122230261Y-79266510D01*
X122199500Y-79421153D01*
X122199500Y-79447369D01*
X122179815Y-79514408D01*
X122163181Y-79535050D01*
X120887449Y-80810781D01*
X120826126Y-80844266D01*
X120799769Y-80847100D01*
X120627530Y-80847100D01*
X120627523Y-80847101D01*
X120567916Y-80853508D01*
X120433071Y-80903802D01*
X120433064Y-80903806D01*
X120317855Y-80990052D01*
X120317852Y-80990055D01*
X120231606Y-81105264D01*
X120231602Y-81105271D01*
X120181308Y-81240117D01*
X120174901Y-81299716D01*
X120174900Y-81299735D01*
X120174900Y-81322100D01*
X120155215Y-81389139D01*
X120102411Y-81434894D01*
X120050900Y-81446100D01*
X119229480Y-81446100D01*
X119084492Y-81474940D01*
X119084482Y-81474943D01*
X118947911Y-81531512D01*
X118947898Y-81531519D01*
X118824987Y-81613646D01*
X118824982Y-81613650D01*
X118759403Y-81679228D01*
X118698079Y-81712713D01*
X118647531Y-81713163D01*
X118578844Y-81699500D01*
X118578842Y-81699500D01*
X118421158Y-81699500D01*
X118421155Y-81699500D01*
X118266510Y-81730261D01*
X118266498Y-81730264D01*
X118120827Y-81790602D01*
X118120814Y-81790609D01*
X117989711Y-81878210D01*
X117989707Y-81878213D01*
X117878213Y-81989707D01*
X117878210Y-81989711D01*
X117790609Y-82120814D01*
X117790602Y-82120827D01*
X117730264Y-82266498D01*
X117730261Y-82266510D01*
X117699500Y-82421153D01*
X117699500Y-82578846D01*
X117730261Y-82733489D01*
X117730264Y-82733501D01*
X117790602Y-82879172D01*
X117790609Y-82879185D01*
X117878210Y-83010288D01*
X117878213Y-83010292D01*
X117989707Y-83121786D01*
X117989712Y-83121790D01*
X117990620Y-83122397D01*
X117990987Y-83122837D01*
X117994419Y-83125653D01*
X117993884Y-83126303D01*
X118035424Y-83176011D01*
X118044129Y-83245336D01*
X118013972Y-83308363D01*
X117954527Y-83345080D01*
X117921726Y-83349497D01*
X97286083Y-83349497D01*
X97141095Y-83378337D01*
X97141085Y-83378340D01*
X97004514Y-83434909D01*
X97004501Y-83434916D01*
X96881587Y-83517045D01*
X96881583Y-83517048D01*
X94020177Y-86378454D01*
X93958854Y-86411939D01*
X93889162Y-86406955D01*
X93833229Y-86365083D01*
X93811519Y-86311762D01*
X93810485Y-86311968D01*
X93809694Y-86307993D01*
X93809693Y-86307989D01*
X93809693Y-86307986D01*
X93748606Y-86080007D01*
X93658284Y-85861951D01*
X93658282Y-85861948D01*
X93658280Y-85861943D01*
X93590979Y-85745376D01*
X93540273Y-85657550D01*
X93481001Y-85580306D01*
X93396593Y-85470302D01*
X93396587Y-85470295D01*
X93229704Y-85303412D01*
X93229697Y-85303406D01*
X93042454Y-85159730D01*
X93042453Y-85159729D01*
X93042450Y-85159727D01*
X92929891Y-85094741D01*
X92838056Y-85041719D01*
X92838045Y-85041714D01*
X92619993Y-84951394D01*
X92392014Y-84890307D01*
X92392013Y-84890306D01*
X92392010Y-84890306D01*
X92158020Y-84859501D01*
X92158017Y-84859500D01*
X92158011Y-84859500D01*
X91921989Y-84859500D01*
X91921983Y-84859500D01*
X91921979Y-84859501D01*
X91687989Y-84890306D01*
X91460006Y-84951394D01*
X91241954Y-85041714D01*
X91241943Y-85041719D01*
X91037545Y-85159730D01*
X90850302Y-85303406D01*
X90850295Y-85303412D01*
X90683412Y-85470295D01*
X90683406Y-85470302D01*
X90539730Y-85657545D01*
X90421719Y-85861943D01*
X90421714Y-85861954D01*
X90331394Y-86080006D01*
X90270306Y-86307989D01*
X90239501Y-86541979D01*
X90239500Y-86541995D01*
X90239500Y-86778004D01*
X90239501Y-86778020D01*
X90270306Y-87012010D01*
X90331394Y-87239993D01*
X90421714Y-87458045D01*
X90421719Y-87458056D01*
X90468403Y-87538913D01*
X90539727Y-87662450D01*
X90539729Y-87662453D01*
X90539730Y-87662454D01*
X90683406Y-87849697D01*
X90683412Y-87849704D01*
X90850295Y-88016587D01*
X90850301Y-88016592D01*
X91037550Y-88160273D01*
X91168918Y-88236118D01*
X91241943Y-88278280D01*
X91241948Y-88278282D01*
X91241951Y-88278284D01*
X91460007Y-88368606D01*
X91687986Y-88429693D01*
X91687992Y-88429693D01*
X91687993Y-88429694D01*
X91691968Y-88430485D01*
X91691731Y-88431674D01*
X91750837Y-88457809D01*
X91789319Y-88516126D01*
X91790164Y-88585991D01*
X91758454Y-88640177D01*
X89918807Y-90479824D01*
X89857484Y-90513309D01*
X89811728Y-90514616D01*
X89716292Y-90499500D01*
X89716287Y-90499500D01*
X89503713Y-90499500D01*
X89482897Y-90502797D01*
X89293760Y-90532753D01*
X89091585Y-90598444D01*
X88902179Y-90694951D01*
X88730213Y-90819890D01*
X88579890Y-90970213D01*
X88454951Y-91142179D01*
X88358444Y-91331585D01*
X88292753Y-91533760D01*
X88259500Y-91743713D01*
X85500500Y-91743713D01*
X85500500Y-78502706D01*
X85500618Y-78497297D01*
X85507857Y-78331491D01*
X86999500Y-78331491D01*
X86999500Y-78668508D01*
X87037231Y-79003381D01*
X87037233Y-79003397D01*
X87112223Y-79331953D01*
X87112227Y-79331965D01*
X87223532Y-79650054D01*
X87369752Y-79953683D01*
X87369754Y-79953686D01*
X87549054Y-80239039D01*
X87759175Y-80502523D01*
X87997477Y-80740825D01*
X88260961Y-80950946D01*
X88546314Y-81130246D01*
X88849949Y-81276469D01*
X89088848Y-81360063D01*
X89168034Y-81387772D01*
X89168046Y-81387776D01*
X89496606Y-81462767D01*
X89831492Y-81500499D01*
X89831493Y-81500500D01*
X89831496Y-81500500D01*
X90168507Y-81500500D01*
X90168507Y-81500499D01*
X90503394Y-81462767D01*
X90831954Y-81387776D01*
X91150051Y-81276469D01*
X91453686Y-81130246D01*
X91739039Y-80950946D01*
X92002523Y-80740825D01*
X92240825Y-80502523D01*
X92450946Y-80239039D01*
X92630246Y-79953686D01*
X92776469Y-79650051D01*
X92887776Y-79331954D01*
X92962767Y-79003394D01*
X93000500Y-78668504D01*
X93000500Y-78331496D01*
X92962767Y-77996606D01*
X92887776Y-77668046D01*
X92776469Y-77349949D01*
X92630246Y-77046314D01*
X92450946Y-76760961D01*
X92240825Y-76497477D01*
X92002523Y-76259175D01*
X91991331Y-76250250D01*
X91780520Y-76082134D01*
X91739039Y-76049054D01*
X91453686Y-75869754D01*
X91453683Y-75869752D01*
X91150054Y-75723532D01*
X90831965Y-75612227D01*
X90831953Y-75612223D01*
X90503397Y-75537233D01*
X90503381Y-75537231D01*
X90168508Y-75499500D01*
X90168504Y-75499500D01*
X89831496Y-75499500D01*
X89831491Y-75499500D01*
X89496618Y-75537231D01*
X89496602Y-75537233D01*
X89168046Y-75612223D01*
X89168034Y-75612227D01*
X88849945Y-75723532D01*
X88546316Y-75869752D01*
X88260962Y-76049053D01*
X87997477Y-76259174D01*
X87759174Y-76497477D01*
X87549053Y-76760962D01*
X87369752Y-77046316D01*
X87223532Y-77349945D01*
X87112227Y-77668034D01*
X87112223Y-77668046D01*
X87037233Y-77996602D01*
X87037231Y-77996618D01*
X86999500Y-78331491D01*
X85507857Y-78331491D01*
X85508245Y-78322608D01*
X85508245Y-78322607D01*
X85509642Y-78290606D01*
X85517386Y-78113228D01*
X85518326Y-78102495D01*
X85568152Y-77724025D01*
X85570025Y-77713405D01*
X85652649Y-77340709D01*
X85655440Y-77330295D01*
X85770230Y-76966227D01*
X85773917Y-76956095D01*
X85920003Y-76603412D01*
X85924561Y-76593638D01*
X86100822Y-76255045D01*
X86106217Y-76245700D01*
X86311325Y-75923744D01*
X86317515Y-75914905D01*
X86549896Y-75612060D01*
X86556834Y-75603791D01*
X86814726Y-75322352D01*
X86822352Y-75314726D01*
X87103791Y-75056834D01*
X87112060Y-75049896D01*
X87414905Y-74817515D01*
X87423744Y-74811325D01*
X87745700Y-74606217D01*
X87755045Y-74600822D01*
X88093638Y-74424561D01*
X88103412Y-74420003D01*
X88456095Y-74273917D01*
X88466227Y-74270230D01*
X88830295Y-74155440D01*
X88840709Y-74152649D01*
X89213405Y-74070025D01*
X89224025Y-74068152D01*
X89602495Y-74018326D01*
X89613226Y-74017386D01*
X89997297Y-74000617D01*
X90002706Y-74000500D01*
X90065892Y-74000500D01*
X160434108Y-74000500D01*
X160497294Y-74000500D01*
X160502702Y-74000617D01*
G37*
%TD.AperFunction*%
%TD*%
M02*
