%TF.GenerationSoftware,KiCad,Pcbnew,9.0.6*%
%TF.CreationDate,2026-02-18T16:24:27-08:00*%
%TF.ProjectId,sensor_ppg,73656e73-6f72-45f7-9070-672e6b696361,rev?*%
%TF.SameCoordinates,Original*%
%TF.FileFunction,Copper,L2,Bot*%
%TF.FilePolarity,Positive*%
%FSLAX46Y46*%
G04 Gerber Fmt 4.6, Leading zero omitted, Abs format (unit mm)*
G04 Created by KiCad (PCBNEW 9.0.6) date 2026-02-18 16:24:27*
%MOMM*%
%LPD*%
G01*
G04 APERTURE LIST*
%TA.AperFunction,ComponentPad*%
%ADD10C,1.700000*%
%TD*%
%TA.AperFunction,ComponentPad*%
%ADD11R,1.700000X1.700000*%
%TD*%
%TA.AperFunction,ViaPad*%
%ADD12C,0.600000*%
%TD*%
%TA.AperFunction,Conductor*%
%ADD13C,0.200000*%
%TD*%
G04 APERTURE END LIST*
D10*
%TO.P,J1,7,Pin_7*%
%TO.N,GND*%
X115000000Y-77420000D03*
%TO.P,J1,6,Pin_6*%
%TO.N,/INT*%
X115000000Y-79960000D03*
%TO.P,J1,5,Pin_5*%
%TO.N,/SCL*%
X115000000Y-82500000D03*
%TO.P,J1,4,Pin_4*%
%TO.N,/SDA*%
X115000000Y-85040000D03*
%TO.P,J1,3,Pin_3*%
%TO.N,/VDDIO*%
X115000000Y-87580000D03*
%TO.P,J1,2,Pin_2*%
%TO.N,+1V8*%
X115000000Y-90120000D03*
D11*
%TO.P,J1,1,Pin_1*%
%TO.N,+3.3V*%
X115000000Y-92660000D03*
%TD*%
D12*
%TO.N,+3.3V*%
X123000000Y-90661500D03*
X123000000Y-90661500D03*
%TO.N,+1V8*%
X124500000Y-92000000D03*
%TO.N,GND*%
X120000000Y-88500000D03*
%TO.N,+1V8*%
X123000000Y-82000000D03*
X125500000Y-77500000D03*
%TO.N,GND*%
X123000000Y-83000000D03*
X120500000Y-78000000D03*
%TO.N,+3.3V*%
X123500000Y-81000000D03*
X123500000Y-81000000D03*
X123000000Y-77500000D03*
%TO.N,/INT*%
X120500000Y-84000000D03*
X118960000Y-79960000D03*
%TO.N,+1V8*%
X118500000Y-84500000D03*
X118500000Y-89000000D03*
%TD*%
D13*
%TO.N,+1V8*%
X121500000Y-92000000D02*
X124500000Y-92000000D01*
X118500000Y-89000000D02*
X121500000Y-92000000D01*
%TO.N,GND*%
X120000000Y-88500000D02*
X123000000Y-85500000D01*
X123000000Y-85500000D02*
X123000000Y-83000000D01*
%TO.N,+1V8*%
X123349943Y-82000000D02*
X123000000Y-82000000D01*
X125500000Y-79849943D02*
X123349943Y-82000000D01*
X125500000Y-77500000D02*
X125500000Y-79849943D01*
%TO.N,GND*%
X120500000Y-80500000D02*
X123000000Y-83000000D01*
X120500000Y-78000000D02*
X120500000Y-80500000D01*
%TO.N,+3.3V*%
X123500000Y-81000000D02*
X123000000Y-80500000D01*
X123000000Y-80500000D02*
X123000000Y-77500000D01*
%TO.N,/INT*%
X120500000Y-81500000D02*
X120500000Y-84000000D01*
X118960000Y-79960000D02*
X120500000Y-81500000D01*
%TO.N,+1V8*%
X118500000Y-89000000D02*
X118500000Y-84500000D01*
%TO.N,+3.3V*%
X123500000Y-78650057D02*
X123500000Y-81000000D01*
X125748943Y-76899000D02*
X125251057Y-76899000D01*
X126101000Y-77251057D02*
X125748943Y-76899000D01*
X126101000Y-87560500D02*
X126101000Y-77251057D01*
X125251057Y-76899000D02*
X123500000Y-78650057D01*
X123000000Y-90661500D02*
X126101000Y-87560500D01*
%TD*%
%TA.AperFunction,Conductor*%
%TO.N,GND*%
G36*
X136003032Y-65500648D02*
G01*
X136336929Y-65517052D01*
X136349037Y-65518245D01*
X136452146Y-65533539D01*
X136676699Y-65566849D01*
X136688617Y-65569219D01*
X137009951Y-65649709D01*
X137021588Y-65653240D01*
X137092806Y-65678722D01*
X137333467Y-65764832D01*
X137344688Y-65769479D01*
X137644163Y-65911120D01*
X137654871Y-65916844D01*
X137855728Y-66037233D01*
X137938988Y-66087137D01*
X137949103Y-66093895D01*
X137973817Y-66112224D01*
X138215170Y-66291224D01*
X138224576Y-66298944D01*
X138470013Y-66521395D01*
X138478604Y-66529986D01*
X138665755Y-66736475D01*
X138701055Y-66775423D01*
X138708775Y-66784829D01*
X138906102Y-67050893D01*
X138912862Y-67061011D01*
X139041776Y-67276092D01*
X139083148Y-67345116D01*
X139088885Y-67355848D01*
X139230514Y-67655297D01*
X139235170Y-67666540D01*
X139346759Y-67978411D01*
X139350292Y-67990055D01*
X139430777Y-68311369D01*
X139433151Y-68323305D01*
X139481754Y-68650962D01*
X139482947Y-68663071D01*
X139499351Y-68996966D01*
X139499500Y-69003051D01*
X139499500Y-100996948D01*
X139499351Y-101003033D01*
X139482947Y-101336928D01*
X139481754Y-101349037D01*
X139433151Y-101676694D01*
X139430777Y-101688630D01*
X139350292Y-102009944D01*
X139346759Y-102021588D01*
X139235170Y-102333459D01*
X139230514Y-102344702D01*
X139088885Y-102644151D01*
X139083148Y-102654883D01*
X138912862Y-102938988D01*
X138906102Y-102949106D01*
X138708775Y-103215170D01*
X138701055Y-103224576D01*
X138478611Y-103470006D01*
X138470006Y-103478611D01*
X138224576Y-103701055D01*
X138215170Y-103708775D01*
X137949106Y-103906102D01*
X137938988Y-103912862D01*
X137654883Y-104083148D01*
X137644151Y-104088885D01*
X137344702Y-104230514D01*
X137333459Y-104235170D01*
X137021588Y-104346759D01*
X137009944Y-104350292D01*
X136688630Y-104430777D01*
X136676694Y-104433151D01*
X136349037Y-104481754D01*
X136336928Y-104482947D01*
X136021989Y-104498419D01*
X136003031Y-104499351D01*
X135996949Y-104499500D01*
X109003051Y-104499500D01*
X108996968Y-104499351D01*
X108976900Y-104498365D01*
X108663071Y-104482947D01*
X108650962Y-104481754D01*
X108323305Y-104433151D01*
X108311369Y-104430777D01*
X107990055Y-104350292D01*
X107978411Y-104346759D01*
X107666540Y-104235170D01*
X107655301Y-104230515D01*
X107355844Y-104088883D01*
X107345121Y-104083150D01*
X107061011Y-103912862D01*
X107050893Y-103906102D01*
X106784829Y-103708775D01*
X106775423Y-103701055D01*
X106697297Y-103630246D01*
X106529986Y-103478604D01*
X106521395Y-103470013D01*
X106298944Y-103224576D01*
X106291224Y-103215170D01*
X106093897Y-102949106D01*
X106087137Y-102938988D01*
X106059805Y-102893387D01*
X105916844Y-102654871D01*
X105911120Y-102644163D01*
X105769479Y-102344688D01*
X105764829Y-102333459D01*
X105759427Y-102318362D01*
X105653240Y-102021588D01*
X105649707Y-102009944D01*
X105605123Y-101831953D01*
X105569219Y-101688617D01*
X105566848Y-101676694D01*
X105518245Y-101349037D01*
X105517052Y-101336927D01*
X105500649Y-101003032D01*
X105500500Y-100996948D01*
X105500500Y-100831491D01*
X105999500Y-100831491D01*
X105999500Y-101168508D01*
X106037231Y-101503381D01*
X106037233Y-101503397D01*
X106112223Y-101831953D01*
X106112227Y-101831965D01*
X106223532Y-102150054D01*
X106369752Y-102453683D01*
X106369754Y-102453686D01*
X106549054Y-102739039D01*
X106759175Y-103002523D01*
X106997477Y-103240825D01*
X107260961Y-103450946D01*
X107546314Y-103630246D01*
X107849949Y-103776469D01*
X108088848Y-103860063D01*
X108168034Y-103887772D01*
X108168046Y-103887776D01*
X108496606Y-103962767D01*
X108831492Y-104000499D01*
X108831493Y-104000500D01*
X108831496Y-104000500D01*
X109168507Y-104000500D01*
X109168507Y-104000499D01*
X109503394Y-103962767D01*
X109831954Y-103887776D01*
X110150051Y-103776469D01*
X110453686Y-103630246D01*
X110739039Y-103450946D01*
X111002523Y-103240825D01*
X111240825Y-103002523D01*
X111450946Y-102739039D01*
X111630246Y-102453686D01*
X111776469Y-102150051D01*
X111887776Y-101831954D01*
X111962767Y-101503394D01*
X112000500Y-101168504D01*
X112000500Y-100831496D01*
X112000499Y-100831491D01*
X132999500Y-100831491D01*
X132999500Y-101168508D01*
X133037231Y-101503381D01*
X133037233Y-101503397D01*
X133112223Y-101831953D01*
X133112227Y-101831965D01*
X133223532Y-102150054D01*
X133369752Y-102453683D01*
X133369754Y-102453686D01*
X133549054Y-102739039D01*
X133759175Y-103002523D01*
X133997477Y-103240825D01*
X134260961Y-103450946D01*
X134546314Y-103630246D01*
X134849949Y-103776469D01*
X135088848Y-103860063D01*
X135168034Y-103887772D01*
X135168046Y-103887776D01*
X135496606Y-103962767D01*
X135831492Y-104000499D01*
X135831493Y-104000500D01*
X135831496Y-104000500D01*
X136168507Y-104000500D01*
X136168507Y-104000499D01*
X136503394Y-103962767D01*
X136831954Y-103887776D01*
X137150051Y-103776469D01*
X137453686Y-103630246D01*
X137739039Y-103450946D01*
X138002523Y-103240825D01*
X138240825Y-103002523D01*
X138450946Y-102739039D01*
X138630246Y-102453686D01*
X138776469Y-102150051D01*
X138887776Y-101831954D01*
X138962767Y-101503394D01*
X139000500Y-101168504D01*
X139000500Y-100831496D01*
X138962767Y-100496606D01*
X138887776Y-100168046D01*
X138776469Y-99849949D01*
X138630246Y-99546314D01*
X138450946Y-99260961D01*
X138240825Y-98997477D01*
X138002523Y-98759175D01*
X137739039Y-98549054D01*
X137453686Y-98369754D01*
X137453683Y-98369752D01*
X137150054Y-98223532D01*
X136831965Y-98112227D01*
X136831953Y-98112223D01*
X136503397Y-98037233D01*
X136503381Y-98037231D01*
X136168508Y-97999500D01*
X136168504Y-97999500D01*
X135831496Y-97999500D01*
X135831491Y-97999500D01*
X135496618Y-98037231D01*
X135496602Y-98037233D01*
X135168046Y-98112223D01*
X135168034Y-98112227D01*
X134849945Y-98223532D01*
X134546316Y-98369752D01*
X134260962Y-98549053D01*
X133997477Y-98759174D01*
X133759174Y-98997477D01*
X133549053Y-99260962D01*
X133369752Y-99546316D01*
X133223532Y-99849945D01*
X133112227Y-100168034D01*
X133112223Y-100168046D01*
X133037233Y-100496602D01*
X133037231Y-100496618D01*
X132999500Y-100831491D01*
X112000499Y-100831491D01*
X111962767Y-100496606D01*
X111887776Y-100168046D01*
X111776469Y-99849949D01*
X111630246Y-99546314D01*
X111450946Y-99260961D01*
X111240825Y-98997477D01*
X111002523Y-98759175D01*
X110739039Y-98549054D01*
X110453686Y-98369754D01*
X110453683Y-98369752D01*
X110150054Y-98223532D01*
X109831965Y-98112227D01*
X109831953Y-98112223D01*
X109503397Y-98037233D01*
X109503381Y-98037231D01*
X109168508Y-97999500D01*
X109168504Y-97999500D01*
X108831496Y-97999500D01*
X108831491Y-97999500D01*
X108496618Y-98037231D01*
X108496602Y-98037233D01*
X108168046Y-98112223D01*
X108168034Y-98112227D01*
X107849945Y-98223532D01*
X107546316Y-98369752D01*
X107260962Y-98549053D01*
X106997477Y-98759174D01*
X106759174Y-98997477D01*
X106549053Y-99260962D01*
X106369752Y-99546316D01*
X106223532Y-99849945D01*
X106112227Y-100168034D01*
X106112223Y-100168046D01*
X106037233Y-100496602D01*
X106037231Y-100496618D01*
X105999500Y-100831491D01*
X105500500Y-100831491D01*
X105500500Y-79853713D01*
X113649500Y-79853713D01*
X113649500Y-80066287D01*
X113682754Y-80276243D01*
X113745803Y-80470288D01*
X113748444Y-80478414D01*
X113844951Y-80667820D01*
X113969890Y-80839786D01*
X114120213Y-80990109D01*
X114292182Y-81115050D01*
X114300946Y-81119516D01*
X114351742Y-81167491D01*
X114368536Y-81235312D01*
X114345998Y-81301447D01*
X114300946Y-81340484D01*
X114292182Y-81344949D01*
X114120213Y-81469890D01*
X113969890Y-81620213D01*
X113844951Y-81792179D01*
X113748444Y-81981585D01*
X113682753Y-82183760D01*
X113649500Y-82393713D01*
X113649500Y-82606286D01*
X113682753Y-82816239D01*
X113748444Y-83018414D01*
X113844951Y-83207820D01*
X113969890Y-83379786D01*
X114120213Y-83530109D01*
X114292182Y-83655050D01*
X114300946Y-83659516D01*
X114351742Y-83707491D01*
X114368536Y-83775312D01*
X114345998Y-83841447D01*
X114300946Y-83880484D01*
X114292182Y-83884949D01*
X114120213Y-84009890D01*
X113969890Y-84160213D01*
X113844951Y-84332179D01*
X113748444Y-84521585D01*
X113682753Y-84723760D01*
X113649500Y-84933713D01*
X113649500Y-85146286D01*
X113682753Y-85356239D01*
X113748444Y-85558414D01*
X113844951Y-85747820D01*
X113969890Y-85919786D01*
X114120213Y-86070109D01*
X114292182Y-86195050D01*
X114300946Y-86199516D01*
X114351742Y-86247491D01*
X114368536Y-86315312D01*
X114345998Y-86381447D01*
X114300946Y-86420484D01*
X114292182Y-86424949D01*
X114120213Y-86549890D01*
X113969890Y-86700213D01*
X113844951Y-86872179D01*
X113748444Y-87061585D01*
X113682753Y-87263760D01*
X113649500Y-87473713D01*
X113649500Y-87686286D01*
X113674226Y-87842404D01*
X113682754Y-87896243D01*
X113733113Y-88051232D01*
X113748444Y-88098414D01*
X113844951Y-88287820D01*
X113969890Y-88459786D01*
X114120213Y-88610109D01*
X114292182Y-88735050D01*
X114300946Y-88739516D01*
X114351742Y-88787491D01*
X114368536Y-88855312D01*
X114345998Y-88921447D01*
X114300946Y-88960484D01*
X114292182Y-88964949D01*
X114120213Y-89089890D01*
X113969890Y-89240213D01*
X113844951Y-89412179D01*
X113748444Y-89601585D01*
X113682753Y-89803760D01*
X113668815Y-89891761D01*
X113649500Y-90013713D01*
X113649500Y-90226287D01*
X113682754Y-90436243D01*
X113730327Y-90582658D01*
X113748444Y-90638414D01*
X113844951Y-90827820D01*
X113969890Y-90999786D01*
X114083430Y-91113326D01*
X114116915Y-91174649D01*
X114111931Y-91244341D01*
X114070059Y-91300274D01*
X114039083Y-91317189D01*
X113907669Y-91366203D01*
X113907664Y-91366206D01*
X113792455Y-91452452D01*
X113792452Y-91452455D01*
X113706206Y-91567664D01*
X113706202Y-91567671D01*
X113655908Y-91702517D01*
X113649501Y-91762116D01*
X113649501Y-91762123D01*
X113649500Y-91762135D01*
X113649500Y-93557870D01*
X113649501Y-93557876D01*
X113655908Y-93617483D01*
X113706202Y-93752328D01*
X113706206Y-93752335D01*
X113792452Y-93867544D01*
X113792455Y-93867547D01*
X113907664Y-93953793D01*
X113907671Y-93953797D01*
X114042517Y-94004091D01*
X114042516Y-94004091D01*
X114049444Y-94004835D01*
X114102127Y-94010500D01*
X115897872Y-94010499D01*
X115957483Y-94004091D01*
X116092331Y-93953796D01*
X116207546Y-93867546D01*
X116293796Y-93752331D01*
X116344091Y-93617483D01*
X116350500Y-93557873D01*
X116350499Y-91762128D01*
X116344091Y-91702517D01*
X116313620Y-91620821D01*
X116293797Y-91567671D01*
X116293793Y-91567664D01*
X116207547Y-91452455D01*
X116207544Y-91452452D01*
X116092335Y-91366206D01*
X116092328Y-91366202D01*
X115960917Y-91317189D01*
X115904983Y-91275318D01*
X115880566Y-91209853D01*
X115895418Y-91141580D01*
X115916563Y-91113332D01*
X116030104Y-90999792D01*
X116106242Y-90894997D01*
X116155048Y-90827820D01*
X116155047Y-90827820D01*
X116155051Y-90827816D01*
X116251557Y-90638412D01*
X116317246Y-90436243D01*
X116350500Y-90226287D01*
X116350500Y-90013713D01*
X116317246Y-89803757D01*
X116251557Y-89601588D01*
X116155051Y-89412184D01*
X116155049Y-89412181D01*
X116155048Y-89412179D01*
X116030109Y-89240213D01*
X115879786Y-89089890D01*
X115707820Y-88964951D01*
X115707115Y-88964591D01*
X115699054Y-88960485D01*
X115648259Y-88912512D01*
X115631463Y-88844692D01*
X115653999Y-88778556D01*
X115699054Y-88739515D01*
X115707816Y-88735051D01*
X115729789Y-88719086D01*
X115879786Y-88610109D01*
X115879788Y-88610106D01*
X115879792Y-88610104D01*
X116030104Y-88459792D01*
X116030106Y-88459788D01*
X116030109Y-88459786D01*
X116155048Y-88287820D01*
X116155047Y-88287820D01*
X116155051Y-88287816D01*
X116251557Y-88098412D01*
X116317246Y-87896243D01*
X116350500Y-87686287D01*
X116350500Y-87473713D01*
X116317246Y-87263757D01*
X116251557Y-87061588D01*
X116155051Y-86872184D01*
X116155049Y-86872181D01*
X116155048Y-86872179D01*
X116030109Y-86700213D01*
X115879786Y-86549890D01*
X115707820Y-86424951D01*
X115707115Y-86424591D01*
X115699054Y-86420485D01*
X115648259Y-86372512D01*
X115631463Y-86304692D01*
X115653999Y-86238556D01*
X115699054Y-86199515D01*
X115707816Y-86195051D01*
X115729789Y-86179086D01*
X115879786Y-86070109D01*
X115879788Y-86070106D01*
X115879792Y-86070104D01*
X116030104Y-85919792D01*
X116030106Y-85919788D01*
X116030109Y-85919786D01*
X116155048Y-85747820D01*
X116155047Y-85747820D01*
X116155051Y-85747816D01*
X116251557Y-85558412D01*
X116317246Y-85356243D01*
X116350500Y-85146287D01*
X116350500Y-84933713D01*
X116317246Y-84723757D01*
X116251557Y-84521588D01*
X116200383Y-84421153D01*
X117699500Y-84421153D01*
X117699500Y-84578846D01*
X117730261Y-84733489D01*
X117730264Y-84733501D01*
X117790602Y-84879172D01*
X117790609Y-84879185D01*
X117878602Y-85010874D01*
X117899480Y-85077551D01*
X117899500Y-85079765D01*
X117899500Y-88420234D01*
X117879815Y-88487273D01*
X117878602Y-88489125D01*
X117790609Y-88620814D01*
X117790602Y-88620827D01*
X117730264Y-88766498D01*
X117730261Y-88766510D01*
X117699500Y-88921153D01*
X117699500Y-89078846D01*
X117730261Y-89233489D01*
X117730264Y-89233501D01*
X117790602Y-89379172D01*
X117790609Y-89379185D01*
X117878210Y-89510288D01*
X117878213Y-89510292D01*
X117989707Y-89621786D01*
X117989711Y-89621789D01*
X118120814Y-89709390D01*
X118120827Y-89709397D01*
X118266498Y-89769735D01*
X118266503Y-89769737D01*
X118331147Y-89782595D01*
X118421849Y-89800638D01*
X118483760Y-89833023D01*
X118485338Y-89834573D01*
X121131284Y-92480520D01*
X121131286Y-92480521D01*
X121131290Y-92480524D01*
X121268209Y-92559573D01*
X121268216Y-92559577D01*
X121420943Y-92600501D01*
X121420945Y-92600501D01*
X121586654Y-92600501D01*
X121586670Y-92600500D01*
X123920234Y-92600500D01*
X123987273Y-92620185D01*
X123989125Y-92621398D01*
X124120814Y-92709390D01*
X124120827Y-92709397D01*
X124266498Y-92769735D01*
X124266503Y-92769737D01*
X124421153Y-92800499D01*
X124421156Y-92800500D01*
X124421158Y-92800500D01*
X124578844Y-92800500D01*
X124578845Y-92800499D01*
X124733497Y-92769737D01*
X124879179Y-92709394D01*
X125010289Y-92621789D01*
X125121789Y-92510289D01*
X125209394Y-92379179D01*
X125269737Y-92233497D01*
X125300500Y-92078842D01*
X125300500Y-91921158D01*
X125300500Y-91921155D01*
X125300499Y-91921153D01*
X125269738Y-91766510D01*
X125269737Y-91766503D01*
X125267920Y-91762116D01*
X125209397Y-91620827D01*
X125209390Y-91620814D01*
X125121789Y-91489711D01*
X125121786Y-91489707D01*
X125010292Y-91378213D01*
X125010288Y-91378210D01*
X124879185Y-91290609D01*
X124879172Y-91290602D01*
X124733501Y-91230264D01*
X124733489Y-91230261D01*
X124578845Y-91199500D01*
X124578842Y-91199500D01*
X124421158Y-91199500D01*
X124421155Y-91199500D01*
X124266510Y-91230261D01*
X124266498Y-91230264D01*
X124120827Y-91290602D01*
X124120814Y-91290609D01*
X123989125Y-91378602D01*
X123971078Y-91384252D01*
X123955169Y-91394477D01*
X123924207Y-91398928D01*
X123922447Y-91399480D01*
X123920234Y-91399500D01*
X123693441Y-91399500D01*
X123626402Y-91379815D01*
X123580647Y-91327011D01*
X123570703Y-91257853D01*
X123599728Y-91194297D01*
X123605760Y-91187819D01*
X123621786Y-91171792D01*
X123621789Y-91171789D01*
X123709394Y-91040679D01*
X123769737Y-90894997D01*
X123789113Y-90797585D01*
X123800638Y-90739650D01*
X123833023Y-90677739D01*
X123834519Y-90676215D01*
X126469713Y-88041021D01*
X126469716Y-88041020D01*
X126581520Y-87929216D01*
X126631639Y-87842404D01*
X126660577Y-87792285D01*
X126701500Y-87639558D01*
X126701500Y-87481443D01*
X126701500Y-77340117D01*
X126701501Y-77340104D01*
X126701501Y-77172002D01*
X126701501Y-77172000D01*
X126660577Y-77019272D01*
X126581520Y-76882341D01*
X126229464Y-76530285D01*
X126229463Y-76530284D01*
X126117659Y-76418480D01*
X126030847Y-76368360D01*
X126030847Y-76368359D01*
X126030843Y-76368358D01*
X125980728Y-76339423D01*
X125828000Y-76298499D01*
X125669886Y-76298499D01*
X125662290Y-76298499D01*
X125662274Y-76298500D01*
X125337727Y-76298500D01*
X125337711Y-76298499D01*
X125330115Y-76298499D01*
X125172000Y-76298499D01*
X125095636Y-76318961D01*
X125019271Y-76339423D01*
X125019266Y-76339426D01*
X124882347Y-76418475D01*
X124882339Y-76418481D01*
X123977604Y-77323217D01*
X123916281Y-77356702D01*
X123846589Y-77351718D01*
X123790656Y-77309846D01*
X123771263Y-77271534D01*
X123769735Y-77266498D01*
X123709397Y-77120827D01*
X123709390Y-77120814D01*
X123621789Y-76989711D01*
X123621786Y-76989707D01*
X123510292Y-76878213D01*
X123510288Y-76878210D01*
X123379185Y-76790609D01*
X123379172Y-76790602D01*
X123233501Y-76730264D01*
X123233489Y-76730261D01*
X123078845Y-76699500D01*
X123078842Y-76699500D01*
X122921158Y-76699500D01*
X122921155Y-76699500D01*
X122766510Y-76730261D01*
X122766498Y-76730264D01*
X122620827Y-76790602D01*
X122620814Y-76790609D01*
X122489711Y-76878210D01*
X122489707Y-76878213D01*
X122378213Y-76989707D01*
X122378210Y-76989711D01*
X122290609Y-77120814D01*
X122290602Y-77120827D01*
X122230264Y-77266498D01*
X122230261Y-77266510D01*
X122199500Y-77421153D01*
X122199500Y-77578846D01*
X122230261Y-77733489D01*
X122230264Y-77733501D01*
X122290602Y-77879172D01*
X122290609Y-77879185D01*
X122378602Y-78010874D01*
X122399480Y-78077551D01*
X122399500Y-78079765D01*
X122399500Y-80413330D01*
X122399499Y-80413348D01*
X122399499Y-80579054D01*
X122399498Y-80579054D01*
X122439873Y-80729735D01*
X122440423Y-80731785D01*
X122457002Y-80760500D01*
X122519480Y-80868716D01*
X122631284Y-80980520D01*
X122631285Y-80980521D01*
X122648803Y-80998039D01*
X122665425Y-81014660D01*
X122698911Y-81075983D01*
X122699362Y-81078152D01*
X122712573Y-81144568D01*
X122706346Y-81214159D01*
X122663483Y-81269337D01*
X122638411Y-81283319D01*
X122620826Y-81290603D01*
X122620814Y-81290609D01*
X122489711Y-81378210D01*
X122489707Y-81378213D01*
X122378213Y-81489707D01*
X122378210Y-81489711D01*
X122290609Y-81620814D01*
X122290602Y-81620827D01*
X122230264Y-81766498D01*
X122230261Y-81766510D01*
X122199500Y-81921153D01*
X122199500Y-82078846D01*
X122230261Y-82233489D01*
X122230264Y-82233501D01*
X122290602Y-82379172D01*
X122290609Y-82379185D01*
X122378210Y-82510288D01*
X122378213Y-82510292D01*
X122489707Y-82621786D01*
X122489711Y-82621789D01*
X122620814Y-82709390D01*
X122620827Y-82709397D01*
X122766498Y-82769735D01*
X122766503Y-82769737D01*
X122921153Y-82800499D01*
X122921156Y-82800500D01*
X122921158Y-82800500D01*
X123078844Y-82800500D01*
X123078845Y-82800499D01*
X123233497Y-82769737D01*
X123379179Y-82709394D01*
X123510289Y-82621789D01*
X123548534Y-82583542D01*
X123574321Y-82563776D01*
X123581508Y-82559635D01*
X123581728Y-82559577D01*
X123631847Y-82530639D01*
X123718659Y-82480520D01*
X123830463Y-82368716D01*
X123830463Y-82368714D01*
X123840671Y-82358507D01*
X123840672Y-82358504D01*
X125288820Y-80910356D01*
X125350142Y-80876873D01*
X125419834Y-80881857D01*
X125475767Y-80923729D01*
X125500184Y-80989193D01*
X125500500Y-80998039D01*
X125500500Y-87260403D01*
X125480815Y-87327442D01*
X125464181Y-87348084D01*
X122985339Y-89826925D01*
X122924016Y-89860410D01*
X122921850Y-89860861D01*
X122766508Y-89891761D01*
X122766498Y-89891764D01*
X122620827Y-89952102D01*
X122620814Y-89952109D01*
X122489711Y-90039710D01*
X122489707Y-90039713D01*
X122378213Y-90151207D01*
X122378210Y-90151211D01*
X122290609Y-90282314D01*
X122290602Y-90282327D01*
X122230264Y-90427998D01*
X122230261Y-90428010D01*
X122199500Y-90582653D01*
X122199500Y-90740346D01*
X122230261Y-90894989D01*
X122230264Y-90895001D01*
X122290602Y-91040672D01*
X122290609Y-91040685D01*
X122378210Y-91171788D01*
X122378213Y-91171792D01*
X122394240Y-91187819D01*
X122427725Y-91249142D01*
X122422741Y-91318834D01*
X122380869Y-91374767D01*
X122315405Y-91399184D01*
X122306559Y-91399500D01*
X121800098Y-91399500D01*
X121733059Y-91379815D01*
X121712417Y-91363181D01*
X119334573Y-88985337D01*
X119301088Y-88924014D01*
X119300637Y-88921847D01*
X119287402Y-88855312D01*
X119269737Y-88766503D01*
X119256708Y-88735048D01*
X119209397Y-88620827D01*
X119209390Y-88620814D01*
X119121398Y-88489125D01*
X119100520Y-88422447D01*
X119100500Y-88420234D01*
X119100500Y-85079765D01*
X119120185Y-85012726D01*
X119121398Y-85010874D01*
X119172956Y-84933713D01*
X119209394Y-84879179D01*
X119269737Y-84733497D01*
X119300500Y-84578842D01*
X119300500Y-84421158D01*
X119300500Y-84421155D01*
X119300499Y-84421153D01*
X119269738Y-84266510D01*
X119269737Y-84266503D01*
X119225709Y-84160208D01*
X119209397Y-84120827D01*
X119209390Y-84120814D01*
X119121789Y-83989711D01*
X119121786Y-83989707D01*
X119010292Y-83878213D01*
X119010288Y-83878210D01*
X118879185Y-83790609D01*
X118879172Y-83790602D01*
X118733501Y-83730264D01*
X118733489Y-83730261D01*
X118578845Y-83699500D01*
X118578842Y-83699500D01*
X118421158Y-83699500D01*
X118421155Y-83699500D01*
X118266510Y-83730261D01*
X118266498Y-83730264D01*
X118120827Y-83790602D01*
X118120814Y-83790609D01*
X117989711Y-83878210D01*
X117989707Y-83878213D01*
X117878213Y-83989707D01*
X117878210Y-83989711D01*
X117790609Y-84120814D01*
X117790602Y-84120827D01*
X117730264Y-84266498D01*
X117730261Y-84266510D01*
X117699500Y-84421153D01*
X116200383Y-84421153D01*
X116155051Y-84332184D01*
X116155049Y-84332181D01*
X116155048Y-84332179D01*
X116030109Y-84160213D01*
X115879786Y-84009890D01*
X115707820Y-83884951D01*
X115707115Y-83884591D01*
X115699054Y-83880485D01*
X115648259Y-83832512D01*
X115631463Y-83764692D01*
X115653999Y-83698556D01*
X115699054Y-83659515D01*
X115707816Y-83655051D01*
X115754940Y-83620814D01*
X115879786Y-83530109D01*
X115879788Y-83530106D01*
X115879792Y-83530104D01*
X116030104Y-83379792D01*
X116030106Y-83379788D01*
X116030109Y-83379786D01*
X116155048Y-83207820D01*
X116155047Y-83207820D01*
X116155051Y-83207816D01*
X116251557Y-83018412D01*
X116317246Y-82816243D01*
X116350500Y-82606287D01*
X116350500Y-82393713D01*
X116317246Y-82183757D01*
X116251557Y-81981588D01*
X116155051Y-81792184D01*
X116155049Y-81792181D01*
X116155048Y-81792179D01*
X116030109Y-81620213D01*
X115879786Y-81469890D01*
X115707820Y-81344951D01*
X115707115Y-81344591D01*
X115699054Y-81340485D01*
X115648259Y-81292512D01*
X115631463Y-81224692D01*
X115653999Y-81158556D01*
X115699054Y-81119515D01*
X115707816Y-81115051D01*
X115757654Y-81078842D01*
X115879786Y-80990109D01*
X115879788Y-80990106D01*
X115879792Y-80990104D01*
X116030104Y-80839792D01*
X116030106Y-80839788D01*
X116030109Y-80839786D01*
X116153902Y-80669397D01*
X116155051Y-80667816D01*
X116251557Y-80478412D01*
X116317246Y-80276243D01*
X116350500Y-80066287D01*
X116350500Y-79881153D01*
X118159500Y-79881153D01*
X118159500Y-80038846D01*
X118190261Y-80193489D01*
X118190264Y-80193501D01*
X118250602Y-80339172D01*
X118250609Y-80339185D01*
X118338210Y-80470288D01*
X118338213Y-80470292D01*
X118449707Y-80581786D01*
X118449711Y-80581789D01*
X118580814Y-80669390D01*
X118580827Y-80669397D01*
X118651519Y-80698678D01*
X118726503Y-80729737D01*
X118791147Y-80742595D01*
X118881849Y-80760638D01*
X118943760Y-80793023D01*
X118945339Y-80794574D01*
X119863181Y-81712416D01*
X119896666Y-81773739D01*
X119899500Y-81800097D01*
X119899500Y-83420234D01*
X119879815Y-83487273D01*
X119878602Y-83489125D01*
X119790609Y-83620814D01*
X119790602Y-83620827D01*
X119730264Y-83766498D01*
X119730261Y-83766510D01*
X119699500Y-83921153D01*
X119699500Y-84078846D01*
X119730261Y-84233489D01*
X119730264Y-84233501D01*
X119790602Y-84379172D01*
X119790609Y-84379185D01*
X119878210Y-84510288D01*
X119878213Y-84510292D01*
X119989707Y-84621786D01*
X119989711Y-84621789D01*
X120120814Y-84709390D01*
X120120827Y-84709397D01*
X120266498Y-84769735D01*
X120266503Y-84769737D01*
X120421153Y-84800499D01*
X120421156Y-84800500D01*
X120421158Y-84800500D01*
X120578844Y-84800500D01*
X120578845Y-84800499D01*
X120733497Y-84769737D01*
X120879179Y-84709394D01*
X121010289Y-84621789D01*
X121121789Y-84510289D01*
X121209394Y-84379179D01*
X121269737Y-84233497D01*
X121300500Y-84078842D01*
X121300500Y-83921158D01*
X121300500Y-83921155D01*
X121300499Y-83921153D01*
X121293298Y-83884951D01*
X121269737Y-83766503D01*
X121263546Y-83751557D01*
X121209397Y-83620827D01*
X121209390Y-83620814D01*
X121121398Y-83489125D01*
X121100520Y-83422447D01*
X121100500Y-83420234D01*
X121100500Y-81589059D01*
X121100501Y-81589046D01*
X121100501Y-81420945D01*
X121100501Y-81420943D01*
X121059577Y-81268215D01*
X121019904Y-81199500D01*
X120996265Y-81158556D01*
X120980521Y-81131285D01*
X120864385Y-81015149D01*
X120864374Y-81015139D01*
X119794574Y-79945339D01*
X119761089Y-79884016D01*
X119760638Y-79881849D01*
X119729738Y-79726510D01*
X119729737Y-79726503D01*
X119684332Y-79616884D01*
X119669397Y-79580827D01*
X119669390Y-79580814D01*
X119581789Y-79449711D01*
X119581786Y-79449707D01*
X119470292Y-79338213D01*
X119470288Y-79338210D01*
X119339185Y-79250609D01*
X119339172Y-79250602D01*
X119193501Y-79190264D01*
X119193489Y-79190261D01*
X119038845Y-79159500D01*
X119038842Y-79159500D01*
X118881158Y-79159500D01*
X118881155Y-79159500D01*
X118726510Y-79190261D01*
X118726498Y-79190264D01*
X118580827Y-79250602D01*
X118580814Y-79250609D01*
X118449711Y-79338210D01*
X118449707Y-79338213D01*
X118338213Y-79449707D01*
X118338210Y-79449711D01*
X118250609Y-79580814D01*
X118250602Y-79580827D01*
X118190264Y-79726498D01*
X118190261Y-79726510D01*
X118159500Y-79881153D01*
X116350500Y-79881153D01*
X116350500Y-79853713D01*
X116317246Y-79643757D01*
X116251557Y-79441588D01*
X116155051Y-79252184D01*
X116155049Y-79252181D01*
X116155048Y-79252179D01*
X116030109Y-79080213D01*
X115879786Y-78929890D01*
X115707817Y-78804949D01*
X115698504Y-78800204D01*
X115647707Y-78752230D01*
X115630912Y-78684409D01*
X115653449Y-78618274D01*
X115698507Y-78579232D01*
X115707555Y-78574622D01*
X115761716Y-78535270D01*
X115761717Y-78535270D01*
X115129408Y-77902962D01*
X115192993Y-77885925D01*
X115307007Y-77820099D01*
X115400099Y-77727007D01*
X115465925Y-77612993D01*
X115482962Y-77549409D01*
X116115270Y-78181717D01*
X116115270Y-78181716D01*
X116154622Y-78127554D01*
X116251095Y-77938217D01*
X116316757Y-77736130D01*
X116316757Y-77736127D01*
X116350000Y-77526246D01*
X116350000Y-77313753D01*
X116316757Y-77103872D01*
X116316757Y-77103869D01*
X116251095Y-76901782D01*
X116154624Y-76712449D01*
X116115270Y-76658282D01*
X116115269Y-76658282D01*
X115482962Y-77290590D01*
X115465925Y-77227007D01*
X115400099Y-77112993D01*
X115307007Y-77019901D01*
X115192993Y-76954075D01*
X115129409Y-76937037D01*
X115761716Y-76304728D01*
X115707550Y-76265375D01*
X115518217Y-76168904D01*
X115316129Y-76103242D01*
X115106246Y-76070000D01*
X114893754Y-76070000D01*
X114683872Y-76103242D01*
X114683869Y-76103242D01*
X114481782Y-76168904D01*
X114292439Y-76265380D01*
X114238282Y-76304727D01*
X114238282Y-76304728D01*
X114870591Y-76937037D01*
X114807007Y-76954075D01*
X114692993Y-77019901D01*
X114599901Y-77112993D01*
X114534075Y-77227007D01*
X114517037Y-77290591D01*
X113884728Y-76658282D01*
X113884727Y-76658282D01*
X113845380Y-76712439D01*
X113748904Y-76901782D01*
X113683242Y-77103869D01*
X113683242Y-77103872D01*
X113650000Y-77313753D01*
X113650000Y-77526246D01*
X113683242Y-77736127D01*
X113683242Y-77736130D01*
X113748904Y-77938217D01*
X113845375Y-78127550D01*
X113884728Y-78181716D01*
X114517037Y-77549408D01*
X114534075Y-77612993D01*
X114599901Y-77727007D01*
X114692993Y-77820099D01*
X114807007Y-77885925D01*
X114870590Y-77902962D01*
X114238282Y-78535269D01*
X114238282Y-78535270D01*
X114292452Y-78574626D01*
X114292451Y-78574626D01*
X114301495Y-78579234D01*
X114352292Y-78627208D01*
X114369087Y-78695029D01*
X114346550Y-78761164D01*
X114301499Y-78800202D01*
X114292182Y-78804949D01*
X114120213Y-78929890D01*
X113969890Y-79080213D01*
X113844951Y-79252179D01*
X113748444Y-79441585D01*
X113682753Y-79643760D01*
X113669649Y-79726498D01*
X113649500Y-79853713D01*
X105500500Y-79853713D01*
X105500500Y-69003051D01*
X105500649Y-68996967D01*
X105508778Y-68831491D01*
X105999500Y-68831491D01*
X105999500Y-69168508D01*
X106037231Y-69503381D01*
X106037233Y-69503397D01*
X106112223Y-69831953D01*
X106112227Y-69831965D01*
X106223532Y-70150054D01*
X106369752Y-70453683D01*
X106369754Y-70453686D01*
X106549054Y-70739039D01*
X106759175Y-71002523D01*
X106997477Y-71240825D01*
X107260961Y-71450946D01*
X107546314Y-71630246D01*
X107849949Y-71776469D01*
X108088848Y-71860063D01*
X108168034Y-71887772D01*
X108168046Y-71887776D01*
X108496606Y-71962767D01*
X108831492Y-72000499D01*
X108831493Y-72000500D01*
X108831496Y-72000500D01*
X109168507Y-72000500D01*
X109168507Y-72000499D01*
X109503394Y-71962767D01*
X109831954Y-71887776D01*
X110150051Y-71776469D01*
X110453686Y-71630246D01*
X110739039Y-71450946D01*
X111002523Y-71240825D01*
X111240825Y-71002523D01*
X111450946Y-70739039D01*
X111630246Y-70453686D01*
X111776469Y-70150051D01*
X111887776Y-69831954D01*
X111962767Y-69503394D01*
X112000500Y-69168504D01*
X112000500Y-68831496D01*
X112000499Y-68831491D01*
X132999500Y-68831491D01*
X132999500Y-69168508D01*
X133037231Y-69503381D01*
X133037233Y-69503397D01*
X133112223Y-69831953D01*
X133112227Y-69831965D01*
X133223532Y-70150054D01*
X133369752Y-70453683D01*
X133369754Y-70453686D01*
X133549054Y-70739039D01*
X133759175Y-71002523D01*
X133997477Y-71240825D01*
X134260961Y-71450946D01*
X134546314Y-71630246D01*
X134849949Y-71776469D01*
X135088848Y-71860063D01*
X135168034Y-71887772D01*
X135168046Y-71887776D01*
X135496606Y-71962767D01*
X135831492Y-72000499D01*
X135831493Y-72000500D01*
X135831496Y-72000500D01*
X136168507Y-72000500D01*
X136168507Y-72000499D01*
X136503394Y-71962767D01*
X136831954Y-71887776D01*
X137150051Y-71776469D01*
X137453686Y-71630246D01*
X137739039Y-71450946D01*
X138002523Y-71240825D01*
X138240825Y-71002523D01*
X138450946Y-70739039D01*
X138630246Y-70453686D01*
X138776469Y-70150051D01*
X138887776Y-69831954D01*
X138962767Y-69503394D01*
X139000500Y-69168504D01*
X139000500Y-68831496D01*
X138962767Y-68496606D01*
X138887776Y-68168046D01*
X138776469Y-67849949D01*
X138630246Y-67546314D01*
X138450946Y-67260961D01*
X138240825Y-66997477D01*
X138002523Y-66759175D01*
X137739039Y-66549054D01*
X137453686Y-66369754D01*
X137453683Y-66369752D01*
X137150054Y-66223532D01*
X136831965Y-66112227D01*
X136831953Y-66112223D01*
X136503397Y-66037233D01*
X136503381Y-66037231D01*
X136168508Y-65999500D01*
X136168504Y-65999500D01*
X135831496Y-65999500D01*
X135831491Y-65999500D01*
X135496618Y-66037231D01*
X135496602Y-66037233D01*
X135168046Y-66112223D01*
X135168034Y-66112227D01*
X134849945Y-66223532D01*
X134546316Y-66369752D01*
X134260962Y-66549053D01*
X133997477Y-66759174D01*
X133759174Y-66997477D01*
X133549053Y-67260962D01*
X133369752Y-67546316D01*
X133223532Y-67849945D01*
X133112227Y-68168034D01*
X133112223Y-68168046D01*
X133037233Y-68496602D01*
X133037231Y-68496618D01*
X132999500Y-68831491D01*
X112000499Y-68831491D01*
X111962767Y-68496606D01*
X111887776Y-68168046D01*
X111776469Y-67849949D01*
X111630246Y-67546314D01*
X111450946Y-67260961D01*
X111240825Y-66997477D01*
X111002523Y-66759175D01*
X110739039Y-66549054D01*
X110453686Y-66369754D01*
X110453683Y-66369752D01*
X110150054Y-66223532D01*
X109831965Y-66112227D01*
X109831953Y-66112223D01*
X109503397Y-66037233D01*
X109503381Y-66037231D01*
X109168508Y-65999500D01*
X109168504Y-65999500D01*
X108831496Y-65999500D01*
X108831491Y-65999500D01*
X108496618Y-66037231D01*
X108496602Y-66037233D01*
X108168046Y-66112223D01*
X108168034Y-66112227D01*
X107849945Y-66223532D01*
X107546316Y-66369752D01*
X107260962Y-66549053D01*
X106997477Y-66759174D01*
X106759174Y-66997477D01*
X106549053Y-67260962D01*
X106369752Y-67546316D01*
X106223532Y-67849945D01*
X106112227Y-68168034D01*
X106112223Y-68168046D01*
X106037233Y-68496602D01*
X106037231Y-68496618D01*
X105999500Y-68831491D01*
X105508778Y-68831491D01*
X105509248Y-68821933D01*
X105517052Y-68663072D01*
X105518245Y-68650962D01*
X105541140Y-68496618D01*
X105566849Y-68323296D01*
X105569218Y-68311385D01*
X105649710Y-67990043D01*
X105653240Y-67978411D01*
X105685183Y-67889137D01*
X105764835Y-67666525D01*
X105769476Y-67655318D01*
X105911124Y-67355828D01*
X105916840Y-67345136D01*
X106087145Y-67060998D01*
X106093888Y-67050905D01*
X106291232Y-66784818D01*
X106298935Y-66775433D01*
X106521405Y-66529975D01*
X106529975Y-66521405D01*
X106775433Y-66298935D01*
X106784818Y-66291232D01*
X107050905Y-66093888D01*
X107060998Y-66087145D01*
X107345136Y-65916840D01*
X107355828Y-65911124D01*
X107655318Y-65769476D01*
X107666525Y-65764835D01*
X107978412Y-65653239D01*
X107990043Y-65649710D01*
X108311385Y-65569218D01*
X108323296Y-65566849D01*
X108650962Y-65518244D01*
X108663068Y-65517052D01*
X108996967Y-65500648D01*
X109003051Y-65500500D01*
X109065892Y-65500500D01*
X135934108Y-65500500D01*
X135996949Y-65500500D01*
X136003032Y-65500648D01*
G37*
%TD.AperFunction*%
%TD*%
M02*
