%TF.GenerationSoftware,KiCad,Pcbnew,9.0.6*%
%TF.CreationDate,2026-02-18T16:24:27-08:00*%
%TF.ProjectId,sensor_ppg,73656e73-6f72-45f7-9070-672e6b696361,rev?*%
%TF.SameCoordinates,Original*%
%TF.FileFunction,Legend,Top*%
%TF.FilePolarity,Positive*%
%FSLAX46Y46*%
G04 Gerber Fmt 4.6, Leading zero omitted, Abs format (unit mm)*
G04 Created by KiCad (PCBNEW 9.0.6) date 2026-02-18 16:24:27*
%MOMM*%
%LPD*%
G01*
G04 APERTURE LIST*
%ADD10C,0.150000*%
%ADD11C,0.120000*%
%ADD12C,0.127000*%
%ADD13C,0.200000*%
%ADD14C,0.152400*%
G04 APERTURE END LIST*
D10*
X114666666Y-94884819D02*
X114666666Y-95599104D01*
X114666666Y-95599104D02*
X114619047Y-95741961D01*
X114619047Y-95741961D02*
X114523809Y-95837200D01*
X114523809Y-95837200D02*
X114380952Y-95884819D01*
X114380952Y-95884819D02*
X114285714Y-95884819D01*
X115666666Y-95884819D02*
X115095238Y-95884819D01*
X115380952Y-95884819D02*
X115380952Y-94884819D01*
X115380952Y-94884819D02*
X115285714Y-95027676D01*
X115285714Y-95027676D02*
X115190476Y-95122914D01*
X115190476Y-95122914D02*
X115095238Y-95170533D01*
X118658333Y-86038866D02*
X118658333Y-87172200D01*
X118658333Y-87172200D02*
X118725000Y-87305533D01*
X118725000Y-87305533D02*
X118791666Y-87372200D01*
X118791666Y-87372200D02*
X118925000Y-87438866D01*
X118925000Y-87438866D02*
X119191666Y-87438866D01*
X119191666Y-87438866D02*
X119325000Y-87372200D01*
X119325000Y-87372200D02*
X119391666Y-87305533D01*
X119391666Y-87305533D02*
X119458333Y-87172200D01*
X119458333Y-87172200D02*
X119458333Y-86038866D01*
X120858333Y-87438866D02*
X120058333Y-87438866D01*
X120458333Y-87438866D02*
X120458333Y-86038866D01*
X120458333Y-86038866D02*
X120325000Y-86238866D01*
X120325000Y-86238866D02*
X120191667Y-86372200D01*
X120191667Y-86372200D02*
X120058333Y-86438866D01*
X122514445Y-74454819D02*
X122514445Y-75264342D01*
X122514445Y-75264342D02*
X122562064Y-75359580D01*
X122562064Y-75359580D02*
X122609683Y-75407200D01*
X122609683Y-75407200D02*
X122704921Y-75454819D01*
X122704921Y-75454819D02*
X122895397Y-75454819D01*
X122895397Y-75454819D02*
X122990635Y-75407200D01*
X122990635Y-75407200D02*
X123038254Y-75359580D01*
X123038254Y-75359580D02*
X123085873Y-75264342D01*
X123085873Y-75264342D02*
X123085873Y-74454819D01*
X123466826Y-74454819D02*
X124085873Y-74454819D01*
X124085873Y-74454819D02*
X123752540Y-74835771D01*
X123752540Y-74835771D02*
X123895397Y-74835771D01*
X123895397Y-74835771D02*
X123990635Y-74883390D01*
X123990635Y-74883390D02*
X124038254Y-74931009D01*
X124038254Y-74931009D02*
X124085873Y-75026247D01*
X124085873Y-75026247D02*
X124085873Y-75264342D01*
X124085873Y-75264342D02*
X124038254Y-75359580D01*
X124038254Y-75359580D02*
X123990635Y-75407200D01*
X123990635Y-75407200D02*
X123895397Y-75454819D01*
X123895397Y-75454819D02*
X123609683Y-75454819D01*
X123609683Y-75454819D02*
X123514445Y-75407200D01*
X123514445Y-75407200D02*
X123466826Y-75359580D01*
X111853550Y-78906820D02*
X111853550Y-79144915D01*
X111615455Y-79049677D02*
X111853550Y-79144915D01*
X111853550Y-79144915D02*
X112091645Y-79049677D01*
X111710693Y-79335391D02*
X111853550Y-79144915D01*
X111853550Y-79144915D02*
X111996407Y-79335391D01*
X111853550Y-78906820D02*
X111853550Y-79144915D01*
X111615455Y-79049677D02*
X111853550Y-79144915D01*
X111853550Y-79144915D02*
X112091645Y-79049677D01*
X111710693Y-79335391D02*
X111853550Y-79144915D01*
X111853550Y-79144915D02*
X111996407Y-79335391D01*
X120429580Y-90804166D02*
X120477200Y-90851785D01*
X120477200Y-90851785D02*
X120524819Y-90994642D01*
X120524819Y-90994642D02*
X120524819Y-91089880D01*
X120524819Y-91089880D02*
X120477200Y-91232737D01*
X120477200Y-91232737D02*
X120381961Y-91327975D01*
X120381961Y-91327975D02*
X120286723Y-91375594D01*
X120286723Y-91375594D02*
X120096247Y-91423213D01*
X120096247Y-91423213D02*
X119953390Y-91423213D01*
X119953390Y-91423213D02*
X119762914Y-91375594D01*
X119762914Y-91375594D02*
X119667676Y-91327975D01*
X119667676Y-91327975D02*
X119572438Y-91232737D01*
X119572438Y-91232737D02*
X119524819Y-91089880D01*
X119524819Y-91089880D02*
X119524819Y-90994642D01*
X119524819Y-90994642D02*
X119572438Y-90851785D01*
X119572438Y-90851785D02*
X119620057Y-90804166D01*
X120524819Y-89851785D02*
X120524819Y-90423213D01*
X120524819Y-90137499D02*
X119524819Y-90137499D01*
X119524819Y-90137499D02*
X119667676Y-90232737D01*
X119667676Y-90232737D02*
X119762914Y-90327975D01*
X119762914Y-90327975D02*
X119810533Y-90423213D01*
X130333333Y-84024819D02*
X130000000Y-83548628D01*
X129761905Y-84024819D02*
X129761905Y-83024819D01*
X129761905Y-83024819D02*
X130142857Y-83024819D01*
X130142857Y-83024819D02*
X130238095Y-83072438D01*
X130238095Y-83072438D02*
X130285714Y-83120057D01*
X130285714Y-83120057D02*
X130333333Y-83215295D01*
X130333333Y-83215295D02*
X130333333Y-83358152D01*
X130333333Y-83358152D02*
X130285714Y-83453390D01*
X130285714Y-83453390D02*
X130238095Y-83501009D01*
X130238095Y-83501009D02*
X130142857Y-83548628D01*
X130142857Y-83548628D02*
X129761905Y-83548628D01*
X131285714Y-84024819D02*
X130714286Y-84024819D01*
X131000000Y-84024819D02*
X131000000Y-83024819D01*
X131000000Y-83024819D02*
X130904762Y-83167676D01*
X130904762Y-83167676D02*
X130809524Y-83262914D01*
X130809524Y-83262914D02*
X130714286Y-83310533D01*
X130429580Y-95941666D02*
X130477200Y-95989285D01*
X130477200Y-95989285D02*
X130524819Y-96132142D01*
X130524819Y-96132142D02*
X130524819Y-96227380D01*
X130524819Y-96227380D02*
X130477200Y-96370237D01*
X130477200Y-96370237D02*
X130381961Y-96465475D01*
X130381961Y-96465475D02*
X130286723Y-96513094D01*
X130286723Y-96513094D02*
X130096247Y-96560713D01*
X130096247Y-96560713D02*
X129953390Y-96560713D01*
X129953390Y-96560713D02*
X129762914Y-96513094D01*
X129762914Y-96513094D02*
X129667676Y-96465475D01*
X129667676Y-96465475D02*
X129572438Y-96370237D01*
X129572438Y-96370237D02*
X129524819Y-96227380D01*
X129524819Y-96227380D02*
X129524819Y-96132142D01*
X129524819Y-96132142D02*
X129572438Y-95989285D01*
X129572438Y-95989285D02*
X129620057Y-95941666D01*
X129524819Y-95084523D02*
X129524819Y-95274999D01*
X129524819Y-95274999D02*
X129572438Y-95370237D01*
X129572438Y-95370237D02*
X129620057Y-95417856D01*
X129620057Y-95417856D02*
X129762914Y-95513094D01*
X129762914Y-95513094D02*
X129953390Y-95560713D01*
X129953390Y-95560713D02*
X130334342Y-95560713D01*
X130334342Y-95560713D02*
X130429580Y-95513094D01*
X130429580Y-95513094D02*
X130477200Y-95465475D01*
X130477200Y-95465475D02*
X130524819Y-95370237D01*
X130524819Y-95370237D02*
X130524819Y-95179761D01*
X130524819Y-95179761D02*
X130477200Y-95084523D01*
X130477200Y-95084523D02*
X130429580Y-95036904D01*
X130429580Y-95036904D02*
X130334342Y-94989285D01*
X130334342Y-94989285D02*
X130096247Y-94989285D01*
X130096247Y-94989285D02*
X130001009Y-95036904D01*
X130001009Y-95036904D02*
X129953390Y-95084523D01*
X129953390Y-95084523D02*
X129905771Y-95179761D01*
X129905771Y-95179761D02*
X129905771Y-95370237D01*
X129905771Y-95370237D02*
X129953390Y-95465475D01*
X129953390Y-95465475D02*
X130001009Y-95513094D01*
X130001009Y-95513094D02*
X130096247Y-95560713D01*
X124429580Y-95941666D02*
X124477200Y-95989285D01*
X124477200Y-95989285D02*
X124524819Y-96132142D01*
X124524819Y-96132142D02*
X124524819Y-96227380D01*
X124524819Y-96227380D02*
X124477200Y-96370237D01*
X124477200Y-96370237D02*
X124381961Y-96465475D01*
X124381961Y-96465475D02*
X124286723Y-96513094D01*
X124286723Y-96513094D02*
X124096247Y-96560713D01*
X124096247Y-96560713D02*
X123953390Y-96560713D01*
X123953390Y-96560713D02*
X123762914Y-96513094D01*
X123762914Y-96513094D02*
X123667676Y-96465475D01*
X123667676Y-96465475D02*
X123572438Y-96370237D01*
X123572438Y-96370237D02*
X123524819Y-96227380D01*
X123524819Y-96227380D02*
X123524819Y-96132142D01*
X123524819Y-96132142D02*
X123572438Y-95989285D01*
X123572438Y-95989285D02*
X123620057Y-95941666D01*
X123858152Y-95084523D02*
X124524819Y-95084523D01*
X123477200Y-95322618D02*
X124191485Y-95560713D01*
X124191485Y-95560713D02*
X124191485Y-94941666D01*
X124429580Y-90804166D02*
X124477200Y-90851785D01*
X124477200Y-90851785D02*
X124524819Y-90994642D01*
X124524819Y-90994642D02*
X124524819Y-91089880D01*
X124524819Y-91089880D02*
X124477200Y-91232737D01*
X124477200Y-91232737D02*
X124381961Y-91327975D01*
X124381961Y-91327975D02*
X124286723Y-91375594D01*
X124286723Y-91375594D02*
X124096247Y-91423213D01*
X124096247Y-91423213D02*
X123953390Y-91423213D01*
X123953390Y-91423213D02*
X123762914Y-91375594D01*
X123762914Y-91375594D02*
X123667676Y-91327975D01*
X123667676Y-91327975D02*
X123572438Y-91232737D01*
X123572438Y-91232737D02*
X123524819Y-91089880D01*
X123524819Y-91089880D02*
X123524819Y-90994642D01*
X123524819Y-90994642D02*
X123572438Y-90851785D01*
X123572438Y-90851785D02*
X123620057Y-90804166D01*
X123524819Y-90470832D02*
X123524819Y-89851785D01*
X123524819Y-89851785D02*
X123905771Y-90185118D01*
X123905771Y-90185118D02*
X123905771Y-90042261D01*
X123905771Y-90042261D02*
X123953390Y-89947023D01*
X123953390Y-89947023D02*
X124001009Y-89899404D01*
X124001009Y-89899404D02*
X124096247Y-89851785D01*
X124096247Y-89851785D02*
X124334342Y-89851785D01*
X124334342Y-89851785D02*
X124429580Y-89899404D01*
X124429580Y-89899404D02*
X124477200Y-89947023D01*
X124477200Y-89947023D02*
X124524819Y-90042261D01*
X124524819Y-90042261D02*
X124524819Y-90327975D01*
X124524819Y-90327975D02*
X124477200Y-90423213D01*
X124477200Y-90423213D02*
X124429580Y-90470832D01*
X120429580Y-95941666D02*
X120477200Y-95989285D01*
X120477200Y-95989285D02*
X120524819Y-96132142D01*
X120524819Y-96132142D02*
X120524819Y-96227380D01*
X120524819Y-96227380D02*
X120477200Y-96370237D01*
X120477200Y-96370237D02*
X120381961Y-96465475D01*
X120381961Y-96465475D02*
X120286723Y-96513094D01*
X120286723Y-96513094D02*
X120096247Y-96560713D01*
X120096247Y-96560713D02*
X119953390Y-96560713D01*
X119953390Y-96560713D02*
X119762914Y-96513094D01*
X119762914Y-96513094D02*
X119667676Y-96465475D01*
X119667676Y-96465475D02*
X119572438Y-96370237D01*
X119572438Y-96370237D02*
X119524819Y-96227380D01*
X119524819Y-96227380D02*
X119524819Y-96132142D01*
X119524819Y-96132142D02*
X119572438Y-95989285D01*
X119572438Y-95989285D02*
X119620057Y-95941666D01*
X119620057Y-95560713D02*
X119572438Y-95513094D01*
X119572438Y-95513094D02*
X119524819Y-95417856D01*
X119524819Y-95417856D02*
X119524819Y-95179761D01*
X119524819Y-95179761D02*
X119572438Y-95084523D01*
X119572438Y-95084523D02*
X119620057Y-95036904D01*
X119620057Y-95036904D02*
X119715295Y-94989285D01*
X119715295Y-94989285D02*
X119810533Y-94989285D01*
X119810533Y-94989285D02*
X119953390Y-95036904D01*
X119953390Y-95036904D02*
X120524819Y-95608332D01*
X120524819Y-95608332D02*
X120524819Y-94989285D01*
X130429580Y-90804166D02*
X130477200Y-90851785D01*
X130477200Y-90851785D02*
X130524819Y-90994642D01*
X130524819Y-90994642D02*
X130524819Y-91089880D01*
X130524819Y-91089880D02*
X130477200Y-91232737D01*
X130477200Y-91232737D02*
X130381961Y-91327975D01*
X130381961Y-91327975D02*
X130286723Y-91375594D01*
X130286723Y-91375594D02*
X130096247Y-91423213D01*
X130096247Y-91423213D02*
X129953390Y-91423213D01*
X129953390Y-91423213D02*
X129762914Y-91375594D01*
X129762914Y-91375594D02*
X129667676Y-91327975D01*
X129667676Y-91327975D02*
X129572438Y-91232737D01*
X129572438Y-91232737D02*
X129524819Y-91089880D01*
X129524819Y-91089880D02*
X129524819Y-90994642D01*
X129524819Y-90994642D02*
X129572438Y-90851785D01*
X129572438Y-90851785D02*
X129620057Y-90804166D01*
X129524819Y-89899404D02*
X129524819Y-90375594D01*
X129524819Y-90375594D02*
X130001009Y-90423213D01*
X130001009Y-90423213D02*
X129953390Y-90375594D01*
X129953390Y-90375594D02*
X129905771Y-90280356D01*
X129905771Y-90280356D02*
X129905771Y-90042261D01*
X129905771Y-90042261D02*
X129953390Y-89947023D01*
X129953390Y-89947023D02*
X130001009Y-89899404D01*
X130001009Y-89899404D02*
X130096247Y-89851785D01*
X130096247Y-89851785D02*
X130334342Y-89851785D01*
X130334342Y-89851785D02*
X130429580Y-89899404D01*
X130429580Y-89899404D02*
X130477200Y-89947023D01*
X130477200Y-89947023D02*
X130524819Y-90042261D01*
X130524819Y-90042261D02*
X130524819Y-90280356D01*
X130524819Y-90280356D02*
X130477200Y-90375594D01*
X130477200Y-90375594D02*
X130429580Y-90423213D01*
X130420833Y-74524819D02*
X130087500Y-74048628D01*
X129849405Y-74524819D02*
X129849405Y-73524819D01*
X129849405Y-73524819D02*
X130230357Y-73524819D01*
X130230357Y-73524819D02*
X130325595Y-73572438D01*
X130325595Y-73572438D02*
X130373214Y-73620057D01*
X130373214Y-73620057D02*
X130420833Y-73715295D01*
X130420833Y-73715295D02*
X130420833Y-73858152D01*
X130420833Y-73858152D02*
X130373214Y-73953390D01*
X130373214Y-73953390D02*
X130325595Y-74001009D01*
X130325595Y-74001009D02*
X130230357Y-74048628D01*
X130230357Y-74048628D02*
X129849405Y-74048628D01*
X130754167Y-73524819D02*
X131373214Y-73524819D01*
X131373214Y-73524819D02*
X131039881Y-73905771D01*
X131039881Y-73905771D02*
X131182738Y-73905771D01*
X131182738Y-73905771D02*
X131277976Y-73953390D01*
X131277976Y-73953390D02*
X131325595Y-74001009D01*
X131325595Y-74001009D02*
X131373214Y-74096247D01*
X131373214Y-74096247D02*
X131373214Y-74334342D01*
X131373214Y-74334342D02*
X131325595Y-74429580D01*
X131325595Y-74429580D02*
X131277976Y-74477200D01*
X131277976Y-74477200D02*
X131182738Y-74524819D01*
X131182738Y-74524819D02*
X130897024Y-74524819D01*
X130897024Y-74524819D02*
X130801786Y-74477200D01*
X130801786Y-74477200D02*
X130754167Y-74429580D01*
X130333333Y-79024819D02*
X130000000Y-78548628D01*
X129761905Y-79024819D02*
X129761905Y-78024819D01*
X129761905Y-78024819D02*
X130142857Y-78024819D01*
X130142857Y-78024819D02*
X130238095Y-78072438D01*
X130238095Y-78072438D02*
X130285714Y-78120057D01*
X130285714Y-78120057D02*
X130333333Y-78215295D01*
X130333333Y-78215295D02*
X130333333Y-78358152D01*
X130333333Y-78358152D02*
X130285714Y-78453390D01*
X130285714Y-78453390D02*
X130238095Y-78501009D01*
X130238095Y-78501009D02*
X130142857Y-78548628D01*
X130142857Y-78548628D02*
X129761905Y-78548628D01*
X130714286Y-78120057D02*
X130761905Y-78072438D01*
X130761905Y-78072438D02*
X130857143Y-78024819D01*
X130857143Y-78024819D02*
X131095238Y-78024819D01*
X131095238Y-78024819D02*
X131190476Y-78072438D01*
X131190476Y-78072438D02*
X131238095Y-78120057D01*
X131238095Y-78120057D02*
X131285714Y-78215295D01*
X131285714Y-78215295D02*
X131285714Y-78310533D01*
X131285714Y-78310533D02*
X131238095Y-78453390D01*
X131238095Y-78453390D02*
X130666667Y-79024819D01*
X130666667Y-79024819D02*
X131285714Y-79024819D01*
D11*
%TO.C,J1*%
X113670000Y-91390000D02*
X113670000Y-76090000D01*
X113670000Y-93990000D02*
X113670000Y-92660000D01*
X115000000Y-93990000D02*
X113670000Y-93990000D01*
X116330000Y-76090000D02*
X113670000Y-76090000D01*
X116330000Y-91390000D02*
X113670000Y-91390000D01*
X116330000Y-91390000D02*
X116330000Y-76090000D01*
D12*
%TO.C,U1*%
X123705000Y-85450000D02*
X122695000Y-85450000D01*
X122695000Y-79750000D02*
X123705000Y-79750000D01*
D13*
X125450000Y-85000000D02*
G75*
G02*
X125250000Y-85000000I-100000J0D01*
G01*
X125250000Y-85000000D02*
G75*
G02*
X125450000Y-85000000I100000J0D01*
G01*
D14*
%TO.C,U3*%
X124203450Y-73425200D02*
X122349250Y-73425200D01*
X124203450Y-75363261D02*
X124203450Y-74636739D01*
X122349250Y-76574800D02*
X124203450Y-76574800D01*
D11*
%TO.C,C1*%
X120990000Y-90783767D02*
X120990000Y-90491233D01*
X122010000Y-90783767D02*
X122010000Y-90491233D01*
%TO.C,R1*%
X130245276Y-85522500D02*
X130754724Y-85522500D01*
X130245276Y-84477500D02*
X130754724Y-84477500D01*
%TO.C,C6*%
X132010000Y-95921267D02*
X132010000Y-95628733D01*
X130990000Y-95921267D02*
X130990000Y-95628733D01*
%TO.C,C4*%
X127010000Y-95921267D02*
X127010000Y-95628733D01*
X125990000Y-95921267D02*
X125990000Y-95628733D01*
%TO.C,C3*%
X127010000Y-90783767D02*
X127010000Y-90491233D01*
X125990000Y-90783767D02*
X125990000Y-90491233D01*
%TO.C,C2*%
X122010000Y-95921267D02*
X122010000Y-95628733D01*
X120990000Y-95921267D02*
X120990000Y-95628733D01*
%TO.C,C5*%
X132010000Y-90783767D02*
X132010000Y-90491233D01*
X130990000Y-90783767D02*
X130990000Y-90491233D01*
%TO.C,R3*%
X130332776Y-76022500D02*
X130842224Y-76022500D01*
X130332776Y-74977500D02*
X130842224Y-74977500D01*
%TO.C,R2*%
X130245276Y-80522500D02*
X130754724Y-80522500D01*
X130245276Y-79477500D02*
X130754724Y-79477500D01*
%TD*%
M02*
