%TF.GenerationSoftware,KiCad,Pcbnew,9.0.6*%
%TF.CreationDate,2026-02-18T16:24:27-08:00*%
%TF.ProjectId,sensor_ppg,73656e73-6f72-45f7-9070-672e6b696361,rev?*%
%TF.SameCoordinates,Original*%
%TF.FileFunction,Copper,L1,Top*%
%TF.FilePolarity,Positive*%
%FSLAX46Y46*%
G04 Gerber Fmt 4.6, Leading zero omitted, Abs format (unit mm)*
G04 Created by KiCad (PCBNEW 9.0.6) date 2026-02-18 16:24:27*
%MOMM*%
%LPD*%
G01*
G04 APERTURE LIST*
G04 Aperture macros list*
%AMRoundRect*
0 Rectangle with rounded corners*
0 $1 Rounding radius*
0 $2 $3 $4 $5 $6 $7 $8 $9 X,Y pos of 4 corners*
0 Add a 4 corners polygon primitive as box body*
4,1,4,$2,$3,$4,$5,$6,$7,$8,$9,$2,$3,0*
0 Add four circle primitives for the rounded corners*
1,1,$1+$1,$2,$3*
1,1,$1+$1,$4,$5*
1,1,$1+$1,$6,$7*
1,1,$1+$1,$8,$9*
0 Add four rect primitives between the rounded corners*
20,1,$1+$1,$2,$3,$4,$5,0*
20,1,$1+$1,$4,$5,$6,$7,0*
20,1,$1+$1,$6,$7,$8,$9,0*
20,1,$1+$1,$8,$9,$2,$3,0*%
G04 Aperture macros list end*
%TA.AperFunction,ComponentPad*%
%ADD10C,1.700000*%
%TD*%
%TA.AperFunction,ComponentPad*%
%ADD11R,1.700000X1.700000*%
%TD*%
%TA.AperFunction,SMDPad,CuDef*%
%ADD12R,0.750000X0.350000*%
%TD*%
%TA.AperFunction,SMDPad,CuDef*%
%ADD13R,0.952500X0.508000*%
%TD*%
%TA.AperFunction,SMDPad,CuDef*%
%ADD14RoundRect,0.237500X0.237500X-0.300000X0.237500X0.300000X-0.237500X0.300000X-0.237500X-0.300000X0*%
%TD*%
%TA.AperFunction,SMDPad,CuDef*%
%ADD15RoundRect,0.237500X-0.250000X-0.237500X0.250000X-0.237500X0.250000X0.237500X-0.250000X0.237500X0*%
%TD*%
%TA.AperFunction,ViaPad*%
%ADD16C,0.600000*%
%TD*%
%TA.AperFunction,Conductor*%
%ADD17C,0.200000*%
%TD*%
G04 APERTURE END LIST*
D10*
%TO.P,J1,7,Pin_7*%
%TO.N,GND*%
X115000000Y-77420000D03*
%TO.P,J1,6,Pin_6*%
%TO.N,/INT*%
X115000000Y-79960000D03*
%TO.P,J1,5,Pin_5*%
%TO.N,/SCL*%
X115000000Y-82500000D03*
%TO.P,J1,4,Pin_4*%
%TO.N,/SDA*%
X115000000Y-85040000D03*
%TO.P,J1,3,Pin_3*%
%TO.N,/VDDIO*%
X115000000Y-87580000D03*
%TO.P,J1,2,Pin_2*%
%TO.N,+1V8*%
X115000000Y-90120000D03*
D11*
%TO.P,J1,1,Pin_1*%
%TO.N,+3.3V*%
X115000000Y-92660000D03*
%TD*%
D12*
%TO.P,U1,1*%
%TO.N,N/C*%
X124400000Y-85000000D03*
%TO.P,U1,2,SCL*%
%TO.N,/SCL*%
X124400000Y-84200000D03*
%TO.P,U1,3,SDA*%
%TO.N,/SDA*%
X124400000Y-83400000D03*
%TO.P,U1,4,PGND*%
%TO.N,unconnected-(U1-PGND-Pad4)*%
X124400000Y-82600000D03*
%TO.P,U1,5*%
%TO.N,N/C*%
X124400000Y-81800000D03*
%TO.P,U1,6*%
X124400000Y-81000000D03*
%TO.P,U1,7*%
X124400000Y-80200000D03*
%TO.P,U1,8*%
X122000000Y-80200000D03*
%TO.P,U1,9,VLED+*%
%TO.N,+3.3V*%
X122000000Y-81000000D03*
%TO.P,U1,10,VLED+__1*%
%TO.N,unconnected-(U1-VLED+__1-Pad10)*%
X122000000Y-81800000D03*
%TO.P,U1,11,VDD*%
%TO.N,+1V8*%
X122000000Y-82600000D03*
%TO.P,U1,12,GND*%
%TO.N,GND*%
X122000000Y-83400000D03*
%TO.P,U1,13,~{INT}*%
%TO.N,/INT*%
X122000000Y-84200000D03*
%TO.P,U1,14*%
%TO.N,N/C*%
X122000000Y-85000000D03*
%TD*%
D13*
%TO.P,U3,5,VOUT*%
%TO.N,+1V8*%
X124552700Y-74049999D03*
%TO.P,U3,4,NC*%
%TO.N,unconnected-(U3-NC-Pad4)*%
X124552700Y-75950001D03*
%TO.P,U3,3,EN*%
%TO.N,+3.3V*%
X122000000Y-75950001D03*
%TO.P,U3,2,GND*%
%TO.N,GND*%
X122000000Y-75000000D03*
%TO.P,U3,1,VIN*%
%TO.N,+3.3V*%
X122000000Y-74049999D03*
%TD*%
D14*
%TO.P,C1,1*%
%TO.N,+3.3V*%
X121500000Y-91500000D03*
%TO.P,C1,2*%
%TO.N,GND*%
X121500000Y-89775000D03*
%TD*%
D15*
%TO.P,R1,2*%
%TO.N,/VDDIO*%
X131412500Y-85000000D03*
%TO.P,R1,1*%
%TO.N,/SCL*%
X129587500Y-85000000D03*
%TD*%
D14*
%TO.P,C6,2*%
%TO.N,GND*%
X131500000Y-94912500D03*
%TO.P,C6,1*%
%TO.N,+1V8*%
X131500000Y-96637500D03*
%TD*%
%TO.P,C4,2*%
%TO.N,GND*%
X126500000Y-94912500D03*
%TO.P,C4,1*%
%TO.N,+1V8*%
X126500000Y-96637500D03*
%TD*%
%TO.P,C3,2*%
%TO.N,GND*%
X126500000Y-89775000D03*
%TO.P,C3,1*%
%TO.N,+1V8*%
X126500000Y-91500000D03*
%TD*%
%TO.P,C2,2*%
%TO.N,GND*%
X121500000Y-94912500D03*
%TO.P,C2,1*%
%TO.N,+3.3V*%
X121500000Y-96637500D03*
%TD*%
%TO.P,C5,2*%
%TO.N,GND*%
X131500000Y-89775000D03*
%TO.P,C5,1*%
%TO.N,+3.3V*%
X131500000Y-91500000D03*
%TD*%
D15*
%TO.P,R3,2*%
%TO.N,/VDDIO*%
X131500000Y-75500000D03*
%TO.P,R3,1*%
%TO.N,/INT*%
X129675000Y-75500000D03*
%TD*%
%TO.P,R2,2*%
%TO.N,/VDDIO*%
X131412500Y-80000000D03*
%TO.P,R2,1*%
%TO.N,/SDA*%
X129587500Y-80000000D03*
%TD*%
D16*
%TO.N,+3.3V*%
X123000000Y-90661500D03*
X123000000Y-90661500D03*
%TO.N,+1V8*%
X124500000Y-92000000D03*
%TO.N,GND*%
X120000000Y-88500000D03*
%TO.N,+1V8*%
X123000000Y-82000000D03*
X125500000Y-77500000D03*
%TO.N,GND*%
X123000000Y-83000000D03*
X120500000Y-78000000D03*
%TO.N,+3.3V*%
X123500000Y-81000000D03*
X123500000Y-81000000D03*
X123000000Y-77500000D03*
%TO.N,/INT*%
X120500000Y-84000000D03*
X118960000Y-79960000D03*
%TO.N,+1V8*%
X118500000Y-84500000D03*
X118500000Y-89000000D03*
%TD*%
D17*
%TO.N,+3.3V*%
X123000000Y-90661500D02*
X123014500Y-90647000D01*
X121500000Y-91500000D02*
X122161500Y-91500000D01*
X122161500Y-91500000D02*
X123000000Y-90661500D01*
%TO.N,+1V8*%
X124500000Y-92000000D02*
X125000000Y-91500000D01*
X125000000Y-91500000D02*
X126500000Y-91500000D01*
%TO.N,GND*%
X120225000Y-88500000D02*
X120000000Y-88500000D01*
X121500000Y-89775000D02*
X120225000Y-88500000D01*
%TO.N,/VDDIO*%
X131412500Y-80000000D02*
X131412500Y-85000000D01*
X131500000Y-75500000D02*
X131500000Y-79912500D01*
X131500000Y-79912500D02*
X131412500Y-80000000D01*
%TO.N,+1V8*%
X123000000Y-82000000D02*
X122400000Y-82600000D01*
X122400000Y-82600000D02*
X122000000Y-82600000D01*
X126000000Y-77000000D02*
X125500000Y-77500000D01*
X126000000Y-75497299D02*
X126000000Y-77000000D01*
X124552700Y-74049999D02*
X126000000Y-75497299D01*
%TO.N,GND*%
X123000000Y-83000000D02*
X122600000Y-83400000D01*
X122600000Y-83400000D02*
X122000000Y-83400000D01*
X120500000Y-76277750D02*
X120500000Y-78000000D01*
X121777750Y-75000000D02*
X120500000Y-76277750D01*
X122000000Y-75000000D02*
X121777750Y-75000000D01*
%TO.N,+3.3V*%
X123000000Y-74667750D02*
X123000000Y-75500000D01*
X122000000Y-75950001D02*
X122549999Y-75950001D01*
X122549999Y-75950001D02*
X123000000Y-75500000D01*
X123500000Y-81000000D02*
X122000000Y-81000000D01*
X122382249Y-74049999D02*
X123000000Y-74667750D01*
X123000000Y-75500000D02*
X123000000Y-77500000D01*
X122000000Y-74049999D02*
X122382249Y-74049999D01*
%TO.N,/INT*%
X129675000Y-75500000D02*
X125951000Y-79224000D01*
X125951000Y-79224000D02*
X119696000Y-79224000D01*
X119696000Y-79224000D02*
X118960000Y-79960000D01*
X120500000Y-84000000D02*
X121800000Y-84000000D01*
X121800000Y-84000000D02*
X122000000Y-84200000D01*
X115000000Y-79960000D02*
X118960000Y-79960000D01*
X119000000Y-80000000D02*
X118960000Y-79960000D01*
%TO.N,+1V8*%
X118500000Y-84500000D02*
X120400000Y-82600000D01*
X120400000Y-82600000D02*
X122000000Y-82600000D01*
X116120000Y-89000000D02*
X118500000Y-89000000D01*
X115000000Y-90120000D02*
X116120000Y-89000000D01*
%TO.N,/SDA*%
X115000000Y-85040000D02*
X113849000Y-83889000D01*
X113849000Y-83889000D02*
X113849000Y-82023240D01*
X114523240Y-81349000D02*
X119699000Y-81349000D01*
X121324000Y-79724000D02*
X125224000Y-79724000D01*
X113849000Y-82023240D02*
X114523240Y-81349000D01*
X119699000Y-81349000D02*
X121324000Y-79724000D01*
X125224000Y-79724000D02*
X127543750Y-82043750D01*
%TO.N,GND*%
X132276000Y-97167134D02*
X132276000Y-93500000D01*
X131500000Y-94912500D02*
X131500000Y-94276000D01*
X131500000Y-94276000D02*
X132276000Y-93500000D01*
X126500000Y-94912500D02*
X129063500Y-97476000D01*
X132276000Y-93500000D02*
X132276000Y-90551000D01*
X129063500Y-97476000D02*
X131967134Y-97476000D01*
X131967134Y-97476000D02*
X132276000Y-97167134D01*
X132276000Y-90551000D02*
X131500000Y-89775000D01*
X121500000Y-94912500D02*
X126500000Y-94912500D01*
%TO.N,+3.3V*%
X121500000Y-96637500D02*
X120340000Y-95477500D01*
X120340000Y-95477500D02*
X120340000Y-92660000D01*
X131500000Y-91500000D02*
X130661500Y-90661500D01*
X130661500Y-90661500D02*
X123000000Y-90661500D01*
%TO.N,+1V8*%
X126500000Y-91500000D02*
X131500000Y-96500000D01*
X131500000Y-96500000D02*
X131500000Y-96637500D01*
%TO.N,GND*%
X126500000Y-89775000D02*
X131500000Y-89775000D01*
X121500000Y-89775000D02*
X126500000Y-89775000D01*
%TO.N,+3.3V*%
X115000000Y-92660000D02*
X120340000Y-92660000D01*
X120340000Y-92660000D02*
X121500000Y-91500000D01*
%TO.N,/VDDIO*%
X115000000Y-87580000D02*
X128832500Y-87580000D01*
X128832500Y-87580000D02*
X131412500Y-85000000D01*
%TO.N,/SDA*%
X129587500Y-80000000D02*
X127543750Y-82043750D01*
%TO.N,/SCL*%
X115000000Y-82500000D02*
X117976000Y-85476000D01*
X124200000Y-84200000D02*
X124400000Y-84200000D01*
X117976000Y-85476000D02*
X122924000Y-85476000D01*
X122924000Y-85476000D02*
X124200000Y-84200000D01*
X129587500Y-85000000D02*
X128787500Y-84200000D01*
X128787500Y-84200000D02*
X124400000Y-84200000D01*
%TO.N,/SDA*%
X127543750Y-82043750D02*
X126187500Y-83400000D01*
X126187500Y-83400000D02*
X124400000Y-83400000D01*
%TO.N,/INT*%
X122200000Y-84200000D02*
X122000000Y-84200000D01*
%TO.N,GND*%
X115000000Y-77420000D02*
X117420000Y-75000000D01*
X117420000Y-75000000D02*
X122000000Y-75000000D01*
%TD*%
%TA.AperFunction,Conductor*%
%TO.N,GND*%
G36*
X123405632Y-82714397D02*
G01*
X123423059Y-82712524D01*
X123439271Y-82720639D01*
X123457097Y-82723947D01*
X123469865Y-82735953D01*
X123485538Y-82743799D01*
X123494788Y-82759390D01*
X123507997Y-82771811D01*
X123520892Y-82803386D01*
X123521190Y-82803888D01*
X123521263Y-82804295D01*
X123521341Y-82804485D01*
X123524500Y-82817127D01*
X123524501Y-82822872D01*
X123530909Y-82882483D01*
X123561007Y-82963184D01*
X123562694Y-82969930D01*
X123561544Y-82998166D01*
X123563561Y-83026358D01*
X123560142Y-83032617D01*
X123559853Y-83039742D01*
X123558577Y-83043331D01*
X123530910Y-83117511D01*
X123530909Y-83117515D01*
X123530909Y-83117517D01*
X123524500Y-83177127D01*
X123524500Y-83177134D01*
X123524500Y-83177135D01*
X123524500Y-83622870D01*
X123524501Y-83622876D01*
X123530908Y-83682483D01*
X123558577Y-83756667D01*
X123559939Y-83775712D01*
X123566237Y-83793740D01*
X123562813Y-83815904D01*
X123563561Y-83826358D01*
X123562984Y-83828884D01*
X123561220Y-83836245D01*
X123530909Y-83917517D01*
X123524500Y-83977127D01*
X123524500Y-83989545D01*
X123521089Y-84003786D01*
X123510698Y-84021904D01*
X123504815Y-84041940D01*
X123488181Y-84062582D01*
X123087180Y-84463582D01*
X123025857Y-84497067D01*
X122956165Y-84492083D01*
X122900232Y-84450211D01*
X122875815Y-84384747D01*
X122875499Y-84375926D01*
X122875499Y-83977128D01*
X122869091Y-83917517D01*
X122841154Y-83842616D01*
X122836171Y-83772927D01*
X122841156Y-83755950D01*
X122868597Y-83682379D01*
X122868597Y-83682377D01*
X122874999Y-83622844D01*
X122875000Y-83622827D01*
X122875000Y-83575000D01*
X122623069Y-83575000D01*
X122614383Y-83572449D01*
X122605422Y-83573738D01*
X122579736Y-83567182D01*
X122482482Y-83530908D01*
X122482483Y-83530908D01*
X122422883Y-83524501D01*
X122422881Y-83524500D01*
X122422873Y-83524500D01*
X122422865Y-83524500D01*
X122210637Y-83524500D01*
X122195149Y-83520350D01*
X122181409Y-83521006D01*
X122148643Y-83507891D01*
X122146909Y-83506890D01*
X122098690Y-83456325D01*
X122085464Y-83387719D01*
X122111428Y-83322853D01*
X122168340Y-83282321D01*
X122208901Y-83275499D01*
X122422872Y-83275499D01*
X122482483Y-83269091D01*
X122579736Y-83232817D01*
X122623069Y-83225000D01*
X122875000Y-83225000D01*
X122875000Y-83177172D01*
X122874999Y-83177155D01*
X122868598Y-83117623D01*
X122859234Y-83092519D01*
X122857963Y-83074753D01*
X122851734Y-83058070D01*
X122855521Y-83040630D01*
X122854248Y-83022827D01*
X122862785Y-83007186D01*
X122866563Y-82989792D01*
X122887677Y-82961580D01*
X122887705Y-82961531D01*
X122887745Y-82961490D01*
X122888718Y-82960517D01*
X122890702Y-82958532D01*
X122890706Y-82958529D01*
X122890725Y-82958510D01*
X122890731Y-82958503D01*
X122926035Y-82923199D01*
X123014662Y-82834572D01*
X123075984Y-82801088D01*
X123078151Y-82800637D01*
X123078840Y-82800500D01*
X123078842Y-82800500D01*
X123233497Y-82769737D01*
X123353591Y-82719992D01*
X123371615Y-82718054D01*
X123388400Y-82711200D01*
X123405632Y-82714397D01*
G37*
%TD.AperFunction*%
%TA.AperFunction,Conductor*%
G36*
X136003032Y-65500648D02*
G01*
X136336929Y-65517052D01*
X136349037Y-65518245D01*
X136452146Y-65533539D01*
X136676699Y-65566849D01*
X136688617Y-65569219D01*
X137009951Y-65649709D01*
X137021588Y-65653240D01*
X137092806Y-65678722D01*
X137333467Y-65764832D01*
X137344688Y-65769479D01*
X137644163Y-65911120D01*
X137654871Y-65916844D01*
X137855728Y-66037233D01*
X137938988Y-66087137D01*
X137949103Y-66093895D01*
X137973817Y-66112224D01*
X138215170Y-66291224D01*
X138224576Y-66298944D01*
X138470013Y-66521395D01*
X138478604Y-66529986D01*
X138665755Y-66736475D01*
X138701055Y-66775423D01*
X138708775Y-66784829D01*
X138906102Y-67050893D01*
X138912862Y-67061011D01*
X139041776Y-67276092D01*
X139083148Y-67345116D01*
X139088885Y-67355848D01*
X139230514Y-67655297D01*
X139235170Y-67666540D01*
X139346759Y-67978411D01*
X139350292Y-67990055D01*
X139430777Y-68311369D01*
X139433151Y-68323305D01*
X139481754Y-68650962D01*
X139482947Y-68663071D01*
X139499351Y-68996966D01*
X139499500Y-69003051D01*
X139499500Y-100996948D01*
X139499351Y-101003033D01*
X139482947Y-101336928D01*
X139481754Y-101349037D01*
X139433151Y-101676694D01*
X139430777Y-101688630D01*
X139350292Y-102009944D01*
X139346759Y-102021588D01*
X139235170Y-102333459D01*
X139230514Y-102344702D01*
X139088885Y-102644151D01*
X139083148Y-102654883D01*
X138912862Y-102938988D01*
X138906102Y-102949106D01*
X138708775Y-103215170D01*
X138701055Y-103224576D01*
X138478611Y-103470006D01*
X138470006Y-103478611D01*
X138224576Y-103701055D01*
X138215170Y-103708775D01*
X137949106Y-103906102D01*
X137938988Y-103912862D01*
X137654883Y-104083148D01*
X137644151Y-104088885D01*
X137344702Y-104230514D01*
X137333459Y-104235170D01*
X137021588Y-104346759D01*
X137009944Y-104350292D01*
X136688630Y-104430777D01*
X136676694Y-104433151D01*
X136349037Y-104481754D01*
X136336928Y-104482947D01*
X136021989Y-104498419D01*
X136003031Y-104499351D01*
X135996949Y-104499500D01*
X109003051Y-104499500D01*
X108996968Y-104499351D01*
X108976900Y-104498365D01*
X108663071Y-104482947D01*
X108650962Y-104481754D01*
X108323305Y-104433151D01*
X108311369Y-104430777D01*
X107990055Y-104350292D01*
X107978411Y-104346759D01*
X107666540Y-104235170D01*
X107655301Y-104230515D01*
X107355844Y-104088883D01*
X107345121Y-104083150D01*
X107061011Y-103912862D01*
X107050893Y-103906102D01*
X106784829Y-103708775D01*
X106775423Y-103701055D01*
X106697297Y-103630246D01*
X106529986Y-103478604D01*
X106521395Y-103470013D01*
X106298944Y-103224576D01*
X106291224Y-103215170D01*
X106093897Y-102949106D01*
X106087137Y-102938988D01*
X106059805Y-102893387D01*
X105916844Y-102654871D01*
X105911120Y-102644163D01*
X105769479Y-102344688D01*
X105764829Y-102333459D01*
X105759427Y-102318362D01*
X105653240Y-102021588D01*
X105649707Y-102009944D01*
X105605123Y-101831953D01*
X105569219Y-101688617D01*
X105566848Y-101676694D01*
X105518245Y-101349037D01*
X105517052Y-101336927D01*
X105500649Y-101003032D01*
X105500500Y-100996948D01*
X105500500Y-100831491D01*
X105999500Y-100831491D01*
X105999500Y-101168508D01*
X106037231Y-101503381D01*
X106037233Y-101503397D01*
X106112223Y-101831953D01*
X106112227Y-101831965D01*
X106223532Y-102150054D01*
X106369752Y-102453683D01*
X106369754Y-102453686D01*
X106549054Y-102739039D01*
X106759175Y-103002523D01*
X106997477Y-103240825D01*
X107260961Y-103450946D01*
X107546314Y-103630246D01*
X107849949Y-103776469D01*
X108088848Y-103860063D01*
X108168034Y-103887772D01*
X108168046Y-103887776D01*
X108496606Y-103962767D01*
X108831492Y-104000499D01*
X108831493Y-104000500D01*
X108831496Y-104000500D01*
X109168507Y-104000500D01*
X109168507Y-104000499D01*
X109503394Y-103962767D01*
X109831954Y-103887776D01*
X110150051Y-103776469D01*
X110453686Y-103630246D01*
X110739039Y-103450946D01*
X111002523Y-103240825D01*
X111240825Y-103002523D01*
X111450946Y-102739039D01*
X111630246Y-102453686D01*
X111776469Y-102150051D01*
X111887776Y-101831954D01*
X111962767Y-101503394D01*
X112000500Y-101168504D01*
X112000500Y-100831496D01*
X112000499Y-100831491D01*
X132999500Y-100831491D01*
X132999500Y-101168508D01*
X133037231Y-101503381D01*
X133037233Y-101503397D01*
X133112223Y-101831953D01*
X133112227Y-101831965D01*
X133223532Y-102150054D01*
X133369752Y-102453683D01*
X133369754Y-102453686D01*
X133549054Y-102739039D01*
X133759175Y-103002523D01*
X133997477Y-103240825D01*
X134260961Y-103450946D01*
X134546314Y-103630246D01*
X134849949Y-103776469D01*
X135088848Y-103860063D01*
X135168034Y-103887772D01*
X135168046Y-103887776D01*
X135496606Y-103962767D01*
X135831492Y-104000499D01*
X135831493Y-104000500D01*
X135831496Y-104000500D01*
X136168507Y-104000500D01*
X136168507Y-104000499D01*
X136503394Y-103962767D01*
X136831954Y-103887776D01*
X137150051Y-103776469D01*
X137453686Y-103630246D01*
X137739039Y-103450946D01*
X138002523Y-103240825D01*
X138240825Y-103002523D01*
X138450946Y-102739039D01*
X138630246Y-102453686D01*
X138776469Y-102150051D01*
X138887776Y-101831954D01*
X138962767Y-101503394D01*
X139000500Y-101168504D01*
X139000500Y-100831496D01*
X138962767Y-100496606D01*
X138887776Y-100168046D01*
X138776469Y-99849949D01*
X138630246Y-99546314D01*
X138450946Y-99260961D01*
X138240825Y-98997477D01*
X138002523Y-98759175D01*
X137739039Y-98549054D01*
X137453686Y-98369754D01*
X137453683Y-98369752D01*
X137150054Y-98223532D01*
X136831965Y-98112227D01*
X136831953Y-98112223D01*
X136503397Y-98037233D01*
X136503381Y-98037231D01*
X136168508Y-97999500D01*
X136168504Y-97999500D01*
X135831496Y-97999500D01*
X135831491Y-97999500D01*
X135496618Y-98037231D01*
X135496602Y-98037233D01*
X135168046Y-98112223D01*
X135168034Y-98112227D01*
X134849945Y-98223532D01*
X134546316Y-98369752D01*
X134260962Y-98549053D01*
X133997477Y-98759174D01*
X133759174Y-98997477D01*
X133549053Y-99260962D01*
X133369752Y-99546316D01*
X133223532Y-99849945D01*
X133112227Y-100168034D01*
X133112223Y-100168046D01*
X133037233Y-100496602D01*
X133037231Y-100496618D01*
X132999500Y-100831491D01*
X112000499Y-100831491D01*
X111962767Y-100496606D01*
X111887776Y-100168046D01*
X111776469Y-99849949D01*
X111630246Y-99546314D01*
X111450946Y-99260961D01*
X111240825Y-98997477D01*
X111002523Y-98759175D01*
X110739039Y-98549054D01*
X110453686Y-98369754D01*
X110453683Y-98369752D01*
X110150054Y-98223532D01*
X109831965Y-98112227D01*
X109831953Y-98112223D01*
X109503397Y-98037233D01*
X109503381Y-98037231D01*
X109168508Y-97999500D01*
X109168504Y-97999500D01*
X108831496Y-97999500D01*
X108831491Y-97999500D01*
X108496618Y-98037231D01*
X108496602Y-98037233D01*
X108168046Y-98112223D01*
X108168034Y-98112227D01*
X107849945Y-98223532D01*
X107546316Y-98369752D01*
X107260962Y-98549053D01*
X106997477Y-98759174D01*
X106759174Y-98997477D01*
X106549053Y-99260962D01*
X106369752Y-99546316D01*
X106223532Y-99849945D01*
X106112227Y-100168034D01*
X106112223Y-100168046D01*
X106037233Y-100496602D01*
X106037231Y-100496618D01*
X105999500Y-100831491D01*
X105500500Y-100831491D01*
X105500500Y-83968054D01*
X113248498Y-83968054D01*
X113250930Y-83977129D01*
X113289423Y-84120785D01*
X113295481Y-84131278D01*
X113295483Y-84131285D01*
X113295485Y-84131285D01*
X113368475Y-84257709D01*
X113368481Y-84257717D01*
X113487349Y-84376585D01*
X113487355Y-84376590D01*
X113666241Y-84555476D01*
X113699726Y-84616799D01*
X113696492Y-84681473D01*
X113682753Y-84723757D01*
X113649500Y-84933713D01*
X113649500Y-85146286D01*
X113671735Y-85286676D01*
X113682754Y-85356243D01*
X113746887Y-85553624D01*
X113748444Y-85558414D01*
X113844951Y-85747820D01*
X113969890Y-85919786D01*
X114120213Y-86070109D01*
X114292182Y-86195050D01*
X114300946Y-86199516D01*
X114351742Y-86247491D01*
X114368536Y-86315312D01*
X114345998Y-86381447D01*
X114300946Y-86420484D01*
X114292182Y-86424949D01*
X114120213Y-86549890D01*
X113969890Y-86700213D01*
X113844951Y-86872179D01*
X113748444Y-87061585D01*
X113682753Y-87263760D01*
X113649500Y-87473713D01*
X113649500Y-87686287D01*
X113682754Y-87896243D01*
X113696486Y-87938507D01*
X113748444Y-88098414D01*
X113844951Y-88287820D01*
X113969890Y-88459786D01*
X114120213Y-88610109D01*
X114292182Y-88735050D01*
X114300946Y-88739516D01*
X114351742Y-88787491D01*
X114368536Y-88855312D01*
X114345998Y-88921447D01*
X114300946Y-88960484D01*
X114292182Y-88964949D01*
X114120213Y-89089890D01*
X113969890Y-89240213D01*
X113844951Y-89412179D01*
X113748444Y-89601585D01*
X113682753Y-89803760D01*
X113649500Y-90013713D01*
X113649500Y-90226286D01*
X113675239Y-90388800D01*
X113682754Y-90436243D01*
X113739467Y-90610788D01*
X113748444Y-90638414D01*
X113844951Y-90827820D01*
X113969890Y-90999786D01*
X114083430Y-91113326D01*
X114116915Y-91174649D01*
X114111931Y-91244341D01*
X114070059Y-91300274D01*
X114039083Y-91317189D01*
X113907669Y-91366203D01*
X113907664Y-91366206D01*
X113792455Y-91452452D01*
X113792452Y-91452455D01*
X113706206Y-91567664D01*
X113706202Y-91567671D01*
X113655908Y-91702517D01*
X113649501Y-91762116D01*
X113649501Y-91762123D01*
X113649500Y-91762135D01*
X113649500Y-93557870D01*
X113649501Y-93557876D01*
X113655908Y-93617483D01*
X113706202Y-93752328D01*
X113706206Y-93752335D01*
X113792452Y-93867544D01*
X113792455Y-93867547D01*
X113907664Y-93953793D01*
X113907671Y-93953797D01*
X114042517Y-94004091D01*
X114042516Y-94004091D01*
X114049444Y-94004835D01*
X114102127Y-94010500D01*
X115897872Y-94010499D01*
X115957483Y-94004091D01*
X116092331Y-93953796D01*
X116207546Y-93867546D01*
X116293796Y-93752331D01*
X116344091Y-93617483D01*
X116350500Y-93557873D01*
X116350500Y-93384500D01*
X116370185Y-93317461D01*
X116422989Y-93271706D01*
X116474500Y-93260500D01*
X119615500Y-93260500D01*
X119682539Y-93280185D01*
X119728294Y-93332989D01*
X119739500Y-93384500D01*
X119739500Y-95390830D01*
X119739499Y-95390848D01*
X119739499Y-95556554D01*
X119739498Y-95556554D01*
X119780423Y-95709285D01*
X119806619Y-95754656D01*
X119806620Y-95754660D01*
X119806621Y-95754660D01*
X119859479Y-95846214D01*
X119859481Y-95846217D01*
X119978349Y-95965085D01*
X119978355Y-95965090D01*
X120488181Y-96474916D01*
X120521666Y-96536239D01*
X120524500Y-96562597D01*
X120524500Y-96986669D01*
X120524501Y-96986687D01*
X120534825Y-97087752D01*
X120571109Y-97197249D01*
X120589092Y-97251516D01*
X120679660Y-97398350D01*
X120801650Y-97520340D01*
X120948484Y-97610908D01*
X121112247Y-97665174D01*
X121213323Y-97675500D01*
X121786676Y-97675499D01*
X121786684Y-97675498D01*
X121786687Y-97675498D01*
X121842030Y-97669844D01*
X121887753Y-97665174D01*
X122051516Y-97610908D01*
X122198350Y-97520340D01*
X122320340Y-97398350D01*
X122410908Y-97251516D01*
X122465174Y-97087753D01*
X122475500Y-96986677D01*
X122475499Y-96288324D01*
X122475498Y-96288315D01*
X125524500Y-96288315D01*
X125524500Y-96986669D01*
X125524501Y-96986687D01*
X125534825Y-97087752D01*
X125571109Y-97197249D01*
X125589092Y-97251516D01*
X125679660Y-97398350D01*
X125801650Y-97520340D01*
X125948484Y-97610908D01*
X126112247Y-97665174D01*
X126213323Y-97675500D01*
X126786676Y-97675499D01*
X126786684Y-97675498D01*
X126786687Y-97675498D01*
X126842030Y-97669844D01*
X126887753Y-97665174D01*
X127051516Y-97610908D01*
X127198350Y-97520340D01*
X127320340Y-97398350D01*
X127410908Y-97251516D01*
X127465174Y-97087753D01*
X127475500Y-96986677D01*
X127475499Y-96288324D01*
X127465174Y-96187247D01*
X127410908Y-96023484D01*
X127320340Y-95876650D01*
X127306017Y-95862327D01*
X127272532Y-95801004D01*
X127277516Y-95731312D01*
X127306021Y-95686960D01*
X127319947Y-95673035D01*
X127410448Y-95526311D01*
X127410453Y-95526300D01*
X127464680Y-95362652D01*
X127474999Y-95261654D01*
X127475000Y-95261641D01*
X127475000Y-95162500D01*
X125525001Y-95162500D01*
X125525001Y-95261654D01*
X125535319Y-95362652D01*
X125589546Y-95526300D01*
X125589551Y-95526311D01*
X125680052Y-95673034D01*
X125680055Y-95673038D01*
X125693982Y-95686965D01*
X125727467Y-95748288D01*
X125722483Y-95817980D01*
X125693984Y-95862325D01*
X125679661Y-95876648D01*
X125589093Y-96023481D01*
X125589092Y-96023484D01*
X125534826Y-96187247D01*
X125534826Y-96187248D01*
X125534825Y-96187248D01*
X125524500Y-96288315D01*
X122475498Y-96288315D01*
X122465174Y-96187247D01*
X122410908Y-96023484D01*
X122320340Y-95876650D01*
X122306017Y-95862327D01*
X122272532Y-95801004D01*
X122277516Y-95731312D01*
X122306021Y-95686960D01*
X122319947Y-95673035D01*
X122410448Y-95526311D01*
X122410453Y-95526300D01*
X122464680Y-95362652D01*
X122474999Y-95261654D01*
X122475000Y-95261641D01*
X122475000Y-95162500D01*
X121624000Y-95162500D01*
X121556961Y-95142815D01*
X121511206Y-95090011D01*
X121500000Y-95038500D01*
X121500000Y-94912500D01*
X121374000Y-94912500D01*
X121306961Y-94892815D01*
X121261206Y-94840011D01*
X121250000Y-94788500D01*
X121250000Y-94662500D01*
X121750000Y-94662500D01*
X122474999Y-94662500D01*
X122474999Y-94563361D01*
X122474998Y-94563345D01*
X125525000Y-94563345D01*
X125525000Y-94662500D01*
X126250000Y-94662500D01*
X126750000Y-94662500D01*
X127474999Y-94662500D01*
X127474999Y-94563360D01*
X127474998Y-94563345D01*
X127464680Y-94462347D01*
X127410453Y-94298699D01*
X127410448Y-94298688D01*
X127319947Y-94151965D01*
X127319944Y-94151961D01*
X127198038Y-94030055D01*
X127198034Y-94030052D01*
X127051311Y-93939551D01*
X127051300Y-93939546D01*
X126887652Y-93885319D01*
X126786654Y-93875000D01*
X126750000Y-93875000D01*
X126750000Y-94662500D01*
X126250000Y-94662500D01*
X126250000Y-93875000D01*
X126213361Y-93875000D01*
X126213343Y-93875001D01*
X126112347Y-93885319D01*
X125948699Y-93939546D01*
X125948688Y-93939551D01*
X125801965Y-94030052D01*
X125801961Y-94030055D01*
X125680055Y-94151961D01*
X125680052Y-94151965D01*
X125589551Y-94298688D01*
X125589546Y-94298699D01*
X125535319Y-94462347D01*
X125525000Y-94563345D01*
X122474998Y-94563345D01*
X122474998Y-94563344D01*
X122464680Y-94462347D01*
X122410453Y-94298699D01*
X122410448Y-94298688D01*
X122319947Y-94151965D01*
X122319944Y-94151961D01*
X122198038Y-94030055D01*
X122198034Y-94030052D01*
X122051311Y-93939551D01*
X122051300Y-93939546D01*
X121887652Y-93885319D01*
X121786654Y-93875000D01*
X121750000Y-93875000D01*
X121750000Y-94662500D01*
X121250000Y-94662500D01*
X121250000Y-93875000D01*
X121213361Y-93875000D01*
X121213343Y-93875001D01*
X121112343Y-93885319D01*
X121103499Y-93888250D01*
X121033671Y-93890650D01*
X120973631Y-93854916D01*
X120942440Y-93792394D01*
X120940500Y-93770543D01*
X120940500Y-92960096D01*
X120960185Y-92893057D01*
X120976815Y-92872419D01*
X121274916Y-92574317D01*
X121336239Y-92540833D01*
X121362597Y-92537999D01*
X121786670Y-92537999D01*
X121786676Y-92537999D01*
X121887753Y-92527674D01*
X122051516Y-92473408D01*
X122198350Y-92382840D01*
X122320340Y-92260850D01*
X122410908Y-92114016D01*
X122422541Y-92078906D01*
X122462313Y-92021463D01*
X122478250Y-92010522D01*
X122518973Y-91987011D01*
X122530216Y-91980520D01*
X122642020Y-91868716D01*
X122642020Y-91868714D01*
X122652224Y-91858511D01*
X122652227Y-91858506D01*
X123014662Y-91496072D01*
X123075983Y-91462589D01*
X123078150Y-91462138D01*
X123136085Y-91450613D01*
X123233497Y-91431237D01*
X123379179Y-91370894D01*
X123386201Y-91366202D01*
X123510875Y-91282898D01*
X123528921Y-91277247D01*
X123544831Y-91267023D01*
X123575792Y-91262571D01*
X123577553Y-91262020D01*
X123579766Y-91262000D01*
X123806559Y-91262000D01*
X123873598Y-91281685D01*
X123919353Y-91334489D01*
X123929297Y-91403647D01*
X123900272Y-91467203D01*
X123894240Y-91473681D01*
X123878213Y-91489707D01*
X123878210Y-91489711D01*
X123790609Y-91620814D01*
X123790602Y-91620827D01*
X123730264Y-91766498D01*
X123730261Y-91766510D01*
X123699500Y-91921153D01*
X123699500Y-92078846D01*
X123730261Y-92233489D01*
X123730264Y-92233501D01*
X123790602Y-92379172D01*
X123790609Y-92379185D01*
X123878210Y-92510288D01*
X123878213Y-92510292D01*
X123989707Y-92621786D01*
X123989711Y-92621789D01*
X124120814Y-92709390D01*
X124120827Y-92709397D01*
X124266498Y-92769735D01*
X124266503Y-92769737D01*
X124421153Y-92800499D01*
X124421156Y-92800500D01*
X124421158Y-92800500D01*
X124578844Y-92800500D01*
X124578845Y-92800499D01*
X124733497Y-92769737D01*
X124879179Y-92709394D01*
X125010289Y-92621789D01*
X125121789Y-92510289D01*
X125209394Y-92379179D01*
X125269737Y-92233497D01*
X125276339Y-92200309D01*
X125291049Y-92172185D01*
X125304243Y-92143297D01*
X125307132Y-92141439D01*
X125308724Y-92138398D01*
X125336306Y-92122691D01*
X125363021Y-92105523D01*
X125367615Y-92104862D01*
X125369439Y-92103824D01*
X125397956Y-92100500D01*
X125511548Y-92100500D01*
X125578587Y-92120185D01*
X125617086Y-92159403D01*
X125679657Y-92260846D01*
X125679660Y-92260850D01*
X125801650Y-92382840D01*
X125948484Y-92473408D01*
X126112247Y-92527674D01*
X126213323Y-92538000D01*
X126637402Y-92537999D01*
X126704441Y-92557683D01*
X126725083Y-92574318D01*
X130488181Y-96337416D01*
X130521666Y-96398739D01*
X130524500Y-96425097D01*
X130524500Y-96986669D01*
X130524501Y-96986687D01*
X130534825Y-97087752D01*
X130571109Y-97197249D01*
X130589092Y-97251516D01*
X130679660Y-97398350D01*
X130801650Y-97520340D01*
X130948484Y-97610908D01*
X131112247Y-97665174D01*
X131213323Y-97675500D01*
X131786676Y-97675499D01*
X131786684Y-97675498D01*
X131786687Y-97675498D01*
X131842030Y-97669844D01*
X131887753Y-97665174D01*
X132051516Y-97610908D01*
X132198350Y-97520340D01*
X132320340Y-97398350D01*
X132410908Y-97251516D01*
X132465174Y-97087753D01*
X132475500Y-96986677D01*
X132475499Y-96288324D01*
X132465174Y-96187247D01*
X132410908Y-96023484D01*
X132320340Y-95876650D01*
X132306017Y-95862327D01*
X132272532Y-95801004D01*
X132277516Y-95731312D01*
X132306021Y-95686960D01*
X132319947Y-95673035D01*
X132410448Y-95526311D01*
X132410453Y-95526300D01*
X132464680Y-95362652D01*
X132474999Y-95261654D01*
X132475000Y-95261641D01*
X132475000Y-95162500D01*
X131624000Y-95162500D01*
X131556961Y-95142815D01*
X131511206Y-95090011D01*
X131500000Y-95038500D01*
X131500000Y-94912500D01*
X131374000Y-94912500D01*
X131306961Y-94892815D01*
X131261206Y-94840011D01*
X131250000Y-94788500D01*
X131250000Y-94662500D01*
X131750000Y-94662500D01*
X132474999Y-94662500D01*
X132474999Y-94563360D01*
X132474998Y-94563345D01*
X132464680Y-94462347D01*
X132410453Y-94298699D01*
X132410448Y-94298688D01*
X132319947Y-94151965D01*
X132319944Y-94151961D01*
X132198038Y-94030055D01*
X132198034Y-94030052D01*
X132051311Y-93939551D01*
X132051300Y-93939546D01*
X131887652Y-93885319D01*
X131786654Y-93875000D01*
X131750000Y-93875000D01*
X131750000Y-94662500D01*
X131250000Y-94662500D01*
X131250000Y-93875000D01*
X131213361Y-93875000D01*
X131213343Y-93875001D01*
X131112347Y-93885319D01*
X130948699Y-93939546D01*
X130948688Y-93939551D01*
X130801965Y-94030052D01*
X130801961Y-94030055D01*
X130680055Y-94151961D01*
X130680052Y-94151965D01*
X130589551Y-94298688D01*
X130589546Y-94298699D01*
X130542867Y-94439568D01*
X130503094Y-94497013D01*
X130438578Y-94523836D01*
X130369802Y-94511521D01*
X130337480Y-94488245D01*
X127511818Y-91662583D01*
X127497114Y-91635655D01*
X127480522Y-91609837D01*
X127479630Y-91603636D01*
X127478333Y-91601260D01*
X127475499Y-91574902D01*
X127475499Y-91386000D01*
X127495184Y-91318961D01*
X127547988Y-91273206D01*
X127599499Y-91262000D01*
X130361403Y-91262000D01*
X130428442Y-91281685D01*
X130449084Y-91298319D01*
X130488181Y-91337416D01*
X130521666Y-91398739D01*
X130524500Y-91425097D01*
X130524500Y-91849169D01*
X130524501Y-91849187D01*
X130534825Y-91950252D01*
X130544856Y-91980522D01*
X130589092Y-92114016D01*
X130679660Y-92260850D01*
X130801650Y-92382840D01*
X130948484Y-92473408D01*
X131112247Y-92527674D01*
X131213323Y-92538000D01*
X131786676Y-92537999D01*
X131786684Y-92537998D01*
X131786687Y-92537998D01*
X131842030Y-92532344D01*
X131887753Y-92527674D01*
X132051516Y-92473408D01*
X132198350Y-92382840D01*
X132320340Y-92260850D01*
X132410908Y-92114016D01*
X132465174Y-91950253D01*
X132475500Y-91849177D01*
X132475499Y-91150824D01*
X132475425Y-91150104D01*
X132465174Y-91049747D01*
X132448618Y-90999786D01*
X132410908Y-90885984D01*
X132320340Y-90739150D01*
X132306017Y-90724827D01*
X132272532Y-90663504D01*
X132277516Y-90593812D01*
X132306021Y-90549460D01*
X132319947Y-90535535D01*
X132410448Y-90388811D01*
X132410453Y-90388800D01*
X132464680Y-90225152D01*
X132474999Y-90124154D01*
X132475000Y-90124141D01*
X132475000Y-90025000D01*
X130524736Y-90025000D01*
X130463997Y-90058166D01*
X130437639Y-90061000D01*
X127562362Y-90061000D01*
X127495323Y-90041315D01*
X127475077Y-90025000D01*
X125524736Y-90025000D01*
X125463997Y-90058166D01*
X125437639Y-90061000D01*
X123579766Y-90061000D01*
X123512727Y-90041315D01*
X123510875Y-90040102D01*
X123379185Y-89952109D01*
X123379172Y-89952102D01*
X123233501Y-89891764D01*
X123233489Y-89891761D01*
X123078845Y-89861000D01*
X123078842Y-89861000D01*
X122921158Y-89861000D01*
X122921155Y-89861000D01*
X122766510Y-89891761D01*
X122766498Y-89891764D01*
X122620827Y-89952102D01*
X122620814Y-89952109D01*
X122543003Y-90004102D01*
X122476326Y-90024980D01*
X122474112Y-90025000D01*
X120525001Y-90025000D01*
X120525001Y-90124154D01*
X120535319Y-90225152D01*
X120589546Y-90388800D01*
X120589551Y-90388811D01*
X120680052Y-90535534D01*
X120680055Y-90535538D01*
X120693982Y-90549465D01*
X120727467Y-90610788D01*
X120722483Y-90680480D01*
X120693984Y-90724825D01*
X120679661Y-90739148D01*
X120589093Y-90885981D01*
X120589092Y-90885984D01*
X120534826Y-91049747D01*
X120534826Y-91049748D01*
X120534825Y-91049748D01*
X120524500Y-91150815D01*
X120524500Y-91574901D01*
X120504815Y-91641940D01*
X120488180Y-91662582D01*
X120200512Y-91950253D01*
X120127584Y-92023181D01*
X120066261Y-92056666D01*
X120039903Y-92059500D01*
X116474499Y-92059500D01*
X116407460Y-92039815D01*
X116361705Y-91987011D01*
X116350499Y-91935500D01*
X116350499Y-91762129D01*
X116350498Y-91762123D01*
X116350497Y-91762116D01*
X116344091Y-91702517D01*
X116329196Y-91662582D01*
X116293797Y-91567671D01*
X116293793Y-91567664D01*
X116207547Y-91452455D01*
X116207544Y-91452452D01*
X116092335Y-91366206D01*
X116092328Y-91366202D01*
X115960917Y-91317189D01*
X115904983Y-91275318D01*
X115880566Y-91209853D01*
X115895418Y-91141580D01*
X115916563Y-91113332D01*
X116030104Y-90999792D01*
X116155051Y-90827816D01*
X116251557Y-90638412D01*
X116317246Y-90436243D01*
X116350500Y-90226287D01*
X116350500Y-90013713D01*
X116317246Y-89803757D01*
X116303944Y-89762818D01*
X116301949Y-89692976D01*
X116338030Y-89633144D01*
X116400731Y-89602316D01*
X116421875Y-89600500D01*
X117920234Y-89600500D01*
X117987273Y-89620185D01*
X117989125Y-89621398D01*
X118120814Y-89709390D01*
X118120827Y-89709397D01*
X118249799Y-89762818D01*
X118266503Y-89769737D01*
X118421153Y-89800499D01*
X118421156Y-89800500D01*
X118421158Y-89800500D01*
X118578844Y-89800500D01*
X118578845Y-89800499D01*
X118733497Y-89769737D01*
X118879179Y-89709394D01*
X119010289Y-89621789D01*
X119121789Y-89510289D01*
X119178213Y-89425845D01*
X120525000Y-89425845D01*
X120525000Y-89525000D01*
X121250000Y-89525000D01*
X121750000Y-89525000D01*
X122474999Y-89525000D01*
X122474999Y-89425861D01*
X122474998Y-89425845D01*
X125525000Y-89425845D01*
X125525000Y-89525000D01*
X126250000Y-89525000D01*
X126750000Y-89525000D01*
X127474999Y-89525000D01*
X127474999Y-89425861D01*
X127474998Y-89425845D01*
X130525000Y-89425845D01*
X130525000Y-89525000D01*
X131250000Y-89525000D01*
X131750000Y-89525000D01*
X132474999Y-89525000D01*
X132474999Y-89425860D01*
X132474998Y-89425845D01*
X132464680Y-89324847D01*
X132410453Y-89161199D01*
X132410448Y-89161188D01*
X132319947Y-89014465D01*
X132319944Y-89014461D01*
X132198038Y-88892555D01*
X132198034Y-88892552D01*
X132051311Y-88802051D01*
X132051300Y-88802046D01*
X131887652Y-88747819D01*
X131786654Y-88737500D01*
X131750000Y-88737500D01*
X131750000Y-89525000D01*
X131250000Y-89525000D01*
X131250000Y-88737500D01*
X131213361Y-88737500D01*
X131213343Y-88737501D01*
X131112347Y-88747819D01*
X130948699Y-88802046D01*
X130948688Y-88802051D01*
X130801965Y-88892552D01*
X130801961Y-88892555D01*
X130680055Y-89014461D01*
X130680052Y-89014465D01*
X130589551Y-89161188D01*
X130589546Y-89161199D01*
X130535319Y-89324847D01*
X130525000Y-89425845D01*
X127474998Y-89425845D01*
X127474998Y-89425844D01*
X127464680Y-89324847D01*
X127410453Y-89161199D01*
X127410448Y-89161188D01*
X127319947Y-89014465D01*
X127319944Y-89014461D01*
X127198038Y-88892555D01*
X127198034Y-88892552D01*
X127051311Y-88802051D01*
X127051300Y-88802046D01*
X126887652Y-88747819D01*
X126786654Y-88737500D01*
X126750000Y-88737500D01*
X126750000Y-89525000D01*
X126250000Y-89525000D01*
X126250000Y-88737500D01*
X126213361Y-88737500D01*
X126213343Y-88737501D01*
X126112347Y-88747819D01*
X125948699Y-88802046D01*
X125948688Y-88802051D01*
X125801965Y-88892552D01*
X125801961Y-88892555D01*
X125680055Y-89014461D01*
X125680052Y-89014465D01*
X125589551Y-89161188D01*
X125589546Y-89161199D01*
X125535319Y-89324847D01*
X125525000Y-89425845D01*
X122474998Y-89425845D01*
X122474998Y-89425844D01*
X122464680Y-89324847D01*
X122410453Y-89161199D01*
X122410448Y-89161188D01*
X122319947Y-89014465D01*
X122319944Y-89014461D01*
X122198038Y-88892555D01*
X122198034Y-88892552D01*
X122051311Y-88802051D01*
X122051300Y-88802046D01*
X121887652Y-88747819D01*
X121786654Y-88737500D01*
X121750000Y-88737500D01*
X121750000Y-89525000D01*
X121250000Y-89525000D01*
X121250000Y-88737500D01*
X121213361Y-88737500D01*
X121213343Y-88737501D01*
X121112347Y-88747819D01*
X120948699Y-88802046D01*
X120948688Y-88802051D01*
X120801965Y-88892552D01*
X120801961Y-88892555D01*
X120680055Y-89014461D01*
X120680052Y-89014465D01*
X120589551Y-89161188D01*
X120589546Y-89161199D01*
X120535319Y-89324847D01*
X120525000Y-89425845D01*
X119178213Y-89425845D01*
X119209394Y-89379179D01*
X119269737Y-89233497D01*
X119300500Y-89078842D01*
X119300500Y-88921158D01*
X119300500Y-88921155D01*
X119300499Y-88921153D01*
X119276807Y-88802046D01*
X119269737Y-88766503D01*
X119256709Y-88735050D01*
X119209397Y-88620827D01*
X119209390Y-88620814D01*
X119121789Y-88489711D01*
X119121786Y-88489707D01*
X119024260Y-88392181D01*
X118990775Y-88330858D01*
X118995759Y-88261166D01*
X119037631Y-88205233D01*
X119103095Y-88180816D01*
X119111941Y-88180500D01*
X128745831Y-88180500D01*
X128745847Y-88180501D01*
X128753443Y-88180501D01*
X128911554Y-88180501D01*
X128911557Y-88180501D01*
X129064285Y-88139577D01*
X129114404Y-88110639D01*
X129201216Y-88060520D01*
X129313020Y-87948716D01*
X129313020Y-87948714D01*
X129323228Y-87938507D01*
X129323230Y-87938504D01*
X131249916Y-86011818D01*
X131311239Y-85978333D01*
X131337597Y-85975499D01*
X131711670Y-85975499D01*
X131711676Y-85975499D01*
X131812753Y-85965174D01*
X131976516Y-85910908D01*
X132123350Y-85820340D01*
X132245340Y-85698350D01*
X132335908Y-85551516D01*
X132390174Y-85387753D01*
X132400500Y-85286677D01*
X132400499Y-84713324D01*
X132399343Y-84702011D01*
X132390174Y-84612247D01*
X132386116Y-84600000D01*
X132335908Y-84448484D01*
X132245340Y-84301650D01*
X132123350Y-84179660D01*
X132123349Y-84179659D01*
X132071902Y-84147926D01*
X132025178Y-84095978D01*
X132013000Y-84042388D01*
X132013000Y-80957610D01*
X132032685Y-80890571D01*
X132071901Y-80852073D01*
X132123350Y-80820340D01*
X132245340Y-80698350D01*
X132335908Y-80551516D01*
X132390174Y-80387753D01*
X132400500Y-80286677D01*
X132400499Y-79713324D01*
X132390174Y-79612247D01*
X132335908Y-79448484D01*
X132245340Y-79301650D01*
X132136819Y-79193129D01*
X132103334Y-79131806D01*
X132100500Y-79105448D01*
X132100500Y-76457610D01*
X132120185Y-76390571D01*
X132159401Y-76352073D01*
X132210850Y-76320340D01*
X132332840Y-76198350D01*
X132423408Y-76051516D01*
X132477674Y-75887753D01*
X132488000Y-75786677D01*
X132487999Y-75213324D01*
X132486178Y-75195502D01*
X132477674Y-75112247D01*
X132464172Y-75071501D01*
X132423408Y-74948484D01*
X132332840Y-74801650D01*
X132210850Y-74679660D01*
X132064016Y-74589092D01*
X131900253Y-74534826D01*
X131900251Y-74534825D01*
X131799178Y-74524500D01*
X131200830Y-74524500D01*
X131200812Y-74524501D01*
X131099747Y-74534825D01*
X130935984Y-74589092D01*
X130935981Y-74589093D01*
X130789148Y-74679661D01*
X130675181Y-74793629D01*
X130613858Y-74827114D01*
X130544166Y-74822130D01*
X130499819Y-74793629D01*
X130385851Y-74679661D01*
X130385850Y-74679660D01*
X130239016Y-74589092D01*
X130075253Y-74534826D01*
X130075251Y-74534825D01*
X129974178Y-74524500D01*
X129375830Y-74524500D01*
X129375812Y-74524501D01*
X129274747Y-74534825D01*
X129110984Y-74589092D01*
X129110981Y-74589093D01*
X128964148Y-74679661D01*
X128842161Y-74801648D01*
X128751593Y-74948481D01*
X128751592Y-74948484D01*
X128697326Y-75112247D01*
X128697326Y-75112248D01*
X128697325Y-75112248D01*
X128687000Y-75213315D01*
X128687000Y-75587402D01*
X128667315Y-75654441D01*
X128650681Y-75675083D01*
X126478697Y-77847066D01*
X126448998Y-77863282D01*
X126419532Y-77880062D01*
X126418382Y-77880000D01*
X126417374Y-77880551D01*
X126383583Y-77878134D01*
X126349762Y-77876321D01*
X126348830Y-77875649D01*
X126347682Y-77875567D01*
X126320558Y-77855262D01*
X126293091Y-77835455D01*
X126292669Y-77834384D01*
X126291749Y-77833695D01*
X126279914Y-77801965D01*
X126267509Y-77770436D01*
X126267590Y-77768923D01*
X126267332Y-77768231D01*
X126269399Y-77735193D01*
X126269735Y-77733499D01*
X126269737Y-77733497D01*
X126293707Y-77612993D01*
X126300638Y-77578150D01*
X126333023Y-77516239D01*
X126334508Y-77514727D01*
X126480520Y-77368716D01*
X126559577Y-77231784D01*
X126600501Y-77079057D01*
X126600501Y-76920942D01*
X126600501Y-76913347D01*
X126600500Y-76913329D01*
X126600500Y-75418244D01*
X126600500Y-75418242D01*
X126560301Y-75268215D01*
X126559577Y-75265514D01*
X126519155Y-75195501D01*
X126519155Y-75195500D01*
X126480524Y-75128589D01*
X126480521Y-75128585D01*
X126480520Y-75128583D01*
X126368716Y-75016779D01*
X126368715Y-75016778D01*
X126364385Y-75012448D01*
X126364374Y-75012438D01*
X125565768Y-74213832D01*
X125532283Y-74152509D01*
X125529449Y-74126151D01*
X125529449Y-73748128D01*
X125529448Y-73748122D01*
X125523041Y-73688515D01*
X125472747Y-73553670D01*
X125472743Y-73553663D01*
X125386497Y-73438454D01*
X125386494Y-73438451D01*
X125271285Y-73352205D01*
X125271278Y-73352201D01*
X125136432Y-73301907D01*
X125136433Y-73301907D01*
X125076833Y-73295500D01*
X125076831Y-73295499D01*
X125076823Y-73295499D01*
X125076814Y-73295499D01*
X124028579Y-73295499D01*
X124028573Y-73295500D01*
X123968966Y-73301907D01*
X123834121Y-73352201D01*
X123834114Y-73352205D01*
X123718905Y-73438451D01*
X123718902Y-73438454D01*
X123632656Y-73553663D01*
X123632652Y-73553670D01*
X123582360Y-73688512D01*
X123582359Y-73688516D01*
X123575950Y-73748126D01*
X123575950Y-73748133D01*
X123575950Y-73748134D01*
X123575950Y-74095103D01*
X123556265Y-74162142D01*
X123503461Y-74207897D01*
X123434303Y-74217841D01*
X123370747Y-74188816D01*
X123364269Y-74182784D01*
X123013016Y-73831531D01*
X122979531Y-73770208D01*
X122976873Y-73750461D01*
X122976749Y-73748149D01*
X122976749Y-73748127D01*
X122970341Y-73688516D01*
X122920046Y-73553668D01*
X122920045Y-73553667D01*
X122920043Y-73553663D01*
X122833797Y-73438454D01*
X122833794Y-73438451D01*
X122718585Y-73352205D01*
X122718578Y-73352201D01*
X122583732Y-73301907D01*
X122583733Y-73301907D01*
X122524133Y-73295500D01*
X122524131Y-73295499D01*
X122524123Y-73295499D01*
X122524114Y-73295499D01*
X121475879Y-73295499D01*
X121475873Y-73295500D01*
X121416266Y-73301907D01*
X121281421Y-73352201D01*
X121281414Y-73352205D01*
X121166205Y-73438451D01*
X121166202Y-73438454D01*
X121079956Y-73553663D01*
X121079952Y-73553670D01*
X121029660Y-73688512D01*
X121029659Y-73688516D01*
X121023250Y-73748126D01*
X121023250Y-73748133D01*
X121023250Y-73748134D01*
X121023250Y-74351869D01*
X121023251Y-74351875D01*
X121029658Y-74411481D01*
X121056102Y-74482380D01*
X121061086Y-74552072D01*
X121056102Y-74569045D01*
X121030153Y-74638616D01*
X121030151Y-74638627D01*
X121023750Y-74698155D01*
X121023750Y-74750000D01*
X121264959Y-74750000D01*
X121308292Y-74757818D01*
X121416267Y-74798090D01*
X121475877Y-74804499D01*
X121876001Y-74804498D01*
X121884686Y-74807048D01*
X121893647Y-74805760D01*
X121917683Y-74816737D01*
X121943039Y-74824182D01*
X121948967Y-74831024D01*
X121957203Y-74834785D01*
X121971489Y-74857016D01*
X121988794Y-74876986D01*
X121991081Y-74887501D01*
X121994977Y-74893563D01*
X122000000Y-74928498D01*
X122000000Y-75071501D01*
X121980315Y-75138540D01*
X121927511Y-75184295D01*
X121876000Y-75195501D01*
X121475879Y-75195501D01*
X121475873Y-75195502D01*
X121416266Y-75201909D01*
X121308292Y-75242182D01*
X121264959Y-75250000D01*
X121023750Y-75250000D01*
X121023750Y-75301844D01*
X121030151Y-75361372D01*
X121030153Y-75361379D01*
X121056102Y-75430952D01*
X121061086Y-75500644D01*
X121056102Y-75517617D01*
X121029660Y-75588512D01*
X121029659Y-75588516D01*
X121029659Y-75588518D01*
X121023250Y-75648128D01*
X121023250Y-75648135D01*
X121023250Y-75648136D01*
X121023250Y-76251871D01*
X121023251Y-76251877D01*
X121029658Y-76311484D01*
X121079952Y-76446329D01*
X121079956Y-76446336D01*
X121166202Y-76561545D01*
X121166205Y-76561548D01*
X121281414Y-76647794D01*
X121281421Y-76647798D01*
X121416267Y-76698092D01*
X121416266Y-76698092D01*
X121423194Y-76698836D01*
X121475877Y-76704501D01*
X122275500Y-76704500D01*
X122284186Y-76707050D01*
X122293147Y-76705762D01*
X122317183Y-76716739D01*
X122342539Y-76724184D01*
X122348467Y-76731026D01*
X122356703Y-76734787D01*
X122370989Y-76757018D01*
X122388294Y-76776988D01*
X122390581Y-76787503D01*
X122394477Y-76793565D01*
X122399500Y-76828500D01*
X122399500Y-76920234D01*
X122379815Y-76987273D01*
X122378602Y-76989125D01*
X122290609Y-77120814D01*
X122290602Y-77120827D01*
X122230264Y-77266498D01*
X122230261Y-77266510D01*
X122199500Y-77421153D01*
X122199500Y-77578846D01*
X122230261Y-77733489D01*
X122230264Y-77733501D01*
X122290602Y-77879172D01*
X122290609Y-77879185D01*
X122378210Y-78010288D01*
X122378213Y-78010292D01*
X122489707Y-78121786D01*
X122489711Y-78121789D01*
X122620814Y-78209390D01*
X122620827Y-78209397D01*
X122765687Y-78269399D01*
X122766503Y-78269737D01*
X122921153Y-78300499D01*
X122921156Y-78300500D01*
X122921158Y-78300500D01*
X123078844Y-78300500D01*
X123078845Y-78300499D01*
X123233497Y-78269737D01*
X123379179Y-78209394D01*
X123510289Y-78121789D01*
X123621789Y-78010289D01*
X123709394Y-77879179D01*
X123769737Y-77733497D01*
X123800500Y-77578842D01*
X123800500Y-77421158D01*
X123800500Y-77421155D01*
X123800499Y-77421153D01*
X123800269Y-77419999D01*
X123769737Y-77266503D01*
X123755359Y-77231790D01*
X123709397Y-77120827D01*
X123709390Y-77120814D01*
X123621398Y-76989125D01*
X123615747Y-76971078D01*
X123605523Y-76955169D01*
X123601071Y-76924207D01*
X123600520Y-76922447D01*
X123600500Y-76920234D01*
X123600500Y-76720632D01*
X123620185Y-76653593D01*
X123672989Y-76607838D01*
X123742147Y-76597894D01*
X123798812Y-76621366D01*
X123834118Y-76647796D01*
X123834121Y-76647798D01*
X123968967Y-76698092D01*
X123968966Y-76698092D01*
X123975894Y-76698836D01*
X124028577Y-76704501D01*
X124864058Y-76704500D01*
X124931097Y-76724184D01*
X124976852Y-76776988D01*
X124986796Y-76846147D01*
X124957771Y-76909703D01*
X124951740Y-76916181D01*
X124878210Y-76989711D01*
X124790609Y-77120814D01*
X124790602Y-77120827D01*
X124730264Y-77266498D01*
X124730261Y-77266510D01*
X124699500Y-77421153D01*
X124699500Y-77578846D01*
X124730261Y-77733489D01*
X124730264Y-77733501D01*
X124790602Y-77879172D01*
X124790609Y-77879185D01*
X124878210Y-78010288D01*
X124878213Y-78010292D01*
X124989707Y-78121786D01*
X124989711Y-78121789D01*
X125120814Y-78209390D01*
X125120827Y-78209397D01*
X125265687Y-78269399D01*
X125266503Y-78269737D01*
X125421153Y-78300499D01*
X125421156Y-78300500D01*
X125421158Y-78300500D01*
X125578844Y-78300500D01*
X125652781Y-78285792D01*
X125733497Y-78269737D01*
X125733499Y-78269736D01*
X125735194Y-78269399D01*
X125804786Y-78275626D01*
X125859963Y-78318489D01*
X125883208Y-78384378D01*
X125867141Y-78452375D01*
X125847068Y-78478696D01*
X125738582Y-78587182D01*
X125677262Y-78620666D01*
X125650903Y-78623500D01*
X119775057Y-78623500D01*
X119616943Y-78623500D01*
X119464215Y-78664423D01*
X119464214Y-78664423D01*
X119464212Y-78664424D01*
X119464209Y-78664425D01*
X119414096Y-78693359D01*
X119414095Y-78693360D01*
X119370689Y-78718420D01*
X119327285Y-78743479D01*
X119327282Y-78743481D01*
X118945339Y-79125425D01*
X118884016Y-79158910D01*
X118881850Y-79159361D01*
X118726508Y-79190261D01*
X118726498Y-79190264D01*
X118580827Y-79250602D01*
X118580814Y-79250609D01*
X118449125Y-79338602D01*
X118382447Y-79359480D01*
X118380234Y-79359500D01*
X116285719Y-79359500D01*
X116218680Y-79339815D01*
X116175235Y-79291795D01*
X116155052Y-79252185D01*
X116155051Y-79252184D01*
X116030109Y-79080213D01*
X115879786Y-78929890D01*
X115707817Y-78804949D01*
X115698504Y-78800204D01*
X115647707Y-78752230D01*
X115630912Y-78684409D01*
X115653449Y-78618274D01*
X115698507Y-78579232D01*
X115707555Y-78574622D01*
X115761716Y-78535270D01*
X115761717Y-78535270D01*
X115129408Y-77902962D01*
X115192993Y-77885925D01*
X115307007Y-77820099D01*
X115400099Y-77727007D01*
X115465925Y-77612993D01*
X115482962Y-77549409D01*
X116115270Y-78181717D01*
X116115270Y-78181716D01*
X116154622Y-78127554D01*
X116251095Y-77938217D01*
X116316757Y-77736130D01*
X116316757Y-77736127D01*
X116350000Y-77526246D01*
X116350000Y-77313753D01*
X116316757Y-77103872D01*
X116316757Y-77103869D01*
X116251095Y-76901782D01*
X116154624Y-76712449D01*
X116115270Y-76658282D01*
X116115269Y-76658282D01*
X115482962Y-77290590D01*
X115465925Y-77227007D01*
X115400099Y-77112993D01*
X115307007Y-77019901D01*
X115192993Y-76954075D01*
X115129409Y-76937037D01*
X115761716Y-76304728D01*
X115707550Y-76265375D01*
X115518217Y-76168904D01*
X115316129Y-76103242D01*
X115106246Y-76070000D01*
X114893754Y-76070000D01*
X114683872Y-76103242D01*
X114683869Y-76103242D01*
X114481782Y-76168904D01*
X114292439Y-76265380D01*
X114238282Y-76304727D01*
X114238282Y-76304728D01*
X114870591Y-76937037D01*
X114807007Y-76954075D01*
X114692993Y-77019901D01*
X114599901Y-77112993D01*
X114534075Y-77227007D01*
X114517037Y-77290591D01*
X113884728Y-76658282D01*
X113884727Y-76658282D01*
X113845380Y-76712439D01*
X113748904Y-76901782D01*
X113683242Y-77103869D01*
X113683242Y-77103872D01*
X113650000Y-77313753D01*
X113650000Y-77526246D01*
X113683242Y-77736127D01*
X113683242Y-77736130D01*
X113748904Y-77938217D01*
X113845375Y-78127550D01*
X113884728Y-78181716D01*
X114517037Y-77549408D01*
X114534075Y-77612993D01*
X114599901Y-77727007D01*
X114692993Y-77820099D01*
X114807007Y-77885925D01*
X114870590Y-77902962D01*
X114238282Y-78535269D01*
X114238282Y-78535270D01*
X114292452Y-78574626D01*
X114292451Y-78574626D01*
X114301495Y-78579234D01*
X114352292Y-78627208D01*
X114369087Y-78695029D01*
X114346550Y-78761164D01*
X114301499Y-78800202D01*
X114292182Y-78804949D01*
X114120213Y-78929890D01*
X113969890Y-79080213D01*
X113844951Y-79252179D01*
X113748444Y-79441585D01*
X113682753Y-79643760D01*
X113660364Y-79785121D01*
X113649500Y-79853713D01*
X113649500Y-80066287D01*
X113682754Y-80276243D01*
X113718985Y-80387751D01*
X113748444Y-80478414D01*
X113844951Y-80667820D01*
X113969890Y-80839786D01*
X113988873Y-80858769D01*
X114022358Y-80920092D01*
X114017374Y-80989784D01*
X113988873Y-81034131D01*
X113368481Y-81654522D01*
X113368480Y-81654524D01*
X113329026Y-81722861D01*
X113289423Y-81791455D01*
X113248499Y-81944183D01*
X113248499Y-82102297D01*
X113248499Y-82102299D01*
X113248500Y-82112298D01*
X113248500Y-83802330D01*
X113248499Y-83802348D01*
X113248499Y-83968054D01*
X113248498Y-83968054D01*
X105500500Y-83968054D01*
X105500500Y-69003051D01*
X105500649Y-68996967D01*
X105508778Y-68831491D01*
X105999500Y-68831491D01*
X105999500Y-69168508D01*
X106037231Y-69503381D01*
X106037233Y-69503397D01*
X106112223Y-69831953D01*
X106112227Y-69831965D01*
X106223532Y-70150054D01*
X106369752Y-70453683D01*
X106369754Y-70453686D01*
X106549054Y-70739039D01*
X106759175Y-71002523D01*
X106997477Y-71240825D01*
X107260961Y-71450946D01*
X107546314Y-71630246D01*
X107849949Y-71776469D01*
X108088848Y-71860063D01*
X108168034Y-71887772D01*
X108168046Y-71887776D01*
X108496606Y-71962767D01*
X108831492Y-72000499D01*
X108831493Y-72000500D01*
X108831496Y-72000500D01*
X109168507Y-72000500D01*
X109168507Y-72000499D01*
X109503394Y-71962767D01*
X109831954Y-71887776D01*
X110150051Y-71776469D01*
X110453686Y-71630246D01*
X110739039Y-71450946D01*
X111002523Y-71240825D01*
X111240825Y-71002523D01*
X111450946Y-70739039D01*
X111630246Y-70453686D01*
X111776469Y-70150051D01*
X111887776Y-69831954D01*
X111962767Y-69503394D01*
X112000500Y-69168504D01*
X112000500Y-68831496D01*
X112000499Y-68831491D01*
X132999500Y-68831491D01*
X132999500Y-69168508D01*
X133037231Y-69503381D01*
X133037233Y-69503397D01*
X133112223Y-69831953D01*
X133112227Y-69831965D01*
X133223532Y-70150054D01*
X133369752Y-70453683D01*
X133369754Y-70453686D01*
X133549054Y-70739039D01*
X133759175Y-71002523D01*
X133997477Y-71240825D01*
X134260961Y-71450946D01*
X134546314Y-71630246D01*
X134849949Y-71776469D01*
X135088848Y-71860063D01*
X135168034Y-71887772D01*
X135168046Y-71887776D01*
X135496606Y-71962767D01*
X135831492Y-72000499D01*
X135831493Y-72000500D01*
X135831496Y-72000500D01*
X136168507Y-72000500D01*
X136168507Y-72000499D01*
X136503394Y-71962767D01*
X136831954Y-71887776D01*
X137150051Y-71776469D01*
X137453686Y-71630246D01*
X137739039Y-71450946D01*
X138002523Y-71240825D01*
X138240825Y-71002523D01*
X138450946Y-70739039D01*
X138630246Y-70453686D01*
X138776469Y-70150051D01*
X138887776Y-69831954D01*
X138962767Y-69503394D01*
X139000500Y-69168504D01*
X139000500Y-68831496D01*
X138962767Y-68496606D01*
X138887776Y-68168046D01*
X138776469Y-67849949D01*
X138630246Y-67546314D01*
X138450946Y-67260961D01*
X138240825Y-66997477D01*
X138002523Y-66759175D01*
X137739039Y-66549054D01*
X137453686Y-66369754D01*
X137453683Y-66369752D01*
X137150054Y-66223532D01*
X136831965Y-66112227D01*
X136831953Y-66112223D01*
X136503397Y-66037233D01*
X136503381Y-66037231D01*
X136168508Y-65999500D01*
X136168504Y-65999500D01*
X135831496Y-65999500D01*
X135831491Y-65999500D01*
X135496618Y-66037231D01*
X135496602Y-66037233D01*
X135168046Y-66112223D01*
X135168034Y-66112227D01*
X134849945Y-66223532D01*
X134546316Y-66369752D01*
X134260962Y-66549053D01*
X133997477Y-66759174D01*
X133759174Y-66997477D01*
X133549053Y-67260962D01*
X133369752Y-67546316D01*
X133223532Y-67849945D01*
X133112227Y-68168034D01*
X133112223Y-68168046D01*
X133037233Y-68496602D01*
X133037231Y-68496618D01*
X132999500Y-68831491D01*
X112000499Y-68831491D01*
X111962767Y-68496606D01*
X111887776Y-68168046D01*
X111776469Y-67849949D01*
X111630246Y-67546314D01*
X111450946Y-67260961D01*
X111240825Y-66997477D01*
X111002523Y-66759175D01*
X110739039Y-66549054D01*
X110453686Y-66369754D01*
X110453683Y-66369752D01*
X110150054Y-66223532D01*
X109831965Y-66112227D01*
X109831953Y-66112223D01*
X109503397Y-66037233D01*
X109503381Y-66037231D01*
X109168508Y-65999500D01*
X109168504Y-65999500D01*
X108831496Y-65999500D01*
X108831491Y-65999500D01*
X108496618Y-66037231D01*
X108496602Y-66037233D01*
X108168046Y-66112223D01*
X108168034Y-66112227D01*
X107849945Y-66223532D01*
X107546316Y-66369752D01*
X107260962Y-66549053D01*
X106997477Y-66759174D01*
X106759174Y-66997477D01*
X106549053Y-67260962D01*
X106369752Y-67546316D01*
X106223532Y-67849945D01*
X106112227Y-68168034D01*
X106112223Y-68168046D01*
X106037233Y-68496602D01*
X106037231Y-68496618D01*
X105999500Y-68831491D01*
X105508778Y-68831491D01*
X105509248Y-68821933D01*
X105517052Y-68663072D01*
X105518245Y-68650962D01*
X105541140Y-68496618D01*
X105566849Y-68323296D01*
X105569218Y-68311385D01*
X105649710Y-67990043D01*
X105653240Y-67978411D01*
X105685183Y-67889137D01*
X105764835Y-67666525D01*
X105769476Y-67655318D01*
X105911124Y-67355828D01*
X105916840Y-67345136D01*
X106087145Y-67060998D01*
X106093888Y-67050905D01*
X106291232Y-66784818D01*
X106298935Y-66775433D01*
X106521405Y-66529975D01*
X106529975Y-66521405D01*
X106775433Y-66298935D01*
X106784818Y-66291232D01*
X107050905Y-66093888D01*
X107060998Y-66087145D01*
X107345136Y-65916840D01*
X107355828Y-65911124D01*
X107655318Y-65769476D01*
X107666525Y-65764835D01*
X107978412Y-65653239D01*
X107990043Y-65649710D01*
X108311385Y-65569218D01*
X108323296Y-65566849D01*
X108650962Y-65518244D01*
X108663068Y-65517052D01*
X108996967Y-65500648D01*
X109003051Y-65500500D01*
X109065892Y-65500500D01*
X135934108Y-65500500D01*
X135996949Y-65500500D01*
X136003032Y-65500648D01*
G37*
%TD.AperFunction*%
%TD*%
M02*
