%TF.GenerationSoftware,KiCad,Pcbnew,9.0.6*%
%TF.CreationDate,2026-02-28T16:28:42-08:00*%
%TF.ProjectId,display_new,64697370-6c61-4795-9f6e-65772e6b6963,rev?*%
%TF.SameCoordinates,Original*%
%TF.FileFunction,Profile,NP*%
%FSLAX46Y46*%
G04 Gerber Fmt 4.6, Leading zero omitted, Abs format (unit mm)*
G04 Created by KiCad (PCBNEW 9.0.6) date 2026-02-28 16:28:42*
%MOMM*%
%LPD*%
G01*
G04 APERTURE LIST*
%TA.AperFunction,Profile*%
%ADD10C,0.050000*%
%TD*%
G04 APERTURE END LIST*
D10*
X159120000Y-107000000D02*
G75*
G02*
X154120000Y-107000000I-2500000J0D01*
G01*
X154120000Y-107000000D02*
G75*
G02*
X159120000Y-107000000I2500000J0D01*
G01*
X159120000Y-75000000D02*
G75*
G02*
X154120000Y-75000000I-2500000J0D01*
G01*
X154120000Y-75000000D02*
G75*
G02*
X159120000Y-75000000I2500000J0D01*
G01*
X98120000Y-107000000D02*
G75*
G02*
X93120000Y-107000000I-2500000J0D01*
G01*
X93120000Y-107000000D02*
G75*
G02*
X98120000Y-107000000I2500000J0D01*
G01*
X98120000Y-75000000D02*
G75*
G02*
X93120000Y-75000000I-2500000J0D01*
G01*
X93120000Y-75000000D02*
G75*
G02*
X98120000Y-75000000I2500000J0D01*
G01*
X95620000Y-112000000D02*
G75*
G02*
X90620000Y-107000000I0J5000000D01*
G01*
X161620000Y-107000000D02*
G75*
G02*
X156620000Y-112000000I-5000000J0D01*
G01*
X156620000Y-70000000D02*
G75*
G02*
X161620000Y-75000000I0J-5000000D01*
G01*
X90620000Y-75000000D02*
G75*
G02*
X95620000Y-70000000I5000000J0D01*
G01*
X90620000Y-107000000D02*
X90620000Y-75000000D01*
X156620000Y-112000000D02*
X95620000Y-112000000D01*
X161620000Y-75000000D02*
X161620000Y-107000000D01*
X95620000Y-70000000D02*
X156620000Y-70000000D01*
%TO.C,M1*%
X96140000Y-89190000D02*
G75*
G02*
X94240000Y-89190000I-950000J0D01*
G01*
X94240000Y-89190000D02*
G75*
G02*
X96140000Y-89190000I950000J0D01*
G01*
X100990000Y-80190000D02*
G75*
G02*
X98390000Y-80190000I-1300000J0D01*
G01*
X98390000Y-80190000D02*
G75*
G02*
X100990000Y-80190000I1300000J0D01*
G01*
X110640000Y-99190000D02*
G75*
G02*
X106740000Y-99190000I-1950000J0D01*
G01*
X106740000Y-99190000D02*
G75*
G02*
X110640000Y-99190000I1950000J0D01*
G01*
X118990000Y-80190000D02*
G75*
G02*
X116390000Y-80190000I-1300000J0D01*
G01*
X116390000Y-80190000D02*
G75*
G02*
X118990000Y-80190000I1300000J0D01*
G01*
X123140000Y-89190000D02*
G75*
G02*
X121240000Y-89190000I-950000J0D01*
G01*
X121240000Y-89190000D02*
G75*
G02*
X123140000Y-89190000I950000J0D01*
G01*
%TD*%
M02*
