%TF.GenerationSoftware,KiCad,Pcbnew,9.0.6*%
%TF.CreationDate,2026-02-28T16:28:42-08:00*%
%TF.ProjectId,display_new,64697370-6c61-4795-9f6e-65772e6b6963,rev?*%
%TF.SameCoordinates,Original*%
%TF.FileFunction,Legend,Top*%
%TF.FilePolarity,Positive*%
%FSLAX46Y46*%
G04 Gerber Fmt 4.6, Leading zero omitted, Abs format (unit mm)*
G04 Created by KiCad (PCBNEW 9.0.6) date 2026-02-28 16:28:42*
%MOMM*%
%LPD*%
G01*
G04 APERTURE LIST*
%ADD10C,0.150000*%
%ADD11C,0.100000*%
%ADD12C,0.120000*%
G04 APERTURE END LIST*
D10*
X151054819Y-85333333D02*
X151769104Y-85333333D01*
X151769104Y-85333333D02*
X151911961Y-85380952D01*
X151911961Y-85380952D02*
X152007200Y-85476190D01*
X152007200Y-85476190D02*
X152054819Y-85619047D01*
X152054819Y-85619047D02*
X152054819Y-85714285D01*
X151150057Y-84904761D02*
X151102438Y-84857142D01*
X151102438Y-84857142D02*
X151054819Y-84761904D01*
X151054819Y-84761904D02*
X151054819Y-84523809D01*
X151054819Y-84523809D02*
X151102438Y-84428571D01*
X151102438Y-84428571D02*
X151150057Y-84380952D01*
X151150057Y-84380952D02*
X151245295Y-84333333D01*
X151245295Y-84333333D02*
X151340533Y-84333333D01*
X151340533Y-84333333D02*
X151483390Y-84380952D01*
X151483390Y-84380952D02*
X152054819Y-84952380D01*
X152054819Y-84952380D02*
X152054819Y-84333333D01*
D11*
X110769523Y-107782580D02*
X110769523Y-108782580D01*
X110769523Y-108782580D02*
X110436190Y-108068295D01*
X110436190Y-108068295D02*
X110102857Y-108782580D01*
X110102857Y-108782580D02*
X110102857Y-107782580D01*
X109102857Y-107782580D02*
X109674285Y-107782580D01*
X109388571Y-107782580D02*
X109388571Y-108782580D01*
X109388571Y-108782580D02*
X109483809Y-108639723D01*
X109483809Y-108639723D02*
X109579047Y-108544485D01*
X109579047Y-108544485D02*
X109674285Y-108496866D01*
D10*
X155383333Y-95604819D02*
X155050000Y-95128628D01*
X154811905Y-95604819D02*
X154811905Y-94604819D01*
X154811905Y-94604819D02*
X155192857Y-94604819D01*
X155192857Y-94604819D02*
X155288095Y-94652438D01*
X155288095Y-94652438D02*
X155335714Y-94700057D01*
X155335714Y-94700057D02*
X155383333Y-94795295D01*
X155383333Y-94795295D02*
X155383333Y-94938152D01*
X155383333Y-94938152D02*
X155335714Y-95033390D01*
X155335714Y-95033390D02*
X155288095Y-95081009D01*
X155288095Y-95081009D02*
X155192857Y-95128628D01*
X155192857Y-95128628D02*
X154811905Y-95128628D01*
X156335714Y-95604819D02*
X155764286Y-95604819D01*
X156050000Y-95604819D02*
X156050000Y-94604819D01*
X156050000Y-94604819D02*
X155954762Y-94747676D01*
X155954762Y-94747676D02*
X155859524Y-94842914D01*
X155859524Y-94842914D02*
X155764286Y-94890533D01*
X128166666Y-99554819D02*
X128166666Y-100269104D01*
X128166666Y-100269104D02*
X128119047Y-100411961D01*
X128119047Y-100411961D02*
X128023809Y-100507200D01*
X128023809Y-100507200D02*
X127880952Y-100554819D01*
X127880952Y-100554819D02*
X127785714Y-100554819D01*
X129166666Y-100554819D02*
X128595238Y-100554819D01*
X128880952Y-100554819D02*
X128880952Y-99554819D01*
X128880952Y-99554819D02*
X128785714Y-99697676D01*
X128785714Y-99697676D02*
X128690476Y-99792914D01*
X128690476Y-99792914D02*
X128595238Y-99840533D01*
D11*
X138628095Y-70677419D02*
X138628095Y-71486942D01*
X138628095Y-71486942D02*
X138675714Y-71582180D01*
X138675714Y-71582180D02*
X138723333Y-71629800D01*
X138723333Y-71629800D02*
X138818571Y-71677419D01*
X138818571Y-71677419D02*
X139009047Y-71677419D01*
X139009047Y-71677419D02*
X139104285Y-71629800D01*
X139104285Y-71629800D02*
X139151904Y-71582180D01*
X139151904Y-71582180D02*
X139199523Y-71486942D01*
X139199523Y-71486942D02*
X139199523Y-70677419D01*
X140199523Y-71677419D02*
X139628095Y-71677419D01*
X139913809Y-71677419D02*
X139913809Y-70677419D01*
X139913809Y-70677419D02*
X139818571Y-70820276D01*
X139818571Y-70820276D02*
X139723333Y-70915514D01*
X139723333Y-70915514D02*
X139628095Y-70963133D01*
D12*
%TO.C,J2*%
X157410000Y-81940000D02*
X152690000Y-81940000D01*
X155300000Y-81940000D02*
X155300000Y-82550000D01*
X154000000Y-81940000D02*
X154000000Y-82550000D01*
X152690000Y-81940000D02*
X152690000Y-88060000D01*
X156800000Y-82550000D02*
X153300000Y-82550000D01*
X153300000Y-82550000D02*
X153300000Y-84500000D01*
X153300000Y-84500000D02*
X152690000Y-84500000D01*
X156300000Y-84900000D02*
X156800000Y-84900000D01*
X156800000Y-85000000D02*
X156300000Y-85000000D01*
X156800000Y-85100000D02*
X156300000Y-85100000D01*
X156300000Y-85100000D02*
X156300000Y-84900000D01*
X153300000Y-85500000D02*
X153300000Y-87450000D01*
X152690000Y-85500000D02*
X153300000Y-85500000D01*
X152690000Y-86300000D02*
X152490000Y-86300000D01*
X152590000Y-86300000D02*
X152590000Y-86600000D01*
X152490000Y-86300000D02*
X152490000Y-86600000D01*
X152490000Y-86600000D02*
X152690000Y-86600000D01*
X152390000Y-87110000D02*
X152390000Y-88360000D01*
X156800000Y-87450000D02*
X156800000Y-82550000D01*
X153300000Y-87450000D02*
X156800000Y-87450000D01*
X157410000Y-88060000D02*
X157410000Y-81940000D01*
X155300000Y-88060000D02*
X155300000Y-87450000D01*
X154000000Y-88060000D02*
X154000000Y-87450000D01*
X152690000Y-88060000D02*
X157410000Y-88060000D01*
X152390000Y-88360000D02*
X153640000Y-88360000D01*
%TO.C,R1*%
X155777064Y-94235000D02*
X155322936Y-94235000D01*
X155777064Y-92765000D02*
X155322936Y-92765000D01*
%TO.C,J1*%
X124140000Y-100890000D02*
X124140000Y-102140000D01*
X124440000Y-101190000D02*
X124440000Y-105910000D01*
X124440000Y-102500000D02*
X125050000Y-102500000D01*
X124440000Y-103800000D02*
X125050000Y-103800000D01*
X124440000Y-105910000D02*
X132560000Y-105910000D01*
X125050000Y-101800000D02*
X125050000Y-105300000D01*
X125050000Y-105300000D02*
X131950000Y-105300000D01*
X125390000Y-100890000D02*
X124140000Y-100890000D01*
X125900000Y-100990000D02*
X125900000Y-101190000D01*
X126200000Y-100990000D02*
X125900000Y-100990000D01*
X126200000Y-101090000D02*
X125900000Y-101090000D01*
X126200000Y-101190000D02*
X126200000Y-100990000D01*
X127000000Y-101190000D02*
X127000000Y-101800000D01*
X127000000Y-101800000D02*
X125050000Y-101800000D01*
X127400000Y-104800000D02*
X127600000Y-104800000D01*
X127400000Y-105300000D02*
X127400000Y-104800000D01*
X127500000Y-105300000D02*
X127500000Y-104800000D01*
X127600000Y-104800000D02*
X127600000Y-105300000D01*
X129400000Y-104800000D02*
X129600000Y-104800000D01*
X129400000Y-105300000D02*
X129400000Y-104800000D01*
X129500000Y-105300000D02*
X129500000Y-104800000D01*
X129600000Y-104800000D02*
X129600000Y-105300000D01*
X130000000Y-101800000D02*
X130000000Y-101190000D01*
X131950000Y-101800000D02*
X130000000Y-101800000D01*
X131950000Y-105300000D02*
X131950000Y-101800000D01*
X132560000Y-101190000D02*
X124440000Y-101190000D01*
X132560000Y-102500000D02*
X131950000Y-102500000D01*
X132560000Y-103800000D02*
X131950000Y-103800000D01*
X132560000Y-105910000D02*
X132560000Y-101190000D01*
D11*
%TO.C,U1*%
X134310000Y-75260000D02*
X134310000Y-79070000D01*
X134310000Y-79070000D02*
X141930000Y-79070000D01*
X139136000Y-101676000D02*
X142184000Y-101676000D01*
X139136000Y-104724000D02*
X139136000Y-101676000D01*
X139644000Y-105232000D02*
X141676000Y-105232000D01*
X140152000Y-105740000D02*
X141168000Y-105740000D01*
X141930000Y-79070000D02*
X141930000Y-75260000D01*
X142184000Y-101676000D02*
X142184000Y-104724000D01*
X142184000Y-104724000D02*
X139136000Y-104724000D01*
%TD*%
M02*
