%TF.GenerationSoftware,KiCad,Pcbnew,9.0.6*%
%TF.CreationDate,2026-02-22T18:14:21-08:00*%
%TF.ProjectId,display,64697370-6c61-4792-9e6b-696361645f70,rev?*%
%TF.SameCoordinates,Original*%
%TF.FileFunction,Copper,L2,Bot*%
%TF.FilePolarity,Positive*%
%FSLAX46Y46*%
G04 Gerber Fmt 4.6, Leading zero omitted, Abs format (unit mm)*
G04 Created by KiCad (PCBNEW 9.0.6) date 2026-02-22 18:14:21*
%MOMM*%
%LPD*%
G01*
G04 APERTURE LIST*
G04 Aperture macros list*
%AMRoundRect*
0 Rectangle with rounded corners*
0 $1 Rounding radius*
0 $2 $3 $4 $5 $6 $7 $8 $9 X,Y pos of 4 corners*
0 Add a 4 corners polygon primitive as box body*
4,1,4,$2,$3,$4,$5,$6,$7,$8,$9,$2,$3,0*
0 Add four circle primitives for the rounded corners*
1,1,$1+$1,$2,$3*
1,1,$1+$1,$4,$5*
1,1,$1+$1,$6,$7*
1,1,$1+$1,$8,$9*
0 Add four rect primitives between the rounded corners*
20,1,$1+$1,$2,$3,$4,$5,0*
20,1,$1+$1,$4,$5,$6,$7,0*
20,1,$1+$1,$6,$7,$8,$9,0*
20,1,$1+$1,$8,$9,$2,$3,0*%
G04 Aperture macros list end*
%TA.AperFunction,ComponentPad*%
%ADD10O,1.750000X1.200000*%
%TD*%
%TA.AperFunction,ComponentPad*%
%ADD11RoundRect,0.250000X-0.625000X0.350000X-0.625000X-0.350000X0.625000X-0.350000X0.625000X0.350000X0*%
%TD*%
%TA.AperFunction,ComponentPad*%
%ADD12O,1.778000X3.556000*%
%TD*%
%TA.AperFunction,ComponentPad*%
%ADD13C,1.905000*%
%TD*%
%TA.AperFunction,ComponentPad*%
%ADD14RoundRect,0.250000X0.625000X-0.350000X0.625000X0.350000X-0.625000X0.350000X-0.625000X-0.350000X0*%
%TD*%
%TA.AperFunction,ComponentPad*%
%ADD15C,1.700000*%
%TD*%
%TA.AperFunction,ViaPad*%
%ADD16C,0.600000*%
%TD*%
%TA.AperFunction,Conductor*%
%ADD17C,0.200000*%
%TD*%
G04 APERTURE END LIST*
D10*
%TO.P,J2,2,Pin_2*%
%TO.N,GND*%
X178000000Y-118500000D03*
D11*
%TO.P,J2,1,Pin_1*%
%TO.N,/RESET_BTN*%
X178000000Y-116500000D03*
%TD*%
D12*
%TO.P,U2,1,GPIO1_A0_D0*%
%TO.N,unconnected-(U2-GPIO1_A0_D0-Pad1)*%
X177620000Y-86618000D03*
%TO.P,U2,2,GPIO2_A1_D1*%
%TO.N,/MOTOR_A1*%
X175080000Y-86618000D03*
%TO.P,U2,3,GPIO3_A2_D2*%
%TO.N,/MOTOR_A2*%
X172540000Y-86618000D03*
%TO.P,U2,4,GPIO4_A3_D3*%
%TO.N,/MOTOR_B1*%
X170000000Y-86618000D03*
%TO.P,U2,5,GPIO5_A4_D4_SDA*%
%TO.N,Net-(U2-GPIO5_A4_D4_SDA)*%
X167460000Y-86618000D03*
%TO.P,U2,6,GPIO6_A5_D5_SCL*%
%TO.N,unconnected-(U2-GPIO6_A5_D5_SCL-Pad6)*%
X164920000Y-86618000D03*
%TO.P,U2,7,GPIO43_TX_D6*%
%TO.N,unconnected-(U2-GPIO43_TX_D6-Pad7)*%
X162380000Y-86618000D03*
%TO.P,U2,8,GPIO44_D7_RX*%
%TO.N,unconnected-(U2-GPIO44_D7_RX-Pad8)*%
X162380000Y-103382000D03*
%TO.P,U2,9,GPIO7_A8_D8_SCK*%
%TO.N,unconnected-(U2-GPIO7_A8_D8_SCK-Pad9)*%
X164920000Y-103382000D03*
%TO.P,U2,10,GPIO8_A9_D9_CIPO*%
%TO.N,/RESET_BTN*%
X167460000Y-103382000D03*
%TO.P,U2,11,GPIO9_A10_D10_COPI*%
%TO.N,/MOTOR_B2*%
X170000000Y-103382000D03*
%TO.P,U2,12,3V3*%
%TO.N,+3.3V*%
X172540000Y-103382000D03*
%TO.P,U2,13,GND*%
%TO.N,GND*%
X175080000Y-103382000D03*
%TO.P,U2,14,5V*%
%TO.N,+5V*%
X177620000Y-103382000D03*
D13*
%TO.P,U2,15,+BATT*%
%TO.N,unconnected-(U2-+BATT-Pad15)*%
X152220000Y-92460000D03*
%TO.P,U2,16,-BATT*%
%TO.N,unconnected-(U2--BATT-Pad16)*%
X152220000Y-97540000D03*
%TD*%
D14*
%TO.P,J1,1,Pin_1*%
%TO.N,+5V*%
X160450000Y-127500000D03*
D10*
%TO.P,J1,2,Pin_2*%
%TO.N,GND*%
X160450000Y-125500000D03*
%TO.P,J1,3,Pin_3*%
%TO.N,/NEO_DATA*%
X160450000Y-123500000D03*
%TD*%
D15*
%TO.P,M1,4*%
%TO.N,Net-(U1-AOUT1)*%
X102640000Y-103120000D03*
%TO.P,M1,3*%
%TO.N,Net-(U1-AOUT2)*%
X102640000Y-95500000D03*
%TO.P,M1,2,-*%
%TO.N,Net-(M1--)*%
X125500000Y-103120000D03*
%TO.P,M1,1*%
%TO.N,Net-(U1-BOUT1)*%
X125500000Y-95500000D03*
%TD*%
D16*
%TO.N,Net-(U1-AOUT1)*%
X136000000Y-87500000D03*
X119000000Y-97000000D03*
%TO.N,Net-(M1--)*%
X137500000Y-90000000D03*
X137000000Y-92500000D03*
%TO.N,GND*%
X143500000Y-113000000D03*
X138500000Y-113000000D03*
%TO.N,Net-(U2-GPIO5_A4_D4_SDA)*%
X157000000Y-108000000D03*
%TO.N,/MOTOR_B1*%
X169500000Y-89500000D03*
%TO.N,+5V*%
X146000000Y-90000000D03*
X146000000Y-98000000D03*
X146000000Y-98000000D03*
%TO.N,GND*%
X146000000Y-89000000D03*
X147000000Y-96500000D03*
%TO.N,Net-(U1-VINT)*%
X143000000Y-88000000D03*
X145000000Y-104500000D03*
%TO.N,Net-(U1-VCP)*%
X143174265Y-89825735D03*
X143500000Y-104000000D03*
%TD*%
D17*
%TO.N,Net-(U1-AOUT1)*%
X128500000Y-87500000D02*
X136000000Y-87500000D01*
X119000000Y-97000000D02*
X128500000Y-87500000D01*
%TO.N,Net-(M1--)*%
X137000000Y-90500000D02*
X137500000Y-90000000D01*
X137000000Y-92500000D02*
X137000000Y-90500000D01*
%TO.N,GND*%
X138500000Y-113000000D02*
X143500000Y-113000000D01*
%TO.N,Net-(U2-GPIO5_A4_D4_SDA)*%
X157000000Y-97840000D02*
X157000000Y-108000000D01*
X167460000Y-87380000D02*
X157000000Y-97840000D01*
%TO.N,/MOTOR_B1*%
X169500000Y-89500000D02*
X169500000Y-87880000D01*
X169500000Y-87880000D02*
X170000000Y-87380000D01*
%TO.N,+5V*%
X146000000Y-98000000D02*
X146000000Y-90000000D01*
%TO.N,GND*%
X149500000Y-92500000D02*
X146000000Y-89000000D01*
X149500000Y-94000000D02*
X149500000Y-92500000D01*
X147000000Y-96500000D02*
X149500000Y-94000000D01*
%TO.N,Net-(U1-VINT)*%
X145000000Y-90000000D02*
X143000000Y-88000000D01*
X145000000Y-104500000D02*
X145000000Y-90000000D01*
%TO.N,Net-(U1-VCP)*%
X143500000Y-90500000D02*
X143000000Y-90000000D01*
X143000000Y-90000000D02*
X143174265Y-89825735D01*
X143500000Y-104000000D02*
X143500000Y-90500000D01*
%TD*%
%TA.AperFunction,Conductor*%
%TO.N,GND*%
G36*
X180002702Y-75500617D02*
G01*
X180386771Y-75517386D01*
X180397506Y-75518326D01*
X180775971Y-75568152D01*
X180786597Y-75570025D01*
X181159284Y-75652648D01*
X181169710Y-75655442D01*
X181533765Y-75770227D01*
X181543911Y-75773920D01*
X181896578Y-75920000D01*
X181906369Y-75924566D01*
X182244942Y-76100816D01*
X182254310Y-76106224D01*
X182576244Y-76311318D01*
X182585105Y-76317523D01*
X182887930Y-76549889D01*
X182896217Y-76556843D01*
X183177635Y-76814715D01*
X183185284Y-76822364D01*
X183443156Y-77103782D01*
X183450110Y-77112069D01*
X183682476Y-77414894D01*
X183688681Y-77423755D01*
X183893775Y-77745689D01*
X183899183Y-77755057D01*
X184075430Y-78093623D01*
X184080002Y-78103427D01*
X184226075Y-78456078D01*
X184229775Y-78466244D01*
X184344554Y-78830278D01*
X184347354Y-78840727D01*
X184429971Y-79213389D01*
X184431849Y-79224042D01*
X184481671Y-79602473D01*
X184482614Y-79613249D01*
X184499382Y-79997297D01*
X184499500Y-80002706D01*
X184499500Y-129997293D01*
X184499382Y-130002702D01*
X184482614Y-130386750D01*
X184481671Y-130397526D01*
X184431849Y-130775957D01*
X184429971Y-130786610D01*
X184347354Y-131159272D01*
X184344554Y-131169721D01*
X184229775Y-131533755D01*
X184226075Y-131543921D01*
X184080002Y-131896572D01*
X184075430Y-131906376D01*
X183899183Y-132244942D01*
X183893775Y-132254310D01*
X183688681Y-132576244D01*
X183682476Y-132585105D01*
X183450110Y-132887930D01*
X183443156Y-132896217D01*
X183185284Y-133177635D01*
X183177635Y-133185284D01*
X182896217Y-133443156D01*
X182887930Y-133450110D01*
X182585105Y-133682476D01*
X182576244Y-133688681D01*
X182254310Y-133893775D01*
X182244942Y-133899183D01*
X181906376Y-134075430D01*
X181896572Y-134080002D01*
X181543921Y-134226075D01*
X181533755Y-134229775D01*
X181169721Y-134344554D01*
X181159272Y-134347354D01*
X180786610Y-134429971D01*
X180775957Y-134431849D01*
X180397526Y-134481671D01*
X180386750Y-134482614D01*
X180002703Y-134499382D01*
X179997294Y-134499500D01*
X100002706Y-134499500D01*
X99997297Y-134499382D01*
X99613249Y-134482614D01*
X99602473Y-134481671D01*
X99224042Y-134431849D01*
X99213389Y-134429971D01*
X98840727Y-134347354D01*
X98830278Y-134344554D01*
X98466244Y-134229775D01*
X98456078Y-134226075D01*
X98103427Y-134080002D01*
X98093623Y-134075430D01*
X97755057Y-133899183D01*
X97745689Y-133893775D01*
X97423755Y-133688681D01*
X97414894Y-133682476D01*
X97112069Y-133450110D01*
X97103782Y-133443156D01*
X96822364Y-133185284D01*
X96814715Y-133177635D01*
X96556843Y-132896217D01*
X96549889Y-132887930D01*
X96317523Y-132585105D01*
X96311318Y-132576244D01*
X96106224Y-132254310D01*
X96100816Y-132244942D01*
X95970818Y-131995219D01*
X95924566Y-131906369D01*
X95919997Y-131896572D01*
X95773924Y-131543921D01*
X95770224Y-131533755D01*
X95760623Y-131503304D01*
X95655442Y-131169710D01*
X95652648Y-131159284D01*
X95570025Y-130786597D01*
X95568152Y-130775971D01*
X95518326Y-130397506D01*
X95517386Y-130386771D01*
X95500618Y-130002702D01*
X95500500Y-129997293D01*
X95500500Y-129831491D01*
X96999500Y-129831491D01*
X96999500Y-130168508D01*
X97037231Y-130503381D01*
X97037233Y-130503397D01*
X97112223Y-130831953D01*
X97112227Y-130831965D01*
X97223532Y-131150054D01*
X97369752Y-131453683D01*
X97369754Y-131453686D01*
X97549054Y-131739039D01*
X97759175Y-132002523D01*
X97997477Y-132240825D01*
X98260961Y-132450946D01*
X98546314Y-132630246D01*
X98849949Y-132776469D01*
X99088848Y-132860063D01*
X99168034Y-132887772D01*
X99168046Y-132887776D01*
X99496606Y-132962767D01*
X99831492Y-133000499D01*
X99831493Y-133000500D01*
X99831496Y-133000500D01*
X100168507Y-133000500D01*
X100168507Y-133000499D01*
X100503394Y-132962767D01*
X100831954Y-132887776D01*
X101150051Y-132776469D01*
X101453686Y-132630246D01*
X101739039Y-132450946D01*
X102002523Y-132240825D01*
X102240825Y-132002523D01*
X102450946Y-131739039D01*
X102630246Y-131453686D01*
X102776469Y-131150051D01*
X102887776Y-130831954D01*
X102962767Y-130503394D01*
X103000500Y-130168504D01*
X103000500Y-129831496D01*
X103000499Y-129831491D01*
X176999500Y-129831491D01*
X176999500Y-130168508D01*
X177037231Y-130503381D01*
X177037233Y-130503397D01*
X177112223Y-130831953D01*
X177112227Y-130831965D01*
X177223532Y-131150054D01*
X177369752Y-131453683D01*
X177369754Y-131453686D01*
X177549054Y-131739039D01*
X177759175Y-132002523D01*
X177997477Y-132240825D01*
X178260961Y-132450946D01*
X178546314Y-132630246D01*
X178849949Y-132776469D01*
X179088848Y-132860063D01*
X179168034Y-132887772D01*
X179168046Y-132887776D01*
X179496606Y-132962767D01*
X179831492Y-133000499D01*
X179831493Y-133000500D01*
X179831496Y-133000500D01*
X180168507Y-133000500D01*
X180168507Y-133000499D01*
X180503394Y-132962767D01*
X180831954Y-132887776D01*
X181150051Y-132776469D01*
X181453686Y-132630246D01*
X181739039Y-132450946D01*
X182002523Y-132240825D01*
X182240825Y-132002523D01*
X182450946Y-131739039D01*
X182630246Y-131453686D01*
X182776469Y-131150051D01*
X182887776Y-130831954D01*
X182962767Y-130503394D01*
X183000500Y-130168504D01*
X183000500Y-129831496D01*
X182962767Y-129496606D01*
X182887776Y-129168046D01*
X182776469Y-128849949D01*
X182630246Y-128546314D01*
X182450946Y-128260961D01*
X182240825Y-127997477D01*
X182002523Y-127759175D01*
X181739039Y-127549054D01*
X181453686Y-127369754D01*
X181453683Y-127369752D01*
X181150054Y-127223532D01*
X180831965Y-127112227D01*
X180831953Y-127112223D01*
X180503397Y-127037233D01*
X180503381Y-127037231D01*
X180168508Y-126999500D01*
X180168504Y-126999500D01*
X179831496Y-126999500D01*
X179831491Y-126999500D01*
X179496618Y-127037231D01*
X179496602Y-127037233D01*
X179168046Y-127112223D01*
X179168034Y-127112227D01*
X178849945Y-127223532D01*
X178546316Y-127369752D01*
X178260962Y-127549053D01*
X177997477Y-127759174D01*
X177759174Y-127997477D01*
X177549053Y-128260962D01*
X177369752Y-128546316D01*
X177223532Y-128849945D01*
X177112227Y-129168034D01*
X177112223Y-129168046D01*
X177037233Y-129496602D01*
X177037231Y-129496618D01*
X176999500Y-129831491D01*
X103000499Y-129831491D01*
X102962767Y-129496606D01*
X102887776Y-129168046D01*
X102776469Y-128849949D01*
X102630246Y-128546314D01*
X102450946Y-128260961D01*
X102240825Y-127997477D01*
X102002523Y-127759175D01*
X101739039Y-127549054D01*
X101453686Y-127369754D01*
X101453683Y-127369752D01*
X101150062Y-127223536D01*
X101150059Y-127223535D01*
X101150051Y-127223531D01*
X101044440Y-127186576D01*
X100831965Y-127112227D01*
X100831953Y-127112223D01*
X100503397Y-127037233D01*
X100503381Y-127037231D01*
X100168508Y-126999500D01*
X100168504Y-126999500D01*
X99831496Y-126999500D01*
X99831491Y-126999500D01*
X99496618Y-127037231D01*
X99496602Y-127037233D01*
X99168046Y-127112223D01*
X99168034Y-127112227D01*
X98849945Y-127223532D01*
X98546316Y-127369752D01*
X98260962Y-127549053D01*
X97997477Y-127759174D01*
X97759174Y-127997477D01*
X97549053Y-128260962D01*
X97369752Y-128546316D01*
X97223532Y-128849945D01*
X97112227Y-129168034D01*
X97112223Y-129168046D01*
X97037233Y-129496602D01*
X97037231Y-129496618D01*
X96999500Y-129831491D01*
X95500500Y-129831491D01*
X95500500Y-123413389D01*
X159074500Y-123413389D01*
X159074500Y-123586611D01*
X159101598Y-123757701D01*
X159155127Y-123922445D01*
X159233768Y-124076788D01*
X159335586Y-124216928D01*
X159458072Y-124339414D01*
X159541449Y-124399991D01*
X159584114Y-124455322D01*
X159590093Y-124524935D01*
X159557487Y-124586730D01*
X159541448Y-124600627D01*
X159458404Y-124660961D01*
X159458399Y-124660965D01*
X159335967Y-124783397D01*
X159234195Y-124923475D01*
X159155591Y-125077744D01*
X159102085Y-125242415D01*
X159100884Y-125249999D01*
X159100885Y-125250000D01*
X160169670Y-125250000D01*
X160149925Y-125269745D01*
X160100556Y-125355255D01*
X160075000Y-125450630D01*
X160075000Y-125549370D01*
X160100556Y-125644745D01*
X160149925Y-125730255D01*
X160169670Y-125750000D01*
X159100885Y-125750000D01*
X159102085Y-125757584D01*
X159155591Y-125922255D01*
X159234195Y-126076524D01*
X159335967Y-126216602D01*
X159443565Y-126324200D01*
X159477050Y-126385523D01*
X159472066Y-126455215D01*
X159430194Y-126511148D01*
X159420981Y-126517420D01*
X159356342Y-126557289D01*
X159232289Y-126681342D01*
X159140187Y-126830663D01*
X159140186Y-126830666D01*
X159085001Y-126997203D01*
X159085001Y-126997204D01*
X159085000Y-126997204D01*
X159074500Y-127099983D01*
X159074500Y-127900001D01*
X159074501Y-127900019D01*
X159085000Y-128002796D01*
X159085001Y-128002799D01*
X159119402Y-128106613D01*
X159140186Y-128169334D01*
X159232288Y-128318656D01*
X159356344Y-128442712D01*
X159505666Y-128534814D01*
X159672203Y-128589999D01*
X159774991Y-128600500D01*
X161125008Y-128600499D01*
X161227797Y-128589999D01*
X161394334Y-128534814D01*
X161543656Y-128442712D01*
X161667712Y-128318656D01*
X161759814Y-128169334D01*
X161814999Y-128002797D01*
X161825500Y-127900009D01*
X161825499Y-127099992D01*
X161814999Y-126997203D01*
X161759814Y-126830666D01*
X161667712Y-126681344D01*
X161543656Y-126557288D01*
X161543655Y-126557287D01*
X161479019Y-126517420D01*
X161432294Y-126465472D01*
X161421071Y-126396510D01*
X161448914Y-126332428D01*
X161456434Y-126324199D01*
X161564035Y-126216598D01*
X161665804Y-126076524D01*
X161744408Y-125922255D01*
X161797914Y-125757584D01*
X161799115Y-125750000D01*
X160730330Y-125750000D01*
X160750075Y-125730255D01*
X160799444Y-125644745D01*
X160825000Y-125549370D01*
X160825000Y-125450630D01*
X160799444Y-125355255D01*
X160750075Y-125269745D01*
X160730330Y-125250000D01*
X161799115Y-125250000D01*
X161799115Y-125249999D01*
X161797914Y-125242415D01*
X161744408Y-125077744D01*
X161665804Y-124923475D01*
X161564032Y-124783397D01*
X161441602Y-124660967D01*
X161358551Y-124600628D01*
X161315885Y-124545298D01*
X161309906Y-124475685D01*
X161342511Y-124413889D01*
X161358551Y-124399991D01*
X161441928Y-124339414D01*
X161564414Y-124216928D01*
X161666232Y-124076788D01*
X161744873Y-123922445D01*
X161798402Y-123757701D01*
X161825500Y-123586611D01*
X161825500Y-123413389D01*
X161798402Y-123242299D01*
X161744873Y-123077555D01*
X161666232Y-122923212D01*
X161564414Y-122783072D01*
X161441928Y-122660586D01*
X161301788Y-122558768D01*
X161147445Y-122480127D01*
X160982701Y-122426598D01*
X160982699Y-122426597D01*
X160982698Y-122426597D01*
X160851271Y-122405781D01*
X160811611Y-122399500D01*
X160088389Y-122399500D01*
X160048728Y-122405781D01*
X159917302Y-122426597D01*
X159752552Y-122480128D01*
X159598211Y-122558768D01*
X159518256Y-122616859D01*
X159458072Y-122660586D01*
X159458070Y-122660588D01*
X159458069Y-122660588D01*
X159335588Y-122783069D01*
X159335588Y-122783070D01*
X159335586Y-122783072D01*
X159291859Y-122843256D01*
X159233768Y-122923211D01*
X159155128Y-123077552D01*
X159101597Y-123242302D01*
X159074500Y-123413389D01*
X95500500Y-123413389D01*
X95500500Y-116099983D01*
X176624500Y-116099983D01*
X176624500Y-116900001D01*
X176624501Y-116900019D01*
X176635000Y-117002796D01*
X176635001Y-117002799D01*
X176690185Y-117169331D01*
X176690186Y-117169334D01*
X176782288Y-117318656D01*
X176906344Y-117442712D01*
X176970981Y-117482580D01*
X177017705Y-117534526D01*
X177028928Y-117603489D01*
X177001085Y-117667571D01*
X176993566Y-117675799D01*
X176885964Y-117783401D01*
X176784195Y-117923475D01*
X176705591Y-118077744D01*
X176652085Y-118242415D01*
X176650884Y-118249999D01*
X176650885Y-118250000D01*
X177719670Y-118250000D01*
X177699925Y-118269745D01*
X177650556Y-118355255D01*
X177625000Y-118450630D01*
X177625000Y-118549370D01*
X177650556Y-118644745D01*
X177699925Y-118730255D01*
X177719670Y-118750000D01*
X176650885Y-118750000D01*
X176652085Y-118757584D01*
X176705591Y-118922255D01*
X176784195Y-119076524D01*
X176885967Y-119216602D01*
X177008397Y-119339032D01*
X177148475Y-119440804D01*
X177302742Y-119519408D01*
X177467415Y-119572914D01*
X177638429Y-119600000D01*
X177750000Y-119600000D01*
X177750000Y-118780330D01*
X177769745Y-118800075D01*
X177855255Y-118849444D01*
X177950630Y-118875000D01*
X178049370Y-118875000D01*
X178144745Y-118849444D01*
X178230255Y-118800075D01*
X178250000Y-118780330D01*
X178250000Y-119600000D01*
X178361571Y-119600000D01*
X178532584Y-119572914D01*
X178697257Y-119519408D01*
X178851524Y-119440804D01*
X178991602Y-119339032D01*
X179114032Y-119216602D01*
X179215804Y-119076524D01*
X179294408Y-118922255D01*
X179347914Y-118757584D01*
X179349115Y-118750000D01*
X178280330Y-118750000D01*
X178300075Y-118730255D01*
X178349444Y-118644745D01*
X178375000Y-118549370D01*
X178375000Y-118450630D01*
X178349444Y-118355255D01*
X178300075Y-118269745D01*
X178280330Y-118250000D01*
X179349115Y-118250000D01*
X179349115Y-118249999D01*
X179347914Y-118242415D01*
X179294408Y-118077744D01*
X179215804Y-117923475D01*
X179114032Y-117783397D01*
X179006434Y-117675799D01*
X178972949Y-117614476D01*
X178977933Y-117544784D01*
X179019805Y-117488851D01*
X179028995Y-117482594D01*
X179093656Y-117442712D01*
X179217712Y-117318656D01*
X179309814Y-117169334D01*
X179364999Y-117002797D01*
X179375500Y-116900009D01*
X179375499Y-116099992D01*
X179364999Y-115997203D01*
X179309814Y-115830666D01*
X179217712Y-115681344D01*
X179093656Y-115557288D01*
X178944334Y-115465186D01*
X178777797Y-115410001D01*
X178777795Y-115410000D01*
X178675010Y-115399500D01*
X177324998Y-115399500D01*
X177324981Y-115399501D01*
X177222203Y-115410000D01*
X177222200Y-115410001D01*
X177055668Y-115465185D01*
X177055663Y-115465187D01*
X176906342Y-115557289D01*
X176782289Y-115681342D01*
X176690187Y-115830663D01*
X176690186Y-115830666D01*
X176635001Y-115997203D01*
X176635001Y-115997204D01*
X176635000Y-115997204D01*
X176624500Y-116099983D01*
X95500500Y-116099983D01*
X95500500Y-108191995D01*
X103269500Y-108191995D01*
X103269500Y-108428004D01*
X103269501Y-108428020D01*
X103295010Y-108621786D01*
X103300307Y-108662014D01*
X103313003Y-108709397D01*
X103361394Y-108889993D01*
X103451714Y-109108045D01*
X103451719Y-109108056D01*
X103522677Y-109230957D01*
X103569727Y-109312450D01*
X103569729Y-109312453D01*
X103569730Y-109312454D01*
X103713406Y-109499697D01*
X103713412Y-109499704D01*
X103880295Y-109666587D01*
X103880301Y-109666592D01*
X104067550Y-109810273D01*
X104198918Y-109886118D01*
X104271943Y-109928280D01*
X104271948Y-109928282D01*
X104271951Y-109928284D01*
X104490007Y-110018606D01*
X104717986Y-110079693D01*
X104951989Y-110110500D01*
X104951996Y-110110500D01*
X105188004Y-110110500D01*
X105188011Y-110110500D01*
X105422014Y-110079693D01*
X105649993Y-110018606D01*
X105868049Y-109928284D01*
X106072450Y-109810273D01*
X106259699Y-109666592D01*
X106426592Y-109499699D01*
X106570273Y-109312450D01*
X106688284Y-109108049D01*
X106778606Y-108889993D01*
X106839693Y-108662014D01*
X106870500Y-108428011D01*
X106870500Y-108191995D01*
X121269500Y-108191995D01*
X121269500Y-108428004D01*
X121269501Y-108428020D01*
X121295010Y-108621786D01*
X121300307Y-108662014D01*
X121313003Y-108709397D01*
X121361394Y-108889993D01*
X121451714Y-109108045D01*
X121451719Y-109108056D01*
X121522677Y-109230957D01*
X121569727Y-109312450D01*
X121569729Y-109312453D01*
X121569730Y-109312454D01*
X121713406Y-109499697D01*
X121713412Y-109499704D01*
X121880295Y-109666587D01*
X121880301Y-109666592D01*
X122067550Y-109810273D01*
X122198918Y-109886118D01*
X122271943Y-109928280D01*
X122271948Y-109928282D01*
X122271951Y-109928284D01*
X122490007Y-110018606D01*
X122717986Y-110079693D01*
X122951989Y-110110500D01*
X122951996Y-110110500D01*
X123188004Y-110110500D01*
X123188011Y-110110500D01*
X123422014Y-110079693D01*
X123649993Y-110018606D01*
X123868049Y-109928284D01*
X124072450Y-109810273D01*
X124259699Y-109666592D01*
X124426592Y-109499699D01*
X124570273Y-109312450D01*
X124688284Y-109108049D01*
X124778606Y-108889993D01*
X124839693Y-108662014D01*
X124870500Y-108428011D01*
X124870500Y-108191989D01*
X124839693Y-107957986D01*
X124829824Y-107921153D01*
X156199500Y-107921153D01*
X156199500Y-108078846D01*
X156230261Y-108233489D01*
X156230264Y-108233501D01*
X156290602Y-108379172D01*
X156290609Y-108379185D01*
X156378210Y-108510288D01*
X156378213Y-108510292D01*
X156489707Y-108621786D01*
X156489711Y-108621789D01*
X156620814Y-108709390D01*
X156620827Y-108709397D01*
X156766498Y-108769735D01*
X156766503Y-108769737D01*
X156921153Y-108800499D01*
X156921156Y-108800500D01*
X156921158Y-108800500D01*
X157078844Y-108800500D01*
X157078845Y-108800499D01*
X157233497Y-108769737D01*
X157379179Y-108709394D01*
X157510289Y-108621789D01*
X157621789Y-108510289D01*
X157709394Y-108379179D01*
X157769737Y-108233497D01*
X157800500Y-108078842D01*
X157800500Y-107921158D01*
X157800500Y-107921155D01*
X157800499Y-107921153D01*
X157769737Y-107766503D01*
X157738868Y-107691978D01*
X157709397Y-107620827D01*
X157709390Y-107620814D01*
X157621398Y-107489125D01*
X157600520Y-107422447D01*
X157600500Y-107420234D01*
X157600500Y-102383638D01*
X160990500Y-102383638D01*
X160990500Y-104380361D01*
X161024714Y-104596376D01*
X161092297Y-104804380D01*
X161092298Y-104804383D01*
X161159782Y-104936825D01*
X161179722Y-104975960D01*
X161191595Y-104999260D01*
X161320142Y-105176193D01*
X161474806Y-105330857D01*
X161640374Y-105451147D01*
X161651743Y-105459407D01*
X161779132Y-105524315D01*
X161846616Y-105558701D01*
X161846619Y-105558702D01*
X161950621Y-105592493D01*
X162054625Y-105626286D01*
X162154672Y-105642132D01*
X162270639Y-105660500D01*
X162270644Y-105660500D01*
X162489361Y-105660500D01*
X162594082Y-105643912D01*
X162705375Y-105626286D01*
X162913383Y-105558701D01*
X163108257Y-105459407D01*
X163207601Y-105387229D01*
X163285193Y-105330857D01*
X163285195Y-105330854D01*
X163285199Y-105330852D01*
X163439852Y-105176199D01*
X163549683Y-105025028D01*
X163605011Y-104982364D01*
X163674624Y-104976385D01*
X163736420Y-105008990D01*
X163750313Y-105025023D01*
X163820615Y-105121786D01*
X163860148Y-105176199D01*
X164014806Y-105330857D01*
X164180374Y-105451147D01*
X164191743Y-105459407D01*
X164319132Y-105524315D01*
X164386616Y-105558701D01*
X164386619Y-105558702D01*
X164490621Y-105592493D01*
X164594625Y-105626286D01*
X164694672Y-105642132D01*
X164810639Y-105660500D01*
X164810644Y-105660500D01*
X165029361Y-105660500D01*
X165134082Y-105643912D01*
X165245375Y-105626286D01*
X165453383Y-105558701D01*
X165648257Y-105459407D01*
X165747601Y-105387229D01*
X165825193Y-105330857D01*
X165825195Y-105330854D01*
X165825199Y-105330852D01*
X165979852Y-105176199D01*
X166089683Y-105025028D01*
X166145011Y-104982364D01*
X166214624Y-104976385D01*
X166276420Y-105008990D01*
X166290313Y-105025023D01*
X166360615Y-105121786D01*
X166400148Y-105176199D01*
X166554806Y-105330857D01*
X166720374Y-105451147D01*
X166731743Y-105459407D01*
X166859132Y-105524315D01*
X166926616Y-105558701D01*
X166926619Y-105558702D01*
X167030621Y-105592493D01*
X167134625Y-105626286D01*
X167234672Y-105642132D01*
X167350639Y-105660500D01*
X167350644Y-105660500D01*
X167569361Y-105660500D01*
X167674082Y-105643912D01*
X167785375Y-105626286D01*
X167993383Y-105558701D01*
X168188257Y-105459407D01*
X168287601Y-105387229D01*
X168365193Y-105330857D01*
X168365195Y-105330854D01*
X168365199Y-105330852D01*
X168519852Y-105176199D01*
X168629683Y-105025028D01*
X168685011Y-104982364D01*
X168754624Y-104976385D01*
X168816420Y-105008990D01*
X168830313Y-105025023D01*
X168900615Y-105121786D01*
X168940148Y-105176199D01*
X169094806Y-105330857D01*
X169260374Y-105451147D01*
X169271743Y-105459407D01*
X169399132Y-105524315D01*
X169466616Y-105558701D01*
X169466619Y-105558702D01*
X169570621Y-105592493D01*
X169674625Y-105626286D01*
X169774672Y-105642132D01*
X169890639Y-105660500D01*
X169890644Y-105660500D01*
X170109361Y-105660500D01*
X170214082Y-105643912D01*
X170325375Y-105626286D01*
X170533383Y-105558701D01*
X170728257Y-105459407D01*
X170827601Y-105387229D01*
X170905193Y-105330857D01*
X170905195Y-105330854D01*
X170905199Y-105330852D01*
X171059852Y-105176199D01*
X171169683Y-105025028D01*
X171225011Y-104982364D01*
X171294624Y-104976385D01*
X171356420Y-105008990D01*
X171370313Y-105025023D01*
X171440615Y-105121786D01*
X171480148Y-105176199D01*
X171634806Y-105330857D01*
X171800374Y-105451147D01*
X171811743Y-105459407D01*
X171939132Y-105524315D01*
X172006616Y-105558701D01*
X172006619Y-105558702D01*
X172110621Y-105592493D01*
X172214625Y-105626286D01*
X172314672Y-105642132D01*
X172430639Y-105660500D01*
X172430644Y-105660500D01*
X172649361Y-105660500D01*
X172754082Y-105643912D01*
X172865375Y-105626286D01*
X173073383Y-105558701D01*
X173268257Y-105459407D01*
X173367601Y-105387229D01*
X173445193Y-105330857D01*
X173445195Y-105330854D01*
X173445199Y-105330852D01*
X173599852Y-105176199D01*
X173709991Y-105024603D01*
X173765320Y-104981939D01*
X173834933Y-104975960D01*
X173896729Y-105008565D01*
X173910627Y-105024605D01*
X174020524Y-105175866D01*
X174020528Y-105175871D01*
X174175128Y-105330471D01*
X174175133Y-105330475D01*
X174352001Y-105458976D01*
X174546808Y-105558237D01*
X174546811Y-105558238D01*
X174754739Y-105625797D01*
X174829999Y-105637717D01*
X174830000Y-105637717D01*
X174830000Y-103062251D01*
X174883919Y-103093381D01*
X175013120Y-103128000D01*
X175146880Y-103128000D01*
X175276081Y-103093381D01*
X175330000Y-103062251D01*
X175330000Y-105637717D01*
X175405258Y-105625797D01*
X175405261Y-105625797D01*
X175613188Y-105558238D01*
X175613191Y-105558237D01*
X175807998Y-105458976D01*
X175984866Y-105330475D01*
X175984871Y-105330471D01*
X176139469Y-105175873D01*
X176249371Y-105024605D01*
X176304701Y-104981939D01*
X176374314Y-104975960D01*
X176436110Y-105008565D01*
X176450008Y-105024605D01*
X176560142Y-105176192D01*
X176560146Y-105176197D01*
X176714806Y-105330857D01*
X176880374Y-105451147D01*
X176891743Y-105459407D01*
X177019132Y-105524315D01*
X177086616Y-105558701D01*
X177086619Y-105558702D01*
X177190621Y-105592493D01*
X177294625Y-105626286D01*
X177394672Y-105642132D01*
X177510639Y-105660500D01*
X177510644Y-105660500D01*
X177729361Y-105660500D01*
X177834082Y-105643912D01*
X177945375Y-105626286D01*
X178153383Y-105558701D01*
X178348257Y-105459407D01*
X178447601Y-105387229D01*
X178525193Y-105330857D01*
X178525195Y-105330854D01*
X178525199Y-105330852D01*
X178679852Y-105176199D01*
X178679854Y-105176195D01*
X178679857Y-105176193D01*
X178736229Y-105098601D01*
X178808407Y-104999257D01*
X178907701Y-104804383D01*
X178975286Y-104596375D01*
X179003038Y-104421158D01*
X179009500Y-104380361D01*
X179009500Y-102383638D01*
X178986782Y-102240208D01*
X178975286Y-102167625D01*
X178909434Y-101964951D01*
X178907702Y-101959619D01*
X178907701Y-101959616D01*
X178861245Y-101868443D01*
X178808407Y-101764743D01*
X178789681Y-101738969D01*
X178679857Y-101587806D01*
X178525193Y-101433142D01*
X178348260Y-101304595D01*
X178348259Y-101304594D01*
X178348257Y-101304593D01*
X178285825Y-101272782D01*
X178153383Y-101205298D01*
X178153380Y-101205297D01*
X177945376Y-101137714D01*
X177729361Y-101103500D01*
X177729356Y-101103500D01*
X177510644Y-101103500D01*
X177510639Y-101103500D01*
X177294623Y-101137714D01*
X177086619Y-101205297D01*
X177086616Y-101205298D01*
X176891739Y-101304595D01*
X176714806Y-101433142D01*
X176560146Y-101587802D01*
X176560142Y-101587807D01*
X176450008Y-101739394D01*
X176394678Y-101782060D01*
X176325065Y-101788039D01*
X176263270Y-101755433D01*
X176249372Y-101739394D01*
X176139475Y-101588133D01*
X176139471Y-101588128D01*
X175984871Y-101433528D01*
X175984866Y-101433524D01*
X175807998Y-101305023D01*
X175613191Y-101205762D01*
X175613188Y-101205761D01*
X175405258Y-101138201D01*
X175330000Y-101126281D01*
X175330000Y-102177748D01*
X175276081Y-102146619D01*
X175146880Y-102112000D01*
X175013120Y-102112000D01*
X174883919Y-102146619D01*
X174830000Y-102177748D01*
X174830000Y-101126281D01*
X174754741Y-101138201D01*
X174546811Y-101205761D01*
X174546808Y-101205762D01*
X174352001Y-101305023D01*
X174175133Y-101433524D01*
X174175128Y-101433528D01*
X174020528Y-101588128D01*
X174020524Y-101588133D01*
X173910627Y-101739394D01*
X173855297Y-101782060D01*
X173785684Y-101788039D01*
X173723889Y-101755433D01*
X173709991Y-101739394D01*
X173599857Y-101587807D01*
X173599853Y-101587802D01*
X173445193Y-101433142D01*
X173268260Y-101304595D01*
X173268259Y-101304594D01*
X173268257Y-101304593D01*
X173205825Y-101272782D01*
X173073383Y-101205298D01*
X173073380Y-101205297D01*
X172865376Y-101137714D01*
X172649361Y-101103500D01*
X172649356Y-101103500D01*
X172430644Y-101103500D01*
X172430639Y-101103500D01*
X172214623Y-101137714D01*
X172006619Y-101205297D01*
X172006616Y-101205298D01*
X171811739Y-101304595D01*
X171634806Y-101433142D01*
X171480142Y-101587806D01*
X171370318Y-101738969D01*
X171314989Y-101781635D01*
X171245375Y-101787614D01*
X171183580Y-101755009D01*
X171169682Y-101738969D01*
X171059857Y-101587806D01*
X170905193Y-101433142D01*
X170728260Y-101304595D01*
X170728259Y-101304594D01*
X170728257Y-101304593D01*
X170665825Y-101272782D01*
X170533383Y-101205298D01*
X170533380Y-101205297D01*
X170325376Y-101137714D01*
X170109361Y-101103500D01*
X170109356Y-101103500D01*
X169890644Y-101103500D01*
X169890639Y-101103500D01*
X169674623Y-101137714D01*
X169466619Y-101205297D01*
X169466616Y-101205298D01*
X169271739Y-101304595D01*
X169094806Y-101433142D01*
X168940142Y-101587806D01*
X168830318Y-101738969D01*
X168774989Y-101781635D01*
X168705375Y-101787614D01*
X168643580Y-101755009D01*
X168629682Y-101738969D01*
X168519857Y-101587806D01*
X168365193Y-101433142D01*
X168188260Y-101304595D01*
X168188259Y-101304594D01*
X168188257Y-101304593D01*
X168125825Y-101272782D01*
X167993383Y-101205298D01*
X167993380Y-101205297D01*
X167785376Y-101137714D01*
X167569361Y-101103500D01*
X167569356Y-101103500D01*
X167350644Y-101103500D01*
X167350639Y-101103500D01*
X167134623Y-101137714D01*
X166926619Y-101205297D01*
X166926616Y-101205298D01*
X166731739Y-101304595D01*
X166554806Y-101433142D01*
X166400142Y-101587806D01*
X166290318Y-101738969D01*
X166234989Y-101781635D01*
X166165375Y-101787614D01*
X166103580Y-101755009D01*
X166089682Y-101738969D01*
X165979857Y-101587806D01*
X165825193Y-101433142D01*
X165648260Y-101304595D01*
X165648259Y-101304594D01*
X165648257Y-101304593D01*
X165585825Y-101272782D01*
X165453383Y-101205298D01*
X165453380Y-101205297D01*
X165245376Y-101137714D01*
X165029361Y-101103500D01*
X165029356Y-101103500D01*
X164810644Y-101103500D01*
X164810639Y-101103500D01*
X164594623Y-101137714D01*
X164386619Y-101205297D01*
X164386616Y-101205298D01*
X164191739Y-101304595D01*
X164014806Y-101433142D01*
X163860142Y-101587806D01*
X163750318Y-101738969D01*
X163694989Y-101781635D01*
X163625375Y-101787614D01*
X163563580Y-101755009D01*
X163549682Y-101738969D01*
X163439857Y-101587806D01*
X163285193Y-101433142D01*
X163108260Y-101304595D01*
X163108259Y-101304594D01*
X163108257Y-101304593D01*
X163045825Y-101272782D01*
X162913383Y-101205298D01*
X162913380Y-101205297D01*
X162705376Y-101137714D01*
X162489361Y-101103500D01*
X162489356Y-101103500D01*
X162270644Y-101103500D01*
X162270639Y-101103500D01*
X162054623Y-101137714D01*
X161846619Y-101205297D01*
X161846616Y-101205298D01*
X161651739Y-101304595D01*
X161474806Y-101433142D01*
X161320142Y-101587806D01*
X161191595Y-101764739D01*
X161092298Y-101959616D01*
X161092297Y-101959619D01*
X161024714Y-102167623D01*
X160990500Y-102383638D01*
X157600500Y-102383638D01*
X157600500Y-98140096D01*
X157620185Y-98073057D01*
X157636814Y-98052420D01*
X166848672Y-88840561D01*
X166909993Y-88807078D01*
X166974665Y-88810312D01*
X167067768Y-88840563D01*
X167134624Y-88862286D01*
X167350639Y-88896500D01*
X167350644Y-88896500D01*
X167569361Y-88896500D01*
X167674082Y-88879912D01*
X167785375Y-88862286D01*
X167993383Y-88794701D01*
X168188257Y-88695407D01*
X168289588Y-88621786D01*
X168365193Y-88566857D01*
X168365195Y-88566854D01*
X168365199Y-88566852D01*
X168519852Y-88412199D01*
X168629683Y-88261028D01*
X168651958Y-88243851D01*
X168672133Y-88224245D01*
X168679256Y-88222801D01*
X168685011Y-88218364D01*
X168713038Y-88215956D01*
X168740611Y-88210370D01*
X168747383Y-88213006D01*
X168754624Y-88212385D01*
X168779504Y-88225512D01*
X168805720Y-88235719D01*
X168812951Y-88243160D01*
X168816420Y-88244990D01*
X168830314Y-88261024D01*
X168875818Y-88323656D01*
X168899298Y-88389461D01*
X168899500Y-88396540D01*
X168899500Y-88920234D01*
X168879815Y-88987273D01*
X168878602Y-88989125D01*
X168790609Y-89120814D01*
X168790602Y-89120827D01*
X168730264Y-89266498D01*
X168730261Y-89266510D01*
X168699500Y-89421153D01*
X168699500Y-89578846D01*
X168730261Y-89733489D01*
X168730264Y-89733501D01*
X168790602Y-89879172D01*
X168790609Y-89879185D01*
X168878210Y-90010288D01*
X168878213Y-90010292D01*
X168989707Y-90121786D01*
X168989711Y-90121789D01*
X169120814Y-90209390D01*
X169120827Y-90209397D01*
X169262831Y-90268216D01*
X169266503Y-90269737D01*
X169419132Y-90300097D01*
X169421153Y-90300499D01*
X169421156Y-90300500D01*
X169421158Y-90300500D01*
X169578844Y-90300500D01*
X169578845Y-90300499D01*
X169733497Y-90269737D01*
X169879179Y-90209394D01*
X170010289Y-90121789D01*
X170121789Y-90010289D01*
X170209394Y-89879179D01*
X170269737Y-89733497D01*
X170300500Y-89578842D01*
X170300500Y-89421158D01*
X170300500Y-89421155D01*
X170300499Y-89421153D01*
X170279472Y-89315446D01*
X170269737Y-89266503D01*
X170269735Y-89266498D01*
X170209397Y-89120827D01*
X170209395Y-89120823D01*
X170209394Y-89120821D01*
X170171896Y-89064701D01*
X170151018Y-88998024D01*
X170169502Y-88930644D01*
X170221481Y-88883953D01*
X170255600Y-88873337D01*
X170325375Y-88862286D01*
X170533383Y-88794701D01*
X170728257Y-88695407D01*
X170829588Y-88621786D01*
X170905193Y-88566857D01*
X170905195Y-88566854D01*
X170905199Y-88566852D01*
X171059852Y-88412199D01*
X171169683Y-88261028D01*
X171225011Y-88218364D01*
X171294624Y-88212385D01*
X171356420Y-88244990D01*
X171370313Y-88261023D01*
X171415817Y-88323654D01*
X171480148Y-88412199D01*
X171634806Y-88566857D01*
X171800374Y-88687147D01*
X171811743Y-88695407D01*
X171929289Y-88755300D01*
X172006616Y-88794701D01*
X172006619Y-88794702D01*
X172054666Y-88810313D01*
X172214625Y-88862286D01*
X172314672Y-88878132D01*
X172430639Y-88896500D01*
X172430644Y-88896500D01*
X172649361Y-88896500D01*
X172754082Y-88879912D01*
X172865375Y-88862286D01*
X173073383Y-88794701D01*
X173268257Y-88695407D01*
X173369588Y-88621786D01*
X173445193Y-88566857D01*
X173445195Y-88566854D01*
X173445199Y-88566852D01*
X173599852Y-88412199D01*
X173709683Y-88261028D01*
X173765011Y-88218364D01*
X173834624Y-88212385D01*
X173896420Y-88244990D01*
X173910313Y-88261023D01*
X173955817Y-88323654D01*
X174020148Y-88412199D01*
X174174806Y-88566857D01*
X174340374Y-88687147D01*
X174351743Y-88695407D01*
X174469289Y-88755300D01*
X174546616Y-88794701D01*
X174546619Y-88794702D01*
X174594666Y-88810313D01*
X174754625Y-88862286D01*
X174854672Y-88878132D01*
X174970639Y-88896500D01*
X174970644Y-88896500D01*
X175189361Y-88896500D01*
X175294082Y-88879912D01*
X175405375Y-88862286D01*
X175613383Y-88794701D01*
X175808257Y-88695407D01*
X175909588Y-88621786D01*
X175985193Y-88566857D01*
X175985195Y-88566854D01*
X175985199Y-88566852D01*
X176139852Y-88412199D01*
X176249683Y-88261028D01*
X176305011Y-88218364D01*
X176374624Y-88212385D01*
X176436420Y-88244990D01*
X176450313Y-88261023D01*
X176495817Y-88323654D01*
X176560148Y-88412199D01*
X176714806Y-88566857D01*
X176880374Y-88687147D01*
X176891743Y-88695407D01*
X177009289Y-88755300D01*
X177086616Y-88794701D01*
X177086619Y-88794702D01*
X177134666Y-88810313D01*
X177294625Y-88862286D01*
X177394672Y-88878132D01*
X177510639Y-88896500D01*
X177510644Y-88896500D01*
X177729361Y-88896500D01*
X177834082Y-88879912D01*
X177945375Y-88862286D01*
X178153383Y-88794701D01*
X178348257Y-88695407D01*
X178449588Y-88621786D01*
X178525193Y-88566857D01*
X178525195Y-88566854D01*
X178525199Y-88566852D01*
X178679852Y-88412199D01*
X178679854Y-88412195D01*
X178679857Y-88412193D01*
X178744183Y-88323654D01*
X178808407Y-88235257D01*
X178907701Y-88040383D01*
X178975286Y-87832375D01*
X179000284Y-87674545D01*
X179009500Y-87616361D01*
X179009500Y-85619638D01*
X178989595Y-85493971D01*
X178975286Y-85403625D01*
X178907701Y-85195617D01*
X178907701Y-85195616D01*
X178820060Y-85023614D01*
X178808407Y-85000743D01*
X178789681Y-84974969D01*
X178679857Y-84823806D01*
X178525193Y-84669142D01*
X178348260Y-84540595D01*
X178348259Y-84540594D01*
X178348257Y-84540593D01*
X178285825Y-84508782D01*
X178153383Y-84441298D01*
X178153380Y-84441297D01*
X177945376Y-84373714D01*
X177729361Y-84339500D01*
X177729356Y-84339500D01*
X177510644Y-84339500D01*
X177510639Y-84339500D01*
X177294623Y-84373714D01*
X177086619Y-84441297D01*
X177086616Y-84441298D01*
X176891739Y-84540595D01*
X176714806Y-84669142D01*
X176560142Y-84823806D01*
X176450318Y-84974969D01*
X176394989Y-85017635D01*
X176325375Y-85023614D01*
X176263580Y-84991009D01*
X176249682Y-84974969D01*
X176139857Y-84823806D01*
X175985193Y-84669142D01*
X175808260Y-84540595D01*
X175808259Y-84540594D01*
X175808257Y-84540593D01*
X175745825Y-84508782D01*
X175613383Y-84441298D01*
X175613380Y-84441297D01*
X175405376Y-84373714D01*
X175189361Y-84339500D01*
X175189356Y-84339500D01*
X174970644Y-84339500D01*
X174970639Y-84339500D01*
X174754623Y-84373714D01*
X174546619Y-84441297D01*
X174546616Y-84441298D01*
X174351739Y-84540595D01*
X174174806Y-84669142D01*
X174020142Y-84823806D01*
X173910318Y-84974969D01*
X173854989Y-85017635D01*
X173785375Y-85023614D01*
X173723580Y-84991009D01*
X173709682Y-84974969D01*
X173599857Y-84823806D01*
X173445193Y-84669142D01*
X173268260Y-84540595D01*
X173268259Y-84540594D01*
X173268257Y-84540593D01*
X173205825Y-84508782D01*
X173073383Y-84441298D01*
X173073380Y-84441297D01*
X172865376Y-84373714D01*
X172649361Y-84339500D01*
X172649356Y-84339500D01*
X172430644Y-84339500D01*
X172430639Y-84339500D01*
X172214623Y-84373714D01*
X172006619Y-84441297D01*
X172006616Y-84441298D01*
X171811739Y-84540595D01*
X171634806Y-84669142D01*
X171480142Y-84823806D01*
X171370318Y-84974969D01*
X171314989Y-85017635D01*
X171245375Y-85023614D01*
X171183580Y-84991009D01*
X171169682Y-84974969D01*
X171059857Y-84823806D01*
X170905193Y-84669142D01*
X170728260Y-84540595D01*
X170728259Y-84540594D01*
X170728257Y-84540593D01*
X170665825Y-84508782D01*
X170533383Y-84441298D01*
X170533380Y-84441297D01*
X170325376Y-84373714D01*
X170109361Y-84339500D01*
X170109356Y-84339500D01*
X169890644Y-84339500D01*
X169890639Y-84339500D01*
X169674623Y-84373714D01*
X169466619Y-84441297D01*
X169466616Y-84441298D01*
X169271739Y-84540595D01*
X169094806Y-84669142D01*
X168940142Y-84823806D01*
X168830318Y-84974969D01*
X168774989Y-85017635D01*
X168705375Y-85023614D01*
X168643580Y-84991009D01*
X168629682Y-84974969D01*
X168519857Y-84823806D01*
X168365193Y-84669142D01*
X168188260Y-84540595D01*
X168188259Y-84540594D01*
X168188257Y-84540593D01*
X168125825Y-84508782D01*
X167993383Y-84441298D01*
X167993380Y-84441297D01*
X167785376Y-84373714D01*
X167569361Y-84339500D01*
X167569356Y-84339500D01*
X167350644Y-84339500D01*
X167350639Y-84339500D01*
X167134623Y-84373714D01*
X166926619Y-84441297D01*
X166926616Y-84441298D01*
X166731739Y-84540595D01*
X166554806Y-84669142D01*
X166400142Y-84823806D01*
X166290318Y-84974969D01*
X166234989Y-85017635D01*
X166165375Y-85023614D01*
X166103580Y-84991009D01*
X166089682Y-84974969D01*
X165979857Y-84823806D01*
X165825193Y-84669142D01*
X165648260Y-84540595D01*
X165648259Y-84540594D01*
X165648257Y-84540593D01*
X165585825Y-84508782D01*
X165453383Y-84441298D01*
X165453380Y-84441297D01*
X165245376Y-84373714D01*
X165029361Y-84339500D01*
X165029356Y-84339500D01*
X164810644Y-84339500D01*
X164810639Y-84339500D01*
X164594623Y-84373714D01*
X164386619Y-84441297D01*
X164386616Y-84441298D01*
X164191739Y-84540595D01*
X164014806Y-84669142D01*
X163860142Y-84823806D01*
X163750318Y-84974969D01*
X163694989Y-85017635D01*
X163625375Y-85023614D01*
X163563580Y-84991009D01*
X163549682Y-84974969D01*
X163439857Y-84823806D01*
X163285193Y-84669142D01*
X163108260Y-84540595D01*
X163108259Y-84540594D01*
X163108257Y-84540593D01*
X163045825Y-84508782D01*
X162913383Y-84441298D01*
X162913380Y-84441297D01*
X162705376Y-84373714D01*
X162489361Y-84339500D01*
X162489356Y-84339500D01*
X162270644Y-84339500D01*
X162270639Y-84339500D01*
X162054623Y-84373714D01*
X161846619Y-84441297D01*
X161846616Y-84441298D01*
X161651739Y-84540595D01*
X161474806Y-84669142D01*
X161320142Y-84823806D01*
X161191595Y-85000739D01*
X161092298Y-85195616D01*
X161092297Y-85195619D01*
X161024714Y-85403623D01*
X160990500Y-85619638D01*
X160990500Y-87616361D01*
X161024714Y-87832376D01*
X161092297Y-88040380D01*
X161092298Y-88040383D01*
X161134282Y-88122779D01*
X161190698Y-88233501D01*
X161191595Y-88235260D01*
X161320142Y-88412193D01*
X161474806Y-88566857D01*
X161640374Y-88687147D01*
X161651743Y-88695407D01*
X161769289Y-88755300D01*
X161846616Y-88794701D01*
X161846619Y-88794702D01*
X161894666Y-88810313D01*
X162054625Y-88862286D01*
X162154672Y-88878132D01*
X162270639Y-88896500D01*
X162270644Y-88896500D01*
X162489361Y-88896500D01*
X162594082Y-88879912D01*
X162705375Y-88862286D01*
X162913383Y-88794701D01*
X163108257Y-88695407D01*
X163209588Y-88621786D01*
X163285193Y-88566857D01*
X163285195Y-88566854D01*
X163285199Y-88566852D01*
X163439852Y-88412199D01*
X163549683Y-88261028D01*
X163605011Y-88218364D01*
X163674624Y-88212385D01*
X163736420Y-88244990D01*
X163750313Y-88261023D01*
X163795817Y-88323654D01*
X163860148Y-88412199D01*
X164014806Y-88566857D01*
X164180374Y-88687147D01*
X164191743Y-88695407D01*
X164309289Y-88755300D01*
X164386616Y-88794701D01*
X164386619Y-88794702D01*
X164434666Y-88810313D01*
X164594625Y-88862286D01*
X164717038Y-88881674D01*
X164815117Y-88897209D01*
X164878252Y-88927138D01*
X164915183Y-88986450D01*
X164914185Y-89056312D01*
X164883400Y-89107363D01*
X156634051Y-97356712D01*
X156634043Y-97356720D01*
X156631286Y-97359478D01*
X156631284Y-97359480D01*
X156519480Y-97471284D01*
X156499855Y-97505276D01*
X156493672Y-97515984D01*
X156493671Y-97515986D01*
X156440424Y-97608213D01*
X156440423Y-97608215D01*
X156399499Y-97760943D01*
X156399499Y-97760945D01*
X156399499Y-97929046D01*
X156399500Y-97929059D01*
X156399500Y-107420234D01*
X156379815Y-107487273D01*
X156378602Y-107489125D01*
X156290609Y-107620814D01*
X156290602Y-107620827D01*
X156230264Y-107766498D01*
X156230261Y-107766510D01*
X156199500Y-107921153D01*
X124829824Y-107921153D01*
X124778606Y-107730007D01*
X124688284Y-107511951D01*
X124688282Y-107511948D01*
X124688280Y-107511943D01*
X124635331Y-107420234D01*
X124570273Y-107307550D01*
X124426592Y-107120301D01*
X124426587Y-107120295D01*
X124259704Y-106953412D01*
X124259697Y-106953406D01*
X124072454Y-106809730D01*
X124072453Y-106809729D01*
X124072450Y-106809727D01*
X123990957Y-106762677D01*
X123868056Y-106691719D01*
X123868045Y-106691714D01*
X123649993Y-106601394D01*
X123422010Y-106540306D01*
X123188020Y-106509501D01*
X123188017Y-106509500D01*
X123188011Y-106509500D01*
X122951989Y-106509500D01*
X122951983Y-106509500D01*
X122951979Y-106509501D01*
X122717989Y-106540306D01*
X122490006Y-106601394D01*
X122271954Y-106691714D01*
X122271943Y-106691719D01*
X122067545Y-106809730D01*
X121880302Y-106953406D01*
X121880295Y-106953412D01*
X121713412Y-107120295D01*
X121713406Y-107120302D01*
X121569730Y-107307545D01*
X121451719Y-107511943D01*
X121451714Y-107511954D01*
X121361394Y-107730006D01*
X121300306Y-107957989D01*
X121269501Y-108191979D01*
X121269500Y-108191995D01*
X106870500Y-108191995D01*
X106870500Y-108191989D01*
X106839693Y-107957986D01*
X106778606Y-107730007D01*
X106688284Y-107511951D01*
X106688282Y-107511948D01*
X106688280Y-107511943D01*
X106635331Y-107420234D01*
X106570273Y-107307550D01*
X106426592Y-107120301D01*
X106426587Y-107120295D01*
X106259704Y-106953412D01*
X106259697Y-106953406D01*
X106072454Y-106809730D01*
X106072453Y-106809729D01*
X106072450Y-106809727D01*
X105990957Y-106762677D01*
X105868056Y-106691719D01*
X105868045Y-106691714D01*
X105649993Y-106601394D01*
X105422010Y-106540306D01*
X105188020Y-106509501D01*
X105188017Y-106509500D01*
X105188011Y-106509500D01*
X104951989Y-106509500D01*
X104951983Y-106509500D01*
X104951979Y-106509501D01*
X104717989Y-106540306D01*
X104490006Y-106601394D01*
X104271954Y-106691714D01*
X104271943Y-106691719D01*
X104067545Y-106809730D01*
X103880302Y-106953406D01*
X103880295Y-106953412D01*
X103713412Y-107120295D01*
X103713406Y-107120302D01*
X103569730Y-107307545D01*
X103451719Y-107511943D01*
X103451714Y-107511954D01*
X103361394Y-107730006D01*
X103300306Y-107957989D01*
X103269501Y-108191979D01*
X103269500Y-108191995D01*
X95500500Y-108191995D01*
X95500500Y-103013713D01*
X101289500Y-103013713D01*
X101289500Y-103226287D01*
X101322754Y-103436243D01*
X101382729Y-103620827D01*
X101388444Y-103638414D01*
X101484951Y-103827820D01*
X101609890Y-103999786D01*
X101760213Y-104150109D01*
X101932179Y-104275048D01*
X101932181Y-104275049D01*
X101932184Y-104275051D01*
X102121588Y-104371557D01*
X102323757Y-104437246D01*
X102533713Y-104470500D01*
X102533714Y-104470500D01*
X102746286Y-104470500D01*
X102746287Y-104470500D01*
X102956243Y-104437246D01*
X103158412Y-104371557D01*
X103347816Y-104275051D01*
X103405022Y-104233489D01*
X103519786Y-104150109D01*
X103519788Y-104150106D01*
X103519792Y-104150104D01*
X103670104Y-103999792D01*
X103670106Y-103999788D01*
X103670109Y-103999786D01*
X103795048Y-103827820D01*
X103795047Y-103827820D01*
X103795051Y-103827816D01*
X103891557Y-103638412D01*
X103957246Y-103436243D01*
X103990500Y-103226287D01*
X103990500Y-103013713D01*
X124149500Y-103013713D01*
X124149500Y-103226287D01*
X124182754Y-103436243D01*
X124242729Y-103620827D01*
X124248444Y-103638414D01*
X124344951Y-103827820D01*
X124469890Y-103999786D01*
X124620213Y-104150109D01*
X124792179Y-104275048D01*
X124792181Y-104275049D01*
X124792184Y-104275051D01*
X124981588Y-104371557D01*
X125183757Y-104437246D01*
X125393713Y-104470500D01*
X125393714Y-104470500D01*
X125606286Y-104470500D01*
X125606287Y-104470500D01*
X125816243Y-104437246D01*
X126018412Y-104371557D01*
X126207816Y-104275051D01*
X126265022Y-104233489D01*
X126379786Y-104150109D01*
X126379788Y-104150106D01*
X126379792Y-104150104D01*
X126530104Y-103999792D01*
X126530106Y-103999788D01*
X126530109Y-103999786D01*
X126655048Y-103827820D01*
X126655047Y-103827820D01*
X126655051Y-103827816D01*
X126751557Y-103638412D01*
X126817246Y-103436243D01*
X126850500Y-103226287D01*
X126850500Y-103013713D01*
X126817246Y-102803757D01*
X126751557Y-102601588D01*
X126655051Y-102412184D01*
X126655049Y-102412181D01*
X126655048Y-102412179D01*
X126530109Y-102240213D01*
X126379786Y-102089890D01*
X126207820Y-101964951D01*
X126018414Y-101868444D01*
X126018413Y-101868443D01*
X126018412Y-101868443D01*
X125816243Y-101802754D01*
X125816241Y-101802753D01*
X125816240Y-101802753D01*
X125654957Y-101777208D01*
X125606287Y-101769500D01*
X125393713Y-101769500D01*
X125345042Y-101777208D01*
X125183760Y-101802753D01*
X124981585Y-101868444D01*
X124792179Y-101964951D01*
X124620213Y-102089890D01*
X124469890Y-102240213D01*
X124344951Y-102412179D01*
X124248444Y-102601585D01*
X124182753Y-102803760D01*
X124180802Y-102816081D01*
X124149500Y-103013713D01*
X103990500Y-103013713D01*
X103957246Y-102803757D01*
X103891557Y-102601588D01*
X103795051Y-102412184D01*
X103795049Y-102412181D01*
X103795048Y-102412179D01*
X103670109Y-102240213D01*
X103519786Y-102089890D01*
X103347820Y-101964951D01*
X103158414Y-101868444D01*
X103158413Y-101868443D01*
X103158412Y-101868443D01*
X102956243Y-101802754D01*
X102956241Y-101802753D01*
X102956240Y-101802753D01*
X102794957Y-101777208D01*
X102746287Y-101769500D01*
X102533713Y-101769500D01*
X102485042Y-101777208D01*
X102323760Y-101802753D01*
X102121585Y-101868444D01*
X101932179Y-101964951D01*
X101760213Y-102089890D01*
X101609890Y-102240213D01*
X101484951Y-102412179D01*
X101388444Y-102601585D01*
X101322753Y-102803760D01*
X101320802Y-102816081D01*
X101289500Y-103013713D01*
X95500500Y-103013713D01*
X95500500Y-99195837D01*
X99119500Y-99195837D01*
X99119500Y-99424162D01*
X99155215Y-99649660D01*
X99225770Y-99866803D01*
X99329421Y-100070228D01*
X99463621Y-100254937D01*
X99625063Y-100416379D01*
X99809772Y-100550579D01*
X99905884Y-100599550D01*
X100013196Y-100654229D01*
X100013198Y-100654229D01*
X100013201Y-100654231D01*
X100129592Y-100692049D01*
X100230339Y-100724784D01*
X100455838Y-100760500D01*
X100455843Y-100760500D01*
X100684162Y-100760500D01*
X100909660Y-100724784D01*
X101126799Y-100654231D01*
X101330228Y-100550579D01*
X101514937Y-100416379D01*
X101676379Y-100254937D01*
X101810579Y-100070228D01*
X101914231Y-99866799D01*
X101984784Y-99649660D01*
X101995241Y-99583638D01*
X102020500Y-99424162D01*
X102020500Y-99195837D01*
X126119500Y-99195837D01*
X126119500Y-99424162D01*
X126155215Y-99649660D01*
X126225770Y-99866803D01*
X126329421Y-100070228D01*
X126463621Y-100254937D01*
X126625063Y-100416379D01*
X126809772Y-100550579D01*
X126905884Y-100599550D01*
X127013196Y-100654229D01*
X127013198Y-100654229D01*
X127013201Y-100654231D01*
X127129592Y-100692049D01*
X127230339Y-100724784D01*
X127455838Y-100760500D01*
X127455843Y-100760500D01*
X127684162Y-100760500D01*
X127909660Y-100724784D01*
X128126799Y-100654231D01*
X128330228Y-100550579D01*
X128514937Y-100416379D01*
X128676379Y-100254937D01*
X128810579Y-100070228D01*
X128914231Y-99866799D01*
X128984784Y-99649660D01*
X128995241Y-99583638D01*
X129020500Y-99424162D01*
X129020500Y-99195837D01*
X128984784Y-98970339D01*
X128914229Y-98753196D01*
X128810578Y-98549771D01*
X128781895Y-98510292D01*
X128676379Y-98365063D01*
X128514937Y-98203621D01*
X128330228Y-98069421D01*
X128296852Y-98052415D01*
X128126803Y-97965770D01*
X127909660Y-97895215D01*
X127684162Y-97859500D01*
X127684157Y-97859500D01*
X127455843Y-97859500D01*
X127455838Y-97859500D01*
X127230339Y-97895215D01*
X127013196Y-97965770D01*
X126809771Y-98069421D01*
X126625061Y-98203622D01*
X126463622Y-98365061D01*
X126329421Y-98549771D01*
X126225770Y-98753196D01*
X126155215Y-98970339D01*
X126119500Y-99195837D01*
X102020500Y-99195837D01*
X101984784Y-98970339D01*
X101914229Y-98753196D01*
X101810578Y-98549771D01*
X101781895Y-98510292D01*
X101676379Y-98365063D01*
X101514937Y-98203621D01*
X101330228Y-98069421D01*
X101296852Y-98052415D01*
X101126803Y-97965770D01*
X100909660Y-97895215D01*
X100684162Y-97859500D01*
X100684157Y-97859500D01*
X100455843Y-97859500D01*
X100455838Y-97859500D01*
X100230339Y-97895215D01*
X100013196Y-97965770D01*
X99809771Y-98069421D01*
X99625061Y-98203622D01*
X99463622Y-98365061D01*
X99329421Y-98549771D01*
X99225770Y-98753196D01*
X99155215Y-98970339D01*
X99119500Y-99195837D01*
X95500500Y-99195837D01*
X95500500Y-96921153D01*
X118199500Y-96921153D01*
X118199500Y-97078846D01*
X118230261Y-97233489D01*
X118230264Y-97233501D01*
X118290602Y-97379172D01*
X118290609Y-97379185D01*
X118378210Y-97510288D01*
X118378213Y-97510292D01*
X118489707Y-97621786D01*
X118489711Y-97621789D01*
X118620814Y-97709390D01*
X118620827Y-97709397D01*
X118745272Y-97760943D01*
X118766503Y-97769737D01*
X118921153Y-97800499D01*
X118921156Y-97800500D01*
X118921158Y-97800500D01*
X119078844Y-97800500D01*
X119078845Y-97800499D01*
X119233497Y-97769737D01*
X119379179Y-97709394D01*
X119510289Y-97621789D01*
X119621789Y-97510289D01*
X119709394Y-97379179D01*
X119769737Y-97233497D01*
X119789113Y-97136085D01*
X119800638Y-97078150D01*
X119833023Y-97016239D01*
X119834518Y-97014716D01*
X121455521Y-95393713D01*
X124149500Y-95393713D01*
X124149500Y-95606286D01*
X124182753Y-95816239D01*
X124248444Y-96018414D01*
X124344951Y-96207820D01*
X124469890Y-96379786D01*
X124620213Y-96530109D01*
X124792179Y-96655048D01*
X124792181Y-96655049D01*
X124792184Y-96655051D01*
X124981588Y-96751557D01*
X125183757Y-96817246D01*
X125393713Y-96850500D01*
X125393714Y-96850500D01*
X125606286Y-96850500D01*
X125606287Y-96850500D01*
X125816243Y-96817246D01*
X126018412Y-96751557D01*
X126207816Y-96655051D01*
X126292628Y-96593432D01*
X126379786Y-96530109D01*
X126379788Y-96530106D01*
X126379792Y-96530104D01*
X126530104Y-96379792D01*
X126530106Y-96379788D01*
X126530109Y-96379786D01*
X126655048Y-96207820D01*
X126655047Y-96207820D01*
X126655051Y-96207816D01*
X126751557Y-96018412D01*
X126817246Y-95816243D01*
X126850500Y-95606287D01*
X126850500Y-95393713D01*
X126817246Y-95183757D01*
X126751557Y-94981588D01*
X126655051Y-94792184D01*
X126655049Y-94792181D01*
X126655048Y-94792179D01*
X126530109Y-94620213D01*
X126379786Y-94469890D01*
X126207820Y-94344951D01*
X126018414Y-94248444D01*
X126018413Y-94248443D01*
X126018412Y-94248443D01*
X125816243Y-94182754D01*
X125816241Y-94182753D01*
X125816240Y-94182753D01*
X125654957Y-94157208D01*
X125606287Y-94149500D01*
X125393713Y-94149500D01*
X125345042Y-94157208D01*
X125183760Y-94182753D01*
X124981585Y-94248444D01*
X124792179Y-94344951D01*
X124620213Y-94469890D01*
X124469890Y-94620213D01*
X124344951Y-94792179D01*
X124248444Y-94981585D01*
X124182753Y-95183760D01*
X124149500Y-95393713D01*
X121455521Y-95393713D01*
X124428081Y-92421153D01*
X136199500Y-92421153D01*
X136199500Y-92578846D01*
X136230261Y-92733489D01*
X136230264Y-92733501D01*
X136290602Y-92879172D01*
X136290609Y-92879185D01*
X136378210Y-93010288D01*
X136378213Y-93010292D01*
X136489707Y-93121786D01*
X136489711Y-93121789D01*
X136620814Y-93209390D01*
X136620827Y-93209397D01*
X136766498Y-93269735D01*
X136766503Y-93269737D01*
X136921153Y-93300499D01*
X136921156Y-93300500D01*
X136921158Y-93300500D01*
X137078844Y-93300500D01*
X137078845Y-93300499D01*
X137233497Y-93269737D01*
X137379179Y-93209394D01*
X137510289Y-93121789D01*
X137621789Y-93010289D01*
X137709394Y-92879179D01*
X137769737Y-92733497D01*
X137800500Y-92578842D01*
X137800500Y-92421158D01*
X137800500Y-92421155D01*
X137800499Y-92421153D01*
X137769737Y-92266503D01*
X137769735Y-92266498D01*
X137709397Y-92120827D01*
X137709390Y-92120814D01*
X137621398Y-91989125D01*
X137600520Y-91922447D01*
X137600500Y-91920234D01*
X137600500Y-90897955D01*
X137620185Y-90830916D01*
X137672989Y-90785161D01*
X137700303Y-90776339D01*
X137733497Y-90769737D01*
X137879179Y-90709394D01*
X138010289Y-90621789D01*
X138121789Y-90510289D01*
X138209394Y-90379179D01*
X138269737Y-90233497D01*
X138300500Y-90078842D01*
X138300500Y-89921158D01*
X138300500Y-89921155D01*
X138300499Y-89921153D01*
X138269738Y-89766510D01*
X138269738Y-89766508D01*
X138269737Y-89766503D01*
X138250941Y-89721124D01*
X138209397Y-89620827D01*
X138209390Y-89620814D01*
X138121789Y-89489711D01*
X138121786Y-89489707D01*
X138010292Y-89378213D01*
X138010288Y-89378210D01*
X137879185Y-89290609D01*
X137879172Y-89290602D01*
X137733501Y-89230264D01*
X137733489Y-89230261D01*
X137578845Y-89199500D01*
X137578842Y-89199500D01*
X137421158Y-89199500D01*
X137421155Y-89199500D01*
X137266510Y-89230261D01*
X137266498Y-89230264D01*
X137120827Y-89290602D01*
X137120814Y-89290609D01*
X136989711Y-89378210D01*
X136989707Y-89378213D01*
X136878213Y-89489707D01*
X136878210Y-89489711D01*
X136790609Y-89620814D01*
X136790602Y-89620827D01*
X136730264Y-89766498D01*
X136730261Y-89766508D01*
X136699362Y-89921847D01*
X136690597Y-89938602D01*
X136686578Y-89957081D01*
X136667834Y-89982118D01*
X136666977Y-89983758D01*
X136665427Y-89985335D01*
X136624224Y-90026538D01*
X136624212Y-90026552D01*
X136519478Y-90131285D01*
X136491364Y-90179982D01*
X136483011Y-90194451D01*
X136440423Y-90268215D01*
X136399499Y-90420943D01*
X136399499Y-90420944D01*
X136399499Y-90420945D01*
X136399499Y-90589046D01*
X136399500Y-90589059D01*
X136399500Y-91920234D01*
X136379815Y-91987273D01*
X136378602Y-91989125D01*
X136290609Y-92120814D01*
X136290602Y-92120827D01*
X136230264Y-92266498D01*
X136230261Y-92266510D01*
X136199500Y-92421153D01*
X124428081Y-92421153D01*
X128712416Y-88136819D01*
X128773739Y-88103334D01*
X128800097Y-88100500D01*
X135420234Y-88100500D01*
X135487273Y-88120185D01*
X135489125Y-88121398D01*
X135620814Y-88209390D01*
X135620827Y-88209397D01*
X135745480Y-88261029D01*
X135766503Y-88269737D01*
X135921153Y-88300499D01*
X135921156Y-88300500D01*
X135921158Y-88300500D01*
X136078844Y-88300500D01*
X136078845Y-88300499D01*
X136233497Y-88269737D01*
X136379179Y-88209394D01*
X136510289Y-88121789D01*
X136621789Y-88010289D01*
X136681348Y-87921153D01*
X142199500Y-87921153D01*
X142199500Y-88078846D01*
X142230261Y-88233489D01*
X142230264Y-88233501D01*
X142290602Y-88379172D01*
X142290609Y-88379185D01*
X142378210Y-88510288D01*
X142378213Y-88510292D01*
X142489707Y-88621786D01*
X142489711Y-88621789D01*
X142620814Y-88709390D01*
X142620827Y-88709397D01*
X142766498Y-88769735D01*
X142766503Y-88769737D01*
X142831147Y-88782595D01*
X142921849Y-88800638D01*
X142938605Y-88809402D01*
X142957085Y-88813423D01*
X142982123Y-88832167D01*
X142983760Y-88833023D01*
X142985339Y-88834574D01*
X142998591Y-88847826D01*
X143032076Y-88909149D01*
X143027092Y-88978841D01*
X142985220Y-89034774D01*
X142946017Y-89052310D01*
X142946600Y-89054229D01*
X142940763Y-89055999D01*
X142795092Y-89116337D01*
X142795079Y-89116344D01*
X142663976Y-89203945D01*
X142663972Y-89203948D01*
X142552478Y-89315442D01*
X142552475Y-89315446D01*
X142464874Y-89446549D01*
X142464867Y-89446562D01*
X142404529Y-89592233D01*
X142404526Y-89592245D01*
X142373765Y-89746888D01*
X142373765Y-89746893D01*
X142373765Y-89904577D01*
X142373765Y-89904579D01*
X142373764Y-89904579D01*
X142389189Y-89982118D01*
X142394792Y-90010288D01*
X142397116Y-90021968D01*
X142399499Y-90046160D01*
X142399499Y-90079054D01*
X142399498Y-90079054D01*
X142410948Y-90121786D01*
X142440423Y-90231785D01*
X142519481Y-90368716D01*
X142519483Y-90368718D01*
X142863181Y-90712416D01*
X142896666Y-90773739D01*
X142899500Y-90800097D01*
X142899500Y-103420234D01*
X142879815Y-103487273D01*
X142878602Y-103489125D01*
X142790609Y-103620814D01*
X142790602Y-103620827D01*
X142730264Y-103766498D01*
X142730261Y-103766510D01*
X142699500Y-103921153D01*
X142699500Y-104078846D01*
X142730261Y-104233489D01*
X142730264Y-104233501D01*
X142790602Y-104379172D01*
X142790609Y-104379185D01*
X142878210Y-104510288D01*
X142878213Y-104510292D01*
X142989707Y-104621786D01*
X142989711Y-104621789D01*
X143120814Y-104709390D01*
X143120827Y-104709397D01*
X143266498Y-104769735D01*
X143266503Y-104769737D01*
X143421153Y-104800499D01*
X143421156Y-104800500D01*
X143421158Y-104800500D01*
X143578844Y-104800500D01*
X143578845Y-104800499D01*
X143733497Y-104769737D01*
X143879179Y-104709394D01*
X144010289Y-104621789D01*
X144011186Y-104620891D01*
X144011773Y-104620571D01*
X144014999Y-104617924D01*
X144015500Y-104618535D01*
X144072504Y-104587402D01*
X144142196Y-104592380D01*
X144198134Y-104634246D01*
X144220491Y-104684374D01*
X144230261Y-104733491D01*
X144230264Y-104733501D01*
X144290602Y-104879172D01*
X144290609Y-104879185D01*
X144378210Y-105010288D01*
X144378213Y-105010292D01*
X144489707Y-105121786D01*
X144489711Y-105121789D01*
X144620814Y-105209390D01*
X144620827Y-105209397D01*
X144766498Y-105269735D01*
X144766503Y-105269737D01*
X144921153Y-105300499D01*
X144921156Y-105300500D01*
X144921158Y-105300500D01*
X145078844Y-105300500D01*
X145078845Y-105300499D01*
X145233497Y-105269737D01*
X145379179Y-105209394D01*
X145510289Y-105121789D01*
X145621789Y-105010289D01*
X145709394Y-104879179D01*
X145769737Y-104733497D01*
X145800500Y-104578842D01*
X145800500Y-104421158D01*
X145800500Y-104421155D01*
X145800499Y-104421153D01*
X145771437Y-104275051D01*
X145769737Y-104266503D01*
X145756062Y-104233489D01*
X145709397Y-104120827D01*
X145709390Y-104120814D01*
X145621398Y-103989125D01*
X145600520Y-103922447D01*
X145600500Y-103920234D01*
X145600500Y-98886555D01*
X145620185Y-98819516D01*
X145672989Y-98773761D01*
X145742147Y-98763817D01*
X145760411Y-98768840D01*
X145760676Y-98767969D01*
X145766492Y-98769732D01*
X145766503Y-98769737D01*
X145921153Y-98800499D01*
X145921156Y-98800500D01*
X145921158Y-98800500D01*
X146078844Y-98800500D01*
X146078845Y-98800499D01*
X146233497Y-98769737D01*
X146379179Y-98709394D01*
X146510289Y-98621789D01*
X146621789Y-98510289D01*
X146709394Y-98379179D01*
X146769737Y-98233497D01*
X146800500Y-98078842D01*
X146800500Y-97921158D01*
X146800500Y-97921155D01*
X146800499Y-97921153D01*
X146769738Y-97766510D01*
X146769737Y-97766503D01*
X146723284Y-97654354D01*
X146709397Y-97620827D01*
X146709390Y-97620814D01*
X146621775Y-97489689D01*
X146621414Y-97489149D01*
X146601513Y-97425646D01*
X150767000Y-97425646D01*
X150767000Y-97654353D01*
X150802778Y-97880246D01*
X150802778Y-97880249D01*
X150873450Y-98097755D01*
X150873452Y-98097758D01*
X150977283Y-98301538D01*
X151111714Y-98486566D01*
X151273434Y-98648286D01*
X151458462Y-98782717D01*
X151618668Y-98864346D01*
X151662244Y-98886549D01*
X151879751Y-98957221D01*
X151879752Y-98957221D01*
X151879755Y-98957222D01*
X152105646Y-98993000D01*
X152105647Y-98993000D01*
X152334353Y-98993000D01*
X152334354Y-98993000D01*
X152560245Y-98957222D01*
X152560248Y-98957221D01*
X152560249Y-98957221D01*
X152777755Y-98886549D01*
X152777755Y-98886548D01*
X152777758Y-98886548D01*
X152981538Y-98782717D01*
X153166566Y-98648286D01*
X153328286Y-98486566D01*
X153462717Y-98301538D01*
X153566548Y-98097758D01*
X153581281Y-98052415D01*
X153637221Y-97880249D01*
X153637221Y-97880248D01*
X153637222Y-97880245D01*
X153673000Y-97654354D01*
X153673000Y-97425646D01*
X153637222Y-97199755D01*
X153637221Y-97199751D01*
X153637221Y-97199750D01*
X153566549Y-96982244D01*
X153535424Y-96921158D01*
X153462717Y-96778462D01*
X153328286Y-96593434D01*
X153166566Y-96431714D01*
X152981538Y-96297283D01*
X152850000Y-96230261D01*
X152777755Y-96193450D01*
X152560248Y-96122778D01*
X152390826Y-96095944D01*
X152334354Y-96087000D01*
X152105646Y-96087000D01*
X152030349Y-96098926D01*
X151879753Y-96122778D01*
X151879750Y-96122778D01*
X151662244Y-96193450D01*
X151458461Y-96297283D01*
X151352896Y-96373980D01*
X151273434Y-96431714D01*
X151273432Y-96431716D01*
X151273431Y-96431716D01*
X151111716Y-96593431D01*
X151111716Y-96593432D01*
X151111714Y-96593434D01*
X151091816Y-96620821D01*
X150977283Y-96778461D01*
X150873450Y-96982244D01*
X150802778Y-97199750D01*
X150802778Y-97199753D01*
X150767000Y-97425646D01*
X146601513Y-97425646D01*
X146600520Y-97422476D01*
X146600500Y-97420234D01*
X146600500Y-92345646D01*
X150767000Y-92345646D01*
X150767000Y-92574354D01*
X150784889Y-92687299D01*
X150802778Y-92800246D01*
X150802778Y-92800249D01*
X150873450Y-93017755D01*
X150873452Y-93017758D01*
X150977283Y-93221538D01*
X151111714Y-93406566D01*
X151273434Y-93568286D01*
X151458462Y-93702717D01*
X151662242Y-93806548D01*
X151662244Y-93806549D01*
X151879751Y-93877221D01*
X151879752Y-93877221D01*
X151879755Y-93877222D01*
X152105646Y-93913000D01*
X152105647Y-93913000D01*
X152334353Y-93913000D01*
X152334354Y-93913000D01*
X152560245Y-93877222D01*
X152560248Y-93877221D01*
X152560249Y-93877221D01*
X152777755Y-93806549D01*
X152777755Y-93806548D01*
X152777758Y-93806548D01*
X152981538Y-93702717D01*
X153166566Y-93568286D01*
X153328286Y-93406566D01*
X153462717Y-93221538D01*
X153566548Y-93017758D01*
X153637222Y-92800245D01*
X153673000Y-92574354D01*
X153673000Y-92345646D01*
X153637222Y-92119755D01*
X153637221Y-92119751D01*
X153637221Y-92119750D01*
X153566549Y-91902244D01*
X153478625Y-91729684D01*
X153462717Y-91698462D01*
X153328286Y-91513434D01*
X153166566Y-91351714D01*
X152981538Y-91217283D01*
X152830009Y-91140075D01*
X152777755Y-91113450D01*
X152560248Y-91042778D01*
X152390826Y-91015944D01*
X152334354Y-91007000D01*
X152105646Y-91007000D01*
X152030349Y-91018926D01*
X151879753Y-91042778D01*
X151879750Y-91042778D01*
X151662244Y-91113450D01*
X151458461Y-91217283D01*
X151352896Y-91293980D01*
X151273434Y-91351714D01*
X151273432Y-91351716D01*
X151273431Y-91351716D01*
X151111716Y-91513431D01*
X151111716Y-91513432D01*
X151111714Y-91513434D01*
X151065144Y-91577532D01*
X150977283Y-91698461D01*
X150873450Y-91902244D01*
X150802778Y-92119750D01*
X150802778Y-92119753D01*
X150802778Y-92119755D01*
X150767000Y-92345646D01*
X146600500Y-92345646D01*
X146600500Y-90579765D01*
X146620185Y-90512726D01*
X146621398Y-90510874D01*
X146709390Y-90379185D01*
X146709390Y-90379184D01*
X146709394Y-90379179D01*
X146769737Y-90233497D01*
X146800500Y-90078842D01*
X146800500Y-89921158D01*
X146800500Y-89921155D01*
X146800499Y-89921153D01*
X146769738Y-89766510D01*
X146769738Y-89766508D01*
X146769737Y-89766503D01*
X146750941Y-89721124D01*
X146709397Y-89620827D01*
X146709390Y-89620814D01*
X146621789Y-89489711D01*
X146621786Y-89489707D01*
X146510292Y-89378213D01*
X146510288Y-89378210D01*
X146379185Y-89290609D01*
X146379172Y-89290602D01*
X146233501Y-89230264D01*
X146233489Y-89230261D01*
X146078845Y-89199500D01*
X146078842Y-89199500D01*
X145921158Y-89199500D01*
X145921155Y-89199500D01*
X145766510Y-89230261D01*
X145766498Y-89230264D01*
X145620827Y-89290602D01*
X145620814Y-89290609D01*
X145489711Y-89378210D01*
X145489707Y-89378213D01*
X145446259Y-89421662D01*
X145384936Y-89455147D01*
X145315244Y-89450163D01*
X145270897Y-89421662D01*
X143834574Y-87985339D01*
X143801089Y-87924016D01*
X143800638Y-87921849D01*
X143769738Y-87766510D01*
X143769737Y-87766503D01*
X143731647Y-87674545D01*
X143709397Y-87620827D01*
X143709390Y-87620814D01*
X143621789Y-87489711D01*
X143621786Y-87489707D01*
X143510292Y-87378213D01*
X143510288Y-87378210D01*
X143379185Y-87290609D01*
X143379172Y-87290602D01*
X143233501Y-87230264D01*
X143233489Y-87230261D01*
X143078845Y-87199500D01*
X143078842Y-87199500D01*
X142921158Y-87199500D01*
X142921155Y-87199500D01*
X142766510Y-87230261D01*
X142766498Y-87230264D01*
X142620827Y-87290602D01*
X142620814Y-87290609D01*
X142489711Y-87378210D01*
X142489707Y-87378213D01*
X142378213Y-87489707D01*
X142378210Y-87489711D01*
X142290609Y-87620814D01*
X142290602Y-87620827D01*
X142230264Y-87766498D01*
X142230261Y-87766510D01*
X142199500Y-87921153D01*
X136681348Y-87921153D01*
X136709394Y-87879179D01*
X136769737Y-87733497D01*
X136800500Y-87578842D01*
X136800500Y-87421158D01*
X136800500Y-87421155D01*
X136800499Y-87421153D01*
X136791957Y-87378210D01*
X136769737Y-87266503D01*
X136769735Y-87266498D01*
X136709397Y-87120827D01*
X136709390Y-87120814D01*
X136621789Y-86989711D01*
X136621786Y-86989707D01*
X136510292Y-86878213D01*
X136510288Y-86878210D01*
X136379185Y-86790609D01*
X136379172Y-86790602D01*
X136233501Y-86730264D01*
X136233489Y-86730261D01*
X136078845Y-86699500D01*
X136078842Y-86699500D01*
X135921158Y-86699500D01*
X135921155Y-86699500D01*
X135766510Y-86730261D01*
X135766498Y-86730264D01*
X135620827Y-86790602D01*
X135620814Y-86790609D01*
X135489125Y-86878602D01*
X135422447Y-86899480D01*
X135420234Y-86899500D01*
X128586669Y-86899500D01*
X128586653Y-86899499D01*
X128579057Y-86899499D01*
X128420943Y-86899499D01*
X128313587Y-86928265D01*
X128268210Y-86940424D01*
X128268209Y-86940425D01*
X128218096Y-86969359D01*
X128218095Y-86969360D01*
X128182853Y-86989707D01*
X128131285Y-87019479D01*
X128131282Y-87019481D01*
X118985339Y-96165425D01*
X118924016Y-96198910D01*
X118921850Y-96199361D01*
X118766508Y-96230261D01*
X118766498Y-96230264D01*
X118620827Y-96290602D01*
X118620814Y-96290609D01*
X118489711Y-96378210D01*
X118489707Y-96378213D01*
X118378213Y-96489707D01*
X118378210Y-96489711D01*
X118290609Y-96620814D01*
X118290602Y-96620827D01*
X118230264Y-96766498D01*
X118230261Y-96766510D01*
X118199500Y-96921153D01*
X95500500Y-96921153D01*
X95500500Y-95393713D01*
X101289500Y-95393713D01*
X101289500Y-95606286D01*
X101322753Y-95816239D01*
X101388444Y-96018414D01*
X101484951Y-96207820D01*
X101609890Y-96379786D01*
X101760213Y-96530109D01*
X101932179Y-96655048D01*
X101932181Y-96655049D01*
X101932184Y-96655051D01*
X102121588Y-96751557D01*
X102323757Y-96817246D01*
X102533713Y-96850500D01*
X102533714Y-96850500D01*
X102746286Y-96850500D01*
X102746287Y-96850500D01*
X102956243Y-96817246D01*
X103158412Y-96751557D01*
X103347816Y-96655051D01*
X103432628Y-96593432D01*
X103519786Y-96530109D01*
X103519788Y-96530106D01*
X103519792Y-96530104D01*
X103670104Y-96379792D01*
X103670106Y-96379788D01*
X103670109Y-96379786D01*
X103795048Y-96207820D01*
X103795047Y-96207820D01*
X103795051Y-96207816D01*
X103891557Y-96018412D01*
X103957246Y-95816243D01*
X103990500Y-95606287D01*
X103990500Y-95393713D01*
X103957246Y-95183757D01*
X103891557Y-94981588D01*
X103795051Y-94792184D01*
X103795049Y-94792181D01*
X103795048Y-94792179D01*
X103670109Y-94620213D01*
X103519786Y-94469890D01*
X103347820Y-94344951D01*
X103158414Y-94248444D01*
X103158413Y-94248443D01*
X103158412Y-94248443D01*
X102956243Y-94182754D01*
X102956241Y-94182753D01*
X102956240Y-94182753D01*
X102794957Y-94157208D01*
X102746287Y-94149500D01*
X102533713Y-94149500D01*
X102485042Y-94157208D01*
X102323760Y-94182753D01*
X102121585Y-94248444D01*
X101932179Y-94344951D01*
X101760213Y-94469890D01*
X101609890Y-94620213D01*
X101484951Y-94792179D01*
X101388444Y-94981585D01*
X101322753Y-95183760D01*
X101289500Y-95393713D01*
X95500500Y-95393713D01*
X95500500Y-89172378D01*
X111619500Y-89172378D01*
X111619500Y-89447621D01*
X111650315Y-89721108D01*
X111650317Y-89721124D01*
X111711561Y-89989453D01*
X111711565Y-89989465D01*
X111802467Y-90249246D01*
X111921884Y-90497218D01*
X111930097Y-90510289D01*
X112068319Y-90730268D01*
X112239925Y-90945455D01*
X112434545Y-91140075D01*
X112649732Y-91311681D01*
X112882779Y-91458114D01*
X113130757Y-91577534D01*
X113325865Y-91645805D01*
X113390534Y-91668434D01*
X113390546Y-91668438D01*
X113658879Y-91729683D01*
X113932378Y-91760499D01*
X113932379Y-91760500D01*
X113932383Y-91760500D01*
X114207621Y-91760500D01*
X114207621Y-91760499D01*
X114481121Y-91729683D01*
X114749454Y-91668438D01*
X115009243Y-91577534D01*
X115257221Y-91458114D01*
X115490268Y-91311681D01*
X115705455Y-91140075D01*
X115900075Y-90945455D01*
X116071681Y-90730268D01*
X116218114Y-90497221D01*
X116337534Y-90249243D01*
X116428438Y-89989454D01*
X116489683Y-89721121D01*
X116520500Y-89447617D01*
X116520500Y-89172383D01*
X116489683Y-88898879D01*
X116428438Y-88630546D01*
X116337534Y-88370757D01*
X116218114Y-88122779D01*
X116071681Y-87889732D01*
X115900075Y-87674545D01*
X115705455Y-87479925D01*
X115490268Y-87308319D01*
X115257221Y-87161886D01*
X115257218Y-87161884D01*
X115009246Y-87042467D01*
X114749465Y-86951565D01*
X114749453Y-86951561D01*
X114481124Y-86890317D01*
X114481108Y-86890315D01*
X114207621Y-86859500D01*
X114207617Y-86859500D01*
X113932383Y-86859500D01*
X113932379Y-86859500D01*
X113658891Y-86890315D01*
X113658875Y-86890317D01*
X113390546Y-86951561D01*
X113390534Y-86951565D01*
X113130753Y-87042467D01*
X112882781Y-87161884D01*
X112649733Y-87308318D01*
X112434545Y-87479924D01*
X112239924Y-87674545D01*
X112068318Y-87889733D01*
X111921884Y-88122781D01*
X111802467Y-88370753D01*
X111711565Y-88630534D01*
X111711561Y-88630546D01*
X111650317Y-88898875D01*
X111650315Y-88898891D01*
X111619500Y-89172378D01*
X95500500Y-89172378D01*
X95500500Y-80002706D01*
X95500618Y-79997297D01*
X95507857Y-79831491D01*
X96999500Y-79831491D01*
X96999500Y-80168508D01*
X97037231Y-80503381D01*
X97037233Y-80503397D01*
X97112223Y-80831953D01*
X97112227Y-80831965D01*
X97223532Y-81150054D01*
X97369752Y-81453683D01*
X97369754Y-81453686D01*
X97549054Y-81739039D01*
X97759175Y-82002523D01*
X97997477Y-82240825D01*
X98260961Y-82450946D01*
X98546314Y-82630246D01*
X98849949Y-82776469D01*
X99088848Y-82860063D01*
X99168034Y-82887772D01*
X99168046Y-82887776D01*
X99496606Y-82962767D01*
X99831492Y-83000499D01*
X99831493Y-83000500D01*
X99831496Y-83000500D01*
X100168507Y-83000500D01*
X100168507Y-83000499D01*
X100503394Y-82962767D01*
X100831954Y-82887776D01*
X101150051Y-82776469D01*
X101453686Y-82630246D01*
X101739039Y-82450946D01*
X102002523Y-82240825D01*
X102240825Y-82002523D01*
X102450946Y-81739039D01*
X102630246Y-81453686D01*
X102776469Y-81150051D01*
X102887776Y-80831954D01*
X102962767Y-80503394D01*
X103000500Y-80168504D01*
X103000500Y-79831496D01*
X103000499Y-79831491D01*
X176999500Y-79831491D01*
X176999500Y-80168508D01*
X177037231Y-80503381D01*
X177037233Y-80503397D01*
X177112223Y-80831953D01*
X177112227Y-80831965D01*
X177223532Y-81150054D01*
X177369752Y-81453683D01*
X177369754Y-81453686D01*
X177549054Y-81739039D01*
X177759175Y-82002523D01*
X177997477Y-82240825D01*
X178260961Y-82450946D01*
X178546314Y-82630246D01*
X178849949Y-82776469D01*
X179088848Y-82860063D01*
X179168034Y-82887772D01*
X179168046Y-82887776D01*
X179496606Y-82962767D01*
X179831492Y-83000499D01*
X179831493Y-83000500D01*
X179831496Y-83000500D01*
X180168507Y-83000500D01*
X180168507Y-83000499D01*
X180503394Y-82962767D01*
X180831954Y-82887776D01*
X181150051Y-82776469D01*
X181453686Y-82630246D01*
X181739039Y-82450946D01*
X182002523Y-82240825D01*
X182240825Y-82002523D01*
X182450946Y-81739039D01*
X182630246Y-81453686D01*
X182776469Y-81150051D01*
X182887776Y-80831954D01*
X182962767Y-80503394D01*
X183000500Y-80168504D01*
X183000500Y-79831496D01*
X182962767Y-79496606D01*
X182887776Y-79168046D01*
X182776469Y-78849949D01*
X182630246Y-78546314D01*
X182450946Y-78260961D01*
X182240825Y-77997477D01*
X182002523Y-77759175D01*
X181991331Y-77750250D01*
X181780520Y-77582134D01*
X181739039Y-77549054D01*
X181453686Y-77369754D01*
X181453683Y-77369752D01*
X181150054Y-77223532D01*
X180831965Y-77112227D01*
X180831953Y-77112223D01*
X180503397Y-77037233D01*
X180503381Y-77037231D01*
X180168508Y-76999500D01*
X180168504Y-76999500D01*
X179831496Y-76999500D01*
X179831491Y-76999500D01*
X179496618Y-77037231D01*
X179496602Y-77037233D01*
X179168046Y-77112223D01*
X179168034Y-77112227D01*
X178849945Y-77223532D01*
X178546316Y-77369752D01*
X178260962Y-77549053D01*
X177997477Y-77759174D01*
X177759174Y-77997477D01*
X177549053Y-78260962D01*
X177369752Y-78546316D01*
X177223532Y-78849945D01*
X177112227Y-79168034D01*
X177112223Y-79168046D01*
X177037233Y-79496602D01*
X177037231Y-79496618D01*
X176999500Y-79831491D01*
X103000499Y-79831491D01*
X102962767Y-79496606D01*
X102887776Y-79168046D01*
X102776469Y-78849949D01*
X102630246Y-78546314D01*
X102450946Y-78260961D01*
X102240825Y-77997477D01*
X102002523Y-77759175D01*
X101991331Y-77750250D01*
X101780520Y-77582134D01*
X101739039Y-77549054D01*
X101453686Y-77369754D01*
X101453683Y-77369752D01*
X101150054Y-77223532D01*
X100831965Y-77112227D01*
X100831953Y-77112223D01*
X100503397Y-77037233D01*
X100503381Y-77037231D01*
X100168508Y-76999500D01*
X100168504Y-76999500D01*
X99831496Y-76999500D01*
X99831491Y-76999500D01*
X99496618Y-77037231D01*
X99496602Y-77037233D01*
X99168046Y-77112223D01*
X99168034Y-77112227D01*
X98849945Y-77223532D01*
X98546316Y-77369752D01*
X98260962Y-77549053D01*
X97997477Y-77759174D01*
X97759174Y-77997477D01*
X97549053Y-78260962D01*
X97369752Y-78546316D01*
X97223532Y-78849945D01*
X97112227Y-79168034D01*
X97112223Y-79168046D01*
X97037233Y-79496602D01*
X97037231Y-79496618D01*
X96999500Y-79831491D01*
X95507857Y-79831491D01*
X95508245Y-79822608D01*
X95508245Y-79822607D01*
X95510433Y-79772498D01*
X95517386Y-79613228D01*
X95518326Y-79602495D01*
X95568152Y-79224025D01*
X95570025Y-79213405D01*
X95652649Y-78840709D01*
X95655440Y-78830295D01*
X95770230Y-78466227D01*
X95773917Y-78456095D01*
X95920003Y-78103412D01*
X95924561Y-78093638D01*
X96100822Y-77755045D01*
X96106217Y-77745700D01*
X96311325Y-77423744D01*
X96317515Y-77414905D01*
X96549896Y-77112060D01*
X96556834Y-77103791D01*
X96814726Y-76822352D01*
X96822352Y-76814726D01*
X97103791Y-76556834D01*
X97112060Y-76549896D01*
X97414905Y-76317515D01*
X97423744Y-76311325D01*
X97745700Y-76106217D01*
X97755045Y-76100822D01*
X98093638Y-75924561D01*
X98103412Y-75920003D01*
X98456095Y-75773917D01*
X98466227Y-75770230D01*
X98830295Y-75655440D01*
X98840709Y-75652649D01*
X99213405Y-75570025D01*
X99224025Y-75568152D01*
X99602495Y-75518326D01*
X99613226Y-75517386D01*
X99997297Y-75500617D01*
X100002706Y-75500500D01*
X100065892Y-75500500D01*
X179934108Y-75500500D01*
X179997294Y-75500500D01*
X180002702Y-75500617D01*
G37*
%TD.AperFunction*%
%TD*%
M02*
