%TF.GenerationSoftware,KiCad,Pcbnew,9.0.6*%
%TF.CreationDate,2026-02-22T18:14:21-08:00*%
%TF.ProjectId,display,64697370-6c61-4792-9e6b-696361645f70,rev?*%
%TF.SameCoordinates,Original*%
%TF.FileFunction,Copper,L1,Top*%
%TF.FilePolarity,Positive*%
%FSLAX46Y46*%
G04 Gerber Fmt 4.6, Leading zero omitted, Abs format (unit mm)*
G04 Created by KiCad (PCBNEW 9.0.6) date 2026-02-22 18:14:21*
%MOMM*%
%LPD*%
G01*
G04 APERTURE LIST*
G04 Aperture macros list*
%AMRoundRect*
0 Rectangle with rounded corners*
0 $1 Rounding radius*
0 $2 $3 $4 $5 $6 $7 $8 $9 X,Y pos of 4 corners*
0 Add a 4 corners polygon primitive as box body*
4,1,4,$2,$3,$4,$5,$6,$7,$8,$9,$2,$3,0*
0 Add four circle primitives for the rounded corners*
1,1,$1+$1,$2,$3*
1,1,$1+$1,$4,$5*
1,1,$1+$1,$6,$7*
1,1,$1+$1,$8,$9*
0 Add four rect primitives between the rounded corners*
20,1,$1+$1,$2,$3,$4,$5,0*
20,1,$1+$1,$4,$5,$6,$7,0*
20,1,$1+$1,$6,$7,$8,$9,0*
20,1,$1+$1,$8,$9,$2,$3,0*%
G04 Aperture macros list end*
%TA.AperFunction,ComponentPad*%
%ADD10O,1.750000X1.200000*%
%TD*%
%TA.AperFunction,ComponentPad*%
%ADD11RoundRect,0.250000X-0.625000X0.350000X-0.625000X-0.350000X0.625000X-0.350000X0.625000X0.350000X0*%
%TD*%
%TA.AperFunction,ComponentPad*%
%ADD12O,1.778000X3.556000*%
%TD*%
%TA.AperFunction,ComponentPad*%
%ADD13C,1.905000*%
%TD*%
%TA.AperFunction,SMDPad,CuDef*%
%ADD14R,1.168400X0.304800*%
%TD*%
%TA.AperFunction,SMDPad,CuDef*%
%ADD15RoundRect,0.250000X0.450000X-0.350000X0.450000X0.350000X-0.450000X0.350000X-0.450000X-0.350000X0*%
%TD*%
%TA.AperFunction,SMDPad,CuDef*%
%ADD16RoundRect,0.250000X-0.450000X0.350000X-0.450000X-0.350000X0.450000X-0.350000X0.450000X0.350000X0*%
%TD*%
%TA.AperFunction,SMDPad,CuDef*%
%ADD17RoundRect,0.250000X-0.350000X-0.450000X0.350000X-0.450000X0.350000X0.450000X-0.350000X0.450000X0*%
%TD*%
%TA.AperFunction,SMDPad,CuDef*%
%ADD18RoundRect,0.250000X0.350000X0.450000X-0.350000X0.450000X-0.350000X-0.450000X0.350000X-0.450000X0*%
%TD*%
%TA.AperFunction,ComponentPad*%
%ADD19RoundRect,0.250000X0.625000X-0.350000X0.625000X0.350000X-0.625000X0.350000X-0.625000X-0.350000X0*%
%TD*%
%TA.AperFunction,SMDPad,CuDef*%
%ADD20RoundRect,0.250000X-0.337500X-0.475000X0.337500X-0.475000X0.337500X0.475000X-0.337500X0.475000X0*%
%TD*%
%TA.AperFunction,SMDPad,CuDef*%
%ADD21RoundRect,0.250000X0.337500X0.475000X-0.337500X0.475000X-0.337500X-0.475000X0.337500X-0.475000X0*%
%TD*%
%TA.AperFunction,ComponentPad*%
%ADD22C,1.700000*%
%TD*%
%TA.AperFunction,ViaPad*%
%ADD23C,0.600000*%
%TD*%
%TA.AperFunction,Conductor*%
%ADD24C,0.200000*%
%TD*%
G04 APERTURE END LIST*
D10*
%TO.P,J2,2,Pin_2*%
%TO.N,GND*%
X178000000Y-118500000D03*
D11*
%TO.P,J2,1,Pin_1*%
%TO.N,/RESET_BTN*%
X178000000Y-116500000D03*
%TD*%
D12*
%TO.P,U2,1,GPIO1_A0_D0*%
%TO.N,unconnected-(U2-GPIO1_A0_D0-Pad1)*%
X177620000Y-86618000D03*
%TO.P,U2,2,GPIO2_A1_D1*%
%TO.N,/MOTOR_A1*%
X175080000Y-86618000D03*
%TO.P,U2,3,GPIO3_A2_D2*%
%TO.N,/MOTOR_A2*%
X172540000Y-86618000D03*
%TO.P,U2,4,GPIO4_A3_D3*%
%TO.N,/MOTOR_B1*%
X170000000Y-86618000D03*
%TO.P,U2,5,GPIO5_A4_D4_SDA*%
%TO.N,Net-(U2-GPIO5_A4_D4_SDA)*%
X167460000Y-86618000D03*
%TO.P,U2,6,GPIO6_A5_D5_SCL*%
%TO.N,unconnected-(U2-GPIO6_A5_D5_SCL-Pad6)*%
X164920000Y-86618000D03*
%TO.P,U2,7,GPIO43_TX_D6*%
%TO.N,unconnected-(U2-GPIO43_TX_D6-Pad7)*%
X162380000Y-86618000D03*
%TO.P,U2,8,GPIO44_D7_RX*%
%TO.N,unconnected-(U2-GPIO44_D7_RX-Pad8)*%
X162380000Y-103382000D03*
%TO.P,U2,9,GPIO7_A8_D8_SCK*%
%TO.N,unconnected-(U2-GPIO7_A8_D8_SCK-Pad9)*%
X164920000Y-103382000D03*
%TO.P,U2,10,GPIO8_A9_D9_CIPO*%
%TO.N,/RESET_BTN*%
X167460000Y-103382000D03*
%TO.P,U2,11,GPIO9_A10_D10_COPI*%
%TO.N,/MOTOR_B2*%
X170000000Y-103382000D03*
%TO.P,U2,12,3V3*%
%TO.N,+3.3V*%
X172540000Y-103382000D03*
%TO.P,U2,13,GND*%
%TO.N,GND*%
X175080000Y-103382000D03*
%TO.P,U2,14,5V*%
%TO.N,+5V*%
X177620000Y-103382000D03*
D13*
%TO.P,U2,15,+BATT*%
%TO.N,unconnected-(U2-+BATT-Pad15)*%
X152220000Y-92460000D03*
%TO.P,U2,16,-BATT*%
%TO.N,unconnected-(U2--BATT-Pad16)*%
X152220000Y-97540000D03*
%TD*%
D14*
%TO.P,U1,1,NSLEEP*%
%TO.N,+3.3V*%
X138629800Y-86725001D03*
%TO.P,U1,2,AOUT1*%
%TO.N,Net-(U1-AOUT1)*%
X138629800Y-87374999D03*
%TO.P,U1,3,AISEN*%
%TO.N,Net-(U1-AISEN)*%
X138629800Y-88025001D03*
%TO.P,U1,4,AOUT2*%
%TO.N,Net-(U1-AOUT2)*%
X138629800Y-88674999D03*
%TO.P,U1,5,BOUT2*%
%TO.N,Net-(M1--)*%
X138629800Y-89324998D03*
%TO.P,U1,6,BISEN*%
%TO.N,Net-(U1-BISEN)*%
X138629800Y-89974999D03*
%TO.P,U1,7,BOUT1*%
%TO.N,Net-(U1-BOUT1)*%
X138629800Y-90624998D03*
%TO.P,U1,8,NFAULT*%
%TO.N,unconnected-(U1-NFAULT-Pad8)*%
X138629800Y-91274999D03*
%TO.P,U1,9,BIN1*%
%TO.N,/MOTOR_B2*%
X144370200Y-91274999D03*
%TO.P,U1,10,BIN2*%
%TO.N,/MOTOR_B1*%
X144370200Y-90625001D03*
%TO.P,U1,11,VCP*%
%TO.N,Net-(U1-VCP)*%
X144370200Y-89974999D03*
%TO.P,U1,12,VM*%
%TO.N,+5V*%
X144370200Y-89325001D03*
%TO.P,U1,13,GND*%
%TO.N,GND*%
X144370200Y-88675002D03*
%TO.P,U1,14,VINT*%
%TO.N,Net-(U1-VINT)*%
X144370200Y-88025001D03*
%TO.P,U1,15,AIN2*%
%TO.N,/MOTOR_A2*%
X144370200Y-87375002D03*
%TO.P,U1,16,AIN1*%
%TO.N,/MOTOR_A1*%
X144370200Y-86725001D03*
%TD*%
D15*
%TO.P,R4,1*%
%TO.N,/RESET_BTN*%
X164500000Y-112000000D03*
%TO.P,R4,2*%
%TO.N,+3.3V*%
X164500000Y-110000000D03*
%TD*%
D16*
%TO.P,R3,1*%
%TO.N,Net-(U2-GPIO5_A4_D4_SDA)*%
X158000000Y-110000000D03*
%TO.P,R3,2*%
%TO.N,/NEO_DATA*%
X158000000Y-112000000D03*
%TD*%
D17*
%TO.P,R2,1*%
%TO.N,GND*%
X132000000Y-110962500D03*
%TO.P,R2,2*%
%TO.N,Net-(U1-BISEN)*%
X134000000Y-110962500D03*
%TD*%
D18*
%TO.P,R1,1*%
%TO.N,Net-(U1-AISEN)*%
X134000000Y-104000000D03*
%TO.P,R1,2*%
%TO.N,GND*%
X132000000Y-104000000D03*
%TD*%
D19*
%TO.P,J1,1,Pin_1*%
%TO.N,+5V*%
X160450000Y-127500000D03*
D10*
%TO.P,J1,2,Pin_2*%
%TO.N,GND*%
X160450000Y-125500000D03*
%TO.P,J1,3,Pin_3*%
%TO.N,/NEO_DATA*%
X160450000Y-123500000D03*
%TD*%
D20*
%TO.P,C4,1*%
%TO.N,+5V*%
X147387500Y-104037500D03*
%TO.P,C4,2*%
%TO.N,GND*%
X149462500Y-104037500D03*
%TD*%
D21*
%TO.P,C3,1*%
%TO.N,GND*%
X149500000Y-111000000D03*
%TO.P,C3,2*%
%TO.N,Net-(U1-VINT)*%
X147425000Y-111000000D03*
%TD*%
D20*
%TO.P,C2,1*%
%TO.N,+5V*%
X139425000Y-104037500D03*
%TO.P,C2,2*%
%TO.N,Net-(U1-VCP)*%
X141500000Y-104037500D03*
%TD*%
%TO.P,C1,1*%
%TO.N,+5V*%
X139462500Y-111037500D03*
%TO.P,C1,2*%
%TO.N,GND*%
X141537500Y-111037500D03*
%TD*%
D22*
%TO.P,M1,4*%
%TO.N,Net-(U1-AOUT1)*%
X102640000Y-103120000D03*
%TO.P,M1,3*%
%TO.N,Net-(U1-AOUT2)*%
X102640000Y-95500000D03*
%TO.P,M1,2,-*%
%TO.N,Net-(M1--)*%
X125500000Y-103120000D03*
%TO.P,M1,1*%
%TO.N,Net-(U1-BOUT1)*%
X125500000Y-95500000D03*
%TD*%
D23*
%TO.N,Net-(U1-AOUT1)*%
X136000000Y-87500000D03*
X119000000Y-97000000D03*
%TO.N,Net-(M1--)*%
X137500000Y-90000000D03*
X137000000Y-92500000D03*
%TO.N,GND*%
X143500000Y-113000000D03*
X138500000Y-113000000D03*
%TO.N,Net-(U2-GPIO5_A4_D4_SDA)*%
X157000000Y-108000000D03*
%TO.N,/MOTOR_B1*%
X169500000Y-89500000D03*
%TO.N,+5V*%
X146000000Y-90000000D03*
X146000000Y-98000000D03*
X146000000Y-98000000D03*
%TO.N,GND*%
X146000000Y-89000000D03*
X147000000Y-96500000D03*
%TO.N,Net-(U1-VINT)*%
X143000000Y-88000000D03*
X145000000Y-104500000D03*
%TO.N,Net-(U1-VCP)*%
X143174265Y-89825735D03*
X143500000Y-104000000D03*
%TD*%
D24*
%TO.N,Net-(U1-AOUT1)*%
X136000000Y-87500000D02*
X136500000Y-87500000D01*
X136500000Y-87500000D02*
X136625001Y-87374999D01*
X136625001Y-87374999D02*
X138629800Y-87374999D01*
X108760000Y-97000000D02*
X119000000Y-97000000D01*
X102640000Y-103120000D02*
X108760000Y-97000000D01*
%TO.N,Net-(M1--)*%
X137500000Y-90000000D02*
X137500000Y-89766199D01*
X137500000Y-89766199D02*
X137941201Y-89324998D01*
X137941201Y-89324998D02*
X138629800Y-89324998D01*
X126380000Y-103120000D02*
X137000000Y-92500000D01*
X125500000Y-103120000D02*
X126380000Y-103120000D01*
%TO.N,Net-(U1-BOUT1)*%
X125500000Y-95500000D02*
X132970598Y-95500000D01*
X132970598Y-95500000D02*
X137845600Y-90624998D01*
X137845600Y-90624998D02*
X138629800Y-90624998D01*
%TO.N,Net-(U1-AOUT2)*%
X102640000Y-95500000D02*
X103791000Y-94349000D01*
X103791000Y-94349000D02*
X132171599Y-94349000D01*
X132171599Y-94349000D02*
X137845600Y-88674999D01*
X137845600Y-88674999D02*
X138629800Y-88674999D01*
%TO.N,GND*%
X143500000Y-113000000D02*
X142526000Y-112026000D01*
X133337500Y-113000000D02*
X138500000Y-113000000D01*
X132000000Y-111662500D02*
X133337500Y-113000000D01*
X132000000Y-110962500D02*
X132000000Y-111662500D01*
X149500000Y-111000000D02*
X148474000Y-112026000D01*
X148474000Y-112026000D02*
X142526000Y-112026000D01*
X142526000Y-112026000D02*
X141537500Y-111037500D01*
%TO.N,Net-(U2-GPIO5_A4_D4_SDA)*%
X157000000Y-108000000D02*
X158000000Y-109000000D01*
X158000000Y-109000000D02*
X158000000Y-110000000D01*
%TO.N,/MOTOR_B1*%
X168374999Y-90625001D02*
X169500000Y-89500000D01*
X144370200Y-90625001D02*
X168374999Y-90625001D01*
%TO.N,+5V*%
X146361500Y-98361500D02*
X146000000Y-98000000D01*
X146361500Y-103011500D02*
X146361500Y-98361500D01*
%TO.N,GND*%
X146000000Y-89000000D02*
X145675002Y-88675002D01*
X145675002Y-88675002D02*
X144370200Y-88675002D01*
X149462500Y-98962500D02*
X147000000Y-96500000D01*
X149462500Y-104037500D02*
X149462500Y-98962500D01*
%TO.N,Net-(U1-VINT)*%
X143000000Y-88000000D02*
X144345199Y-88000000D01*
X144345199Y-88000000D02*
X144370200Y-88025001D01*
X147425000Y-106925000D02*
X145000000Y-104500000D01*
X147425000Y-111000000D02*
X147425000Y-106925000D01*
%TO.N,Net-(U1-VCP)*%
X143174265Y-89825735D02*
X144220936Y-89825735D01*
X144220936Y-89825735D02*
X144370200Y-89974999D01*
X143462500Y-104037500D02*
X143500000Y-104000000D01*
X141500000Y-104037500D02*
X143462500Y-104037500D01*
%TO.N,Net-(U1-BISEN)*%
X134000000Y-110962500D02*
X137231250Y-107731250D01*
%TO.N,+5V*%
X139462500Y-111037500D02*
X139462500Y-104075000D01*
X139462500Y-104075000D02*
X139425000Y-104037500D01*
%TO.N,Net-(U1-BISEN)*%
X134000000Y-110962500D02*
X135481250Y-109481250D01*
%TO.N,Net-(U1-AISEN)*%
X134000000Y-104000000D02*
X133099000Y-104901000D01*
X133099000Y-111647660D02*
X133414840Y-111963500D01*
X139916000Y-91894499D02*
X139916000Y-88527001D01*
X139414000Y-88025001D02*
X138629800Y-88025001D01*
X133099000Y-104901000D02*
X133099000Y-111647660D01*
X133414840Y-111963500D02*
X134585160Y-111963500D01*
X134585160Y-111963500D02*
X138145600Y-108403060D01*
X138145600Y-108403060D02*
X138145600Y-93664899D01*
X138145600Y-93664899D02*
X139916000Y-91894499D01*
X139916000Y-88527001D02*
X139414000Y-88025001D01*
%TO.N,Net-(U1-BISEN)*%
X134000000Y-110962500D02*
X137744600Y-107217900D01*
X139515000Y-91728399D02*
X139515000Y-90075999D01*
X137744600Y-107217900D02*
X137744600Y-93498799D01*
X137744600Y-93498799D02*
X139515000Y-91728399D01*
X139515000Y-90075999D02*
X139414000Y-89974999D01*
X139414000Y-89974999D02*
X138629800Y-89974999D01*
%TO.N,GND*%
X132000000Y-104000000D02*
X132000000Y-110962500D01*
%TO.N,+5V*%
X147387500Y-104037500D02*
X146361500Y-103011500D01*
X146361500Y-103011500D02*
X140451000Y-103011500D01*
X140451000Y-103011500D02*
X139425000Y-104037500D01*
%TO.N,GND*%
X149462500Y-104037500D02*
X149462500Y-110962500D01*
X149462500Y-110962500D02*
X149500000Y-111000000D01*
%TO.N,+5V*%
X139462500Y-111037500D02*
X155925000Y-127500000D01*
X155925000Y-127500000D02*
X160450000Y-127500000D01*
%TO.N,GND*%
X149500000Y-111000000D02*
X149500000Y-114550000D01*
X149500000Y-114550000D02*
X160450000Y-125500000D01*
%TO.N,/NEO_DATA*%
X158000000Y-112000000D02*
X158000000Y-112500000D01*
X158000000Y-112500000D02*
X160450000Y-114950000D01*
X160450000Y-114950000D02*
X160450000Y-123500000D01*
%TO.N,GND*%
X178000000Y-118500000D02*
X177000000Y-118500000D01*
X177000000Y-118500000D02*
X170000000Y-125500000D01*
X170000000Y-125500000D02*
X160450000Y-125500000D01*
%TO.N,+5V*%
X177620000Y-102620000D02*
X179577000Y-104577000D01*
X179577000Y-104577000D02*
X179577000Y-118923000D01*
X179577000Y-118923000D02*
X171000000Y-127500000D01*
X171000000Y-127500000D02*
X160450000Y-127500000D01*
%TO.N,GND*%
X175080000Y-102620000D02*
X175080000Y-111818840D01*
X175080000Y-111818840D02*
X179176000Y-115914840D01*
X179176000Y-115914840D02*
X179176000Y-117324000D01*
X179176000Y-117324000D02*
X178000000Y-118500000D01*
%TO.N,/RESET_BTN*%
X178000000Y-116500000D02*
X170993914Y-116500000D01*
X170993914Y-116500000D02*
X166493914Y-112000000D01*
%TO.N,/MOTOR_B2*%
X170000000Y-102620000D02*
X170000000Y-103413914D01*
X158203801Y-105461000D02*
X144370200Y-91627399D01*
X144370200Y-91627399D02*
X144370200Y-91274999D01*
X170000000Y-103413914D02*
X167952914Y-105461000D01*
X167952914Y-105461000D02*
X158203801Y-105461000D01*
%TO.N,/RESET_BTN*%
X167460000Y-102620000D02*
X168777000Y-101303000D01*
X173032914Y-101303000D02*
X173730000Y-102000086D01*
X173730000Y-102000086D02*
X173730000Y-104763914D01*
X168777000Y-101303000D02*
X173032914Y-101303000D01*
X173730000Y-104763914D02*
X166493914Y-112000000D01*
X166493914Y-112000000D02*
X164500000Y-112000000D01*
%TO.N,+3.3V*%
X172540000Y-102620000D02*
X172540000Y-103413914D01*
X172540000Y-103413914D02*
X165953914Y-110000000D01*
X165953914Y-110000000D02*
X164500000Y-110000000D01*
X138629800Y-86725001D02*
X139225001Y-86725001D01*
X139225001Y-86725001D02*
X143485000Y-90985000D01*
X143485000Y-90985000D02*
X143485000Y-91728399D01*
X143485000Y-91728399D02*
X161756601Y-110000000D01*
X161756601Y-110000000D02*
X164500000Y-110000000D01*
%TO.N,/MOTOR_A1*%
X144370200Y-86725001D02*
X146556201Y-84539000D01*
X146556201Y-84539000D02*
X173032914Y-84539000D01*
X173032914Y-84539000D02*
X175080000Y-86586086D01*
X175080000Y-86586086D02*
X175080000Y-87380000D01*
%TO.N,/MOTOR_A2*%
X144370200Y-87375002D02*
X159051084Y-87375002D01*
X160373082Y-88697000D02*
X171223000Y-88697000D01*
X171223000Y-88697000D02*
X172540000Y-87380000D01*
X159051084Y-87375002D02*
X160373082Y-88697000D01*
%TD*%
%TA.AperFunction,Conductor*%
%TO.N,GND*%
G36*
X140721703Y-89071384D02*
G01*
X140728181Y-89077416D01*
X142848181Y-91197416D01*
X142881666Y-91258739D01*
X142884500Y-91285097D01*
X142884500Y-91641729D01*
X142884499Y-91641747D01*
X142884499Y-91807453D01*
X142884498Y-91807453D01*
X142915055Y-91921490D01*
X142925423Y-91960184D01*
X142938190Y-91982296D01*
X142966109Y-92030653D01*
X143004479Y-92097114D01*
X143123349Y-92215984D01*
X143123355Y-92215989D01*
X161271740Y-110364374D01*
X161271750Y-110364385D01*
X161276080Y-110368715D01*
X161276081Y-110368716D01*
X161387885Y-110480520D01*
X161387887Y-110480521D01*
X161443263Y-110512492D01*
X161443264Y-110512492D01*
X161463651Y-110524263D01*
X161524810Y-110559574D01*
X161524811Y-110559575D01*
X161524813Y-110559575D01*
X161524816Y-110559577D01*
X161677544Y-110600501D01*
X161677547Y-110600501D01*
X161843254Y-110600501D01*
X161843270Y-110600500D01*
X163254092Y-110600500D01*
X163321131Y-110620185D01*
X163359636Y-110664271D01*
X163361395Y-110663187D01*
X163365185Y-110669331D01*
X163365186Y-110669334D01*
X163391811Y-110712500D01*
X163457289Y-110818657D01*
X163550951Y-110912319D01*
X163584436Y-110973642D01*
X163579452Y-111043334D01*
X163550951Y-111087681D01*
X163457289Y-111181342D01*
X163365187Y-111330663D01*
X163365185Y-111330668D01*
X163343316Y-111396666D01*
X163310001Y-111497203D01*
X163310001Y-111497204D01*
X163310000Y-111497204D01*
X163299500Y-111599983D01*
X163299500Y-112400001D01*
X163299501Y-112400019D01*
X163310000Y-112502796D01*
X163310001Y-112502799D01*
X163365185Y-112669331D01*
X163365187Y-112669336D01*
X163371142Y-112678991D01*
X163457288Y-112818656D01*
X163581344Y-112942712D01*
X163730666Y-113034814D01*
X163897203Y-113089999D01*
X163999991Y-113100500D01*
X165000008Y-113100499D01*
X165000016Y-113100498D01*
X165000019Y-113100498D01*
X165056302Y-113094748D01*
X165102797Y-113089999D01*
X165269334Y-113034814D01*
X165418656Y-112942712D01*
X165542712Y-112818656D01*
X165634814Y-112669334D01*
X165634815Y-112669331D01*
X165638605Y-112663187D01*
X165640399Y-112664293D01*
X165679687Y-112619663D01*
X165745908Y-112600500D01*
X166193817Y-112600500D01*
X166260856Y-112620185D01*
X166281498Y-112636819D01*
X170509053Y-116864374D01*
X170509063Y-116864385D01*
X170513393Y-116868715D01*
X170513394Y-116868716D01*
X170625198Y-116980520D01*
X170712009Y-117030639D01*
X170712011Y-117030641D01*
X170750065Y-117052611D01*
X170762129Y-117059577D01*
X170914857Y-117100501D01*
X170914860Y-117100501D01*
X171080567Y-117100501D01*
X171080583Y-117100500D01*
X176579092Y-117100500D01*
X176646131Y-117120185D01*
X176684636Y-117164271D01*
X176686395Y-117163187D01*
X176690185Y-117169332D01*
X176690186Y-117169334D01*
X176782288Y-117318656D01*
X176906344Y-117442712D01*
X176970981Y-117482580D01*
X177017705Y-117534526D01*
X177028928Y-117603489D01*
X177001085Y-117667571D01*
X176993566Y-117675799D01*
X176885964Y-117783401D01*
X176784195Y-117923475D01*
X176705591Y-118077744D01*
X176652085Y-118242415D01*
X176650884Y-118249999D01*
X176650885Y-118250000D01*
X177719670Y-118250000D01*
X177699925Y-118269745D01*
X177650556Y-118355255D01*
X177625000Y-118450630D01*
X177625000Y-118549370D01*
X177650556Y-118644745D01*
X177699925Y-118730255D01*
X177719670Y-118750000D01*
X176650885Y-118750000D01*
X176652085Y-118757584D01*
X176705591Y-118922255D01*
X176784195Y-119076524D01*
X176885967Y-119216602D01*
X177008397Y-119339032D01*
X177148475Y-119440804D01*
X177302742Y-119519408D01*
X177467415Y-119572914D01*
X177638429Y-119600000D01*
X177751402Y-119600000D01*
X177818441Y-119619685D01*
X177864196Y-119672489D01*
X177874140Y-119741647D01*
X177845115Y-119805203D01*
X177839083Y-119811681D01*
X170787584Y-126863181D01*
X170726261Y-126896666D01*
X170699903Y-126899500D01*
X161870908Y-126899500D01*
X161803869Y-126879815D01*
X161765363Y-126835728D01*
X161763605Y-126836813D01*
X161759814Y-126830666D01*
X161667712Y-126681344D01*
X161543656Y-126557288D01*
X161543655Y-126557287D01*
X161479019Y-126517420D01*
X161432294Y-126465472D01*
X161421071Y-126396510D01*
X161448914Y-126332428D01*
X161456434Y-126324199D01*
X161564035Y-126216598D01*
X161665804Y-126076524D01*
X161744408Y-125922255D01*
X161797914Y-125757584D01*
X161799115Y-125750000D01*
X160730330Y-125750000D01*
X160750075Y-125730255D01*
X160799444Y-125644745D01*
X160825000Y-125549370D01*
X160825000Y-125450630D01*
X160799444Y-125355255D01*
X160750075Y-125269745D01*
X160730330Y-125250000D01*
X161799115Y-125250000D01*
X161799115Y-125249999D01*
X161797914Y-125242415D01*
X161744408Y-125077744D01*
X161665804Y-124923475D01*
X161564032Y-124783397D01*
X161441602Y-124660967D01*
X161358551Y-124600628D01*
X161315885Y-124545298D01*
X161309906Y-124475685D01*
X161342511Y-124413889D01*
X161358551Y-124399991D01*
X161441928Y-124339414D01*
X161564414Y-124216928D01*
X161666232Y-124076788D01*
X161744873Y-123922445D01*
X161798402Y-123757701D01*
X161825500Y-123586611D01*
X161825500Y-123413389D01*
X161798402Y-123242299D01*
X161744873Y-123077555D01*
X161666232Y-122923212D01*
X161564414Y-122783072D01*
X161441928Y-122660586D01*
X161301788Y-122558768D01*
X161147445Y-122480127D01*
X161147444Y-122480126D01*
X161147445Y-122480126D01*
X161136177Y-122476465D01*
X161078503Y-122437025D01*
X161051308Y-122372666D01*
X161050500Y-122358536D01*
X161050500Y-114870945D01*
X161050500Y-114870943D01*
X161009577Y-114718216D01*
X161009577Y-114718215D01*
X161009577Y-114718214D01*
X160980639Y-114668095D01*
X160980637Y-114668092D01*
X160930520Y-114581284D01*
X160818716Y-114469480D01*
X160818715Y-114469479D01*
X160814385Y-114465149D01*
X160814374Y-114465139D01*
X159159241Y-112810006D01*
X159125756Y-112748683D01*
X159130740Y-112678991D01*
X159134542Y-112669917D01*
X159134809Y-112669341D01*
X159134814Y-112669334D01*
X159189999Y-112502797D01*
X159200500Y-112400009D01*
X159200499Y-111599992D01*
X159196666Y-111562473D01*
X159189999Y-111497203D01*
X159189998Y-111497200D01*
X159145588Y-111363181D01*
X159134814Y-111330666D01*
X159042712Y-111181344D01*
X158949049Y-111087681D01*
X158915564Y-111026358D01*
X158920548Y-110956666D01*
X158949049Y-110912319D01*
X159042712Y-110818656D01*
X159134814Y-110669334D01*
X159189999Y-110502797D01*
X159200500Y-110400009D01*
X159200499Y-109599992D01*
X159189999Y-109497203D01*
X159134814Y-109330666D01*
X159042712Y-109181344D01*
X158918656Y-109057288D01*
X158769334Y-108965186D01*
X158660523Y-108929129D01*
X158603080Y-108889357D01*
X158579754Y-108843518D01*
X158576713Y-108832169D01*
X158559577Y-108768216D01*
X158525618Y-108709397D01*
X158480524Y-108631290D01*
X158480518Y-108631282D01*
X157834573Y-107985337D01*
X157801088Y-107924014D01*
X157800637Y-107921847D01*
X157800499Y-107921153D01*
X157769737Y-107766503D01*
X157738868Y-107691978D01*
X157709397Y-107620827D01*
X157709390Y-107620814D01*
X157621789Y-107489711D01*
X157621786Y-107489707D01*
X157510292Y-107378213D01*
X157510288Y-107378210D01*
X157379185Y-107290609D01*
X157379172Y-107290602D01*
X157233501Y-107230264D01*
X157233489Y-107230261D01*
X157078845Y-107199500D01*
X157078842Y-107199500D01*
X156921158Y-107199500D01*
X156921155Y-107199500D01*
X156766510Y-107230261D01*
X156766498Y-107230264D01*
X156620827Y-107290602D01*
X156620814Y-107290609D01*
X156489711Y-107378210D01*
X156489707Y-107378213D01*
X156378213Y-107489707D01*
X156378210Y-107489711D01*
X156290609Y-107620814D01*
X156290602Y-107620827D01*
X156230264Y-107766498D01*
X156230261Y-107766510D01*
X156199500Y-107921153D01*
X156199500Y-108078846D01*
X156230261Y-108233489D01*
X156230264Y-108233501D01*
X156290602Y-108379172D01*
X156290609Y-108379185D01*
X156378210Y-108510288D01*
X156378213Y-108510292D01*
X156489707Y-108621786D01*
X156489711Y-108621789D01*
X156620814Y-108709390D01*
X156620827Y-108709397D01*
X156667000Y-108728522D01*
X156766503Y-108769737D01*
X156766507Y-108769737D01*
X156766508Y-108769738D01*
X156921849Y-108800638D01*
X156938603Y-108809402D01*
X156957083Y-108813422D01*
X156982126Y-108832169D01*
X156983759Y-108833023D01*
X156985329Y-108834564D01*
X157057018Y-108906254D01*
X157090502Y-108967574D01*
X157085518Y-109037266D01*
X157057018Y-109081614D01*
X156957287Y-109181345D01*
X156865187Y-109330663D01*
X156865185Y-109330668D01*
X156842377Y-109399500D01*
X156810001Y-109497203D01*
X156810001Y-109497204D01*
X156810000Y-109497204D01*
X156799500Y-109599983D01*
X156799500Y-110400001D01*
X156799501Y-110400019D01*
X156810000Y-110502796D01*
X156810001Y-110502799D01*
X156865185Y-110669331D01*
X156865187Y-110669336D01*
X156957289Y-110818657D01*
X157050951Y-110912319D01*
X157084436Y-110973642D01*
X157079452Y-111043334D01*
X157050951Y-111087681D01*
X156957289Y-111181342D01*
X156865187Y-111330663D01*
X156865185Y-111330668D01*
X156843316Y-111396666D01*
X156810001Y-111497203D01*
X156810001Y-111497204D01*
X156810000Y-111497204D01*
X156799500Y-111599983D01*
X156799500Y-112400001D01*
X156799501Y-112400019D01*
X156810000Y-112502796D01*
X156810001Y-112502799D01*
X156865185Y-112669331D01*
X156865187Y-112669336D01*
X156871142Y-112678991D01*
X156957288Y-112818656D01*
X157081344Y-112942712D01*
X157230666Y-113034814D01*
X157397203Y-113089999D01*
X157499991Y-113100500D01*
X157699901Y-113100499D01*
X157766941Y-113120183D01*
X157787583Y-113136818D01*
X159813181Y-115162416D01*
X159846666Y-115223739D01*
X159849500Y-115250097D01*
X159849500Y-122358536D01*
X159829815Y-122425575D01*
X159777011Y-122471330D01*
X159763823Y-122476465D01*
X159752555Y-122480126D01*
X159598211Y-122558768D01*
X159518256Y-122616859D01*
X159458072Y-122660586D01*
X159458070Y-122660588D01*
X159458069Y-122660588D01*
X159335588Y-122783069D01*
X159335588Y-122783070D01*
X159335586Y-122783072D01*
X159291859Y-122843256D01*
X159233768Y-122923211D01*
X159155128Y-123077552D01*
X159101597Y-123242302D01*
X159074500Y-123413389D01*
X159074500Y-123586611D01*
X159101598Y-123757701D01*
X159155127Y-123922445D01*
X159233768Y-124076788D01*
X159335586Y-124216928D01*
X159458072Y-124339414D01*
X159541449Y-124399991D01*
X159584114Y-124455322D01*
X159590093Y-124524935D01*
X159557487Y-124586730D01*
X159541448Y-124600627D01*
X159458404Y-124660961D01*
X159458399Y-124660965D01*
X159335967Y-124783397D01*
X159234195Y-124923475D01*
X159155591Y-125077744D01*
X159102085Y-125242415D01*
X159100884Y-125249999D01*
X159100885Y-125250000D01*
X160169670Y-125250000D01*
X160149925Y-125269745D01*
X160100556Y-125355255D01*
X160075000Y-125450630D01*
X160075000Y-125549370D01*
X160100556Y-125644745D01*
X160149925Y-125730255D01*
X160169670Y-125750000D01*
X159100885Y-125750000D01*
X159102085Y-125757584D01*
X159155591Y-125922255D01*
X159234195Y-126076524D01*
X159335967Y-126216602D01*
X159443565Y-126324200D01*
X159477050Y-126385523D01*
X159472066Y-126455215D01*
X159430194Y-126511148D01*
X159420981Y-126517420D01*
X159356342Y-126557289D01*
X159232289Y-126681342D01*
X159136395Y-126836813D01*
X159134600Y-126835706D01*
X159095313Y-126880337D01*
X159029092Y-126899500D01*
X156225098Y-126899500D01*
X156158059Y-126879815D01*
X156137417Y-126863181D01*
X148946725Y-119672489D01*
X141748414Y-112474179D01*
X141714930Y-112412857D01*
X141719914Y-112343165D01*
X141761786Y-112287232D01*
X141827250Y-112262815D01*
X141836096Y-112262499D01*
X141924972Y-112262499D01*
X141924986Y-112262498D01*
X142027697Y-112252005D01*
X142194119Y-112196858D01*
X142194124Y-112196856D01*
X142343345Y-112104815D01*
X142467315Y-111980845D01*
X142559356Y-111831624D01*
X142559358Y-111831619D01*
X142614505Y-111665197D01*
X142614506Y-111665190D01*
X142624999Y-111562486D01*
X142625000Y-111562473D01*
X142625000Y-111287500D01*
X141661500Y-111287500D01*
X141594461Y-111267815D01*
X141548706Y-111215011D01*
X141537500Y-111163500D01*
X141537500Y-111037500D01*
X141411500Y-111037500D01*
X141344461Y-111017815D01*
X141298706Y-110965011D01*
X141287500Y-110913500D01*
X141287500Y-110787500D01*
X141787500Y-110787500D01*
X142624999Y-110787500D01*
X142624999Y-110512528D01*
X142624998Y-110512513D01*
X142614505Y-110409802D01*
X142559358Y-110243380D01*
X142559356Y-110243375D01*
X142467315Y-110094154D01*
X142343345Y-109970184D01*
X142194124Y-109878143D01*
X142194119Y-109878141D01*
X142027697Y-109822994D01*
X142027690Y-109822993D01*
X141924986Y-109812500D01*
X141787500Y-109812500D01*
X141787500Y-110787500D01*
X141287500Y-110787500D01*
X141287500Y-109812500D01*
X141150027Y-109812500D01*
X141150012Y-109812501D01*
X141047302Y-109822994D01*
X140880880Y-109878141D01*
X140880875Y-109878143D01*
X140731654Y-109970184D01*
X140607683Y-110094155D01*
X140607679Y-110094160D01*
X140605826Y-110097165D01*
X140604018Y-110098790D01*
X140603202Y-110099823D01*
X140603025Y-110099683D01*
X140553874Y-110143885D01*
X140484911Y-110155101D01*
X140420831Y-110127252D01*
X140394753Y-110097153D01*
X140394737Y-110097128D01*
X140392712Y-110093844D01*
X140268656Y-109969788D01*
X140121902Y-109879270D01*
X140075179Y-109827323D01*
X140063000Y-109773732D01*
X140063000Y-105278138D01*
X140082685Y-105211099D01*
X140121901Y-105172600D01*
X140231156Y-105105212D01*
X140355212Y-104981156D01*
X140356961Y-104978319D01*
X140358669Y-104976783D01*
X140359693Y-104975489D01*
X140359914Y-104975663D01*
X140408906Y-104931596D01*
X140477868Y-104920372D01*
X140541951Y-104948213D01*
X140568037Y-104978317D01*
X140569788Y-104981156D01*
X140693844Y-105105212D01*
X140843166Y-105197314D01*
X141009703Y-105252499D01*
X141112491Y-105263000D01*
X141887508Y-105262999D01*
X141887516Y-105262998D01*
X141887519Y-105262998D01*
X141943802Y-105257248D01*
X141990297Y-105252499D01*
X142156834Y-105197314D01*
X142306156Y-105105212D01*
X142430212Y-104981156D01*
X142522314Y-104831834D01*
X142558379Y-104722994D01*
X142598152Y-104665551D01*
X142662667Y-104638728D01*
X142676085Y-104638000D01*
X142976357Y-104638000D01*
X143043396Y-104657685D01*
X143045247Y-104658898D01*
X143120819Y-104709393D01*
X143120822Y-104709395D01*
X143262367Y-104768024D01*
X143266503Y-104769737D01*
X143421153Y-104800499D01*
X143421156Y-104800500D01*
X143421158Y-104800500D01*
X143578844Y-104800500D01*
X143578845Y-104800499D01*
X143733497Y-104769737D01*
X143879179Y-104709394D01*
X144010289Y-104621789D01*
X144011186Y-104620891D01*
X144011773Y-104620571D01*
X144014999Y-104617924D01*
X144015500Y-104618535D01*
X144072504Y-104587402D01*
X144142196Y-104592380D01*
X144198134Y-104634246D01*
X144220491Y-104684374D01*
X144230261Y-104733491D01*
X144230264Y-104733501D01*
X144290602Y-104879172D01*
X144290609Y-104879185D01*
X144378210Y-105010288D01*
X144378213Y-105010292D01*
X144489707Y-105121786D01*
X144489711Y-105121789D01*
X144620814Y-105209390D01*
X144620827Y-105209397D01*
X144750233Y-105262998D01*
X144766503Y-105269737D01*
X144831147Y-105282595D01*
X144921849Y-105300638D01*
X144983760Y-105333023D01*
X144985339Y-105334574D01*
X146788181Y-107137416D01*
X146821666Y-107198739D01*
X146824500Y-107225097D01*
X146824500Y-109736232D01*
X146804815Y-109803271D01*
X146765598Y-109841769D01*
X146706631Y-109878141D01*
X146618842Y-109932289D01*
X146494789Y-110056342D01*
X146402687Y-110205663D01*
X146402685Y-110205668D01*
X146402615Y-110205880D01*
X146347501Y-110372203D01*
X146347501Y-110372204D01*
X146347500Y-110372204D01*
X146337000Y-110474983D01*
X146337000Y-111525001D01*
X146337001Y-111525019D01*
X146347500Y-111627796D01*
X146347501Y-111627799D01*
X146402685Y-111794331D01*
X146402687Y-111794336D01*
X146425814Y-111831831D01*
X146494788Y-111943656D01*
X146618844Y-112067712D01*
X146768166Y-112159814D01*
X146934703Y-112214999D01*
X147037491Y-112225500D01*
X147812508Y-112225499D01*
X147812516Y-112225498D01*
X147812519Y-112225498D01*
X147868802Y-112219748D01*
X147915297Y-112214999D01*
X148081834Y-112159814D01*
X148231156Y-112067712D01*
X148355212Y-111943656D01*
X148357252Y-111940347D01*
X148359245Y-111938555D01*
X148359693Y-111937989D01*
X148359789Y-111938065D01*
X148409194Y-111893623D01*
X148478156Y-111882395D01*
X148542240Y-111910234D01*
X148568329Y-111940339D01*
X148570181Y-111943341D01*
X148570183Y-111943344D01*
X148694154Y-112067315D01*
X148843375Y-112159356D01*
X148843380Y-112159358D01*
X149009802Y-112214505D01*
X149009809Y-112214506D01*
X149112519Y-112224999D01*
X149249999Y-112224999D01*
X149750000Y-112224999D01*
X149887472Y-112224999D01*
X149887486Y-112224998D01*
X149990197Y-112214505D01*
X150156619Y-112159358D01*
X150156624Y-112159356D01*
X150305845Y-112067315D01*
X150429815Y-111943345D01*
X150521856Y-111794124D01*
X150521858Y-111794119D01*
X150577005Y-111627697D01*
X150577006Y-111627690D01*
X150587499Y-111524986D01*
X150587500Y-111524973D01*
X150587500Y-111250000D01*
X149750000Y-111250000D01*
X149750000Y-112224999D01*
X149249999Y-112224999D01*
X149250000Y-112224998D01*
X149250000Y-110750000D01*
X149750000Y-110750000D01*
X150587499Y-110750000D01*
X150587499Y-110475028D01*
X150587498Y-110475013D01*
X150577005Y-110372302D01*
X150521858Y-110205880D01*
X150521856Y-110205875D01*
X150429815Y-110056654D01*
X150305845Y-109932684D01*
X150156624Y-109840643D01*
X150156619Y-109840641D01*
X149990197Y-109785494D01*
X149990190Y-109785493D01*
X149887486Y-109775000D01*
X149750000Y-109775000D01*
X149750000Y-110750000D01*
X149250000Y-110750000D01*
X149250000Y-109775000D01*
X149112527Y-109775000D01*
X149112512Y-109775001D01*
X149009802Y-109785494D01*
X148843380Y-109840641D01*
X148843375Y-109840643D01*
X148694154Y-109932684D01*
X148570183Y-110056655D01*
X148570179Y-110056660D01*
X148568326Y-110059665D01*
X148566518Y-110061290D01*
X148565702Y-110062323D01*
X148565525Y-110062183D01*
X148516374Y-110106385D01*
X148447411Y-110117601D01*
X148383331Y-110089752D01*
X148357253Y-110059653D01*
X148357237Y-110059628D01*
X148355212Y-110056344D01*
X148231156Y-109932288D01*
X148084402Y-109841770D01*
X148037679Y-109789823D01*
X148025500Y-109736232D01*
X148025500Y-107014059D01*
X148025501Y-107014046D01*
X148025501Y-106845945D01*
X148025501Y-106845943D01*
X147984577Y-106693215D01*
X147931564Y-106601394D01*
X147905520Y-106556284D01*
X147793716Y-106444480D01*
X147793713Y-106444478D01*
X146814576Y-105465341D01*
X146781091Y-105404018D01*
X146786075Y-105334326D01*
X146827947Y-105278393D01*
X146893411Y-105253976D01*
X146914849Y-105254301D01*
X146999991Y-105263000D01*
X147775008Y-105262999D01*
X147775016Y-105262998D01*
X147775019Y-105262998D01*
X147831302Y-105257248D01*
X147877797Y-105252499D01*
X148044334Y-105197314D01*
X148193656Y-105105212D01*
X148317712Y-104981156D01*
X148319752Y-104977847D01*
X148321745Y-104976055D01*
X148322193Y-104975489D01*
X148322289Y-104975565D01*
X148371694Y-104931123D01*
X148440656Y-104919895D01*
X148504740Y-104947734D01*
X148530829Y-104977839D01*
X148532681Y-104980841D01*
X148532683Y-104980844D01*
X148656654Y-105104815D01*
X148805875Y-105196856D01*
X148805880Y-105196858D01*
X148972302Y-105252005D01*
X148972309Y-105252006D01*
X149075019Y-105262499D01*
X149212499Y-105262499D01*
X149712500Y-105262499D01*
X149849972Y-105262499D01*
X149849986Y-105262498D01*
X149952697Y-105252005D01*
X150119119Y-105196858D01*
X150119124Y-105196856D01*
X150268345Y-105104815D01*
X150392315Y-104980845D01*
X150484356Y-104831624D01*
X150484358Y-104831619D01*
X150539505Y-104665197D01*
X150539506Y-104665190D01*
X150549999Y-104562486D01*
X150550000Y-104562473D01*
X150550000Y-104287500D01*
X149712500Y-104287500D01*
X149712500Y-105262499D01*
X149212499Y-105262499D01*
X149212500Y-105262498D01*
X149212500Y-103787500D01*
X149712500Y-103787500D01*
X150549999Y-103787500D01*
X150549999Y-103512528D01*
X150549998Y-103512513D01*
X150539505Y-103409802D01*
X150484358Y-103243380D01*
X150484356Y-103243375D01*
X150392315Y-103094154D01*
X150268345Y-102970184D01*
X150119124Y-102878143D01*
X150119119Y-102878141D01*
X149952697Y-102822994D01*
X149952690Y-102822993D01*
X149849986Y-102812500D01*
X149712500Y-102812500D01*
X149712500Y-103787500D01*
X149212500Y-103787500D01*
X149212500Y-102812500D01*
X149075027Y-102812500D01*
X149075012Y-102812501D01*
X148972302Y-102822994D01*
X148805880Y-102878141D01*
X148805875Y-102878143D01*
X148656654Y-102970184D01*
X148532683Y-103094155D01*
X148532679Y-103094160D01*
X148530826Y-103097165D01*
X148529018Y-103098790D01*
X148528202Y-103099823D01*
X148528025Y-103099683D01*
X148478874Y-103143885D01*
X148409911Y-103155101D01*
X148345831Y-103127252D01*
X148319753Y-103097153D01*
X148319737Y-103097128D01*
X148317712Y-103093844D01*
X148193656Y-102969788D01*
X148100888Y-102912569D01*
X148044336Y-102877687D01*
X148044331Y-102877685D01*
X148042862Y-102877198D01*
X147877797Y-102822501D01*
X147877795Y-102822500D01*
X147775016Y-102812000D01*
X147775009Y-102812000D01*
X147086000Y-102812000D01*
X147018961Y-102792315D01*
X146973206Y-102739511D01*
X146962000Y-102688000D01*
X146962000Y-98282443D01*
X146961999Y-98282439D01*
X146948887Y-98233501D01*
X146948427Y-98231785D01*
X146921077Y-98129715D01*
X146856407Y-98017704D01*
X146842020Y-97992784D01*
X146827352Y-97978116D01*
X146821414Y-97969818D01*
X146813137Y-97946081D01*
X146801089Y-97924019D01*
X146800637Y-97921847D01*
X146795340Y-97895216D01*
X146769737Y-97766503D01*
X146723284Y-97654354D01*
X146709397Y-97620827D01*
X146709390Y-97620814D01*
X146621789Y-97489711D01*
X146621786Y-97489707D01*
X146510292Y-97378213D01*
X146510288Y-97378210D01*
X146379185Y-97290609D01*
X146379172Y-97290602D01*
X146233501Y-97230264D01*
X146233489Y-97230261D01*
X146078845Y-97199500D01*
X146078842Y-97199500D01*
X145921158Y-97199500D01*
X145921155Y-97199500D01*
X145766510Y-97230261D01*
X145766498Y-97230264D01*
X145620827Y-97290602D01*
X145620814Y-97290609D01*
X145489711Y-97378210D01*
X145489707Y-97378213D01*
X145378213Y-97489707D01*
X145378210Y-97489711D01*
X145290609Y-97620814D01*
X145290602Y-97620827D01*
X145230264Y-97766498D01*
X145230261Y-97766510D01*
X145199500Y-97921153D01*
X145199500Y-98078846D01*
X145230261Y-98233489D01*
X145230264Y-98233501D01*
X145290602Y-98379172D01*
X145290609Y-98379185D01*
X145378210Y-98510288D01*
X145378213Y-98510292D01*
X145489710Y-98621789D01*
X145620815Y-98709390D01*
X145620821Y-98709394D01*
X145684453Y-98735750D01*
X145738855Y-98779590D01*
X145760921Y-98845884D01*
X145761000Y-98850311D01*
X145761000Y-102287000D01*
X145741315Y-102354039D01*
X145688511Y-102399794D01*
X145637000Y-102411000D01*
X140371943Y-102411000D01*
X140219213Y-102451923D01*
X140169537Y-102480605D01*
X140169536Y-102480605D01*
X140082287Y-102530977D01*
X140082282Y-102530981D01*
X139970480Y-102642783D01*
X139970480Y-102642784D01*
X139970478Y-102642786D01*
X139899987Y-102713277D01*
X139837582Y-102775682D01*
X139776259Y-102809166D01*
X139749901Y-102812000D01*
X139037498Y-102812000D01*
X139037480Y-102812001D01*
X138934703Y-102822500D01*
X138934696Y-102822502D01*
X138909103Y-102830983D01*
X138839274Y-102833384D01*
X138779233Y-102797652D01*
X138748041Y-102735131D01*
X138746100Y-102713277D01*
X138746100Y-93964996D01*
X138765785Y-93897957D01*
X138782419Y-93877315D01*
X139438196Y-93221538D01*
X140396520Y-92263215D01*
X140475577Y-92126283D01*
X140516501Y-91973556D01*
X140516501Y-91815441D01*
X140516501Y-91807846D01*
X140516500Y-91807828D01*
X140516500Y-89165097D01*
X140536185Y-89098058D01*
X140588989Y-89052303D01*
X140658147Y-89042359D01*
X140721703Y-89071384D01*
G37*
%TD.AperFunction*%
%TA.AperFunction,Conductor*%
G36*
X175330000Y-105637717D02*
G01*
X175405258Y-105625797D01*
X175405261Y-105625797D01*
X175613188Y-105558238D01*
X175613191Y-105558237D01*
X175807998Y-105458976D01*
X175984866Y-105330475D01*
X175984871Y-105330471D01*
X176139469Y-105175873D01*
X176249371Y-105024605D01*
X176304701Y-104981939D01*
X176374314Y-104975960D01*
X176436110Y-105008565D01*
X176450008Y-105024605D01*
X176560142Y-105176192D01*
X176560146Y-105176197D01*
X176714806Y-105330857D01*
X176880374Y-105451147D01*
X176891743Y-105459407D01*
X177019132Y-105524315D01*
X177086616Y-105558701D01*
X177086619Y-105558702D01*
X177190621Y-105592493D01*
X177294625Y-105626286D01*
X177394672Y-105642132D01*
X177510639Y-105660500D01*
X177510644Y-105660500D01*
X177729361Y-105660500D01*
X177834082Y-105643912D01*
X177945375Y-105626286D01*
X178153383Y-105558701D01*
X178348257Y-105459407D01*
X178516674Y-105337046D01*
X178525193Y-105330857D01*
X178525195Y-105330854D01*
X178525199Y-105330852D01*
X178679852Y-105176199D01*
X178752182Y-105076643D01*
X178807511Y-105033979D01*
X178877124Y-105028000D01*
X178938920Y-105060605D01*
X178973277Y-105121443D01*
X178976500Y-105149530D01*
X178976500Y-115304124D01*
X178956815Y-115371163D01*
X178904011Y-115416918D01*
X178834853Y-115426862D01*
X178813498Y-115421831D01*
X178777794Y-115410000D01*
X178777795Y-115410000D01*
X178675010Y-115399500D01*
X177324998Y-115399500D01*
X177324981Y-115399501D01*
X177222203Y-115410000D01*
X177222200Y-115410001D01*
X177055668Y-115465185D01*
X177055663Y-115465187D01*
X176906342Y-115557289D01*
X176782289Y-115681342D01*
X176686395Y-115836813D01*
X176684600Y-115835706D01*
X176645313Y-115880337D01*
X176579092Y-115899500D01*
X171294011Y-115899500D01*
X171226972Y-115879815D01*
X171206330Y-115863181D01*
X167430829Y-112087680D01*
X167397344Y-112026357D01*
X167402328Y-111956665D01*
X167430825Y-111912323D01*
X174006461Y-105336686D01*
X174067780Y-105303204D01*
X174137472Y-105308188D01*
X174170969Y-105327903D01*
X174171185Y-105327607D01*
X174174247Y-105329831D01*
X174174674Y-105330083D01*
X174175135Y-105330477D01*
X174352001Y-105458976D01*
X174546808Y-105558237D01*
X174546811Y-105558238D01*
X174754739Y-105625797D01*
X174829999Y-105637717D01*
X174830000Y-105637717D01*
X174830000Y-103062251D01*
X174883919Y-103093381D01*
X175013120Y-103128000D01*
X175146880Y-103128000D01*
X175276081Y-103093381D01*
X175330000Y-103062251D01*
X175330000Y-105637717D01*
G37*
%TD.AperFunction*%
%TA.AperFunction,Conductor*%
G36*
X158818026Y-87995187D02*
G01*
X158838667Y-88011820D01*
X160004366Y-89177520D01*
X160004368Y-89177521D01*
X160004372Y-89177524D01*
X160141291Y-89256573D01*
X160141294Y-89256575D01*
X160141298Y-89256577D01*
X160294025Y-89297501D01*
X160294027Y-89297501D01*
X160459736Y-89297501D01*
X160459752Y-89297500D01*
X168553902Y-89297500D01*
X168620941Y-89317185D01*
X168666696Y-89369989D01*
X168676640Y-89439147D01*
X168647615Y-89502703D01*
X168641583Y-89509181D01*
X168162583Y-89988182D01*
X168101260Y-90021667D01*
X168074902Y-90024501D01*
X146922821Y-90024501D01*
X146855782Y-90004816D01*
X146810027Y-89952012D01*
X146801204Y-89924693D01*
X146769738Y-89766508D01*
X146769737Y-89766507D01*
X146769737Y-89766503D01*
X146750941Y-89721124D01*
X146709397Y-89620827D01*
X146709390Y-89620814D01*
X146621789Y-89489711D01*
X146621786Y-89489707D01*
X146510292Y-89378213D01*
X146510288Y-89378210D01*
X146379185Y-89290609D01*
X146379172Y-89290602D01*
X146233501Y-89230264D01*
X146233489Y-89230261D01*
X146078845Y-89199500D01*
X146078842Y-89199500D01*
X145921158Y-89199500D01*
X145921155Y-89199500D01*
X145766510Y-89230261D01*
X145766507Y-89230262D01*
X145766506Y-89230262D01*
X145766503Y-89230263D01*
X145702975Y-89256577D01*
X145626351Y-89288315D01*
X145601372Y-89291000D01*
X145577178Y-89297741D01*
X145567232Y-89294670D01*
X145556881Y-89295783D01*
X145534417Y-89284538D01*
X145510418Y-89277128D01*
X145503710Y-89269166D01*
X145494402Y-89264507D01*
X145481583Y-89242901D01*
X145465401Y-89223694D01*
X145462773Y-89211199D01*
X145458750Y-89204418D01*
X145455928Y-89189695D01*
X145454899Y-89181757D01*
X145454899Y-89124729D01*
X145448491Y-89065118D01*
X145435135Y-89029310D01*
X145433310Y-89015228D01*
X145436634Y-88994182D01*
X145435114Y-88972930D01*
X145440101Y-88955949D01*
X145447998Y-88934778D01*
X145447998Y-88934777D01*
X145454399Y-88875246D01*
X145454400Y-88875229D01*
X145454400Y-88827402D01*
X145369711Y-88827402D01*
X145348465Y-88821163D01*
X145326377Y-88819584D01*
X145306939Y-88808970D01*
X145302672Y-88807717D01*
X145295400Y-88802669D01*
X145292503Y-88800500D01*
X145257460Y-88774266D01*
X145215590Y-88718334D01*
X145210606Y-88648642D01*
X145244091Y-88587319D01*
X145257462Y-88575734D01*
X145295399Y-88547335D01*
X145360864Y-88522918D01*
X145369709Y-88522602D01*
X145454400Y-88522602D01*
X145454400Y-88474774D01*
X145454399Y-88474757D01*
X145447998Y-88415225D01*
X145440100Y-88394051D01*
X145435114Y-88324359D01*
X145440098Y-88307385D01*
X145448491Y-88284884D01*
X145454900Y-88225274D01*
X145454899Y-88099501D01*
X145474583Y-88032463D01*
X145527387Y-87986708D01*
X145578899Y-87975502D01*
X158750987Y-87975502D01*
X158818026Y-87995187D01*
G37*
%TD.AperFunction*%
%TA.AperFunction,Conductor*%
G36*
X180002702Y-75500617D02*
G01*
X180386771Y-75517386D01*
X180397506Y-75518326D01*
X180775971Y-75568152D01*
X180786597Y-75570025D01*
X181159284Y-75652648D01*
X181169710Y-75655442D01*
X181533765Y-75770227D01*
X181543911Y-75773920D01*
X181896578Y-75920000D01*
X181906369Y-75924566D01*
X182244942Y-76100816D01*
X182254310Y-76106224D01*
X182576244Y-76311318D01*
X182585105Y-76317523D01*
X182887930Y-76549889D01*
X182896217Y-76556843D01*
X183177635Y-76814715D01*
X183185284Y-76822364D01*
X183443156Y-77103782D01*
X183450110Y-77112069D01*
X183682476Y-77414894D01*
X183688681Y-77423755D01*
X183893775Y-77745689D01*
X183899183Y-77755057D01*
X184075430Y-78093623D01*
X184080002Y-78103427D01*
X184226075Y-78456078D01*
X184229775Y-78466244D01*
X184344554Y-78830278D01*
X184347354Y-78840727D01*
X184429971Y-79213389D01*
X184431849Y-79224042D01*
X184481671Y-79602473D01*
X184482614Y-79613249D01*
X184499382Y-79997297D01*
X184499500Y-80002706D01*
X184499500Y-129997293D01*
X184499382Y-130002702D01*
X184482614Y-130386750D01*
X184481671Y-130397526D01*
X184431849Y-130775957D01*
X184429971Y-130786610D01*
X184347354Y-131159272D01*
X184344554Y-131169721D01*
X184229775Y-131533755D01*
X184226075Y-131543921D01*
X184080002Y-131896572D01*
X184075430Y-131906376D01*
X183899183Y-132244942D01*
X183893775Y-132254310D01*
X183688681Y-132576244D01*
X183682476Y-132585105D01*
X183450110Y-132887930D01*
X183443156Y-132896217D01*
X183185284Y-133177635D01*
X183177635Y-133185284D01*
X182896217Y-133443156D01*
X182887930Y-133450110D01*
X182585105Y-133682476D01*
X182576244Y-133688681D01*
X182254310Y-133893775D01*
X182244942Y-133899183D01*
X181906376Y-134075430D01*
X181896572Y-134080002D01*
X181543921Y-134226075D01*
X181533755Y-134229775D01*
X181169721Y-134344554D01*
X181159272Y-134347354D01*
X180786610Y-134429971D01*
X180775957Y-134431849D01*
X180397526Y-134481671D01*
X180386750Y-134482614D01*
X180002703Y-134499382D01*
X179997294Y-134499500D01*
X100002706Y-134499500D01*
X99997297Y-134499382D01*
X99613249Y-134482614D01*
X99602473Y-134481671D01*
X99224042Y-134431849D01*
X99213389Y-134429971D01*
X98840727Y-134347354D01*
X98830278Y-134344554D01*
X98466244Y-134229775D01*
X98456078Y-134226075D01*
X98103427Y-134080002D01*
X98093623Y-134075430D01*
X97755057Y-133899183D01*
X97745689Y-133893775D01*
X97423755Y-133688681D01*
X97414894Y-133682476D01*
X97112069Y-133450110D01*
X97103782Y-133443156D01*
X96822364Y-133185284D01*
X96814715Y-133177635D01*
X96556843Y-132896217D01*
X96549889Y-132887930D01*
X96317523Y-132585105D01*
X96311318Y-132576244D01*
X96106224Y-132254310D01*
X96100816Y-132244942D01*
X95970818Y-131995219D01*
X95924566Y-131906369D01*
X95919997Y-131896572D01*
X95773924Y-131543921D01*
X95770224Y-131533755D01*
X95760623Y-131503304D01*
X95655442Y-131169710D01*
X95652648Y-131159284D01*
X95570025Y-130786597D01*
X95568152Y-130775971D01*
X95518326Y-130397506D01*
X95517386Y-130386771D01*
X95500618Y-130002702D01*
X95500500Y-129997293D01*
X95500500Y-129831491D01*
X96999500Y-129831491D01*
X96999500Y-130168508D01*
X97037231Y-130503381D01*
X97037233Y-130503397D01*
X97112223Y-130831953D01*
X97112227Y-130831965D01*
X97223532Y-131150054D01*
X97369752Y-131453683D01*
X97369754Y-131453686D01*
X97549054Y-131739039D01*
X97759175Y-132002523D01*
X97997477Y-132240825D01*
X98260961Y-132450946D01*
X98546314Y-132630246D01*
X98849949Y-132776469D01*
X99088848Y-132860063D01*
X99168034Y-132887772D01*
X99168046Y-132887776D01*
X99496606Y-132962767D01*
X99831492Y-133000499D01*
X99831493Y-133000500D01*
X99831496Y-133000500D01*
X100168507Y-133000500D01*
X100168507Y-133000499D01*
X100503394Y-132962767D01*
X100831954Y-132887776D01*
X101150051Y-132776469D01*
X101453686Y-132630246D01*
X101739039Y-132450946D01*
X102002523Y-132240825D01*
X102240825Y-132002523D01*
X102450946Y-131739039D01*
X102630246Y-131453686D01*
X102776469Y-131150051D01*
X102887776Y-130831954D01*
X102962767Y-130503394D01*
X103000500Y-130168504D01*
X103000500Y-129831496D01*
X103000499Y-129831491D01*
X176999500Y-129831491D01*
X176999500Y-130168508D01*
X177037231Y-130503381D01*
X177037233Y-130503397D01*
X177112223Y-130831953D01*
X177112227Y-130831965D01*
X177223532Y-131150054D01*
X177369752Y-131453683D01*
X177369754Y-131453686D01*
X177549054Y-131739039D01*
X177759175Y-132002523D01*
X177997477Y-132240825D01*
X178260961Y-132450946D01*
X178546314Y-132630246D01*
X178849949Y-132776469D01*
X179088848Y-132860063D01*
X179168034Y-132887772D01*
X179168046Y-132887776D01*
X179496606Y-132962767D01*
X179831492Y-133000499D01*
X179831493Y-133000500D01*
X179831496Y-133000500D01*
X180168507Y-133000500D01*
X180168507Y-133000499D01*
X180503394Y-132962767D01*
X180831954Y-132887776D01*
X181150051Y-132776469D01*
X181453686Y-132630246D01*
X181739039Y-132450946D01*
X182002523Y-132240825D01*
X182240825Y-132002523D01*
X182450946Y-131739039D01*
X182630246Y-131453686D01*
X182776469Y-131150051D01*
X182887776Y-130831954D01*
X182962767Y-130503394D01*
X183000500Y-130168504D01*
X183000500Y-129831496D01*
X182962767Y-129496606D01*
X182887776Y-129168046D01*
X182776469Y-128849949D01*
X182630246Y-128546314D01*
X182450946Y-128260961D01*
X182240825Y-127997477D01*
X182002523Y-127759175D01*
X181739039Y-127549054D01*
X181453686Y-127369754D01*
X181453683Y-127369752D01*
X181150054Y-127223532D01*
X180831965Y-127112227D01*
X180831953Y-127112223D01*
X180503397Y-127037233D01*
X180503381Y-127037231D01*
X180168508Y-126999500D01*
X180168504Y-126999500D01*
X179831496Y-126999500D01*
X179831491Y-126999500D01*
X179496618Y-127037231D01*
X179496602Y-127037233D01*
X179168046Y-127112223D01*
X179168034Y-127112227D01*
X178849945Y-127223532D01*
X178546316Y-127369752D01*
X178260962Y-127549053D01*
X177997477Y-127759174D01*
X177759174Y-127997477D01*
X177549053Y-128260962D01*
X177369752Y-128546316D01*
X177223532Y-128849945D01*
X177112227Y-129168034D01*
X177112223Y-129168046D01*
X177037233Y-129496602D01*
X177037231Y-129496618D01*
X176999500Y-129831491D01*
X103000499Y-129831491D01*
X102962767Y-129496606D01*
X102887776Y-129168046D01*
X102776469Y-128849949D01*
X102630246Y-128546314D01*
X102450946Y-128260961D01*
X102240825Y-127997477D01*
X102002523Y-127759175D01*
X101739039Y-127549054D01*
X101453686Y-127369754D01*
X101453683Y-127369752D01*
X101150054Y-127223532D01*
X100831965Y-127112227D01*
X100831953Y-127112223D01*
X100503397Y-127037233D01*
X100503381Y-127037231D01*
X100168508Y-126999500D01*
X100168504Y-126999500D01*
X99831496Y-126999500D01*
X99831491Y-126999500D01*
X99496618Y-127037231D01*
X99496602Y-127037233D01*
X99168046Y-127112223D01*
X99168034Y-127112227D01*
X98849945Y-127223532D01*
X98546316Y-127369752D01*
X98260962Y-127549053D01*
X97997477Y-127759174D01*
X97759174Y-127997477D01*
X97549053Y-128260962D01*
X97369752Y-128546316D01*
X97223532Y-128849945D01*
X97112227Y-129168034D01*
X97112223Y-129168046D01*
X97037233Y-129496602D01*
X97037231Y-129496618D01*
X96999500Y-129831491D01*
X95500500Y-129831491D01*
X95500500Y-111462486D01*
X130900001Y-111462486D01*
X130910494Y-111565197D01*
X130965641Y-111731619D01*
X130965643Y-111731624D01*
X131057684Y-111880845D01*
X131181654Y-112004815D01*
X131330875Y-112096856D01*
X131330880Y-112096858D01*
X131497302Y-112152005D01*
X131497309Y-112152006D01*
X131600019Y-112162499D01*
X131749999Y-112162499D01*
X131750000Y-112162498D01*
X131750000Y-111212500D01*
X130900001Y-111212500D01*
X130900001Y-111462486D01*
X95500500Y-111462486D01*
X95500500Y-110462513D01*
X130900000Y-110462513D01*
X130900000Y-110712500D01*
X131750000Y-110712500D01*
X131750000Y-109762500D01*
X131600027Y-109762500D01*
X131600012Y-109762501D01*
X131497302Y-109772994D01*
X131330880Y-109828141D01*
X131330875Y-109828143D01*
X131181654Y-109920184D01*
X131057684Y-110044154D01*
X130965643Y-110193375D01*
X130965641Y-110193380D01*
X130910494Y-110359802D01*
X130910493Y-110359809D01*
X130900000Y-110462513D01*
X95500500Y-110462513D01*
X95500500Y-108191995D01*
X103269500Y-108191995D01*
X103269500Y-108428004D01*
X103269501Y-108428020D01*
X103295010Y-108621786D01*
X103300307Y-108662014D01*
X103313003Y-108709397D01*
X103361394Y-108889993D01*
X103451714Y-109108045D01*
X103451719Y-109108056D01*
X103494033Y-109181345D01*
X103569727Y-109312450D01*
X103569729Y-109312453D01*
X103569730Y-109312454D01*
X103713406Y-109499697D01*
X103713412Y-109499704D01*
X103880295Y-109666587D01*
X103880302Y-109666593D01*
X103931058Y-109705539D01*
X104067550Y-109810273D01*
X104151979Y-109859018D01*
X104271943Y-109928280D01*
X104271948Y-109928282D01*
X104271951Y-109928284D01*
X104490007Y-110018606D01*
X104717986Y-110079693D01*
X104951989Y-110110500D01*
X104951996Y-110110500D01*
X105188004Y-110110500D01*
X105188011Y-110110500D01*
X105422014Y-110079693D01*
X105649993Y-110018606D01*
X105868049Y-109928284D01*
X106072450Y-109810273D01*
X106259699Y-109666592D01*
X106426592Y-109499699D01*
X106570273Y-109312450D01*
X106688284Y-109108049D01*
X106778606Y-108889993D01*
X106839693Y-108662014D01*
X106870500Y-108428011D01*
X106870500Y-108191995D01*
X121269500Y-108191995D01*
X121269500Y-108428004D01*
X121269501Y-108428020D01*
X121295010Y-108621786D01*
X121300307Y-108662014D01*
X121313003Y-108709397D01*
X121361394Y-108889993D01*
X121451714Y-109108045D01*
X121451719Y-109108056D01*
X121494033Y-109181345D01*
X121569727Y-109312450D01*
X121569729Y-109312453D01*
X121569730Y-109312454D01*
X121713406Y-109499697D01*
X121713412Y-109499704D01*
X121880295Y-109666587D01*
X121880302Y-109666593D01*
X121931058Y-109705539D01*
X122067550Y-109810273D01*
X122151979Y-109859018D01*
X122271943Y-109928280D01*
X122271948Y-109928282D01*
X122271951Y-109928284D01*
X122490007Y-110018606D01*
X122717986Y-110079693D01*
X122951989Y-110110500D01*
X122951996Y-110110500D01*
X123188004Y-110110500D01*
X123188011Y-110110500D01*
X123422014Y-110079693D01*
X123649993Y-110018606D01*
X123868049Y-109928284D01*
X124072450Y-109810273D01*
X124259699Y-109666592D01*
X124426592Y-109499699D01*
X124570273Y-109312450D01*
X124688284Y-109108049D01*
X124778606Y-108889993D01*
X124839693Y-108662014D01*
X124870500Y-108428011D01*
X124870500Y-108191989D01*
X124839693Y-107957986D01*
X124778606Y-107730007D01*
X124688284Y-107511951D01*
X124688282Y-107511948D01*
X124688280Y-107511943D01*
X124611069Y-107378211D01*
X124570273Y-107307550D01*
X124507005Y-107225097D01*
X124426593Y-107120302D01*
X124426587Y-107120295D01*
X124259704Y-106953412D01*
X124259697Y-106953406D01*
X124072454Y-106809730D01*
X124072453Y-106809729D01*
X124072450Y-106809727D01*
X123990957Y-106762677D01*
X123868056Y-106691719D01*
X123868045Y-106691714D01*
X123649993Y-106601394D01*
X123422010Y-106540306D01*
X123188020Y-106509501D01*
X123188017Y-106509500D01*
X123188011Y-106509500D01*
X122951989Y-106509500D01*
X122951983Y-106509500D01*
X122951979Y-106509501D01*
X122717989Y-106540306D01*
X122490006Y-106601394D01*
X122271954Y-106691714D01*
X122271943Y-106691719D01*
X122067545Y-106809730D01*
X121880302Y-106953406D01*
X121880295Y-106953412D01*
X121713412Y-107120295D01*
X121713406Y-107120302D01*
X121569730Y-107307545D01*
X121451719Y-107511943D01*
X121451714Y-107511954D01*
X121361394Y-107730006D01*
X121300306Y-107957989D01*
X121269501Y-108191979D01*
X121269500Y-108191995D01*
X106870500Y-108191995D01*
X106870500Y-108191989D01*
X106839693Y-107957986D01*
X106778606Y-107730007D01*
X106688284Y-107511951D01*
X106688282Y-107511948D01*
X106688280Y-107511943D01*
X106611069Y-107378211D01*
X106570273Y-107307550D01*
X106507005Y-107225097D01*
X106426593Y-107120302D01*
X106426587Y-107120295D01*
X106259704Y-106953412D01*
X106259697Y-106953406D01*
X106072454Y-106809730D01*
X106072453Y-106809729D01*
X106072450Y-106809727D01*
X105990957Y-106762677D01*
X105868056Y-106691719D01*
X105868045Y-106691714D01*
X105649993Y-106601394D01*
X105422010Y-106540306D01*
X105188020Y-106509501D01*
X105188017Y-106509500D01*
X105188011Y-106509500D01*
X104951989Y-106509500D01*
X104951983Y-106509500D01*
X104951979Y-106509501D01*
X104717989Y-106540306D01*
X104490006Y-106601394D01*
X104271954Y-106691714D01*
X104271943Y-106691719D01*
X104067545Y-106809730D01*
X103880302Y-106953406D01*
X103880295Y-106953412D01*
X103713412Y-107120295D01*
X103713406Y-107120302D01*
X103569730Y-107307545D01*
X103451719Y-107511943D01*
X103451714Y-107511954D01*
X103361394Y-107730006D01*
X103300306Y-107957989D01*
X103269501Y-108191979D01*
X103269500Y-108191995D01*
X95500500Y-108191995D01*
X95500500Y-104499986D01*
X130900001Y-104499986D01*
X130910494Y-104602697D01*
X130965641Y-104769119D01*
X130965643Y-104769124D01*
X131057684Y-104918345D01*
X131181654Y-105042315D01*
X131330875Y-105134356D01*
X131330880Y-105134358D01*
X131497302Y-105189505D01*
X131497309Y-105189506D01*
X131600019Y-105199999D01*
X131749999Y-105199999D01*
X131750000Y-105199998D01*
X131750000Y-104250000D01*
X130900001Y-104250000D01*
X130900001Y-104499986D01*
X95500500Y-104499986D01*
X95500500Y-103013713D01*
X101289500Y-103013713D01*
X101289500Y-103226287D01*
X101292207Y-103243380D01*
X101316570Y-103397203D01*
X101322754Y-103436243D01*
X101386257Y-103631685D01*
X101388444Y-103638414D01*
X101484951Y-103827820D01*
X101609890Y-103999786D01*
X101760213Y-104150109D01*
X101932179Y-104275048D01*
X101932181Y-104275049D01*
X101932184Y-104275051D01*
X102121588Y-104371557D01*
X102323757Y-104437246D01*
X102533713Y-104470500D01*
X102533714Y-104470500D01*
X102746286Y-104470500D01*
X102746287Y-104470500D01*
X102956243Y-104437246D01*
X103158412Y-104371557D01*
X103347816Y-104275051D01*
X103439714Y-104208284D01*
X103519786Y-104150109D01*
X103519788Y-104150106D01*
X103519792Y-104150104D01*
X103670104Y-103999792D01*
X103670106Y-103999788D01*
X103670109Y-103999786D01*
X103795048Y-103827820D01*
X103795047Y-103827820D01*
X103795051Y-103827816D01*
X103891557Y-103638412D01*
X103957246Y-103436243D01*
X103990500Y-103226287D01*
X103990500Y-103013713D01*
X103957246Y-102803757D01*
X103943506Y-102761473D01*
X103941512Y-102691635D01*
X103973755Y-102635478D01*
X108972416Y-97636819D01*
X109033739Y-97603334D01*
X109060097Y-97600500D01*
X118420234Y-97600500D01*
X118487273Y-97620185D01*
X118489125Y-97621398D01*
X118620814Y-97709390D01*
X118620827Y-97709397D01*
X118758683Y-97766498D01*
X118766503Y-97769737D01*
X118921153Y-97800499D01*
X118921156Y-97800500D01*
X118921158Y-97800500D01*
X119078844Y-97800500D01*
X119078845Y-97800499D01*
X119233497Y-97769737D01*
X119379179Y-97709394D01*
X119510289Y-97621789D01*
X119621789Y-97510289D01*
X119709394Y-97379179D01*
X119769737Y-97233497D01*
X119800500Y-97078842D01*
X119800500Y-96921158D01*
X119800500Y-96921155D01*
X119800499Y-96921153D01*
X119779830Y-96817246D01*
X119769737Y-96766503D01*
X119763545Y-96751555D01*
X119709397Y-96620827D01*
X119709390Y-96620814D01*
X119621789Y-96489711D01*
X119621786Y-96489707D01*
X119510292Y-96378213D01*
X119510288Y-96378210D01*
X119379185Y-96290609D01*
X119379172Y-96290602D01*
X119233501Y-96230264D01*
X119233489Y-96230261D01*
X119078845Y-96199500D01*
X119078842Y-96199500D01*
X118921158Y-96199500D01*
X118921155Y-96199500D01*
X118766510Y-96230261D01*
X118766498Y-96230264D01*
X118620827Y-96290602D01*
X118620814Y-96290609D01*
X118489125Y-96378602D01*
X118422447Y-96399480D01*
X118420234Y-96399500D01*
X108846669Y-96399500D01*
X108846653Y-96399499D01*
X108839057Y-96399499D01*
X108680943Y-96399499D01*
X108573587Y-96428265D01*
X108528210Y-96440424D01*
X108528209Y-96440425D01*
X108478096Y-96469359D01*
X108478095Y-96469360D01*
X108442853Y-96489707D01*
X108391285Y-96519479D01*
X108391282Y-96519481D01*
X108279478Y-96631286D01*
X103124522Y-101786241D01*
X103063199Y-101819726D01*
X102998523Y-101816491D01*
X102956245Y-101802754D01*
X102816272Y-101780584D01*
X102746287Y-101769500D01*
X102533713Y-101769500D01*
X102485042Y-101777208D01*
X102323760Y-101802753D01*
X102121585Y-101868444D01*
X101932179Y-101964951D01*
X101760213Y-102089890D01*
X101609890Y-102240213D01*
X101484951Y-102412179D01*
X101388444Y-102601585D01*
X101322753Y-102803760D01*
X101310972Y-102878143D01*
X101289500Y-103013713D01*
X95500500Y-103013713D01*
X95500500Y-99195837D01*
X99119500Y-99195837D01*
X99119500Y-99424162D01*
X99155215Y-99649660D01*
X99225770Y-99866803D01*
X99329421Y-100070228D01*
X99463621Y-100254937D01*
X99625063Y-100416379D01*
X99809772Y-100550579D01*
X99905884Y-100599550D01*
X100013196Y-100654229D01*
X100013198Y-100654229D01*
X100013201Y-100654231D01*
X100129592Y-100692049D01*
X100230339Y-100724784D01*
X100455838Y-100760500D01*
X100455843Y-100760500D01*
X100684162Y-100760500D01*
X100909660Y-100724784D01*
X100933838Y-100716928D01*
X101126799Y-100654231D01*
X101330228Y-100550579D01*
X101514937Y-100416379D01*
X101676379Y-100254937D01*
X101810579Y-100070228D01*
X101914231Y-99866799D01*
X101984784Y-99649660D01*
X101995241Y-99583638D01*
X102020500Y-99424162D01*
X102020500Y-99195837D01*
X101984784Y-98970339D01*
X101914229Y-98753196D01*
X101810578Y-98549771D01*
X101781895Y-98510292D01*
X101676379Y-98365063D01*
X101514937Y-98203621D01*
X101330228Y-98069421D01*
X101239012Y-98022944D01*
X101126803Y-97965770D01*
X100909660Y-97895215D01*
X100684162Y-97859500D01*
X100684157Y-97859500D01*
X100455843Y-97859500D01*
X100455838Y-97859500D01*
X100230339Y-97895215D01*
X100013196Y-97965770D01*
X99809771Y-98069421D01*
X99625061Y-98203622D01*
X99463622Y-98365061D01*
X99329421Y-98549771D01*
X99225770Y-98753196D01*
X99155215Y-98970339D01*
X99119500Y-99195837D01*
X95500500Y-99195837D01*
X95500500Y-95393713D01*
X101289500Y-95393713D01*
X101289500Y-95606286D01*
X101322753Y-95816239D01*
X101388444Y-96018414D01*
X101484951Y-96207820D01*
X101609890Y-96379786D01*
X101760213Y-96530109D01*
X101932179Y-96655048D01*
X101932181Y-96655049D01*
X101932184Y-96655051D01*
X102121588Y-96751557D01*
X102323757Y-96817246D01*
X102533713Y-96850500D01*
X102533714Y-96850500D01*
X102746286Y-96850500D01*
X102746287Y-96850500D01*
X102956243Y-96817246D01*
X103158412Y-96751557D01*
X103347816Y-96655051D01*
X103432628Y-96593432D01*
X103519786Y-96530109D01*
X103519788Y-96530106D01*
X103519792Y-96530104D01*
X103670104Y-96379792D01*
X103670106Y-96379788D01*
X103670109Y-96379786D01*
X103795048Y-96207820D01*
X103795047Y-96207820D01*
X103795051Y-96207816D01*
X103891557Y-96018412D01*
X103957246Y-95816243D01*
X103990500Y-95606287D01*
X103990500Y-95393713D01*
X103957246Y-95183757D01*
X103943507Y-95141476D01*
X103943072Y-95126262D01*
X103937754Y-95112000D01*
X103942094Y-95092049D01*
X103941511Y-95071637D01*
X103949601Y-95057547D01*
X103952608Y-95043727D01*
X103973760Y-95015474D01*
X104003420Y-94985816D01*
X104064744Y-94952333D01*
X104091098Y-94949500D01*
X124088198Y-94949500D01*
X124155237Y-94969185D01*
X124200992Y-95021989D01*
X124210936Y-95091147D01*
X124206130Y-95111812D01*
X124183894Y-95180247D01*
X124182753Y-95183760D01*
X124149500Y-95393713D01*
X124149500Y-95606286D01*
X124182753Y-95816239D01*
X124248444Y-96018414D01*
X124344951Y-96207820D01*
X124469890Y-96379786D01*
X124620213Y-96530109D01*
X124792179Y-96655048D01*
X124792181Y-96655049D01*
X124792184Y-96655051D01*
X124981588Y-96751557D01*
X125183757Y-96817246D01*
X125393713Y-96850500D01*
X125393714Y-96850500D01*
X125606286Y-96850500D01*
X125606287Y-96850500D01*
X125816243Y-96817246D01*
X126018412Y-96751557D01*
X126207816Y-96655051D01*
X126292628Y-96593432D01*
X126379786Y-96530109D01*
X126379788Y-96530106D01*
X126379792Y-96530104D01*
X126530104Y-96379792D01*
X126530106Y-96379788D01*
X126530109Y-96379786D01*
X126630108Y-96242147D01*
X126655051Y-96207816D01*
X126662371Y-96193450D01*
X126675235Y-96168205D01*
X126723209Y-96117409D01*
X126785719Y-96100500D01*
X132250903Y-96100500D01*
X132317942Y-96120185D01*
X132363697Y-96172989D01*
X132373641Y-96242147D01*
X132344616Y-96305703D01*
X132338584Y-96312181D01*
X129232181Y-99418583D01*
X129170858Y-99452068D01*
X129101166Y-99447084D01*
X129045233Y-99405212D01*
X129020816Y-99339748D01*
X129020500Y-99330902D01*
X129020500Y-99195837D01*
X128984784Y-98970339D01*
X128914229Y-98753196D01*
X128810578Y-98549771D01*
X128781895Y-98510292D01*
X128676379Y-98365063D01*
X128514937Y-98203621D01*
X128330228Y-98069421D01*
X128239012Y-98022944D01*
X128126803Y-97965770D01*
X127909660Y-97895215D01*
X127684162Y-97859500D01*
X127684157Y-97859500D01*
X127455843Y-97859500D01*
X127455838Y-97859500D01*
X127230339Y-97895215D01*
X127013196Y-97965770D01*
X126809771Y-98069421D01*
X126625061Y-98203622D01*
X126463622Y-98365061D01*
X126329421Y-98549771D01*
X126225770Y-98753196D01*
X126155215Y-98970339D01*
X126119500Y-99195837D01*
X126119500Y-99424162D01*
X126155215Y-99649660D01*
X126225770Y-99866803D01*
X126329421Y-100070228D01*
X126463621Y-100254937D01*
X126625063Y-100416379D01*
X126809772Y-100550579D01*
X126905884Y-100599550D01*
X127013196Y-100654229D01*
X127013198Y-100654229D01*
X127013201Y-100654231D01*
X127129592Y-100692049D01*
X127230339Y-100724784D01*
X127455838Y-100760500D01*
X127590902Y-100760500D01*
X127657941Y-100780185D01*
X127703696Y-100832989D01*
X127713640Y-100902147D01*
X127684615Y-100965703D01*
X127678583Y-100972181D01*
X126558011Y-102092753D01*
X126496688Y-102126238D01*
X126426996Y-102121254D01*
X126382649Y-102092753D01*
X126379786Y-102089890D01*
X126207820Y-101964951D01*
X126018414Y-101868444D01*
X126018413Y-101868443D01*
X126018412Y-101868443D01*
X125816243Y-101802754D01*
X125816241Y-101802753D01*
X125816240Y-101802753D01*
X125654957Y-101777208D01*
X125606287Y-101769500D01*
X125393713Y-101769500D01*
X125345042Y-101777208D01*
X125183760Y-101802753D01*
X124981585Y-101868444D01*
X124792179Y-101964951D01*
X124620213Y-102089890D01*
X124469890Y-102240213D01*
X124344951Y-102412179D01*
X124248444Y-102601585D01*
X124182753Y-102803760D01*
X124170972Y-102878143D01*
X124149500Y-103013713D01*
X124149500Y-103226287D01*
X124152207Y-103243380D01*
X124176570Y-103397203D01*
X124182754Y-103436243D01*
X124246257Y-103631685D01*
X124248444Y-103638414D01*
X124344951Y-103827820D01*
X124469890Y-103999786D01*
X124620213Y-104150109D01*
X124792179Y-104275048D01*
X124792181Y-104275049D01*
X124792184Y-104275051D01*
X124981588Y-104371557D01*
X125183757Y-104437246D01*
X125393713Y-104470500D01*
X125393714Y-104470500D01*
X125606286Y-104470500D01*
X125606287Y-104470500D01*
X125816243Y-104437246D01*
X126018412Y-104371557D01*
X126207816Y-104275051D01*
X126299714Y-104208284D01*
X126379786Y-104150109D01*
X126379788Y-104150106D01*
X126379792Y-104150104D01*
X126530104Y-103999792D01*
X126530106Y-103999788D01*
X126530109Y-103999786D01*
X126655048Y-103827820D01*
X126655047Y-103827820D01*
X126655051Y-103827816D01*
X126751557Y-103638412D01*
X126761962Y-103606386D01*
X126768948Y-103594986D01*
X126771060Y-103585279D01*
X126792208Y-103557027D01*
X126792211Y-103557024D01*
X126849223Y-103500013D01*
X130900000Y-103500013D01*
X130900000Y-103750000D01*
X131750000Y-103750000D01*
X131750000Y-102800000D01*
X131600027Y-102800000D01*
X131600012Y-102800001D01*
X131497302Y-102810494D01*
X131330880Y-102865641D01*
X131330875Y-102865643D01*
X131181654Y-102957684D01*
X131057684Y-103081654D01*
X130965643Y-103230875D01*
X130965641Y-103230880D01*
X130910494Y-103397302D01*
X130910493Y-103397309D01*
X130900000Y-103500013D01*
X126849223Y-103500013D01*
X126860520Y-103488716D01*
X126860521Y-103488713D01*
X136932420Y-93416814D01*
X136951850Y-93406205D01*
X136968586Y-93391703D01*
X136981919Y-93389785D01*
X136993741Y-93383331D01*
X137015826Y-93384910D01*
X137037745Y-93381759D01*
X137049997Y-93387354D01*
X137063433Y-93388315D01*
X137081158Y-93401584D01*
X137101301Y-93410783D01*
X137108584Y-93422115D01*
X137119366Y-93430187D01*
X137127103Y-93450931D01*
X137139076Y-93469561D01*
X137142227Y-93491480D01*
X137143783Y-93495651D01*
X137144099Y-93504496D01*
X137144099Y-93577856D01*
X137144099Y-93577858D01*
X137144100Y-93587852D01*
X137144100Y-106917802D01*
X137124415Y-106984841D01*
X137107781Y-107005483D01*
X136862534Y-107250730D01*
X135185243Y-108928022D01*
X134387583Y-109725681D01*
X134326260Y-109759166D01*
X134299902Y-109762000D01*
X133823500Y-109762000D01*
X133756461Y-109742315D01*
X133710706Y-109689511D01*
X133699500Y-109638000D01*
X133699500Y-105324499D01*
X133719185Y-105257460D01*
X133771989Y-105211705D01*
X133823500Y-105200499D01*
X134400002Y-105200499D01*
X134400008Y-105200499D01*
X134502797Y-105189999D01*
X134669334Y-105134814D01*
X134818656Y-105042712D01*
X134942712Y-104918656D01*
X135034814Y-104769334D01*
X135089999Y-104602797D01*
X135100500Y-104500009D01*
X135100499Y-103499992D01*
X135089999Y-103397203D01*
X135034814Y-103230666D01*
X134942712Y-103081344D01*
X134818656Y-102957288D01*
X134690338Y-102878141D01*
X134669336Y-102865187D01*
X134669331Y-102865185D01*
X134667862Y-102864698D01*
X134502797Y-102810001D01*
X134502795Y-102810000D01*
X134400010Y-102799500D01*
X133599998Y-102799500D01*
X133599980Y-102799501D01*
X133497203Y-102810000D01*
X133497200Y-102810001D01*
X133330668Y-102865185D01*
X133330663Y-102865187D01*
X133181345Y-102957287D01*
X133087327Y-103051305D01*
X133026003Y-103084789D01*
X132956312Y-103079805D01*
X132911965Y-103051304D01*
X132818345Y-102957684D01*
X132669124Y-102865643D01*
X132669119Y-102865641D01*
X132502697Y-102810494D01*
X132502690Y-102810493D01*
X132399986Y-102800000D01*
X132250000Y-102800000D01*
X132250000Y-105199999D01*
X132374500Y-105199999D01*
X132441539Y-105219684D01*
X132487294Y-105272488D01*
X132498500Y-105323999D01*
X132498500Y-109638500D01*
X132478815Y-109705539D01*
X132426011Y-109751294D01*
X132374500Y-109762500D01*
X132250000Y-109762500D01*
X132250000Y-112162499D01*
X132399972Y-112162499D01*
X132399986Y-112162498D01*
X132502695Y-112152006D01*
X132618932Y-112113488D01*
X132688760Y-112111086D01*
X132745618Y-112143513D01*
X132929979Y-112327874D01*
X132929989Y-112327885D01*
X132934319Y-112332215D01*
X132934320Y-112332216D01*
X133046124Y-112444020D01*
X133098364Y-112474180D01*
X133132935Y-112494139D01*
X133132937Y-112494141D01*
X133183053Y-112523076D01*
X133183055Y-112523077D01*
X133335782Y-112564000D01*
X133335783Y-112564000D01*
X134498491Y-112564000D01*
X134498507Y-112564001D01*
X134506103Y-112564001D01*
X134664214Y-112564001D01*
X134664217Y-112564001D01*
X134816945Y-112523077D01*
X134867064Y-112494139D01*
X134953876Y-112444020D01*
X135065680Y-112332216D01*
X135065680Y-112332214D01*
X135075888Y-112322007D01*
X135075889Y-112322004D01*
X138626120Y-108771776D01*
X138630612Y-108763996D01*
X138681178Y-108715779D01*
X138749785Y-108702555D01*
X138814650Y-108728522D01*
X138855179Y-108785436D01*
X138862000Y-108825994D01*
X138862000Y-109773732D01*
X138842315Y-109840771D01*
X138803098Y-109879269D01*
X138717142Y-109932288D01*
X138656342Y-109969789D01*
X138532289Y-110093842D01*
X138440187Y-110243163D01*
X138440185Y-110243168D01*
X138440115Y-110243380D01*
X138385001Y-110409703D01*
X138385001Y-110409704D01*
X138385000Y-110409704D01*
X138374500Y-110512483D01*
X138374500Y-111562501D01*
X138374501Y-111562519D01*
X138385000Y-111665296D01*
X138385001Y-111665299D01*
X138440185Y-111831831D01*
X138440187Y-111831836D01*
X138470416Y-111880845D01*
X138532288Y-111981156D01*
X138656344Y-112105212D01*
X138805666Y-112197314D01*
X138972203Y-112252499D01*
X139074991Y-112263000D01*
X139787401Y-112262999D01*
X139854440Y-112282683D01*
X139875082Y-112299318D01*
X155556284Y-127980520D01*
X155556286Y-127980521D01*
X155556290Y-127980524D01*
X155693209Y-128059573D01*
X155693216Y-128059577D01*
X155845943Y-128100501D01*
X155845945Y-128100501D01*
X156011654Y-128100501D01*
X156011670Y-128100500D01*
X159029092Y-128100500D01*
X159096131Y-128120185D01*
X159134636Y-128164271D01*
X159136395Y-128163187D01*
X159140185Y-128169332D01*
X159140186Y-128169334D01*
X159232288Y-128318656D01*
X159356344Y-128442712D01*
X159505666Y-128534814D01*
X159672203Y-128589999D01*
X159774991Y-128600500D01*
X161125008Y-128600499D01*
X161227797Y-128589999D01*
X161394334Y-128534814D01*
X161543656Y-128442712D01*
X161667712Y-128318656D01*
X161759814Y-128169334D01*
X161759814Y-128169332D01*
X161763605Y-128163187D01*
X161765399Y-128164293D01*
X161804687Y-128119663D01*
X161870908Y-128100500D01*
X170913331Y-128100500D01*
X170913347Y-128100501D01*
X170920943Y-128100501D01*
X171079054Y-128100501D01*
X171079057Y-128100501D01*
X171231785Y-128059577D01*
X171281904Y-128030639D01*
X171368716Y-127980520D01*
X171480520Y-127868716D01*
X171480520Y-127868714D01*
X171490728Y-127858507D01*
X171490729Y-127858504D01*
X180057520Y-119291716D01*
X180136577Y-119154784D01*
X180177501Y-119002057D01*
X180177501Y-118843942D01*
X180177501Y-118836347D01*
X180177500Y-118836329D01*
X180177500Y-104666059D01*
X180177501Y-104666046D01*
X180177501Y-104497945D01*
X180177501Y-104497943D01*
X180136577Y-104345215D01*
X180100885Y-104283395D01*
X180057520Y-104208284D01*
X179945716Y-104096480D01*
X179945715Y-104096479D01*
X179941385Y-104092149D01*
X179941374Y-104092139D01*
X179045819Y-103196584D01*
X179012334Y-103135261D01*
X179009500Y-103108903D01*
X179009500Y-102383638D01*
X178986782Y-102240208D01*
X178975286Y-102167625D01*
X178909434Y-101964951D01*
X178907702Y-101959619D01*
X178907701Y-101959616D01*
X178861245Y-101868443D01*
X178808407Y-101764743D01*
X178789681Y-101738969D01*
X178679857Y-101587806D01*
X178525193Y-101433142D01*
X178348260Y-101304595D01*
X178348259Y-101304594D01*
X178348257Y-101304593D01*
X178285825Y-101272782D01*
X178153383Y-101205298D01*
X178153380Y-101205297D01*
X177945376Y-101137714D01*
X177729361Y-101103500D01*
X177729356Y-101103500D01*
X177510644Y-101103500D01*
X177510639Y-101103500D01*
X177294623Y-101137714D01*
X177086619Y-101205297D01*
X177086616Y-101205298D01*
X176891739Y-101304595D01*
X176714806Y-101433142D01*
X176560146Y-101587802D01*
X176560142Y-101587807D01*
X176450008Y-101739394D01*
X176394678Y-101782060D01*
X176325065Y-101788039D01*
X176263270Y-101755433D01*
X176249372Y-101739394D01*
X176139475Y-101588133D01*
X176139471Y-101588128D01*
X175984871Y-101433528D01*
X175984866Y-101433524D01*
X175807998Y-101305023D01*
X175613191Y-101205762D01*
X175613188Y-101205761D01*
X175405258Y-101138201D01*
X175330000Y-101126281D01*
X175330000Y-102177748D01*
X175276081Y-102146619D01*
X175146880Y-102112000D01*
X175013120Y-102112000D01*
X174883919Y-102146619D01*
X174830000Y-102177748D01*
X174830000Y-101126281D01*
X174754741Y-101138201D01*
X174546811Y-101205761D01*
X174546808Y-101205762D01*
X174352001Y-101305023D01*
X174175128Y-101433527D01*
X174174660Y-101433928D01*
X174174445Y-101434024D01*
X174171185Y-101436393D01*
X174170687Y-101435707D01*
X174110895Y-101462491D01*
X174041811Y-101452046D01*
X174006458Y-101427309D01*
X173520504Y-100941355D01*
X173520502Y-100941352D01*
X173401631Y-100822481D01*
X173401626Y-100822477D01*
X173294277Y-100760500D01*
X173294275Y-100760499D01*
X173264701Y-100743424D01*
X173264700Y-100743423D01*
X173264699Y-100743423D01*
X173111971Y-100702499D01*
X172953857Y-100702499D01*
X172946261Y-100702499D01*
X172946245Y-100702500D01*
X168697942Y-100702500D01*
X168545212Y-100743423D01*
X168515639Y-100760499D01*
X168515637Y-100760500D01*
X168408287Y-100822477D01*
X168408282Y-100822481D01*
X168296478Y-100934286D01*
X168071328Y-101159435D01*
X168010005Y-101192920D01*
X167945329Y-101189685D01*
X167785376Y-101137714D01*
X167569361Y-101103500D01*
X167569356Y-101103500D01*
X167350644Y-101103500D01*
X167350639Y-101103500D01*
X167134623Y-101137714D01*
X166926619Y-101205297D01*
X166926616Y-101205298D01*
X166731739Y-101304595D01*
X166554806Y-101433142D01*
X166400142Y-101587806D01*
X166290318Y-101738969D01*
X166234989Y-101781635D01*
X166165375Y-101787614D01*
X166103580Y-101755009D01*
X166089682Y-101738969D01*
X165979857Y-101587806D01*
X165825193Y-101433142D01*
X165648260Y-101304595D01*
X165648259Y-101304594D01*
X165648257Y-101304593D01*
X165585825Y-101272782D01*
X165453383Y-101205298D01*
X165453380Y-101205297D01*
X165245376Y-101137714D01*
X165029361Y-101103500D01*
X165029356Y-101103500D01*
X164810644Y-101103500D01*
X164810639Y-101103500D01*
X164594623Y-101137714D01*
X164386619Y-101205297D01*
X164386616Y-101205298D01*
X164191739Y-101304595D01*
X164014806Y-101433142D01*
X163860142Y-101587806D01*
X163750318Y-101738969D01*
X163694989Y-101781635D01*
X163625375Y-101787614D01*
X163563580Y-101755009D01*
X163549682Y-101738969D01*
X163439857Y-101587806D01*
X163285193Y-101433142D01*
X163108260Y-101304595D01*
X163108259Y-101304594D01*
X163108257Y-101304593D01*
X163045825Y-101272782D01*
X162913383Y-101205298D01*
X162913380Y-101205297D01*
X162705376Y-101137714D01*
X162489361Y-101103500D01*
X162489356Y-101103500D01*
X162270644Y-101103500D01*
X162270639Y-101103500D01*
X162054623Y-101137714D01*
X161846619Y-101205297D01*
X161846616Y-101205298D01*
X161651739Y-101304595D01*
X161474806Y-101433142D01*
X161320142Y-101587806D01*
X161191595Y-101764739D01*
X161092298Y-101959616D01*
X161092297Y-101959619D01*
X161024714Y-102167623D01*
X160990500Y-102383638D01*
X160990500Y-104380361D01*
X161024713Y-104596371D01*
X161024714Y-104596377D01*
X161057792Y-104698183D01*
X161059787Y-104768024D01*
X161023706Y-104827856D01*
X160961005Y-104858684D01*
X160939861Y-104860500D01*
X158503898Y-104860500D01*
X158436859Y-104840815D01*
X158416217Y-104824181D01*
X152695035Y-99102999D01*
X152661550Y-99041676D01*
X152666534Y-98971984D01*
X152708406Y-98916051D01*
X152744399Y-98897386D01*
X152777758Y-98886548D01*
X152981538Y-98782717D01*
X153166566Y-98648286D01*
X153328286Y-98486566D01*
X153462717Y-98301538D01*
X153566548Y-98097758D01*
X153575755Y-98069421D01*
X153637221Y-97880249D01*
X153637221Y-97880248D01*
X153637222Y-97880245D01*
X153673000Y-97654354D01*
X153673000Y-97425646D01*
X153637222Y-97199755D01*
X153637221Y-97199751D01*
X153637221Y-97199750D01*
X153566549Y-96982244D01*
X153535424Y-96921158D01*
X153462717Y-96778462D01*
X153328286Y-96593434D01*
X153166566Y-96431714D01*
X152981538Y-96297283D01*
X152968426Y-96290602D01*
X152777755Y-96193450D01*
X152560248Y-96122778D01*
X152390826Y-96095944D01*
X152334354Y-96087000D01*
X152105646Y-96087000D01*
X152030349Y-96098926D01*
X151879753Y-96122778D01*
X151879750Y-96122778D01*
X151662244Y-96193450D01*
X151458461Y-96297283D01*
X151352896Y-96373980D01*
X151273434Y-96431714D01*
X151273432Y-96431716D01*
X151273431Y-96431716D01*
X151111716Y-96593431D01*
X151111716Y-96593432D01*
X151111714Y-96593434D01*
X151084213Y-96631286D01*
X150977283Y-96778461D01*
X150873451Y-96982243D01*
X150862612Y-97015602D01*
X150823174Y-97073277D01*
X150758815Y-97100475D01*
X150689969Y-97088560D01*
X150657000Y-97064964D01*
X145415648Y-91823612D01*
X145382163Y-91762289D01*
X145387147Y-91692597D01*
X145394499Y-91676500D01*
X145398193Y-91669733D01*
X145398196Y-91669730D01*
X145448491Y-91534882D01*
X145454900Y-91475272D01*
X145454899Y-91349500D01*
X145474583Y-91282462D01*
X145527387Y-91236707D01*
X145578899Y-91225501D01*
X151100285Y-91225501D01*
X151167324Y-91245186D01*
X151213079Y-91297990D01*
X151223023Y-91367148D01*
X151193998Y-91430704D01*
X151187966Y-91437182D01*
X151111716Y-91513431D01*
X151111716Y-91513432D01*
X151111714Y-91513434D01*
X151096131Y-91534882D01*
X150977283Y-91698461D01*
X150873450Y-91902244D01*
X150802778Y-92119750D01*
X150802778Y-92119753D01*
X150767000Y-92345646D01*
X150767000Y-92574353D01*
X150802778Y-92800246D01*
X150802778Y-92800249D01*
X150873450Y-93017755D01*
X150873452Y-93017758D01*
X150977283Y-93221538D01*
X151111714Y-93406566D01*
X151273434Y-93568286D01*
X151458462Y-93702717D01*
X151628632Y-93789423D01*
X151662244Y-93806549D01*
X151879751Y-93877221D01*
X151879752Y-93877221D01*
X151879755Y-93877222D01*
X152105646Y-93913000D01*
X152105647Y-93913000D01*
X152334353Y-93913000D01*
X152334354Y-93913000D01*
X152560245Y-93877222D01*
X152560248Y-93877221D01*
X152560249Y-93877221D01*
X152777755Y-93806549D01*
X152777755Y-93806548D01*
X152777758Y-93806548D01*
X152981538Y-93702717D01*
X153166566Y-93568286D01*
X153328286Y-93406566D01*
X153462717Y-93221538D01*
X153566548Y-93017758D01*
X153637222Y-92800245D01*
X153673000Y-92574354D01*
X153673000Y-92345646D01*
X153637222Y-92119755D01*
X153637221Y-92119751D01*
X153637221Y-92119750D01*
X153566549Y-91902244D01*
X153522321Y-91815441D01*
X153462717Y-91698462D01*
X153328286Y-91513434D01*
X153252034Y-91437182D01*
X153218549Y-91375859D01*
X153223533Y-91306167D01*
X153265405Y-91250234D01*
X153330869Y-91225817D01*
X153339715Y-91225501D01*
X168288330Y-91225501D01*
X168288346Y-91225502D01*
X168295942Y-91225502D01*
X168454053Y-91225502D01*
X168454056Y-91225502D01*
X168606784Y-91184578D01*
X168683865Y-91140075D01*
X168743715Y-91105521D01*
X168855519Y-90993717D01*
X168855519Y-90993715D01*
X168865723Y-90983512D01*
X168865726Y-90983507D01*
X169514665Y-90334570D01*
X169575984Y-90301088D01*
X169578151Y-90300637D01*
X169578840Y-90300500D01*
X169578842Y-90300500D01*
X169733497Y-90269737D01*
X169879179Y-90209394D01*
X170010289Y-90121789D01*
X170121789Y-90010289D01*
X170209394Y-89879179D01*
X170269737Y-89733497D01*
X170300500Y-89578842D01*
X170300500Y-89421500D01*
X170320185Y-89354461D01*
X170372989Y-89308706D01*
X170424500Y-89297500D01*
X171136331Y-89297500D01*
X171136347Y-89297501D01*
X171143943Y-89297501D01*
X171302054Y-89297501D01*
X171302057Y-89297501D01*
X171454785Y-89256577D01*
X171545944Y-89203946D01*
X171591716Y-89177520D01*
X171703520Y-89065716D01*
X171703520Y-89065714D01*
X171713724Y-89055511D01*
X171713728Y-89055506D01*
X171928672Y-88840561D01*
X171989993Y-88807078D01*
X172054665Y-88810312D01*
X172147768Y-88840563D01*
X172214624Y-88862286D01*
X172430639Y-88896500D01*
X172430644Y-88896500D01*
X172649361Y-88896500D01*
X172754082Y-88879912D01*
X172865375Y-88862286D01*
X173073383Y-88794701D01*
X173268257Y-88695407D01*
X173389721Y-88607159D01*
X173445193Y-88566857D01*
X173445195Y-88566854D01*
X173445199Y-88566852D01*
X173599852Y-88412199D01*
X173709683Y-88261028D01*
X173765011Y-88218364D01*
X173834624Y-88212385D01*
X173896420Y-88244990D01*
X173910313Y-88261023D01*
X173956329Y-88324359D01*
X174020148Y-88412199D01*
X174174806Y-88566857D01*
X174323655Y-88675000D01*
X174351743Y-88695407D01*
X174469289Y-88755300D01*
X174546616Y-88794701D01*
X174546619Y-88794702D01*
X174628060Y-88821163D01*
X174754625Y-88862286D01*
X174854672Y-88878132D01*
X174970639Y-88896500D01*
X174970644Y-88896500D01*
X175189361Y-88896500D01*
X175294082Y-88879912D01*
X175405375Y-88862286D01*
X175613383Y-88794701D01*
X175808257Y-88695407D01*
X175929721Y-88607159D01*
X175985193Y-88566857D01*
X175985195Y-88566854D01*
X175985199Y-88566852D01*
X176139852Y-88412199D01*
X176249683Y-88261028D01*
X176305011Y-88218364D01*
X176374624Y-88212385D01*
X176436420Y-88244990D01*
X176450313Y-88261023D01*
X176496329Y-88324359D01*
X176560148Y-88412199D01*
X176714806Y-88566857D01*
X176863655Y-88675000D01*
X176891743Y-88695407D01*
X177009289Y-88755300D01*
X177086616Y-88794701D01*
X177086619Y-88794702D01*
X177168060Y-88821163D01*
X177294625Y-88862286D01*
X177394672Y-88878132D01*
X177510639Y-88896500D01*
X177510644Y-88896500D01*
X177729361Y-88896500D01*
X177834082Y-88879912D01*
X177945375Y-88862286D01*
X178153383Y-88794701D01*
X178348257Y-88695407D01*
X178469721Y-88607159D01*
X178525193Y-88566857D01*
X178525195Y-88566854D01*
X178525199Y-88566852D01*
X178679852Y-88412199D01*
X178679854Y-88412195D01*
X178679857Y-88412193D01*
X178756804Y-88306283D01*
X178808407Y-88235257D01*
X178907701Y-88040383D01*
X178975286Y-87832375D01*
X179000284Y-87674545D01*
X179009500Y-87616361D01*
X179009500Y-85619638D01*
X178989595Y-85493971D01*
X178975286Y-85403625D01*
X178934229Y-85277264D01*
X178907702Y-85195619D01*
X178907701Y-85195616D01*
X178820060Y-85023614D01*
X178808407Y-85000743D01*
X178789681Y-84974969D01*
X178679857Y-84823806D01*
X178525193Y-84669142D01*
X178348260Y-84540595D01*
X178348259Y-84540594D01*
X178348257Y-84540593D01*
X178285825Y-84508782D01*
X178153383Y-84441298D01*
X178153380Y-84441297D01*
X177945376Y-84373714D01*
X177729361Y-84339500D01*
X177729356Y-84339500D01*
X177510644Y-84339500D01*
X177510639Y-84339500D01*
X177294623Y-84373714D01*
X177086619Y-84441297D01*
X177086616Y-84441298D01*
X176891739Y-84540595D01*
X176714806Y-84669142D01*
X176560142Y-84823806D01*
X176450318Y-84974969D01*
X176394989Y-85017635D01*
X176325375Y-85023614D01*
X176263580Y-84991009D01*
X176249682Y-84974969D01*
X176139857Y-84823806D01*
X175985193Y-84669142D01*
X175808260Y-84540595D01*
X175808259Y-84540594D01*
X175808257Y-84540593D01*
X175745825Y-84508782D01*
X175613383Y-84441298D01*
X175613380Y-84441297D01*
X175405376Y-84373714D01*
X175189361Y-84339500D01*
X175189356Y-84339500D01*
X174970644Y-84339500D01*
X174970639Y-84339500D01*
X174754623Y-84373714D01*
X174546619Y-84441297D01*
X174546616Y-84441298D01*
X174351739Y-84540595D01*
X174174799Y-84669148D01*
X174174298Y-84669577D01*
X174174068Y-84669679D01*
X174170860Y-84672011D01*
X174170369Y-84671336D01*
X174110531Y-84698136D01*
X174041447Y-84687686D01*
X174006104Y-84662954D01*
X173520503Y-84177354D01*
X173520502Y-84177352D01*
X173401631Y-84058481D01*
X173401630Y-84058480D01*
X173314818Y-84008360D01*
X173314818Y-84008359D01*
X173314814Y-84008358D01*
X173264699Y-83979423D01*
X173111971Y-83938499D01*
X172953857Y-83938499D01*
X172946261Y-83938499D01*
X172946245Y-83938500D01*
X146635258Y-83938500D01*
X146477143Y-83938500D01*
X146324416Y-83979423D01*
X146324415Y-83979423D01*
X146324413Y-83979424D01*
X146324410Y-83979425D01*
X146274297Y-84008359D01*
X146274296Y-84008360D01*
X146230890Y-84033420D01*
X146187486Y-84058479D01*
X146187483Y-84058481D01*
X146075679Y-84170286D01*
X144210182Y-86035782D01*
X144148859Y-86069267D01*
X144122501Y-86072101D01*
X143738129Y-86072101D01*
X143738123Y-86072102D01*
X143678516Y-86078509D01*
X143543671Y-86128803D01*
X143543664Y-86128807D01*
X143428455Y-86215053D01*
X143428452Y-86215056D01*
X143342206Y-86330265D01*
X143342202Y-86330272D01*
X143296348Y-86453216D01*
X143291909Y-86465118D01*
X143285500Y-86524728D01*
X143285500Y-86524735D01*
X143285500Y-86524736D01*
X143285500Y-86925271D01*
X143285501Y-86925277D01*
X143291908Y-86984884D01*
X143300034Y-87006670D01*
X143301765Y-87030884D01*
X143307773Y-87054402D01*
X143304591Y-87070406D01*
X143305017Y-87076362D01*
X143301513Y-87089136D01*
X143300797Y-87091287D01*
X143291909Y-87115119D01*
X143291449Y-87119392D01*
X143287800Y-87130365D01*
X143270901Y-87154714D01*
X143256235Y-87180467D01*
X143251202Y-87183098D01*
X143247964Y-87187766D01*
X143220581Y-87199114D01*
X143194322Y-87212849D01*
X143187443Y-87212848D01*
X143183418Y-87214517D01*
X143174157Y-87212848D01*
X143145947Y-87212847D01*
X143078846Y-87199500D01*
X143078842Y-87199500D01*
X142921158Y-87199500D01*
X142921155Y-87199500D01*
X142766510Y-87230261D01*
X142766498Y-87230264D01*
X142620827Y-87290602D01*
X142620814Y-87290609D01*
X142489711Y-87378210D01*
X142489707Y-87378213D01*
X142378213Y-87489707D01*
X142378210Y-87489711D01*
X142290609Y-87620814D01*
X142290602Y-87620827D01*
X142230264Y-87766498D01*
X142230261Y-87766510D01*
X142199500Y-87921153D01*
X142199500Y-88078846D01*
X142230261Y-88233489D01*
X142230264Y-88233501D01*
X142290602Y-88379172D01*
X142290609Y-88379185D01*
X142378210Y-88510288D01*
X142378213Y-88510292D01*
X142489707Y-88621786D01*
X142489711Y-88621789D01*
X142620814Y-88709390D01*
X142620827Y-88709397D01*
X142766498Y-88769735D01*
X142766503Y-88769737D01*
X142892005Y-88794701D01*
X142921153Y-88800499D01*
X142921156Y-88800500D01*
X142966249Y-88800500D01*
X143033288Y-88820185D01*
X143079043Y-88872989D01*
X143088987Y-88942147D01*
X143059962Y-89005703D01*
X143001184Y-89043477D01*
X142990440Y-89046117D01*
X142940775Y-89055996D01*
X142940763Y-89055999D01*
X142795092Y-89116337D01*
X142795081Y-89116343D01*
X142682171Y-89191787D01*
X142615494Y-89212664D01*
X142548113Y-89194179D01*
X142525600Y-89176365D01*
X139712588Y-86363353D01*
X139705521Y-86356286D01*
X139705521Y-86356285D01*
X139599418Y-86250182D01*
X139587834Y-86236813D01*
X139571546Y-86215055D01*
X139571544Y-86215054D01*
X139571544Y-86215053D01*
X139456335Y-86128807D01*
X139456328Y-86128803D01*
X139321482Y-86078509D01*
X139321483Y-86078509D01*
X139261883Y-86072102D01*
X139261881Y-86072101D01*
X139261873Y-86072101D01*
X139261864Y-86072101D01*
X137997729Y-86072101D01*
X137997723Y-86072102D01*
X137938116Y-86078509D01*
X137803271Y-86128803D01*
X137803264Y-86128807D01*
X137688055Y-86215053D01*
X137688052Y-86215056D01*
X137601806Y-86330265D01*
X137601802Y-86330272D01*
X137555948Y-86453216D01*
X137551509Y-86465118D01*
X137545100Y-86524728D01*
X137545100Y-86524735D01*
X137545100Y-86524736D01*
X137545100Y-86524737D01*
X137545101Y-86650498D01*
X137525417Y-86717538D01*
X137472613Y-86763293D01*
X137421101Y-86774499D01*
X136545942Y-86774499D01*
X136461727Y-86797064D01*
X136391877Y-86795401D01*
X136382183Y-86791850D01*
X136233501Y-86730264D01*
X136233489Y-86730261D01*
X136078845Y-86699500D01*
X136078842Y-86699500D01*
X135921158Y-86699500D01*
X135921155Y-86699500D01*
X135766510Y-86730261D01*
X135766498Y-86730264D01*
X135620827Y-86790602D01*
X135620814Y-86790609D01*
X135489711Y-86878210D01*
X135489707Y-86878213D01*
X135378213Y-86989707D01*
X135378210Y-86989711D01*
X135290609Y-87120814D01*
X135290602Y-87120827D01*
X135230264Y-87266498D01*
X135230261Y-87266510D01*
X135199500Y-87421153D01*
X135199500Y-87578846D01*
X135230261Y-87733489D01*
X135230264Y-87733501D01*
X135290602Y-87879172D01*
X135290609Y-87879185D01*
X135378210Y-88010288D01*
X135378213Y-88010292D01*
X135489707Y-88121786D01*
X135489711Y-88121789D01*
X135620814Y-88209390D01*
X135620827Y-88209397D01*
X135745482Y-88261030D01*
X135766503Y-88269737D01*
X135921153Y-88300499D01*
X135921156Y-88300500D01*
X135921158Y-88300500D01*
X136078844Y-88300500D01*
X136078845Y-88300499D01*
X136233497Y-88269737D01*
X136379179Y-88209394D01*
X136460445Y-88155094D01*
X136510873Y-88121399D01*
X136571124Y-88102532D01*
X136570997Y-88101562D01*
X136576568Y-88100828D01*
X136577550Y-88100521D01*
X136579002Y-88100507D01*
X136579054Y-88100501D01*
X136579057Y-88100501D01*
X136731785Y-88059577D01*
X136795344Y-88022881D01*
X136848638Y-87992112D01*
X136910638Y-87975499D01*
X137396973Y-87975499D01*
X137464012Y-87995184D01*
X137509767Y-88047988D01*
X137519711Y-88117146D01*
X137490686Y-88180702D01*
X137482403Y-88188504D01*
X137482631Y-88188732D01*
X137365078Y-88306285D01*
X131959183Y-93712181D01*
X131897860Y-93745666D01*
X131871502Y-93748500D01*
X103877670Y-93748500D01*
X103877654Y-93748499D01*
X103870058Y-93748499D01*
X103711943Y-93748499D01*
X103597397Y-93779192D01*
X103559214Y-93789423D01*
X103529554Y-93806548D01*
X103529553Y-93806548D01*
X103422287Y-93868477D01*
X103422282Y-93868481D01*
X103310478Y-93980286D01*
X103124522Y-94166241D01*
X103063199Y-94199726D01*
X102998523Y-94196491D01*
X102956245Y-94182754D01*
X102816272Y-94160584D01*
X102746287Y-94149500D01*
X102533713Y-94149500D01*
X102485042Y-94157208D01*
X102323760Y-94182753D01*
X102121585Y-94248444D01*
X101932179Y-94344951D01*
X101760213Y-94469890D01*
X101609890Y-94620213D01*
X101484951Y-94792179D01*
X101388444Y-94981585D01*
X101322753Y-95183760D01*
X101289500Y-95393713D01*
X95500500Y-95393713D01*
X95500500Y-89172378D01*
X111619500Y-89172378D01*
X111619500Y-89447621D01*
X111650315Y-89721108D01*
X111650317Y-89721124D01*
X111711561Y-89989453D01*
X111711565Y-89989465D01*
X111802467Y-90249246D01*
X111921884Y-90497218D01*
X111921886Y-90497221D01*
X112068319Y-90730268D01*
X112239925Y-90945455D01*
X112434545Y-91140075D01*
X112649732Y-91311681D01*
X112882779Y-91458114D01*
X113130757Y-91577534D01*
X113325865Y-91645805D01*
X113390534Y-91668434D01*
X113390546Y-91668438D01*
X113658879Y-91729683D01*
X113932378Y-91760499D01*
X113932379Y-91760500D01*
X113932383Y-91760500D01*
X114207621Y-91760500D01*
X114207621Y-91760499D01*
X114481121Y-91729683D01*
X114749454Y-91668438D01*
X115009243Y-91577534D01*
X115257221Y-91458114D01*
X115490268Y-91311681D01*
X115705455Y-91140075D01*
X115900075Y-90945455D01*
X116071681Y-90730268D01*
X116218114Y-90497221D01*
X116337534Y-90249243D01*
X116428438Y-89989454D01*
X116489683Y-89721121D01*
X116520500Y-89447617D01*
X116520500Y-89172383D01*
X116489683Y-88898879D01*
X116428438Y-88630546D01*
X116409258Y-88575734D01*
X116399321Y-88547335D01*
X116337534Y-88370757D01*
X116218114Y-88122779D01*
X116071681Y-87889732D01*
X115900075Y-87674545D01*
X115705455Y-87479925D01*
X115490268Y-87308319D01*
X115257221Y-87161886D01*
X115257218Y-87161884D01*
X115009246Y-87042467D01*
X114749465Y-86951565D01*
X114749453Y-86951561D01*
X114481124Y-86890317D01*
X114481108Y-86890315D01*
X114207621Y-86859500D01*
X114207617Y-86859500D01*
X113932383Y-86859500D01*
X113932379Y-86859500D01*
X113658891Y-86890315D01*
X113658875Y-86890317D01*
X113390546Y-86951561D01*
X113390534Y-86951565D01*
X113130753Y-87042467D01*
X112882781Y-87161884D01*
X112649733Y-87308318D01*
X112434545Y-87479924D01*
X112239924Y-87674545D01*
X112068318Y-87889733D01*
X111921884Y-88122781D01*
X111802467Y-88370753D01*
X111711565Y-88630534D01*
X111711561Y-88630546D01*
X111650317Y-88898875D01*
X111650315Y-88898891D01*
X111619500Y-89172378D01*
X95500500Y-89172378D01*
X95500500Y-80002706D01*
X95500618Y-79997297D01*
X95507857Y-79831491D01*
X96999500Y-79831491D01*
X96999500Y-80168508D01*
X97037231Y-80503381D01*
X97037233Y-80503397D01*
X97112223Y-80831953D01*
X97112227Y-80831965D01*
X97223532Y-81150054D01*
X97369752Y-81453683D01*
X97369754Y-81453686D01*
X97549054Y-81739039D01*
X97759175Y-82002523D01*
X97997477Y-82240825D01*
X98260961Y-82450946D01*
X98546314Y-82630246D01*
X98849949Y-82776469D01*
X99088848Y-82860063D01*
X99168034Y-82887772D01*
X99168046Y-82887776D01*
X99496606Y-82962767D01*
X99831492Y-83000499D01*
X99831493Y-83000500D01*
X99831496Y-83000500D01*
X100168507Y-83000500D01*
X100168507Y-83000499D01*
X100503394Y-82962767D01*
X100831954Y-82887776D01*
X101150051Y-82776469D01*
X101453686Y-82630246D01*
X101739039Y-82450946D01*
X102002523Y-82240825D01*
X102240825Y-82002523D01*
X102450946Y-81739039D01*
X102630246Y-81453686D01*
X102776469Y-81150051D01*
X102887776Y-80831954D01*
X102962767Y-80503394D01*
X103000500Y-80168504D01*
X103000500Y-79831496D01*
X103000499Y-79831491D01*
X176999500Y-79831491D01*
X176999500Y-80168508D01*
X177037231Y-80503381D01*
X177037233Y-80503397D01*
X177112223Y-80831953D01*
X177112227Y-80831965D01*
X177223532Y-81150054D01*
X177369752Y-81453683D01*
X177369754Y-81453686D01*
X177549054Y-81739039D01*
X177759175Y-82002523D01*
X177997477Y-82240825D01*
X178260961Y-82450946D01*
X178546314Y-82630246D01*
X178849949Y-82776469D01*
X179088848Y-82860063D01*
X179168034Y-82887772D01*
X179168046Y-82887776D01*
X179496606Y-82962767D01*
X179831492Y-83000499D01*
X179831493Y-83000500D01*
X179831496Y-83000500D01*
X180168507Y-83000500D01*
X180168507Y-83000499D01*
X180503394Y-82962767D01*
X180831954Y-82887776D01*
X181150051Y-82776469D01*
X181453686Y-82630246D01*
X181739039Y-82450946D01*
X182002523Y-82240825D01*
X182240825Y-82002523D01*
X182450946Y-81739039D01*
X182630246Y-81453686D01*
X182776469Y-81150051D01*
X182887776Y-80831954D01*
X182962767Y-80503394D01*
X183000500Y-80168504D01*
X183000500Y-79831496D01*
X182962767Y-79496606D01*
X182887776Y-79168046D01*
X182776469Y-78849949D01*
X182630246Y-78546314D01*
X182450946Y-78260961D01*
X182240825Y-77997477D01*
X182002523Y-77759175D01*
X181991331Y-77750250D01*
X181780520Y-77582134D01*
X181739039Y-77549054D01*
X181453686Y-77369754D01*
X181453683Y-77369752D01*
X181150054Y-77223532D01*
X180831965Y-77112227D01*
X180831953Y-77112223D01*
X180503397Y-77037233D01*
X180503381Y-77037231D01*
X180168508Y-76999500D01*
X180168504Y-76999500D01*
X179831496Y-76999500D01*
X179831491Y-76999500D01*
X179496618Y-77037231D01*
X179496602Y-77037233D01*
X179168046Y-77112223D01*
X179168034Y-77112227D01*
X178849945Y-77223532D01*
X178546316Y-77369752D01*
X178260962Y-77549053D01*
X177997477Y-77759174D01*
X177759174Y-77997477D01*
X177549053Y-78260962D01*
X177369752Y-78546316D01*
X177223532Y-78849945D01*
X177112227Y-79168034D01*
X177112223Y-79168046D01*
X177037233Y-79496602D01*
X177037231Y-79496618D01*
X176999500Y-79831491D01*
X103000499Y-79831491D01*
X102962767Y-79496606D01*
X102887776Y-79168046D01*
X102776469Y-78849949D01*
X102630246Y-78546314D01*
X102450946Y-78260961D01*
X102240825Y-77997477D01*
X102002523Y-77759175D01*
X101991331Y-77750250D01*
X101780520Y-77582134D01*
X101739039Y-77549054D01*
X101453686Y-77369754D01*
X101453683Y-77369752D01*
X101150054Y-77223532D01*
X100831965Y-77112227D01*
X100831953Y-77112223D01*
X100503397Y-77037233D01*
X100503381Y-77037231D01*
X100168508Y-76999500D01*
X100168504Y-76999500D01*
X99831496Y-76999500D01*
X99831491Y-76999500D01*
X99496618Y-77037231D01*
X99496602Y-77037233D01*
X99168046Y-77112223D01*
X99168034Y-77112227D01*
X98849945Y-77223532D01*
X98546316Y-77369752D01*
X98260962Y-77549053D01*
X97997477Y-77759174D01*
X97759174Y-77997477D01*
X97549053Y-78260962D01*
X97369752Y-78546316D01*
X97223532Y-78849945D01*
X97112227Y-79168034D01*
X97112223Y-79168046D01*
X97037233Y-79496602D01*
X97037231Y-79496618D01*
X96999500Y-79831491D01*
X95507857Y-79831491D01*
X95508245Y-79822608D01*
X95508245Y-79822607D01*
X95510433Y-79772498D01*
X95517386Y-79613228D01*
X95518326Y-79602495D01*
X95568152Y-79224025D01*
X95570025Y-79213405D01*
X95652649Y-78840709D01*
X95655440Y-78830295D01*
X95770230Y-78466227D01*
X95773917Y-78456095D01*
X95920003Y-78103412D01*
X95924561Y-78093638D01*
X96100822Y-77755045D01*
X96106217Y-77745700D01*
X96311325Y-77423744D01*
X96317515Y-77414905D01*
X96549896Y-77112060D01*
X96556834Y-77103791D01*
X96814726Y-76822352D01*
X96822352Y-76814726D01*
X97103791Y-76556834D01*
X97112060Y-76549896D01*
X97414905Y-76317515D01*
X97423744Y-76311325D01*
X97745700Y-76106217D01*
X97755045Y-76100822D01*
X98093638Y-75924561D01*
X98103412Y-75920003D01*
X98456095Y-75773917D01*
X98466227Y-75770230D01*
X98830295Y-75655440D01*
X98840709Y-75652649D01*
X99213405Y-75570025D01*
X99224025Y-75568152D01*
X99602495Y-75518326D01*
X99613226Y-75517386D01*
X99997297Y-75500617D01*
X100002706Y-75500500D01*
X100065892Y-75500500D01*
X179934108Y-75500500D01*
X179997294Y-75500500D01*
X180002702Y-75500617D01*
G37*
%TD.AperFunction*%
%TD*%
M02*
