M48
; DRILL file {KiCad 9.0.6} date 2026-02-22T18:14:18-0800
; FORMAT={-:-/ absolute / metric / decimal}
; #@! TF.CreationDate,2026-02-22T18:14:18-08:00
; #@! TF.GenerationSoftware,Kicad,Pcbnew,9.0.6
; #@! TF.FileFunction,Plated,1,2,PTH
FMAT,2
METRIC
; #@! TA.AperFunction,Plated,PTH,ViaDrill
T1C0.300
; #@! TA.AperFunction,Plated,PTH,ComponentDrill
T2C0.750
; #@! TA.AperFunction,Plated,PTH,ComponentDrill
T3C0.850
; #@! TA.AperFunction,Plated,PTH,ComponentDrill
T4C1.016
%
G90
G05
T1
X119.0Y-97.0
X136.0Y-87.5
X137.0Y-92.5
X137.5Y-90.0
X138.5Y-113.0
X143.0Y-88.0
X143.174Y-89.826
X143.5Y-104.0
X143.5Y-113.0
X145.0Y-104.5
X146.0Y-89.0
X146.0Y-90.0
X146.0Y-98.0
X146.0Y-98.0
X147.0Y-96.5
X157.0Y-108.0
X169.5Y-89.5
T2
X160.45Y-123.5
X160.45Y-125.5
X160.45Y-127.5
X178.0Y-116.5
X178.0Y-118.5
T3
X102.64Y-95.5
X102.64Y-103.12
X125.5Y-95.5
X125.5Y-103.12
T4
X152.22Y-92.46
X152.22Y-97.54
X162.38Y-87.38
X162.38Y-102.62
X164.92Y-87.38
X164.92Y-102.62
X167.46Y-87.38
X167.46Y-102.62
X170.0Y-87.38
X170.0Y-102.62
X172.54Y-87.38
X172.54Y-102.62
X175.08Y-87.38
X175.08Y-102.62
X177.62Y-87.38
X177.62Y-102.62
M30
