%TF.GenerationSoftware,KiCad,Pcbnew,9.0.6*%
%TF.CreationDate,2026-02-22T18:14:21-08:00*%
%TF.ProjectId,display,64697370-6c61-4792-9e6b-696361645f70,rev?*%
%TF.SameCoordinates,Original*%
%TF.FileFunction,Legend,Top*%
%TF.FilePolarity,Positive*%
%FSLAX46Y46*%
G04 Gerber Fmt 4.6, Leading zero omitted, Abs format (unit mm)*
G04 Created by KiCad (PCBNEW 9.0.6) date 2026-02-22 18:14:21*
%MOMM*%
%LPD*%
G01*
G04 APERTURE LIST*
%ADD10C,0.100000*%
%ADD11C,0.150000*%
%ADD12C,0.120000*%
%ADD13C,0.000000*%
%ADD14C,0.152400*%
G04 APERTURE END LIST*
D10*
X111780074Y-130372419D02*
X111303884Y-130372419D01*
X111303884Y-130372419D02*
X111303884Y-129372419D01*
X112541979Y-129705752D02*
X112541979Y-130372419D01*
X112113408Y-129705752D02*
X112113408Y-130229561D01*
X112113408Y-130229561D02*
X112161027Y-130324800D01*
X112161027Y-130324800D02*
X112256265Y-130372419D01*
X112256265Y-130372419D02*
X112399122Y-130372419D01*
X112399122Y-130372419D02*
X112494360Y-130324800D01*
X112494360Y-130324800D02*
X112541979Y-130277180D01*
X113446741Y-130324800D02*
X113351503Y-130372419D01*
X113351503Y-130372419D02*
X113161027Y-130372419D01*
X113161027Y-130372419D02*
X113065789Y-130324800D01*
X113065789Y-130324800D02*
X113018170Y-130277180D01*
X113018170Y-130277180D02*
X112970551Y-130181942D01*
X112970551Y-130181942D02*
X112970551Y-129896228D01*
X112970551Y-129896228D02*
X113018170Y-129800990D01*
X113018170Y-129800990D02*
X113065789Y-129753371D01*
X113065789Y-129753371D02*
X113161027Y-129705752D01*
X113161027Y-129705752D02*
X113351503Y-129705752D01*
X113351503Y-129705752D02*
X113446741Y-129753371D01*
X113875313Y-130372419D02*
X113875313Y-129705752D01*
X113875313Y-129372419D02*
X113827694Y-129420038D01*
X113827694Y-129420038D02*
X113875313Y-129467657D01*
X113875313Y-129467657D02*
X113922932Y-129420038D01*
X113922932Y-129420038D02*
X113875313Y-129372419D01*
X113875313Y-129372419D02*
X113875313Y-129467657D01*
X114780074Y-130372419D02*
X114780074Y-129848609D01*
X114780074Y-129848609D02*
X114732455Y-129753371D01*
X114732455Y-129753371D02*
X114637217Y-129705752D01*
X114637217Y-129705752D02*
X114446741Y-129705752D01*
X114446741Y-129705752D02*
X114351503Y-129753371D01*
X114780074Y-130324800D02*
X114684836Y-130372419D01*
X114684836Y-130372419D02*
X114446741Y-130372419D01*
X114446741Y-130372419D02*
X114351503Y-130324800D01*
X114351503Y-130324800D02*
X114303884Y-130229561D01*
X114303884Y-130229561D02*
X114303884Y-130134323D01*
X114303884Y-130134323D02*
X114351503Y-130039085D01*
X114351503Y-130039085D02*
X114446741Y-129991466D01*
X114446741Y-129991466D02*
X114684836Y-129991466D01*
X114684836Y-129991466D02*
X114780074Y-129943847D01*
X115970551Y-130324800D02*
X116113408Y-130372419D01*
X116113408Y-130372419D02*
X116351503Y-130372419D01*
X116351503Y-130372419D02*
X116446741Y-130324800D01*
X116446741Y-130324800D02*
X116494360Y-130277180D01*
X116494360Y-130277180D02*
X116541979Y-130181942D01*
X116541979Y-130181942D02*
X116541979Y-130086704D01*
X116541979Y-130086704D02*
X116494360Y-129991466D01*
X116494360Y-129991466D02*
X116446741Y-129943847D01*
X116446741Y-129943847D02*
X116351503Y-129896228D01*
X116351503Y-129896228D02*
X116161027Y-129848609D01*
X116161027Y-129848609D02*
X116065789Y-129800990D01*
X116065789Y-129800990D02*
X116018170Y-129753371D01*
X116018170Y-129753371D02*
X115970551Y-129658133D01*
X115970551Y-129658133D02*
X115970551Y-129562895D01*
X115970551Y-129562895D02*
X116018170Y-129467657D01*
X116018170Y-129467657D02*
X116065789Y-129420038D01*
X116065789Y-129420038D02*
X116161027Y-129372419D01*
X116161027Y-129372419D02*
X116399122Y-129372419D01*
X116399122Y-129372419D02*
X116541979Y-129420038D01*
X116970551Y-130372419D02*
X116970551Y-129372419D01*
X117399122Y-130372419D02*
X117399122Y-129848609D01*
X117399122Y-129848609D02*
X117351503Y-129753371D01*
X117351503Y-129753371D02*
X117256265Y-129705752D01*
X117256265Y-129705752D02*
X117113408Y-129705752D01*
X117113408Y-129705752D02*
X117018170Y-129753371D01*
X117018170Y-129753371D02*
X116970551Y-129800990D01*
X118256265Y-130324800D02*
X118161027Y-130372419D01*
X118161027Y-130372419D02*
X117970551Y-130372419D01*
X117970551Y-130372419D02*
X117875313Y-130324800D01*
X117875313Y-130324800D02*
X117827694Y-130229561D01*
X117827694Y-130229561D02*
X117827694Y-129848609D01*
X117827694Y-129848609D02*
X117875313Y-129753371D01*
X117875313Y-129753371D02*
X117970551Y-129705752D01*
X117970551Y-129705752D02*
X118161027Y-129705752D01*
X118161027Y-129705752D02*
X118256265Y-129753371D01*
X118256265Y-129753371D02*
X118303884Y-129848609D01*
X118303884Y-129848609D02*
X118303884Y-129943847D01*
X118303884Y-129943847D02*
X117827694Y-130039085D01*
X118732456Y-129705752D02*
X118732456Y-130372419D01*
X118732456Y-129800990D02*
X118780075Y-129753371D01*
X118780075Y-129753371D02*
X118875313Y-129705752D01*
X118875313Y-129705752D02*
X119018170Y-129705752D01*
X119018170Y-129705752D02*
X119113408Y-129753371D01*
X119113408Y-129753371D02*
X119161027Y-129848609D01*
X119161027Y-129848609D02*
X119161027Y-130372419D01*
X120399123Y-130372419D02*
X120399123Y-129372419D01*
X120399123Y-129372419D02*
X120637218Y-129372419D01*
X120637218Y-129372419D02*
X120780075Y-129420038D01*
X120780075Y-129420038D02*
X120875313Y-129515276D01*
X120875313Y-129515276D02*
X120922932Y-129610514D01*
X120922932Y-129610514D02*
X120970551Y-129800990D01*
X120970551Y-129800990D02*
X120970551Y-129943847D01*
X120970551Y-129943847D02*
X120922932Y-130134323D01*
X120922932Y-130134323D02*
X120875313Y-130229561D01*
X120875313Y-130229561D02*
X120780075Y-130324800D01*
X120780075Y-130324800D02*
X120637218Y-130372419D01*
X120637218Y-130372419D02*
X120399123Y-130372419D01*
X121399123Y-130372419D02*
X121399123Y-129705752D01*
X121399123Y-129372419D02*
X121351504Y-129420038D01*
X121351504Y-129420038D02*
X121399123Y-129467657D01*
X121399123Y-129467657D02*
X121446742Y-129420038D01*
X121446742Y-129420038D02*
X121399123Y-129372419D01*
X121399123Y-129372419D02*
X121399123Y-129467657D01*
X121827694Y-130324800D02*
X121922932Y-130372419D01*
X121922932Y-130372419D02*
X122113408Y-130372419D01*
X122113408Y-130372419D02*
X122208646Y-130324800D01*
X122208646Y-130324800D02*
X122256265Y-130229561D01*
X122256265Y-130229561D02*
X122256265Y-130181942D01*
X122256265Y-130181942D02*
X122208646Y-130086704D01*
X122208646Y-130086704D02*
X122113408Y-130039085D01*
X122113408Y-130039085D02*
X121970551Y-130039085D01*
X121970551Y-130039085D02*
X121875313Y-129991466D01*
X121875313Y-129991466D02*
X121827694Y-129896228D01*
X121827694Y-129896228D02*
X121827694Y-129848609D01*
X121827694Y-129848609D02*
X121875313Y-129753371D01*
X121875313Y-129753371D02*
X121970551Y-129705752D01*
X121970551Y-129705752D02*
X122113408Y-129705752D01*
X122113408Y-129705752D02*
X122208646Y-129753371D01*
X122684837Y-129705752D02*
X122684837Y-130705752D01*
X122684837Y-129753371D02*
X122780075Y-129705752D01*
X122780075Y-129705752D02*
X122970551Y-129705752D01*
X122970551Y-129705752D02*
X123065789Y-129753371D01*
X123065789Y-129753371D02*
X123113408Y-129800990D01*
X123113408Y-129800990D02*
X123161027Y-129896228D01*
X123161027Y-129896228D02*
X123161027Y-130181942D01*
X123161027Y-130181942D02*
X123113408Y-130277180D01*
X123113408Y-130277180D02*
X123065789Y-130324800D01*
X123065789Y-130324800D02*
X122970551Y-130372419D01*
X122970551Y-130372419D02*
X122780075Y-130372419D01*
X122780075Y-130372419D02*
X122684837Y-130324800D01*
X123732456Y-130372419D02*
X123637218Y-130324800D01*
X123637218Y-130324800D02*
X123589599Y-130229561D01*
X123589599Y-130229561D02*
X123589599Y-129372419D01*
X124541980Y-130372419D02*
X124541980Y-129848609D01*
X124541980Y-129848609D02*
X124494361Y-129753371D01*
X124494361Y-129753371D02*
X124399123Y-129705752D01*
X124399123Y-129705752D02*
X124208647Y-129705752D01*
X124208647Y-129705752D02*
X124113409Y-129753371D01*
X124541980Y-130324800D02*
X124446742Y-130372419D01*
X124446742Y-130372419D02*
X124208647Y-130372419D01*
X124208647Y-130372419D02*
X124113409Y-130324800D01*
X124113409Y-130324800D02*
X124065790Y-130229561D01*
X124065790Y-130229561D02*
X124065790Y-130134323D01*
X124065790Y-130134323D02*
X124113409Y-130039085D01*
X124113409Y-130039085D02*
X124208647Y-129991466D01*
X124208647Y-129991466D02*
X124446742Y-129991466D01*
X124446742Y-129991466D02*
X124541980Y-129943847D01*
X124922933Y-129705752D02*
X125161028Y-130372419D01*
X125399123Y-129705752D02*
X125161028Y-130372419D01*
X125161028Y-130372419D02*
X125065790Y-130610514D01*
X125065790Y-130610514D02*
X125018171Y-130658133D01*
X125018171Y-130658133D02*
X124922933Y-130705752D01*
X126541981Y-130372419D02*
X126541981Y-129372419D01*
X126541981Y-129372419D02*
X126780076Y-129372419D01*
X126780076Y-129372419D02*
X126922933Y-129420038D01*
X126922933Y-129420038D02*
X127018171Y-129515276D01*
X127018171Y-129515276D02*
X127065790Y-129610514D01*
X127065790Y-129610514D02*
X127113409Y-129800990D01*
X127113409Y-129800990D02*
X127113409Y-129943847D01*
X127113409Y-129943847D02*
X127065790Y-130134323D01*
X127065790Y-130134323D02*
X127018171Y-130229561D01*
X127018171Y-130229561D02*
X126922933Y-130324800D01*
X126922933Y-130324800D02*
X126780076Y-130372419D01*
X126780076Y-130372419D02*
X126541981Y-130372419D01*
X127922933Y-130324800D02*
X127827695Y-130372419D01*
X127827695Y-130372419D02*
X127637219Y-130372419D01*
X127637219Y-130372419D02*
X127541981Y-130324800D01*
X127541981Y-130324800D02*
X127494362Y-130229561D01*
X127494362Y-130229561D02*
X127494362Y-129848609D01*
X127494362Y-129848609D02*
X127541981Y-129753371D01*
X127541981Y-129753371D02*
X127637219Y-129705752D01*
X127637219Y-129705752D02*
X127827695Y-129705752D01*
X127827695Y-129705752D02*
X127922933Y-129753371D01*
X127922933Y-129753371D02*
X127970552Y-129848609D01*
X127970552Y-129848609D02*
X127970552Y-129943847D01*
X127970552Y-129943847D02*
X127494362Y-130039085D01*
X128303886Y-129705752D02*
X128541981Y-130372419D01*
X128541981Y-130372419D02*
X128780076Y-129705752D01*
X129161029Y-130372419D02*
X129161029Y-129705752D01*
X129161029Y-129372419D02*
X129113410Y-129420038D01*
X129113410Y-129420038D02*
X129161029Y-129467657D01*
X129161029Y-129467657D02*
X129208648Y-129420038D01*
X129208648Y-129420038D02*
X129161029Y-129372419D01*
X129161029Y-129372419D02*
X129161029Y-129467657D01*
X130065790Y-130324800D02*
X129970552Y-130372419D01*
X129970552Y-130372419D02*
X129780076Y-130372419D01*
X129780076Y-130372419D02*
X129684838Y-130324800D01*
X129684838Y-130324800D02*
X129637219Y-130277180D01*
X129637219Y-130277180D02*
X129589600Y-130181942D01*
X129589600Y-130181942D02*
X129589600Y-129896228D01*
X129589600Y-129896228D02*
X129637219Y-129800990D01*
X129637219Y-129800990D02*
X129684838Y-129753371D01*
X129684838Y-129753371D02*
X129780076Y-129705752D01*
X129780076Y-129705752D02*
X129970552Y-129705752D01*
X129970552Y-129705752D02*
X130065790Y-129753371D01*
X130875314Y-130324800D02*
X130780076Y-130372419D01*
X130780076Y-130372419D02*
X130589600Y-130372419D01*
X130589600Y-130372419D02*
X130494362Y-130324800D01*
X130494362Y-130324800D02*
X130446743Y-130229561D01*
X130446743Y-130229561D02*
X130446743Y-129848609D01*
X130446743Y-129848609D02*
X130494362Y-129753371D01*
X130494362Y-129753371D02*
X130589600Y-129705752D01*
X130589600Y-129705752D02*
X130780076Y-129705752D01*
X130780076Y-129705752D02*
X130875314Y-129753371D01*
X130875314Y-129753371D02*
X130922933Y-129848609D01*
X130922933Y-129848609D02*
X130922933Y-129943847D01*
X130922933Y-129943847D02*
X130446743Y-130039085D01*
D11*
X180354819Y-117833333D02*
X181069104Y-117833333D01*
X181069104Y-117833333D02*
X181211961Y-117880952D01*
X181211961Y-117880952D02*
X181307200Y-117976190D01*
X181307200Y-117976190D02*
X181354819Y-118119047D01*
X181354819Y-118119047D02*
X181354819Y-118214285D01*
X180450057Y-117404761D02*
X180402438Y-117357142D01*
X180402438Y-117357142D02*
X180354819Y-117261904D01*
X180354819Y-117261904D02*
X180354819Y-117023809D01*
X180354819Y-117023809D02*
X180402438Y-116928571D01*
X180402438Y-116928571D02*
X180450057Y-116880952D01*
X180450057Y-116880952D02*
X180545295Y-116833333D01*
X180545295Y-116833333D02*
X180640533Y-116833333D01*
X180640533Y-116833333D02*
X180783390Y-116880952D01*
X180783390Y-116880952D02*
X181354819Y-117452380D01*
X181354819Y-117452380D02*
X181354819Y-116833333D01*
D10*
X184742580Y-95508095D02*
X183933057Y-95508095D01*
X183933057Y-95508095D02*
X183837819Y-95555714D01*
X183837819Y-95555714D02*
X183790200Y-95603333D01*
X183790200Y-95603333D02*
X183742580Y-95698571D01*
X183742580Y-95698571D02*
X183742580Y-95889047D01*
X183742580Y-95889047D02*
X183790200Y-95984285D01*
X183790200Y-95984285D02*
X183837819Y-96031904D01*
X183837819Y-96031904D02*
X183933057Y-96079523D01*
X183933057Y-96079523D02*
X184742580Y-96079523D01*
X184647342Y-96508095D02*
X184694961Y-96555714D01*
X184694961Y-96555714D02*
X184742580Y-96650952D01*
X184742580Y-96650952D02*
X184742580Y-96889047D01*
X184742580Y-96889047D02*
X184694961Y-96984285D01*
X184694961Y-96984285D02*
X184647342Y-97031904D01*
X184647342Y-97031904D02*
X184552104Y-97079523D01*
X184552104Y-97079523D02*
X184456866Y-97079523D01*
X184456866Y-97079523D02*
X184314009Y-97031904D01*
X184314009Y-97031904D02*
X183742580Y-96460476D01*
X183742580Y-96460476D02*
X183742580Y-97079523D01*
D11*
X140738095Y-88454819D02*
X140738095Y-89264342D01*
X140738095Y-89264342D02*
X140785714Y-89359580D01*
X140785714Y-89359580D02*
X140833333Y-89407200D01*
X140833333Y-89407200D02*
X140928571Y-89454819D01*
X140928571Y-89454819D02*
X141119047Y-89454819D01*
X141119047Y-89454819D02*
X141214285Y-89407200D01*
X141214285Y-89407200D02*
X141261904Y-89359580D01*
X141261904Y-89359580D02*
X141309523Y-89264342D01*
X141309523Y-89264342D02*
X141309523Y-88454819D01*
X142309523Y-89454819D02*
X141738095Y-89454819D01*
X142023809Y-89454819D02*
X142023809Y-88454819D01*
X142023809Y-88454819D02*
X141928571Y-88597676D01*
X141928571Y-88597676D02*
X141833333Y-88692914D01*
X141833333Y-88692914D02*
X141738095Y-88740533D01*
X138375800Y-84732018D02*
X138375800Y-84970113D01*
X138137705Y-84874875D02*
X138375800Y-84970113D01*
X138375800Y-84970113D02*
X138613895Y-84874875D01*
X138232943Y-85160589D02*
X138375800Y-84970113D01*
X138375800Y-84970113D02*
X138518657Y-85160589D01*
X138375800Y-84732018D02*
X138375800Y-84970113D01*
X138137705Y-84874875D02*
X138375800Y-84970113D01*
X138375800Y-84970113D02*
X138613895Y-84874875D01*
X138232943Y-85160589D02*
X138375800Y-84970113D01*
X138375800Y-84970113D02*
X138518657Y-85160589D01*
X163304819Y-111166666D02*
X162828628Y-111499999D01*
X163304819Y-111738094D02*
X162304819Y-111738094D01*
X162304819Y-111738094D02*
X162304819Y-111357142D01*
X162304819Y-111357142D02*
X162352438Y-111261904D01*
X162352438Y-111261904D02*
X162400057Y-111214285D01*
X162400057Y-111214285D02*
X162495295Y-111166666D01*
X162495295Y-111166666D02*
X162638152Y-111166666D01*
X162638152Y-111166666D02*
X162733390Y-111214285D01*
X162733390Y-111214285D02*
X162781009Y-111261904D01*
X162781009Y-111261904D02*
X162828628Y-111357142D01*
X162828628Y-111357142D02*
X162828628Y-111738094D01*
X162638152Y-110309523D02*
X163304819Y-110309523D01*
X162257200Y-110547618D02*
X162971485Y-110785713D01*
X162971485Y-110785713D02*
X162971485Y-110166666D01*
X160104819Y-111166666D02*
X159628628Y-111499999D01*
X160104819Y-111738094D02*
X159104819Y-111738094D01*
X159104819Y-111738094D02*
X159104819Y-111357142D01*
X159104819Y-111357142D02*
X159152438Y-111261904D01*
X159152438Y-111261904D02*
X159200057Y-111214285D01*
X159200057Y-111214285D02*
X159295295Y-111166666D01*
X159295295Y-111166666D02*
X159438152Y-111166666D01*
X159438152Y-111166666D02*
X159533390Y-111214285D01*
X159533390Y-111214285D02*
X159581009Y-111261904D01*
X159581009Y-111261904D02*
X159628628Y-111357142D01*
X159628628Y-111357142D02*
X159628628Y-111738094D01*
X159104819Y-110833332D02*
X159104819Y-110214285D01*
X159104819Y-110214285D02*
X159485771Y-110547618D01*
X159485771Y-110547618D02*
X159485771Y-110404761D01*
X159485771Y-110404761D02*
X159533390Y-110309523D01*
X159533390Y-110309523D02*
X159581009Y-110261904D01*
X159581009Y-110261904D02*
X159676247Y-110214285D01*
X159676247Y-110214285D02*
X159914342Y-110214285D01*
X159914342Y-110214285D02*
X160009580Y-110261904D01*
X160009580Y-110261904D02*
X160057200Y-110309523D01*
X160057200Y-110309523D02*
X160104819Y-110404761D01*
X160104819Y-110404761D02*
X160104819Y-110690475D01*
X160104819Y-110690475D02*
X160057200Y-110785713D01*
X160057200Y-110785713D02*
X160009580Y-110833332D01*
X132833333Y-109767319D02*
X132500000Y-109291128D01*
X132261905Y-109767319D02*
X132261905Y-108767319D01*
X132261905Y-108767319D02*
X132642857Y-108767319D01*
X132642857Y-108767319D02*
X132738095Y-108814938D01*
X132738095Y-108814938D02*
X132785714Y-108862557D01*
X132785714Y-108862557D02*
X132833333Y-108957795D01*
X132833333Y-108957795D02*
X132833333Y-109100652D01*
X132833333Y-109100652D02*
X132785714Y-109195890D01*
X132785714Y-109195890D02*
X132738095Y-109243509D01*
X132738095Y-109243509D02*
X132642857Y-109291128D01*
X132642857Y-109291128D02*
X132261905Y-109291128D01*
X133214286Y-108862557D02*
X133261905Y-108814938D01*
X133261905Y-108814938D02*
X133357143Y-108767319D01*
X133357143Y-108767319D02*
X133595238Y-108767319D01*
X133595238Y-108767319D02*
X133690476Y-108814938D01*
X133690476Y-108814938D02*
X133738095Y-108862557D01*
X133738095Y-108862557D02*
X133785714Y-108957795D01*
X133785714Y-108957795D02*
X133785714Y-109053033D01*
X133785714Y-109053033D02*
X133738095Y-109195890D01*
X133738095Y-109195890D02*
X133166667Y-109767319D01*
X133166667Y-109767319D02*
X133785714Y-109767319D01*
X132833333Y-106104819D02*
X132500000Y-105628628D01*
X132261905Y-106104819D02*
X132261905Y-105104819D01*
X132261905Y-105104819D02*
X132642857Y-105104819D01*
X132642857Y-105104819D02*
X132738095Y-105152438D01*
X132738095Y-105152438D02*
X132785714Y-105200057D01*
X132785714Y-105200057D02*
X132833333Y-105295295D01*
X132833333Y-105295295D02*
X132833333Y-105438152D01*
X132833333Y-105438152D02*
X132785714Y-105533390D01*
X132785714Y-105533390D02*
X132738095Y-105581009D01*
X132738095Y-105581009D02*
X132642857Y-105628628D01*
X132642857Y-105628628D02*
X132261905Y-105628628D01*
X133785714Y-106104819D02*
X133214286Y-106104819D01*
X133500000Y-106104819D02*
X133500000Y-105104819D01*
X133500000Y-105104819D02*
X133404762Y-105247676D01*
X133404762Y-105247676D02*
X133309524Y-105342914D01*
X133309524Y-105342914D02*
X133214286Y-105390533D01*
X157004819Y-125833333D02*
X157719104Y-125833333D01*
X157719104Y-125833333D02*
X157861961Y-125880952D01*
X157861961Y-125880952D02*
X157957200Y-125976190D01*
X157957200Y-125976190D02*
X158004819Y-126119047D01*
X158004819Y-126119047D02*
X158004819Y-126214285D01*
X158004819Y-124833333D02*
X158004819Y-125404761D01*
X158004819Y-125119047D02*
X157004819Y-125119047D01*
X157004819Y-125119047D02*
X157147676Y-125214285D01*
X157147676Y-125214285D02*
X157242914Y-125309523D01*
X157242914Y-125309523D02*
X157290533Y-125404761D01*
X148258333Y-102717080D02*
X148210714Y-102764700D01*
X148210714Y-102764700D02*
X148067857Y-102812319D01*
X148067857Y-102812319D02*
X147972619Y-102812319D01*
X147972619Y-102812319D02*
X147829762Y-102764700D01*
X147829762Y-102764700D02*
X147734524Y-102669461D01*
X147734524Y-102669461D02*
X147686905Y-102574223D01*
X147686905Y-102574223D02*
X147639286Y-102383747D01*
X147639286Y-102383747D02*
X147639286Y-102240890D01*
X147639286Y-102240890D02*
X147686905Y-102050414D01*
X147686905Y-102050414D02*
X147734524Y-101955176D01*
X147734524Y-101955176D02*
X147829762Y-101859938D01*
X147829762Y-101859938D02*
X147972619Y-101812319D01*
X147972619Y-101812319D02*
X148067857Y-101812319D01*
X148067857Y-101812319D02*
X148210714Y-101859938D01*
X148210714Y-101859938D02*
X148258333Y-101907557D01*
X149115476Y-102145652D02*
X149115476Y-102812319D01*
X148877381Y-101764700D02*
X148639286Y-102478985D01*
X148639286Y-102478985D02*
X149258333Y-102478985D01*
X148295833Y-113039580D02*
X148248214Y-113087200D01*
X148248214Y-113087200D02*
X148105357Y-113134819D01*
X148105357Y-113134819D02*
X148010119Y-113134819D01*
X148010119Y-113134819D02*
X147867262Y-113087200D01*
X147867262Y-113087200D02*
X147772024Y-112991961D01*
X147772024Y-112991961D02*
X147724405Y-112896723D01*
X147724405Y-112896723D02*
X147676786Y-112706247D01*
X147676786Y-112706247D02*
X147676786Y-112563390D01*
X147676786Y-112563390D02*
X147724405Y-112372914D01*
X147724405Y-112372914D02*
X147772024Y-112277676D01*
X147772024Y-112277676D02*
X147867262Y-112182438D01*
X147867262Y-112182438D02*
X148010119Y-112134819D01*
X148010119Y-112134819D02*
X148105357Y-112134819D01*
X148105357Y-112134819D02*
X148248214Y-112182438D01*
X148248214Y-112182438D02*
X148295833Y-112230057D01*
X148629167Y-112134819D02*
X149248214Y-112134819D01*
X149248214Y-112134819D02*
X148914881Y-112515771D01*
X148914881Y-112515771D02*
X149057738Y-112515771D01*
X149057738Y-112515771D02*
X149152976Y-112563390D01*
X149152976Y-112563390D02*
X149200595Y-112611009D01*
X149200595Y-112611009D02*
X149248214Y-112706247D01*
X149248214Y-112706247D02*
X149248214Y-112944342D01*
X149248214Y-112944342D02*
X149200595Y-113039580D01*
X149200595Y-113039580D02*
X149152976Y-113087200D01*
X149152976Y-113087200D02*
X149057738Y-113134819D01*
X149057738Y-113134819D02*
X148772024Y-113134819D01*
X148772024Y-113134819D02*
X148676786Y-113087200D01*
X148676786Y-113087200D02*
X148629167Y-113039580D01*
X140295833Y-102717080D02*
X140248214Y-102764700D01*
X140248214Y-102764700D02*
X140105357Y-102812319D01*
X140105357Y-102812319D02*
X140010119Y-102812319D01*
X140010119Y-102812319D02*
X139867262Y-102764700D01*
X139867262Y-102764700D02*
X139772024Y-102669461D01*
X139772024Y-102669461D02*
X139724405Y-102574223D01*
X139724405Y-102574223D02*
X139676786Y-102383747D01*
X139676786Y-102383747D02*
X139676786Y-102240890D01*
X139676786Y-102240890D02*
X139724405Y-102050414D01*
X139724405Y-102050414D02*
X139772024Y-101955176D01*
X139772024Y-101955176D02*
X139867262Y-101859938D01*
X139867262Y-101859938D02*
X140010119Y-101812319D01*
X140010119Y-101812319D02*
X140105357Y-101812319D01*
X140105357Y-101812319D02*
X140248214Y-101859938D01*
X140248214Y-101859938D02*
X140295833Y-101907557D01*
X140676786Y-101907557D02*
X140724405Y-101859938D01*
X140724405Y-101859938D02*
X140819643Y-101812319D01*
X140819643Y-101812319D02*
X141057738Y-101812319D01*
X141057738Y-101812319D02*
X141152976Y-101859938D01*
X141152976Y-101859938D02*
X141200595Y-101907557D01*
X141200595Y-101907557D02*
X141248214Y-102002795D01*
X141248214Y-102002795D02*
X141248214Y-102098033D01*
X141248214Y-102098033D02*
X141200595Y-102240890D01*
X141200595Y-102240890D02*
X140629167Y-102812319D01*
X140629167Y-102812319D02*
X141248214Y-102812319D01*
X140333333Y-109717080D02*
X140285714Y-109764700D01*
X140285714Y-109764700D02*
X140142857Y-109812319D01*
X140142857Y-109812319D02*
X140047619Y-109812319D01*
X140047619Y-109812319D02*
X139904762Y-109764700D01*
X139904762Y-109764700D02*
X139809524Y-109669461D01*
X139809524Y-109669461D02*
X139761905Y-109574223D01*
X139761905Y-109574223D02*
X139714286Y-109383747D01*
X139714286Y-109383747D02*
X139714286Y-109240890D01*
X139714286Y-109240890D02*
X139761905Y-109050414D01*
X139761905Y-109050414D02*
X139809524Y-108955176D01*
X139809524Y-108955176D02*
X139904762Y-108859938D01*
X139904762Y-108859938D02*
X140047619Y-108812319D01*
X140047619Y-108812319D02*
X140142857Y-108812319D01*
X140142857Y-108812319D02*
X140285714Y-108859938D01*
X140285714Y-108859938D02*
X140333333Y-108907557D01*
X141285714Y-109812319D02*
X140714286Y-109812319D01*
X141000000Y-109812319D02*
X141000000Y-108812319D01*
X141000000Y-108812319D02*
X140904762Y-108955176D01*
X140904762Y-108955176D02*
X140809524Y-109050414D01*
X140809524Y-109050414D02*
X140714286Y-109098033D01*
D10*
X111990476Y-80717419D02*
X111990476Y-79717419D01*
X111990476Y-79717419D02*
X112323809Y-80431704D01*
X112323809Y-80431704D02*
X112657142Y-79717419D01*
X112657142Y-79717419D02*
X112657142Y-80717419D01*
X113657142Y-80717419D02*
X113085714Y-80717419D01*
X113371428Y-80717419D02*
X113371428Y-79717419D01*
X113371428Y-79717419D02*
X113276190Y-79860276D01*
X113276190Y-79860276D02*
X113180952Y-79955514D01*
X113180952Y-79955514D02*
X113085714Y-80003133D01*
D12*
%TO.C,J2*%
X175090000Y-120560000D02*
X179810000Y-120560000D01*
X177200000Y-120560000D02*
X177200000Y-119950000D01*
X178500000Y-120560000D02*
X178500000Y-119950000D01*
X179810000Y-120560000D02*
X179810000Y-114440000D01*
X175700000Y-119950000D02*
X179200000Y-119950000D01*
X179200000Y-119950000D02*
X179200000Y-118000000D01*
X179200000Y-118000000D02*
X179810000Y-118000000D01*
X176200000Y-117600000D02*
X175700000Y-117600000D01*
X175700000Y-117500000D02*
X176200000Y-117500000D01*
X175700000Y-117400000D02*
X176200000Y-117400000D01*
X176200000Y-117400000D02*
X176200000Y-117600000D01*
X179200000Y-117000000D02*
X179200000Y-115050000D01*
X179810000Y-117000000D02*
X179200000Y-117000000D01*
X179810000Y-116200000D02*
X180010000Y-116200000D01*
X179910000Y-116200000D02*
X179910000Y-115900000D01*
X180010000Y-116200000D02*
X180010000Y-115900000D01*
X180010000Y-115900000D02*
X179810000Y-115900000D01*
X180110000Y-115390000D02*
X180110000Y-114140000D01*
X175700000Y-115050000D02*
X175700000Y-119950000D01*
X179200000Y-115050000D02*
X175700000Y-115050000D01*
X175090000Y-114440000D02*
X175090000Y-120560000D01*
X177200000Y-114440000D02*
X177200000Y-115050000D01*
X178500000Y-114440000D02*
X178500000Y-115050000D01*
X179810000Y-114440000D02*
X175090000Y-114440000D01*
X180110000Y-114140000D02*
X178860000Y-114140000D01*
D10*
%TO.C,U2*%
X180160000Y-91190000D02*
X176350000Y-91190000D01*
X176350000Y-91190000D02*
X176350000Y-98810000D01*
X153744000Y-96016000D02*
X153744000Y-99064000D01*
X150696000Y-96016000D02*
X153744000Y-96016000D01*
X150188000Y-96524000D02*
X150188000Y-98556000D01*
X149680000Y-97032000D02*
X149680000Y-98048000D01*
X176350000Y-98810000D02*
X180160000Y-98810000D01*
X153744000Y-99064000D02*
X150696000Y-99064000D01*
X150696000Y-99064000D02*
X150696000Y-96016000D01*
D13*
%TO.C,U1*%
G36*
X145462400Y-90815501D02*
G01*
X145208400Y-90815501D01*
X145208400Y-90434501D01*
X145462400Y-90434501D01*
X145462400Y-90815501D01*
G37*
D14*
X139430934Y-91679700D02*
X143569066Y-91679700D01*
X143569066Y-86320300D02*
X139430934Y-86320300D01*
D12*
%TO.C,R4*%
X163765000Y-111227064D02*
X163765000Y-110772936D01*
X165235000Y-111227064D02*
X165235000Y-110772936D01*
%TO.C,R3*%
X158735000Y-110772936D02*
X158735000Y-111227064D01*
X157265000Y-110772936D02*
X157265000Y-111227064D01*
%TO.C,R2*%
X132772936Y-110227500D02*
X133227064Y-110227500D01*
X132772936Y-111697500D02*
X133227064Y-111697500D01*
%TO.C,R1*%
X133227064Y-104735000D02*
X132772936Y-104735000D01*
X133227064Y-103265000D02*
X132772936Y-103265000D01*
%TO.C,J1*%
X158340000Y-129860000D02*
X159590000Y-129860000D01*
X158640000Y-129560000D02*
X163360000Y-129560000D01*
X159950000Y-129560000D02*
X159950000Y-128950000D01*
X161250000Y-129560000D02*
X161250000Y-128950000D01*
X163360000Y-129560000D02*
X163360000Y-121440000D01*
X159250000Y-128950000D02*
X162750000Y-128950000D01*
X162750000Y-128950000D02*
X162750000Y-122050000D01*
X158340000Y-128610000D02*
X158340000Y-129860000D01*
X158440000Y-128100000D02*
X158640000Y-128100000D01*
X158440000Y-127800000D02*
X158440000Y-128100000D01*
X158540000Y-127800000D02*
X158540000Y-128100000D01*
X158640000Y-127800000D02*
X158440000Y-127800000D01*
X158640000Y-127000000D02*
X159250000Y-127000000D01*
X159250000Y-127000000D02*
X159250000Y-128950000D01*
X162250000Y-126600000D02*
X162250000Y-126400000D01*
X162750000Y-126600000D02*
X162250000Y-126600000D01*
X162750000Y-126500000D02*
X162250000Y-126500000D01*
X162250000Y-126400000D02*
X162750000Y-126400000D01*
X162250000Y-124600000D02*
X162250000Y-124400000D01*
X162750000Y-124600000D02*
X162250000Y-124600000D01*
X162750000Y-124500000D02*
X162250000Y-124500000D01*
X162250000Y-124400000D02*
X162750000Y-124400000D01*
X159250000Y-124000000D02*
X158640000Y-124000000D01*
X159250000Y-122050000D02*
X159250000Y-124000000D01*
X162750000Y-122050000D02*
X159250000Y-122050000D01*
X158640000Y-121440000D02*
X158640000Y-129560000D01*
X159950000Y-121440000D02*
X159950000Y-122050000D01*
X161250000Y-121440000D02*
X161250000Y-122050000D01*
X163360000Y-121440000D02*
X158640000Y-121440000D01*
%TO.C,C4*%
X148163748Y-103302500D02*
X148686252Y-103302500D01*
X148163748Y-104772500D02*
X148686252Y-104772500D01*
%TO.C,C3*%
X148723752Y-111735000D02*
X148201248Y-111735000D01*
X148723752Y-110265000D02*
X148201248Y-110265000D01*
%TO.C,C2*%
X140201248Y-103302500D02*
X140723752Y-103302500D01*
X140201248Y-104772500D02*
X140723752Y-104772500D01*
%TO.C,C1*%
X140238748Y-110302500D02*
X140761252Y-110302500D01*
X140238748Y-111772500D02*
X140761252Y-111772500D01*
%TD*%
M02*
