%TF.GenerationSoftware,KiCad,Pcbnew,9.0.6*%
%TF.CreationDate,2026-02-16T11:15:55-08:00*%
%TF.ProjectId,sensor_ppg,73656e73-6f72-45f7-9070-672e6b696361,rev?*%
%TF.SameCoordinates,Original*%
%TF.FileFunction,Copper,L1,Top*%
%TF.FilePolarity,Positive*%
%FSLAX46Y46*%
G04 Gerber Fmt 4.6, Leading zero omitted, Abs format (unit mm)*
G04 Created by KiCad (PCBNEW 9.0.6) date 2026-02-16 11:15:55*
%MOMM*%
%LPD*%
G01*
G04 APERTURE LIST*
G04 Aperture macros list*
%AMRoundRect*
0 Rectangle with rounded corners*
0 $1 Rounding radius*
0 $2 $3 $4 $5 $6 $7 $8 $9 X,Y pos of 4 corners*
0 Add a 4 corners polygon primitive as box body*
4,1,4,$2,$3,$4,$5,$6,$7,$8,$9,$2,$3,0*
0 Add four circle primitives for the rounded corners*
1,1,$1+$1,$2,$3*
1,1,$1+$1,$4,$5*
1,1,$1+$1,$6,$7*
1,1,$1+$1,$8,$9*
0 Add four rect primitives between the rounded corners*
20,1,$1+$1,$2,$3,$4,$5,0*
20,1,$1+$1,$4,$5,$6,$7,0*
20,1,$1+$1,$6,$7,$8,$9,0*
20,1,$1+$1,$8,$9,$2,$3,0*%
%AMFreePoly0*
4,1,14,0.308336,0.143236,0.309800,0.139700,0.309800,-0.012700,0.308336,-0.016236,0.181336,-0.143236,0.177800,-0.144700,-0.304800,-0.144700,-0.308336,-0.143236,-0.309800,-0.139700,-0.309800,0.139700,-0.308336,0.143236,-0.304800,0.144700,0.304800,0.144700,0.308336,0.143236,0.308336,0.143236,$1*%
%AMFreePoly1*
4,1,14,0.181336,0.143236,0.308336,0.016236,0.309800,0.012700,0.309800,-0.139700,0.308336,-0.143236,0.304800,-0.144700,-0.304800,-0.144700,-0.308336,-0.143236,-0.309800,-0.139700,-0.309800,0.139700,-0.308336,0.143236,-0.304800,0.144700,0.177800,0.144700,0.181336,0.143236,0.181336,0.143236,$1*%
%AMFreePoly2*
4,1,14,0.308336,0.143236,0.309800,0.139700,0.309800,-0.139700,0.308336,-0.143236,0.304800,-0.144700,-0.304800,-0.144700,-0.308336,-0.143236,-0.309800,-0.139700,-0.309800,0.012700,-0.308336,0.016236,-0.181336,0.143236,-0.177800,0.144700,0.304800,0.144700,0.308336,0.143236,0.308336,0.143236,$1*%
%AMFreePoly3*
4,1,14,0.308336,0.143236,0.309800,0.139700,0.309800,-0.139700,0.308336,-0.143236,0.304800,-0.144700,-0.177800,-0.144700,-0.181336,-0.143236,-0.308336,-0.016236,-0.309800,-0.012700,-0.309800,0.139700,-0.308336,0.143236,-0.304800,0.144700,0.304800,0.144700,0.308336,0.143236,0.308336,0.143236,$1*%
%AMFreePoly4*
4,1,13,0.003536,0.282936,0.282936,0.003536,0.284400,0.000000,0.282936,-0.003536,0.003536,-0.282936,0.000000,-0.284400,-0.003536,-0.282936,-0.282936,-0.003536,-0.284400,0.000000,-0.282936,0.003536,-0.003536,0.282936,0.000000,0.284400,0.003536,0.282936,0.003536,0.282936,$1*%
G04 Aperture macros list end*
%TA.AperFunction,SMDPad,CuDef*%
%ADD10RoundRect,0.237500X0.237500X-0.250000X0.237500X0.250000X-0.237500X0.250000X-0.237500X-0.250000X0*%
%TD*%
%TA.AperFunction,SMDPad,CuDef*%
%ADD11RoundRect,0.237500X-0.300000X-0.237500X0.300000X-0.237500X0.300000X0.237500X-0.300000X0.237500X0*%
%TD*%
%TA.AperFunction,ComponentPad*%
%ADD12R,1.700000X1.700000*%
%TD*%
%TA.AperFunction,ComponentPad*%
%ADD13C,1.700000*%
%TD*%
%TA.AperFunction,SMDPad,CuDef*%
%ADD14RoundRect,0.237500X0.237500X-0.300000X0.237500X0.300000X-0.237500X0.300000X-0.237500X-0.300000X0*%
%TD*%
%TA.AperFunction,SMDPad,CuDef*%
%ADD15R,0.750000X0.350000*%
%TD*%
%TA.AperFunction,SMDPad,CuDef*%
%ADD16FreePoly0,180.000000*%
%TD*%
%TA.AperFunction,SMDPad,CuDef*%
%ADD17FreePoly1,180.000000*%
%TD*%
%TA.AperFunction,SMDPad,CuDef*%
%ADD18FreePoly2,180.000000*%
%TD*%
%TA.AperFunction,SMDPad,CuDef*%
%ADD19FreePoly3,180.000000*%
%TD*%
%TA.AperFunction,SMDPad,CuDef*%
%ADD20FreePoly4,180.000000*%
%TD*%
%TA.AperFunction,ViaPad*%
%ADD21C,0.600000*%
%TD*%
%TA.AperFunction,Conductor*%
%ADD22C,0.200000*%
%TD*%
G04 APERTURE END LIST*
D10*
%TO.P,R2,1*%
%TO.N,/SDA*%
X133000000Y-92912500D03*
%TO.P,R2,2*%
%TO.N,/VDDIO*%
X133000000Y-91087500D03*
%TD*%
%TO.P,R1,1*%
%TO.N,/SCL*%
X133000000Y-88912500D03*
%TO.P,R1,2*%
%TO.N,/VDDIO*%
X133000000Y-87087500D03*
%TD*%
D11*
%TO.P,C1,1*%
%TO.N,+3.3V*%
X127637500Y-80500000D03*
%TO.P,C1,2*%
%TO.N,GND*%
X129362500Y-80500000D03*
%TD*%
D12*
%TO.P,J1,1,Pin_1*%
%TO.N,+3.3V*%
X124000000Y-81500000D03*
D13*
%TO.P,J1,2,Pin_2*%
%TO.N,+1V8*%
X124000000Y-84040000D03*
%TO.P,J1,3,Pin_3*%
%TO.N,/VDDIO*%
X124000000Y-86580000D03*
%TO.P,J1,4,Pin_4*%
%TO.N,/SDA*%
X124000000Y-89120000D03*
%TO.P,J1,5,Pin_5*%
%TO.N,/SCL*%
X124000000Y-91660000D03*
%TO.P,J1,6,Pin_6*%
%TO.N,/INT*%
X124000000Y-94200000D03*
%TO.P,J1,7,Pin_7*%
%TO.N,GND*%
X124000000Y-96740000D03*
%TD*%
D10*
%TO.P,R3,1*%
%TO.N,/INT*%
X127500000Y-97412500D03*
%TO.P,R3,2*%
%TO.N,/VDDIO*%
X127500000Y-95587500D03*
%TD*%
D14*
%TO.P,C6,1*%
%TO.N,+1V8*%
X133500000Y-97362500D03*
%TO.P,C6,2*%
%TO.N,GND*%
X133500000Y-95637500D03*
%TD*%
D11*
%TO.P,C2,1*%
%TO.N,+3.3V*%
X132137500Y-80500000D03*
%TO.P,C2,2*%
%TO.N,GND*%
X133862500Y-80500000D03*
%TD*%
%TO.P,C3,1*%
%TO.N,+1V8*%
X127637500Y-84500000D03*
%TO.P,C3,2*%
%TO.N,GND*%
X129362500Y-84500000D03*
%TD*%
D15*
%TO.P,U1,1*%
%TO.N,N/C*%
X127500000Y-88000000D03*
%TO.P,U1,2,SCL*%
%TO.N,/SCL*%
X127500000Y-88800000D03*
%TO.P,U1,3,SDA*%
%TO.N,/SDA*%
X127500000Y-89600000D03*
%TO.P,U1,4,PGND*%
%TO.N,unconnected-(U1-PGND-Pad4)*%
X127500000Y-90400000D03*
%TO.P,U1,5*%
%TO.N,N/C*%
X127500000Y-91200000D03*
%TO.P,U1,6*%
X127500000Y-92000000D03*
%TO.P,U1,7*%
X127500000Y-92800000D03*
%TO.P,U1,8*%
X129900000Y-92800000D03*
%TO.P,U1,9,VLED+*%
%TO.N,+3.3V*%
X129900000Y-92000000D03*
%TO.P,U1,10,VLED+__1*%
%TO.N,unconnected-(U1-VLED+__1-Pad10)*%
X129900000Y-91200000D03*
%TO.P,U1,11,VDD*%
%TO.N,+1V8*%
X129900000Y-90400000D03*
%TO.P,U1,12,GND*%
%TO.N,GND*%
X129900000Y-89600000D03*
%TO.P,U1,13,~{INT}*%
%TO.N,/INT*%
X129900000Y-88800000D03*
%TO.P,U1,14*%
%TO.N,N/C*%
X129900000Y-88000000D03*
%TD*%
D16*
%TO.P,U2,1,VOUT*%
%TO.N,+1V8*%
X131500000Y-82812500D03*
D17*
%TO.P,U2,2,GND*%
%TO.N,GND*%
X131500000Y-82187500D03*
D18*
%TO.P,U2,3,EN*%
%TO.N,+3.3V*%
X130458600Y-82187500D03*
D19*
%TO.P,U2,4,VIN*%
X130458600Y-82812500D03*
D20*
%TO.P,U2,EP,EXP*%
%TO.N,unconnected-(U2-EXP-PadEP)*%
X130979300Y-82500000D03*
%TD*%
D14*
%TO.P,C5,1*%
%TO.N,+3.3V*%
X130500000Y-97362500D03*
%TO.P,C5,2*%
%TO.N,GND*%
X130500000Y-95637500D03*
%TD*%
D11*
%TO.P,C4,1*%
%TO.N,+1V8*%
X132275000Y-84500000D03*
%TO.P,C4,2*%
%TO.N,GND*%
X134000000Y-84500000D03*
%TD*%
D21*
%TO.N,/INT*%
X125500000Y-93500000D03*
X131000000Y-89500000D03*
%TO.N,+3.3V*%
X129508332Y-97508332D03*
X130711061Y-92367416D03*
%TO.N,+1V8*%
X132500000Y-97500000D03*
X131500000Y-92500000D03*
%TO.N,GND*%
X134777000Y-91500000D03*
X132000000Y-91000000D03*
%TD*%
D22*
%TO.N,/SCL*%
X122849000Y-88643240D02*
X122849000Y-89596760D01*
X133776000Y-89688500D02*
X133000000Y-88912500D01*
X125307760Y-88800000D02*
X124476760Y-87969000D01*
X133776000Y-93392134D02*
X133776000Y-89688500D01*
X123523240Y-87969000D02*
X122849000Y-88643240D01*
X122849000Y-89596760D02*
X126953240Y-93701000D01*
X127500000Y-88800000D02*
X125307760Y-88800000D01*
X124000000Y-91660000D02*
X122849000Y-90509000D01*
X124476760Y-87969000D02*
X123523240Y-87969000D01*
X122849000Y-90509000D02*
X122849000Y-88643240D01*
X133467134Y-93701000D02*
X133776000Y-93392134D01*
X126953240Y-93701000D02*
X133467134Y-93701000D01*
%TO.N,/SDA*%
X128422000Y-89922000D02*
X128422000Y-92474000D01*
X124000000Y-89120000D02*
X124480000Y-89600000D01*
X124480000Y-89600000D02*
X127500000Y-89600000D01*
X128100000Y-89600000D02*
X128422000Y-89922000D01*
X128422000Y-92474000D02*
X129224000Y-93276000D01*
X127500000Y-89600000D02*
X128100000Y-89600000D01*
X129224000Y-93276000D02*
X132636500Y-93276000D01*
X132636500Y-93276000D02*
X133000000Y-92912500D01*
%TO.N,/INT*%
X131000000Y-89500000D02*
X130300000Y-88800000D01*
X124287500Y-94200000D02*
X127500000Y-97412500D01*
X124000000Y-94200000D02*
X124287500Y-94200000D01*
X124000000Y-94200000D02*
X124800000Y-94200000D01*
X124800000Y-94200000D02*
X125500000Y-93500000D01*
X130300000Y-88800000D02*
X129900000Y-88800000D01*
%TO.N,/VDDIO*%
X122448000Y-80750000D02*
X124099000Y-79099000D01*
X133000000Y-91087500D02*
X132224000Y-90311500D01*
X132532866Y-88124000D02*
X133467134Y-88124000D01*
X124099000Y-79099000D02*
X133767134Y-79099000D01*
X134838500Y-80170366D02*
X134838500Y-85249000D01*
X124000000Y-86580000D02*
X122448000Y-85028000D01*
X134177000Y-93558234D02*
X133235234Y-94500000D01*
X132224000Y-87863500D02*
X132224000Y-90311500D01*
X132224000Y-88432866D02*
X132532866Y-88124000D01*
X122448000Y-85028000D02*
X122448000Y-80750000D01*
X128587500Y-94500000D02*
X127500000Y-95587500D01*
X133467134Y-88124000D02*
X134177000Y-88833866D01*
X134838500Y-85249000D02*
X133000000Y-87087500D01*
X133235234Y-94500000D02*
X128587500Y-94500000D01*
X133767134Y-79099000D02*
X134838500Y-80170366D01*
X133000000Y-87087500D02*
X132224000Y-87863500D01*
X134177000Y-88833866D02*
X134177000Y-93558234D01*
X132224000Y-90311500D02*
X132224000Y-88432866D01*
%TO.N,+3.3V*%
X128823000Y-91275000D02*
X129548000Y-92000000D01*
X123599740Y-82812500D02*
X122849000Y-83563240D01*
X130458600Y-82812500D02*
X123599740Y-82812500D01*
X130303900Y-82342200D02*
X130458600Y-82187500D01*
X130458600Y-82812500D02*
X130303900Y-82657800D01*
X124500000Y-81500000D02*
X125500000Y-80500000D01*
X129900000Y-92000000D02*
X130500000Y-92000000D01*
X129508332Y-97508332D02*
X130354168Y-97508332D01*
X122849000Y-84516760D02*
X123523240Y-85191000D01*
X124000000Y-81500000D02*
X124500000Y-81500000D01*
X128637500Y-79500000D02*
X127637500Y-80500000D01*
X130354168Y-97508332D02*
X130500000Y-97362500D01*
X130500000Y-92000000D02*
X130899000Y-92399000D01*
X131137500Y-79500000D02*
X128637500Y-79500000D01*
X125843000Y-85191000D02*
X128823000Y-88171000D01*
X132137500Y-80500000D02*
X131137500Y-79500000D01*
X130899000Y-92500000D02*
X130843645Y-92500000D01*
X127637500Y-80500000D02*
X129325000Y-82187500D01*
X128823000Y-88171000D02*
X128823000Y-91275000D01*
X130843645Y-92500000D02*
X130711061Y-92367416D01*
X130899000Y-92399000D02*
X130899000Y-92500000D01*
X129325000Y-82187500D02*
X130458600Y-82187500D01*
X130303900Y-82657800D02*
X130303900Y-82342200D01*
X122849000Y-83563240D02*
X122849000Y-84516760D01*
X125500000Y-80500000D02*
X127637500Y-80500000D01*
X129548000Y-92000000D02*
X129900000Y-92000000D01*
X123523240Y-85191000D02*
X125843000Y-85191000D01*
%TO.N,+1V8*%
X127637500Y-84500000D02*
X129224000Y-86086500D01*
X128413500Y-83724000D02*
X130588500Y-83724000D01*
X127177500Y-84040000D02*
X127637500Y-84500000D01*
X127637500Y-84500000D02*
X128413500Y-83724000D01*
X129224000Y-86086500D02*
X129224000Y-89924000D01*
X132275000Y-84500000D02*
X132275000Y-83587500D01*
X130588500Y-83724000D02*
X131500000Y-82812500D01*
X132500000Y-97500000D02*
X133362500Y-97500000D01*
X129700000Y-90400000D02*
X129900000Y-90400000D01*
X131500000Y-91800000D02*
X131500000Y-92500000D01*
X132275000Y-83587500D02*
X131500000Y-82812500D01*
X124000000Y-84040000D02*
X127177500Y-84040000D01*
X129224000Y-89924000D02*
X129700000Y-90400000D01*
X133362500Y-97500000D02*
X133500000Y-97362500D01*
X129900000Y-90400000D02*
X130100000Y-90400000D01*
X130100000Y-90400000D02*
X131500000Y-91800000D01*
%TO.N,GND*%
X131765854Y-82187500D02*
X133113500Y-83535146D01*
X132804634Y-85276000D02*
X130138500Y-85276000D01*
X133862500Y-80500000D02*
X132175000Y-82187500D01*
X134777000Y-94360500D02*
X134777000Y-91500000D01*
X132175000Y-82187500D02*
X132000000Y-82187500D01*
X133113500Y-83535146D02*
X133113500Y-84967134D01*
X132000000Y-82187500D02*
X131500000Y-82187500D01*
X132000000Y-91000000D02*
X132000000Y-90852057D01*
X131601000Y-89748943D02*
X131601000Y-86479634D01*
X132000000Y-82421646D02*
X132000000Y-82187500D01*
X124000000Y-96740000D02*
X125461000Y-98201000D01*
X134000000Y-84500000D02*
X134000000Y-84421646D01*
X129812500Y-80500000D02*
X131500000Y-82187500D01*
X125461000Y-98201000D02*
X127967134Y-98201000D01*
X130601000Y-90101000D02*
X131248943Y-90101000D01*
X131601000Y-86479634D02*
X132804634Y-85276000D01*
X133113500Y-84967134D02*
X132804634Y-85276000D01*
X130500000Y-95668134D02*
X130500000Y-95637500D01*
X134000000Y-84421646D02*
X132000000Y-82421646D01*
X127967134Y-98201000D02*
X130500000Y-95668134D01*
X132000000Y-90852057D02*
X131248943Y-90101000D01*
X129900000Y-89600000D02*
X130100000Y-89600000D01*
X133500000Y-95637500D02*
X130500000Y-95637500D01*
X130100000Y-89600000D02*
X130601000Y-90101000D01*
X131500000Y-82187500D02*
X131765854Y-82187500D01*
X130138500Y-85276000D02*
X129362500Y-84500000D01*
X131248943Y-90101000D02*
X131601000Y-89748943D01*
X129362500Y-80500000D02*
X129812500Y-80500000D01*
X133500000Y-95637500D02*
X134777000Y-94360500D01*
%TD*%
%TA.AperFunction,Conductor*%
%TO.N,GND*%
G36*
X122496148Y-79684761D02*
G01*
X122526977Y-79747462D01*
X122519013Y-79816876D01*
X122492474Y-79856289D01*
X122079286Y-80269478D01*
X121967481Y-80381282D01*
X121967479Y-80381285D01*
X121917361Y-80468094D01*
X121917359Y-80468096D01*
X121888425Y-80518209D01*
X121888424Y-80518210D01*
X121888423Y-80518215D01*
X121847499Y-80670943D01*
X121847499Y-80670945D01*
X121847499Y-80839046D01*
X121847500Y-80839059D01*
X121847500Y-84941330D01*
X121847499Y-84941348D01*
X121847499Y-85107054D01*
X121847498Y-85107054D01*
X121888422Y-85259781D01*
X121888425Y-85259789D01*
X121894356Y-85270061D01*
X121967477Y-85396712D01*
X121967481Y-85396717D01*
X122086349Y-85515585D01*
X122086355Y-85515590D01*
X122666241Y-86095476D01*
X122699726Y-86156799D01*
X122696492Y-86221473D01*
X122682753Y-86263757D01*
X122664873Y-86376650D01*
X122649500Y-86473713D01*
X122649500Y-86686287D01*
X122682754Y-86896243D01*
X122698804Y-86945641D01*
X122748444Y-87098414D01*
X122844951Y-87287820D01*
X122969890Y-87459786D01*
X122988873Y-87478769D01*
X123022358Y-87540092D01*
X123017374Y-87609784D01*
X122988873Y-87654131D01*
X122368481Y-88274522D01*
X122368479Y-88274525D01*
X122325781Y-88348482D01*
X122325780Y-88348483D01*
X122289423Y-88411454D01*
X122289423Y-88411455D01*
X122248499Y-88564183D01*
X122248499Y-88564185D01*
X122248499Y-88732286D01*
X122248500Y-88732299D01*
X122248500Y-89517699D01*
X122248499Y-89517703D01*
X122248499Y-89675817D01*
X122248500Y-89675820D01*
X122248500Y-90422330D01*
X122248499Y-90422348D01*
X122248499Y-90588054D01*
X122248498Y-90588054D01*
X122289424Y-90740789D01*
X122289425Y-90740790D01*
X122305548Y-90768715D01*
X122305549Y-90768716D01*
X122368477Y-90877712D01*
X122368481Y-90877717D01*
X122487349Y-90996585D01*
X122487355Y-90996590D01*
X122666241Y-91175476D01*
X122699726Y-91236799D01*
X122696492Y-91301473D01*
X122682753Y-91343757D01*
X122649500Y-91553713D01*
X122649500Y-91766286D01*
X122667361Y-91879060D01*
X122682754Y-91976243D01*
X122729730Y-92120821D01*
X122748444Y-92178414D01*
X122844951Y-92367820D01*
X122969890Y-92539786D01*
X123120213Y-92690109D01*
X123292182Y-92815050D01*
X123300946Y-92819516D01*
X123351742Y-92867491D01*
X123368536Y-92935312D01*
X123345998Y-93001447D01*
X123300946Y-93040484D01*
X123292182Y-93044949D01*
X123120213Y-93169890D01*
X122969890Y-93320213D01*
X122844951Y-93492179D01*
X122748444Y-93681585D01*
X122682753Y-93883760D01*
X122649500Y-94093713D01*
X122649500Y-94306286D01*
X122682043Y-94511759D01*
X122682754Y-94516243D01*
X122741405Y-94696752D01*
X122748444Y-94718414D01*
X122844951Y-94907820D01*
X122969890Y-95079786D01*
X123120213Y-95230109D01*
X123292179Y-95355048D01*
X123292181Y-95355049D01*
X123292184Y-95355051D01*
X123301493Y-95359794D01*
X123352290Y-95407766D01*
X123369087Y-95475587D01*
X123346552Y-95541722D01*
X123301505Y-95580760D01*
X123292446Y-95585376D01*
X123292440Y-95585380D01*
X123238282Y-95624727D01*
X123238282Y-95624728D01*
X123870591Y-96257037D01*
X123807007Y-96274075D01*
X123692993Y-96339901D01*
X123599901Y-96432993D01*
X123534075Y-96547007D01*
X123517037Y-96610591D01*
X122884728Y-95978282D01*
X122884727Y-95978282D01*
X122845380Y-96032439D01*
X122748904Y-96221782D01*
X122683242Y-96423869D01*
X122683242Y-96423872D01*
X122650000Y-96633753D01*
X122650000Y-96846246D01*
X122683242Y-97056127D01*
X122683242Y-97056130D01*
X122748904Y-97258217D01*
X122845375Y-97447550D01*
X122884728Y-97501716D01*
X123517037Y-96869408D01*
X123534075Y-96932993D01*
X123599901Y-97047007D01*
X123692993Y-97140099D01*
X123807007Y-97205925D01*
X123870590Y-97222962D01*
X123238282Y-97855269D01*
X123238282Y-97855270D01*
X123292449Y-97894624D01*
X123481782Y-97991095D01*
X123683870Y-98056757D01*
X123893754Y-98090000D01*
X124106246Y-98090000D01*
X124316127Y-98056757D01*
X124316130Y-98056757D01*
X124518217Y-97991095D01*
X124707554Y-97894622D01*
X124761716Y-97855270D01*
X124761717Y-97855270D01*
X124129408Y-97222962D01*
X124192993Y-97205925D01*
X124307007Y-97140099D01*
X124400099Y-97047007D01*
X124465925Y-96932993D01*
X124482962Y-96869408D01*
X125115270Y-97501717D01*
X125115270Y-97501716D01*
X125154622Y-97447554D01*
X125251095Y-97258217D01*
X125316757Y-97056130D01*
X125316757Y-97056127D01*
X125350000Y-96846246D01*
X125350000Y-96633753D01*
X125316758Y-96423873D01*
X125310131Y-96403478D01*
X125308135Y-96333637D01*
X125344215Y-96273804D01*
X125406916Y-96242975D01*
X125476330Y-96250939D01*
X125515743Y-96277478D01*
X126488181Y-97249916D01*
X126521666Y-97311239D01*
X126524500Y-97337597D01*
X126524500Y-97711669D01*
X126524501Y-97711687D01*
X126534825Y-97812752D01*
X126571109Y-97922249D01*
X126589092Y-97976516D01*
X126679660Y-98123350D01*
X126801650Y-98245340D01*
X126948484Y-98335908D01*
X127112247Y-98390174D01*
X127213323Y-98400500D01*
X127786676Y-98400499D01*
X127786684Y-98400498D01*
X127786687Y-98400498D01*
X127842030Y-98394844D01*
X127887753Y-98390174D01*
X128051516Y-98335908D01*
X128198350Y-98245340D01*
X128320340Y-98123350D01*
X128410908Y-97976516D01*
X128465174Y-97812753D01*
X128475500Y-97711677D01*
X128475499Y-97678154D01*
X128495182Y-97611118D01*
X128547984Y-97565362D01*
X128617143Y-97555417D01*
X128680699Y-97584440D01*
X128718475Y-97643217D01*
X128721116Y-97653962D01*
X128738594Y-97741824D01*
X128738596Y-97741833D01*
X128798934Y-97887504D01*
X128798941Y-97887517D01*
X128886542Y-98018620D01*
X128886545Y-98018624D01*
X128998039Y-98130118D01*
X128998043Y-98130121D01*
X129129146Y-98217722D01*
X129129159Y-98217729D01*
X129254722Y-98269738D01*
X129274835Y-98278069D01*
X129413840Y-98305719D01*
X129429485Y-98308831D01*
X129429488Y-98308832D01*
X129429490Y-98308832D01*
X129587176Y-98308832D01*
X129587177Y-98308831D01*
X129741829Y-98278069D01*
X129750774Y-98274363D01*
X129820240Y-98266891D01*
X129863327Y-98283382D01*
X129948484Y-98335908D01*
X130112247Y-98390174D01*
X130213323Y-98400500D01*
X130786676Y-98400499D01*
X130786684Y-98400498D01*
X130786687Y-98400498D01*
X130842030Y-98394844D01*
X130887753Y-98390174D01*
X131051516Y-98335908D01*
X131198350Y-98245340D01*
X131320340Y-98123350D01*
X131410908Y-97976516D01*
X131465174Y-97812753D01*
X131475500Y-97711677D01*
X131475499Y-97711664D01*
X131475660Y-97708529D01*
X131475820Y-97708537D01*
X131475821Y-97708536D01*
X131475844Y-97708538D01*
X131476432Y-97708568D01*
X131495162Y-97644705D01*
X131547951Y-97598933D01*
X131617107Y-97588967D01*
X131680672Y-97617972D01*
X131718465Y-97676738D01*
X131721116Y-97687517D01*
X131730262Y-97733494D01*
X131730264Y-97733501D01*
X131790602Y-97879172D01*
X131790609Y-97879185D01*
X131878210Y-98010288D01*
X131878213Y-98010292D01*
X131989707Y-98121786D01*
X131989711Y-98121789D01*
X132120814Y-98209390D01*
X132120827Y-98209397D01*
X132219085Y-98250096D01*
X132266503Y-98269737D01*
X132362902Y-98288912D01*
X132421153Y-98300499D01*
X132421156Y-98300500D01*
X132421158Y-98300500D01*
X132578844Y-98300500D01*
X132578845Y-98300499D01*
X132733497Y-98269737D01*
X132739344Y-98267314D01*
X132808812Y-98259842D01*
X132851897Y-98276333D01*
X132948484Y-98335908D01*
X133112247Y-98390174D01*
X133213323Y-98400500D01*
X133786676Y-98400499D01*
X133786684Y-98400498D01*
X133786687Y-98400498D01*
X133842030Y-98394844D01*
X133887753Y-98390174D01*
X134051516Y-98335908D01*
X134198350Y-98245340D01*
X134320340Y-98123350D01*
X134410908Y-97976516D01*
X134465174Y-97812753D01*
X134475500Y-97711677D01*
X134475499Y-97013324D01*
X134465174Y-96912247D01*
X134410908Y-96748484D01*
X134320340Y-96601650D01*
X134306017Y-96587327D01*
X134272532Y-96526004D01*
X134277516Y-96456312D01*
X134306021Y-96411960D01*
X134319947Y-96398035D01*
X134410448Y-96251311D01*
X134410453Y-96251300D01*
X134464680Y-96087652D01*
X134474999Y-95986654D01*
X134475000Y-95986641D01*
X134475000Y-95887500D01*
X132525001Y-95887500D01*
X132525001Y-95986654D01*
X132535319Y-96087652D01*
X132589546Y-96251300D01*
X132589551Y-96251311D01*
X132680052Y-96398034D01*
X132680055Y-96398038D01*
X132693982Y-96411965D01*
X132727467Y-96473288D01*
X132722483Y-96542980D01*
X132705933Y-96573466D01*
X132700467Y-96580842D01*
X132679660Y-96601650D01*
X132652868Y-96645085D01*
X132649731Y-96649320D01*
X132625900Y-96667343D01*
X132603690Y-96687321D01*
X132597681Y-96688686D01*
X132594005Y-96691467D01*
X132581105Y-96692453D01*
X132550099Y-96699500D01*
X132421155Y-96699500D01*
X132266510Y-96730261D01*
X132266498Y-96730264D01*
X132120827Y-96790602D01*
X132120814Y-96790609D01*
X131989711Y-96878210D01*
X131989707Y-96878213D01*
X131878213Y-96989707D01*
X131878210Y-96989711D01*
X131790609Y-97120814D01*
X131790602Y-97120827D01*
X131730264Y-97266498D01*
X131730261Y-97266507D01*
X131721116Y-97312484D01*
X131688730Y-97374394D01*
X131628014Y-97408968D01*
X131558245Y-97405227D01*
X131501573Y-97364360D01*
X131475992Y-97299342D01*
X131475499Y-97288291D01*
X131475499Y-97013330D01*
X131475498Y-97013312D01*
X131465174Y-96912247D01*
X131453896Y-96878213D01*
X131410908Y-96748484D01*
X131320340Y-96601650D01*
X131306017Y-96587327D01*
X131272532Y-96526004D01*
X131277516Y-96456312D01*
X131306021Y-96411960D01*
X131319947Y-96398035D01*
X131410448Y-96251311D01*
X131410453Y-96251300D01*
X131464680Y-96087652D01*
X131474999Y-95986654D01*
X131475000Y-95986641D01*
X131475000Y-95887500D01*
X129525001Y-95887500D01*
X129525001Y-95986654D01*
X129535319Y-96087652D01*
X129589546Y-96251300D01*
X129589551Y-96251311D01*
X129680052Y-96398034D01*
X129680055Y-96398038D01*
X129693982Y-96411965D01*
X129727467Y-96473288D01*
X129722483Y-96542980D01*
X129706519Y-96572669D01*
X129700820Y-96580489D01*
X129679660Y-96601650D01*
X129647990Y-96652993D01*
X129645177Y-96656855D01*
X129621118Y-96675354D01*
X129598549Y-96695654D01*
X129593111Y-96696889D01*
X129589788Y-96699445D01*
X129577177Y-96700510D01*
X129544959Y-96707832D01*
X129429487Y-96707832D01*
X129274842Y-96738593D01*
X129274830Y-96738596D01*
X129129159Y-96798934D01*
X129129146Y-96798941D01*
X128998043Y-96886542D01*
X128998039Y-96886545D01*
X128886545Y-96998039D01*
X128886542Y-96998043D01*
X128798941Y-97129146D01*
X128798934Y-97129159D01*
X128738596Y-97274830D01*
X128738593Y-97274840D01*
X128721116Y-97362703D01*
X128688731Y-97424614D01*
X128628015Y-97459188D01*
X128558245Y-97455447D01*
X128501574Y-97414581D01*
X128475992Y-97349562D01*
X128475499Y-97338511D01*
X128475499Y-97113330D01*
X128475498Y-97113312D01*
X128465174Y-97012247D01*
X128457705Y-96989707D01*
X128410908Y-96848484D01*
X128320340Y-96701650D01*
X128206371Y-96587681D01*
X128172886Y-96526358D01*
X128177870Y-96456666D01*
X128206371Y-96412319D01*
X128229598Y-96389092D01*
X128320340Y-96298350D01*
X128410908Y-96151516D01*
X128465174Y-95987753D01*
X128475500Y-95886677D01*
X128475499Y-95512595D01*
X128495183Y-95445557D01*
X128511809Y-95424924D01*
X128799917Y-95136816D01*
X128861239Y-95103334D01*
X128887597Y-95100500D01*
X129406878Y-95100500D01*
X129473917Y-95120185D01*
X129519672Y-95172989D01*
X129530236Y-95237103D01*
X129525000Y-95288345D01*
X129525000Y-95387500D01*
X131474999Y-95387500D01*
X131474999Y-95288360D01*
X131474998Y-95288347D01*
X131469763Y-95237103D01*
X131482532Y-95168410D01*
X131530412Y-95117525D01*
X131593121Y-95100500D01*
X132406878Y-95100500D01*
X132473917Y-95120185D01*
X132519672Y-95172989D01*
X132530236Y-95237103D01*
X132525000Y-95288345D01*
X132525000Y-95387500D01*
X134474999Y-95387500D01*
X134474999Y-95288360D01*
X134474998Y-95288345D01*
X134464680Y-95187347D01*
X134410453Y-95023699D01*
X134410448Y-95023688D01*
X134319947Y-94876965D01*
X134319944Y-94876961D01*
X134198037Y-94755054D01*
X134103516Y-94696752D01*
X134056792Y-94644804D01*
X134045571Y-94575841D01*
X134073415Y-94511759D01*
X134080911Y-94503556D01*
X134535506Y-94048962D01*
X134535511Y-94048958D01*
X134545714Y-94038754D01*
X134545716Y-94038754D01*
X134657520Y-93926950D01*
X134726121Y-93808129D01*
X134726122Y-93808128D01*
X134730364Y-93800779D01*
X134736577Y-93790019D01*
X134777500Y-93637292D01*
X134777500Y-93479177D01*
X134777500Y-88754809D01*
X134769379Y-88724500D01*
X134736577Y-88602081D01*
X134688898Y-88519499D01*
X134657520Y-88465150D01*
X134545716Y-88353346D01*
X134541385Y-88349015D01*
X134541374Y-88349005D01*
X133954717Y-87762348D01*
X133948302Y-87755932D01*
X133940888Y-87742352D01*
X133940886Y-87742349D01*
X133930838Y-87723944D01*
X133914824Y-87694616D01*
X133914824Y-87694611D01*
X133914822Y-87694607D01*
X133914831Y-87694474D01*
X133918283Y-87629257D01*
X133965174Y-87487753D01*
X133975500Y-87386677D01*
X133975499Y-87012596D01*
X133995183Y-86945558D01*
X134011813Y-86924921D01*
X135287821Y-85648914D01*
X135349142Y-85615431D01*
X135418834Y-85620415D01*
X135474767Y-85662287D01*
X135499184Y-85727751D01*
X135499500Y-85736597D01*
X135499500Y-98221873D01*
X135479815Y-98288912D01*
X135427011Y-98334667D01*
X135357853Y-98344611D01*
X135337183Y-98339804D01*
X135282782Y-98322128D01*
X135282780Y-98322127D01*
X135282778Y-98322127D01*
X135095046Y-98292393D01*
X135095041Y-98292393D01*
X134904959Y-98292393D01*
X134904954Y-98292393D01*
X134717221Y-98322127D01*
X134536437Y-98380868D01*
X134367075Y-98467162D01*
X134279339Y-98530906D01*
X134213297Y-98578889D01*
X134213295Y-98578891D01*
X134213294Y-98578891D01*
X134078891Y-98713294D01*
X134078891Y-98713295D01*
X134078889Y-98713297D01*
X134030906Y-98779339D01*
X133967162Y-98867075D01*
X133880868Y-99036437D01*
X133822127Y-99217221D01*
X133792393Y-99404953D01*
X133792393Y-99595046D01*
X133822127Y-99782778D01*
X133822127Y-99782779D01*
X133839804Y-99837182D01*
X133841799Y-99907023D01*
X133805719Y-99966856D01*
X133743018Y-99997684D01*
X133721873Y-99999500D01*
X123278127Y-99999500D01*
X123211088Y-99979815D01*
X123165333Y-99927011D01*
X123155389Y-99857853D01*
X123160196Y-99837182D01*
X123165854Y-99819769D01*
X123177872Y-99782782D01*
X123195452Y-99671787D01*
X123207607Y-99595046D01*
X123207607Y-99404953D01*
X123177872Y-99217221D01*
X123177872Y-99217218D01*
X123119133Y-99036440D01*
X123032838Y-98867076D01*
X122921111Y-98713297D01*
X122786703Y-98578889D01*
X122632924Y-98467162D01*
X122463560Y-98380867D01*
X122282782Y-98322128D01*
X122282780Y-98322127D01*
X122282778Y-98322127D01*
X122095046Y-98292393D01*
X122095041Y-98292393D01*
X121904959Y-98292393D01*
X121904954Y-98292393D01*
X121717221Y-98322127D01*
X121717220Y-98322127D01*
X121680439Y-98334078D01*
X121662817Y-98339804D01*
X121592977Y-98341799D01*
X121533144Y-98305719D01*
X121502316Y-98243018D01*
X121500500Y-98221873D01*
X121500500Y-79778126D01*
X121520185Y-79711087D01*
X121572989Y-79665332D01*
X121642147Y-79655388D01*
X121662811Y-79660193D01*
X121717218Y-79677872D01*
X121787620Y-79689022D01*
X121904954Y-79707607D01*
X121904959Y-79707607D01*
X122095046Y-79707607D01*
X122282776Y-79677873D01*
X122282776Y-79677872D01*
X122282782Y-79677872D01*
X122366479Y-79650676D01*
X122436315Y-79648681D01*
X122496148Y-79684761D01*
G37*
%TD.AperFunction*%
%TA.AperFunction,Conductor*%
G36*
X131564665Y-90172636D02*
G01*
X131611355Y-90224614D01*
X131623499Y-90278132D01*
X131623499Y-90390554D01*
X131623498Y-90390554D01*
X131654150Y-90504949D01*
X131664423Y-90543285D01*
X131686316Y-90581204D01*
X131710373Y-90622872D01*
X131743479Y-90680214D01*
X131743481Y-90680217D01*
X131862349Y-90799085D01*
X131862355Y-90799090D01*
X131988181Y-90924916D01*
X132021666Y-90986239D01*
X132024500Y-91012597D01*
X132024500Y-91175903D01*
X132004815Y-91242942D01*
X131952011Y-91288697D01*
X131882853Y-91298641D01*
X131819297Y-91269616D01*
X131812819Y-91263584D01*
X131051786Y-90502551D01*
X131018301Y-90441228D01*
X131023285Y-90371536D01*
X131065157Y-90315603D01*
X131115276Y-90293253D01*
X131168001Y-90282765D01*
X131233497Y-90269737D01*
X131379179Y-90209394D01*
X131379184Y-90209390D01*
X131379187Y-90209389D01*
X131430607Y-90175031D01*
X131497284Y-90154152D01*
X131564665Y-90172636D01*
G37*
%TD.AperFunction*%
%TA.AperFunction,Conductor*%
G36*
X131129401Y-84105990D02*
G01*
X131156333Y-84107916D01*
X131163098Y-84112980D01*
X131171376Y-84114698D01*
X131190653Y-84133607D01*
X131212267Y-84149787D01*
X131215220Y-84157705D01*
X131221255Y-84163625D01*
X131227248Y-84189954D01*
X131236684Y-84215251D01*
X131237000Y-84224098D01*
X131237000Y-84786669D01*
X131237001Y-84786687D01*
X131247325Y-84887752D01*
X131267601Y-84948939D01*
X131301592Y-85051516D01*
X131392160Y-85198350D01*
X131514150Y-85320340D01*
X131660984Y-85410908D01*
X131824747Y-85465174D01*
X131925823Y-85475500D01*
X132624176Y-85475499D01*
X132624184Y-85475498D01*
X132624187Y-85475498D01*
X132679530Y-85469844D01*
X132725253Y-85465174D01*
X132889016Y-85410908D01*
X133035850Y-85320340D01*
X133050171Y-85306018D01*
X133111489Y-85272533D01*
X133181181Y-85277514D01*
X133225534Y-85306017D01*
X133239461Y-85319944D01*
X133239465Y-85319947D01*
X133386188Y-85410448D01*
X133386199Y-85410453D01*
X133527067Y-85457132D01*
X133584512Y-85496904D01*
X133611335Y-85561420D01*
X133599020Y-85630196D01*
X133575744Y-85662519D01*
X133175082Y-86063181D01*
X133113759Y-86096666D01*
X133087401Y-86099500D01*
X132713330Y-86099500D01*
X132713312Y-86099501D01*
X132612247Y-86109825D01*
X132448484Y-86164092D01*
X132448481Y-86164093D01*
X132301648Y-86254661D01*
X132179661Y-86376648D01*
X132089093Y-86523481D01*
X132089092Y-86523484D01*
X132034826Y-86687247D01*
X132034826Y-86687248D01*
X132034825Y-86687248D01*
X132024500Y-86788315D01*
X132024500Y-87162401D01*
X132015854Y-87191844D01*
X132009332Y-87221827D01*
X132005577Y-87226842D01*
X132004815Y-87229440D01*
X131988185Y-87250077D01*
X131855286Y-87382978D01*
X131855285Y-87382978D01*
X131855284Y-87382979D01*
X131743479Y-87494784D01*
X131727123Y-87523116D01*
X131716191Y-87542051D01*
X131664423Y-87631715D01*
X131623499Y-87784443D01*
X131623499Y-87784445D01*
X131623499Y-87952546D01*
X131623500Y-87952559D01*
X131623500Y-88353805D01*
X131623499Y-88353809D01*
X131623499Y-88511923D01*
X131623500Y-88511926D01*
X131623500Y-88721867D01*
X131603815Y-88788906D01*
X131551011Y-88834661D01*
X131481853Y-88844605D01*
X131430610Y-88824970D01*
X131379183Y-88790608D01*
X131379172Y-88790602D01*
X131233501Y-88730264D01*
X131233491Y-88730261D01*
X131078149Y-88699361D01*
X131016238Y-88666976D01*
X131014660Y-88665425D01*
X130788122Y-88438887D01*
X130754637Y-88377564D01*
X130759621Y-88307872D01*
X130759622Y-88307871D01*
X130769089Y-88282488D01*
X130769088Y-88282488D01*
X130769091Y-88282483D01*
X130775500Y-88222873D01*
X130775499Y-87777128D01*
X130769091Y-87717517D01*
X130760549Y-87694616D01*
X130718797Y-87582671D01*
X130718793Y-87582664D01*
X130632547Y-87467455D01*
X130632544Y-87467452D01*
X130517335Y-87381206D01*
X130517328Y-87381202D01*
X130382482Y-87330908D01*
X130382483Y-87330908D01*
X130322883Y-87324501D01*
X130322881Y-87324500D01*
X130322873Y-87324500D01*
X130322865Y-87324500D01*
X129948500Y-87324500D01*
X129881461Y-87304815D01*
X129835706Y-87252011D01*
X129824500Y-87200500D01*
X129824500Y-86175559D01*
X129824501Y-86175546D01*
X129824501Y-86007445D01*
X129824501Y-86007443D01*
X129783577Y-85854715D01*
X129753639Y-85802861D01*
X129704520Y-85717784D01*
X129662106Y-85675370D01*
X129656111Y-85666956D01*
X129647921Y-85643313D01*
X129635933Y-85621359D01*
X129636683Y-85610871D01*
X129633241Y-85600935D01*
X129639132Y-85576621D01*
X129640917Y-85551667D01*
X129647219Y-85543248D01*
X129649695Y-85533031D01*
X129667795Y-85515762D01*
X129682789Y-85495734D01*
X129692945Y-85491769D01*
X129700249Y-85484801D01*
X129721106Y-85480775D01*
X129744498Y-85471643D01*
X129812651Y-85464680D01*
X129976300Y-85410453D01*
X129976311Y-85410448D01*
X130123034Y-85319947D01*
X130123038Y-85319944D01*
X130244944Y-85198038D01*
X130244947Y-85198034D01*
X130335448Y-85051311D01*
X130335453Y-85051300D01*
X130389680Y-84887652D01*
X130399999Y-84786654D01*
X130400000Y-84786641D01*
X130400000Y-84750000D01*
X129486500Y-84750000D01*
X129477814Y-84747449D01*
X129468853Y-84748738D01*
X129444812Y-84737759D01*
X129419461Y-84730315D01*
X129413533Y-84723474D01*
X129405297Y-84719713D01*
X129391007Y-84697478D01*
X129373706Y-84677511D01*
X129371418Y-84666996D01*
X129367523Y-84660935D01*
X129362500Y-84626000D01*
X129362500Y-84448500D01*
X129382185Y-84381461D01*
X129434989Y-84335706D01*
X129486500Y-84324500D01*
X130501831Y-84324500D01*
X130501847Y-84324501D01*
X130509443Y-84324501D01*
X130667554Y-84324501D01*
X130667557Y-84324501D01*
X130820285Y-84283577D01*
X130870404Y-84254639D01*
X130957216Y-84204520D01*
X131031168Y-84130567D01*
X131037737Y-84125551D01*
X131062942Y-84115872D01*
X131086641Y-84102932D01*
X131095072Y-84103534D01*
X131102963Y-84100505D01*
X131129401Y-84105990D01*
G37*
%TD.AperFunction*%
%TA.AperFunction,Conductor*%
G36*
X134055539Y-80519685D02*
G01*
X134101294Y-80572489D01*
X134112500Y-80624000D01*
X134112500Y-81474999D01*
X134114000Y-81474999D01*
X134181039Y-81494684D01*
X134226794Y-81547488D01*
X134238000Y-81598999D01*
X134238000Y-84376000D01*
X134235449Y-84384685D01*
X134236738Y-84393647D01*
X134225759Y-84417687D01*
X134218315Y-84443039D01*
X134211474Y-84448966D01*
X134207713Y-84457203D01*
X134185478Y-84471492D01*
X134165511Y-84488794D01*
X134154996Y-84491081D01*
X134148935Y-84494977D01*
X134114000Y-84500000D01*
X133874000Y-84500000D01*
X133806961Y-84480315D01*
X133761206Y-84427511D01*
X133750000Y-84376000D01*
X133750000Y-83524999D01*
X133650860Y-83525000D01*
X133650844Y-83525001D01*
X133549847Y-83535319D01*
X133386199Y-83589546D01*
X133386188Y-83589551D01*
X133239465Y-83680052D01*
X133225532Y-83693985D01*
X133164208Y-83727468D01*
X133094516Y-83722482D01*
X133067787Y-83708608D01*
X133058302Y-83702112D01*
X133035850Y-83679660D01*
X132931883Y-83615533D01*
X132929435Y-83613856D01*
X132909139Y-83588998D01*
X132887680Y-83565140D01*
X132886916Y-83561781D01*
X132885246Y-83559735D01*
X132884032Y-83549091D01*
X132876624Y-83516493D01*
X132876562Y-83516502D01*
X132876473Y-83515826D01*
X132875501Y-83511549D01*
X132875501Y-83508444D01*
X132857027Y-83439499D01*
X132834577Y-83355716D01*
X132834573Y-83355709D01*
X132755524Y-83218790D01*
X132755518Y-83218782D01*
X132356619Y-82819883D01*
X132345367Y-82799276D01*
X132330388Y-82781193D01*
X132327297Y-82766185D01*
X132323134Y-82758560D01*
X132321200Y-82747116D01*
X132320300Y-82739687D01*
X132320300Y-82672800D01*
X132317403Y-82618759D01*
X132295029Y-82531102D01*
X132294064Y-82523137D01*
X132298537Y-82496278D01*
X132299270Y-82475731D01*
X132297890Y-82475392D01*
X132299343Y-82469476D01*
X132319799Y-82327198D01*
X132319800Y-82327197D01*
X132319800Y-82047797D01*
X132316906Y-81993811D01*
X132281357Y-81854540D01*
X132278428Y-81847469D01*
X132226693Y-81752723D01*
X132162706Y-81683994D01*
X132131432Y-81621514D01*
X132138901Y-81552045D01*
X132182743Y-81497642D01*
X132249038Y-81475578D01*
X132253443Y-81475499D01*
X132486676Y-81475499D01*
X132486684Y-81475498D01*
X132486687Y-81475498D01*
X132542030Y-81469844D01*
X132587753Y-81465174D01*
X132751516Y-81410908D01*
X132898350Y-81320340D01*
X132912671Y-81306018D01*
X132973989Y-81272533D01*
X133043681Y-81277514D01*
X133088034Y-81306017D01*
X133101961Y-81319944D01*
X133101965Y-81319947D01*
X133248688Y-81410448D01*
X133248699Y-81410453D01*
X133412347Y-81464680D01*
X133513351Y-81474999D01*
X133612500Y-81474998D01*
X133612500Y-80624000D01*
X133632185Y-80556961D01*
X133684989Y-80511206D01*
X133736500Y-80500000D01*
X133988500Y-80500000D01*
X134055539Y-80519685D01*
G37*
%TD.AperFunction*%
%TA.AperFunction,Conductor*%
G36*
X130904442Y-80120185D02*
G01*
X130925084Y-80136819D01*
X131063181Y-80274916D01*
X131096666Y-80336239D01*
X131099500Y-80362597D01*
X131099500Y-80786669D01*
X131099501Y-80786687D01*
X131109825Y-80887752D01*
X131146109Y-80997249D01*
X131164092Y-81051516D01*
X131254659Y-81198349D01*
X131254661Y-81198351D01*
X131377429Y-81321119D01*
X131410914Y-81382442D01*
X131405930Y-81452134D01*
X131364058Y-81508067D01*
X131298594Y-81532484D01*
X131289748Y-81532800D01*
X131195198Y-81532800D01*
X131141209Y-81535694D01*
X131012985Y-81568423D01*
X130943160Y-81565930D01*
X130941064Y-81565211D01*
X130905817Y-81552776D01*
X130858344Y-81545950D01*
X130763400Y-81532300D01*
X130210045Y-81532300D01*
X130143006Y-81512615D01*
X130097251Y-81459811D01*
X130087307Y-81390653D01*
X130116332Y-81327097D01*
X130122364Y-81320619D01*
X130244944Y-81198038D01*
X130244947Y-81198034D01*
X130335448Y-81051311D01*
X130335453Y-81051300D01*
X130389680Y-80887652D01*
X130399999Y-80786654D01*
X130400000Y-80786641D01*
X130400000Y-80750000D01*
X129486500Y-80750000D01*
X129419461Y-80730315D01*
X129373706Y-80677511D01*
X129362500Y-80626000D01*
X129362500Y-80374000D01*
X129382185Y-80306961D01*
X129434989Y-80261206D01*
X129486500Y-80250000D01*
X130399999Y-80250000D01*
X130399999Y-80224500D01*
X130419684Y-80157461D01*
X130472488Y-80111706D01*
X130523999Y-80100500D01*
X130837403Y-80100500D01*
X130904442Y-80120185D01*
G37*
%TD.AperFunction*%
%TD*%
M02*
