%TF.GenerationSoftware,KiCad,Pcbnew,9.0.6*%
%TF.CreationDate,2026-02-16T11:15:55-08:00*%
%TF.ProjectId,sensor_ppg,73656e73-6f72-45f7-9070-672e6b696361,rev?*%
%TF.SameCoordinates,Original*%
%TF.FileFunction,Copper,L2,Bot*%
%TF.FilePolarity,Positive*%
%FSLAX46Y46*%
G04 Gerber Fmt 4.6, Leading zero omitted, Abs format (unit mm)*
G04 Created by KiCad (PCBNEW 9.0.6) date 2026-02-16 11:15:55*
%MOMM*%
%LPD*%
G01*
G04 APERTURE LIST*
%TA.AperFunction,ComponentPad*%
%ADD10R,1.700000X1.700000*%
%TD*%
%TA.AperFunction,ComponentPad*%
%ADD11C,1.700000*%
%TD*%
%TA.AperFunction,ViaPad*%
%ADD12C,0.600000*%
%TD*%
%TA.AperFunction,Conductor*%
%ADD13C,0.200000*%
%TD*%
G04 APERTURE END LIST*
D10*
%TO.P,J1,1,Pin_1*%
%TO.N,+3.3V*%
X124000000Y-81500000D03*
D11*
%TO.P,J1,2,Pin_2*%
%TO.N,+1V8*%
X124000000Y-84040000D03*
%TO.P,J1,3,Pin_3*%
%TO.N,/VDDIO*%
X124000000Y-86580000D03*
%TO.P,J1,4,Pin_4*%
%TO.N,/SDA*%
X124000000Y-89120000D03*
%TO.P,J1,5,Pin_5*%
%TO.N,/SCL*%
X124000000Y-91660000D03*
%TO.P,J1,6,Pin_6*%
%TO.N,/INT*%
X124000000Y-94200000D03*
%TO.P,J1,7,Pin_7*%
%TO.N,GND*%
X124000000Y-96740000D03*
%TD*%
D12*
%TO.N,/INT*%
X125500000Y-93500000D03*
X131000000Y-89500000D03*
%TO.N,+3.3V*%
X129508332Y-97508332D03*
X130711061Y-92367416D03*
%TO.N,+1V8*%
X132500000Y-97500000D03*
X131500000Y-92500000D03*
%TO.N,GND*%
X134777000Y-91500000D03*
X132000000Y-91000000D03*
%TD*%
D13*
%TO.N,/INT*%
X129500000Y-89500000D02*
X131000000Y-89500000D01*
X125500000Y-93500000D02*
X129500000Y-89500000D01*
%TO.N,+3.3V*%
X130711061Y-96288939D02*
X129500000Y-97500000D01*
X129500000Y-97500000D02*
X129508332Y-97508332D01*
X130711061Y-92367416D02*
X130711061Y-96288939D01*
%TO.N,+1V8*%
X131500000Y-92500000D02*
X131500000Y-96500000D01*
X131500000Y-96500000D02*
X132500000Y-97500000D01*
%TO.N,GND*%
X134777000Y-91500000D02*
X132500000Y-91500000D01*
X132500000Y-91500000D02*
X132000000Y-91000000D01*
%TD*%
%TA.AperFunction,Conductor*%
%TO.N,GND*%
G36*
X133788912Y-78020185D02*
G01*
X133834667Y-78072989D01*
X133844611Y-78142147D01*
X133839804Y-78162818D01*
X133822127Y-78217220D01*
X133822127Y-78217221D01*
X133792393Y-78404953D01*
X133792393Y-78595046D01*
X133804548Y-78671787D01*
X133822128Y-78782782D01*
X133880867Y-78963560D01*
X133967162Y-79132924D01*
X134078889Y-79286703D01*
X134213297Y-79421111D01*
X134367076Y-79532838D01*
X134536440Y-79619133D01*
X134717218Y-79677872D01*
X134787620Y-79689022D01*
X134904954Y-79707607D01*
X134904959Y-79707607D01*
X135095046Y-79707607D01*
X135199341Y-79691087D01*
X135282782Y-79677872D01*
X135337182Y-79660195D01*
X135407021Y-79658199D01*
X135466855Y-79694279D01*
X135497684Y-79756979D01*
X135499500Y-79778126D01*
X135499500Y-98221873D01*
X135479815Y-98288912D01*
X135427011Y-98334667D01*
X135357853Y-98344611D01*
X135337183Y-98339804D01*
X135282782Y-98322128D01*
X135282780Y-98322127D01*
X135282778Y-98322127D01*
X135095046Y-98292393D01*
X135095041Y-98292393D01*
X134904959Y-98292393D01*
X134904954Y-98292393D01*
X134717221Y-98322127D01*
X134536437Y-98380868D01*
X134367075Y-98467162D01*
X134279339Y-98530906D01*
X134213297Y-98578889D01*
X134213295Y-98578891D01*
X134213294Y-98578891D01*
X134078891Y-98713294D01*
X134078891Y-98713295D01*
X134078889Y-98713297D01*
X134030906Y-98779339D01*
X133967162Y-98867075D01*
X133880868Y-99036437D01*
X133822127Y-99217221D01*
X133792393Y-99404953D01*
X133792393Y-99595046D01*
X133822127Y-99782778D01*
X133822127Y-99782779D01*
X133839804Y-99837182D01*
X133841799Y-99907023D01*
X133805719Y-99966856D01*
X133743018Y-99997684D01*
X133721873Y-99999500D01*
X123278127Y-99999500D01*
X123211088Y-99979815D01*
X123165333Y-99927011D01*
X123155389Y-99857853D01*
X123160196Y-99837182D01*
X123165854Y-99819769D01*
X123177872Y-99782782D01*
X123195452Y-99671787D01*
X123207607Y-99595046D01*
X123207607Y-99404953D01*
X123177872Y-99217221D01*
X123177872Y-99217218D01*
X123119133Y-99036440D01*
X123032838Y-98867076D01*
X122921111Y-98713297D01*
X122786703Y-98578889D01*
X122632924Y-98467162D01*
X122463560Y-98380867D01*
X122282782Y-98322128D01*
X122282780Y-98322127D01*
X122282778Y-98322127D01*
X122095046Y-98292393D01*
X122095041Y-98292393D01*
X121904959Y-98292393D01*
X121904954Y-98292393D01*
X121717221Y-98322127D01*
X121717220Y-98322127D01*
X121680439Y-98334078D01*
X121662817Y-98339804D01*
X121592977Y-98341799D01*
X121533144Y-98305719D01*
X121502316Y-98243018D01*
X121500500Y-98221873D01*
X121500500Y-80602135D01*
X122649500Y-80602135D01*
X122649500Y-82397870D01*
X122649501Y-82397876D01*
X122655908Y-82457483D01*
X122706202Y-82592328D01*
X122706206Y-82592335D01*
X122792452Y-82707544D01*
X122792455Y-82707547D01*
X122907664Y-82793793D01*
X122907671Y-82793797D01*
X123039082Y-82842810D01*
X123095016Y-82884681D01*
X123119433Y-82950145D01*
X123104582Y-83018418D01*
X123083431Y-83046673D01*
X122969889Y-83160215D01*
X122844951Y-83332179D01*
X122748444Y-83521585D01*
X122682753Y-83723760D01*
X122649500Y-83933713D01*
X122649500Y-84146286D01*
X122682753Y-84356239D01*
X122748444Y-84558414D01*
X122844951Y-84747820D01*
X122969890Y-84919786D01*
X123120213Y-85070109D01*
X123292182Y-85195050D01*
X123300946Y-85199516D01*
X123351742Y-85247491D01*
X123368536Y-85315312D01*
X123345998Y-85381447D01*
X123300946Y-85420484D01*
X123292182Y-85424949D01*
X123120213Y-85549890D01*
X122969890Y-85700213D01*
X122844951Y-85872179D01*
X122748444Y-86061585D01*
X122682753Y-86263760D01*
X122649500Y-86473713D01*
X122649500Y-86686286D01*
X122682753Y-86896239D01*
X122748444Y-87098414D01*
X122844951Y-87287820D01*
X122969890Y-87459786D01*
X123120213Y-87610109D01*
X123292182Y-87735050D01*
X123300946Y-87739516D01*
X123351742Y-87787491D01*
X123368536Y-87855312D01*
X123345998Y-87921447D01*
X123300946Y-87960484D01*
X123292182Y-87964949D01*
X123120213Y-88089890D01*
X122969890Y-88240213D01*
X122844951Y-88412179D01*
X122748444Y-88601585D01*
X122682753Y-88803760D01*
X122649500Y-89013713D01*
X122649500Y-89226286D01*
X122680364Y-89421158D01*
X122682754Y-89436243D01*
X122729087Y-89578842D01*
X122748444Y-89638414D01*
X122844951Y-89827820D01*
X122969890Y-89999786D01*
X123120213Y-90150109D01*
X123292182Y-90275050D01*
X123300946Y-90279516D01*
X123351742Y-90327491D01*
X123368536Y-90395312D01*
X123345998Y-90461447D01*
X123300946Y-90500484D01*
X123292182Y-90504949D01*
X123120213Y-90629890D01*
X122969890Y-90780213D01*
X122844951Y-90952179D01*
X122748444Y-91141585D01*
X122682753Y-91343760D01*
X122649500Y-91553713D01*
X122649500Y-91766287D01*
X122682754Y-91976243D01*
X122733986Y-92133919D01*
X122748444Y-92178414D01*
X122844951Y-92367820D01*
X122969890Y-92539786D01*
X123120213Y-92690109D01*
X123292182Y-92815050D01*
X123300946Y-92819516D01*
X123351742Y-92867491D01*
X123368536Y-92935312D01*
X123345998Y-93001447D01*
X123300946Y-93040484D01*
X123292182Y-93044949D01*
X123120213Y-93169890D01*
X122969890Y-93320213D01*
X122844951Y-93492179D01*
X122748444Y-93681585D01*
X122682753Y-93883760D01*
X122649500Y-94093713D01*
X122649500Y-94306286D01*
X122682753Y-94516239D01*
X122748444Y-94718414D01*
X122844951Y-94907820D01*
X122969890Y-95079786D01*
X123120213Y-95230109D01*
X123292179Y-95355048D01*
X123292181Y-95355049D01*
X123292184Y-95355051D01*
X123301493Y-95359794D01*
X123352290Y-95407766D01*
X123369087Y-95475587D01*
X123346552Y-95541722D01*
X123301505Y-95580760D01*
X123292446Y-95585376D01*
X123292440Y-95585380D01*
X123238282Y-95624727D01*
X123238282Y-95624728D01*
X123870591Y-96257037D01*
X123807007Y-96274075D01*
X123692993Y-96339901D01*
X123599901Y-96432993D01*
X123534075Y-96547007D01*
X123517037Y-96610591D01*
X122884728Y-95978282D01*
X122884727Y-95978282D01*
X122845380Y-96032439D01*
X122748904Y-96221782D01*
X122683242Y-96423869D01*
X122683242Y-96423872D01*
X122650000Y-96633753D01*
X122650000Y-96846246D01*
X122683242Y-97056127D01*
X122683242Y-97056130D01*
X122748904Y-97258217D01*
X122845375Y-97447550D01*
X122884728Y-97501716D01*
X123517037Y-96869408D01*
X123534075Y-96932993D01*
X123599901Y-97047007D01*
X123692993Y-97140099D01*
X123807007Y-97205925D01*
X123870590Y-97222962D01*
X123238282Y-97855269D01*
X123238282Y-97855270D01*
X123292449Y-97894624D01*
X123481782Y-97991095D01*
X123683870Y-98056757D01*
X123893754Y-98090000D01*
X124106246Y-98090000D01*
X124316127Y-98056757D01*
X124316130Y-98056757D01*
X124518217Y-97991095D01*
X124707554Y-97894622D01*
X124761716Y-97855270D01*
X124761717Y-97855270D01*
X124129408Y-97222962D01*
X124192993Y-97205925D01*
X124307007Y-97140099D01*
X124400099Y-97047007D01*
X124465925Y-96932993D01*
X124482962Y-96869408D01*
X125115270Y-97501717D01*
X125115270Y-97501716D01*
X125154622Y-97447554D01*
X125163829Y-97429485D01*
X128707832Y-97429485D01*
X128707832Y-97587178D01*
X128738593Y-97741821D01*
X128738596Y-97741833D01*
X128798934Y-97887504D01*
X128798941Y-97887517D01*
X128886542Y-98018620D01*
X128886545Y-98018624D01*
X128998039Y-98130118D01*
X128998043Y-98130121D01*
X129129146Y-98217722D01*
X129129159Y-98217729D01*
X129254722Y-98269738D01*
X129274835Y-98278069D01*
X129413840Y-98305719D01*
X129429485Y-98308831D01*
X129429488Y-98308832D01*
X129429490Y-98308832D01*
X129587176Y-98308832D01*
X129587177Y-98308831D01*
X129741829Y-98278069D01*
X129887511Y-98217726D01*
X130018621Y-98130121D01*
X130130121Y-98018621D01*
X130217726Y-97887511D01*
X130278069Y-97741829D01*
X130308832Y-97587174D01*
X130308832Y-97587167D01*
X130309429Y-97581114D01*
X130311888Y-97581356D01*
X130328517Y-97524725D01*
X130345147Y-97504087D01*
X130912318Y-96936915D01*
X130920263Y-96932577D01*
X130925688Y-96925331D01*
X130950447Y-96916095D01*
X130973641Y-96903431D01*
X130982670Y-96904076D01*
X130991152Y-96900913D01*
X131016974Y-96906529D01*
X131043333Y-96908415D01*
X131052385Y-96914232D01*
X131059425Y-96915764D01*
X131087676Y-96936913D01*
X131087679Y-96936915D01*
X131131284Y-96980520D01*
X131131285Y-96980520D01*
X131138353Y-96987588D01*
X131665425Y-97514660D01*
X131698910Y-97575983D01*
X131699361Y-97578149D01*
X131730261Y-97733491D01*
X131730264Y-97733501D01*
X131790602Y-97879172D01*
X131790609Y-97879185D01*
X131878210Y-98010288D01*
X131878213Y-98010292D01*
X131989707Y-98121786D01*
X131989711Y-98121789D01*
X132120814Y-98209390D01*
X132120827Y-98209397D01*
X132266498Y-98269735D01*
X132266503Y-98269737D01*
X132362902Y-98288912D01*
X132421153Y-98300499D01*
X132421156Y-98300500D01*
X132421158Y-98300500D01*
X132578844Y-98300500D01*
X132578845Y-98300499D01*
X132733497Y-98269737D01*
X132879179Y-98209394D01*
X133010289Y-98121789D01*
X133121789Y-98010289D01*
X133209394Y-97879179D01*
X133269737Y-97733497D01*
X133300500Y-97578842D01*
X133300500Y-97421158D01*
X133300500Y-97421155D01*
X133300499Y-97421153D01*
X133289748Y-97367103D01*
X133269737Y-97266503D01*
X133244645Y-97205925D01*
X133209397Y-97120827D01*
X133209390Y-97120814D01*
X133121789Y-96989711D01*
X133121786Y-96989707D01*
X133010292Y-96878213D01*
X133010288Y-96878210D01*
X132879185Y-96790609D01*
X132879172Y-96790602D01*
X132733501Y-96730264D01*
X132733491Y-96730261D01*
X132578151Y-96699362D01*
X132516241Y-96666977D01*
X132514662Y-96665426D01*
X132136819Y-96287583D01*
X132103334Y-96226260D01*
X132100500Y-96199902D01*
X132100500Y-93079765D01*
X132120185Y-93012726D01*
X132121398Y-93010874D01*
X132209390Y-92879185D01*
X132209390Y-92879184D01*
X132209394Y-92879179D01*
X132269737Y-92733497D01*
X132300500Y-92578842D01*
X132300500Y-92421158D01*
X132300500Y-92421155D01*
X132300499Y-92421153D01*
X132289890Y-92367820D01*
X132269737Y-92266503D01*
X132233249Y-92178412D01*
X132209397Y-92120827D01*
X132209390Y-92120814D01*
X132121789Y-91989711D01*
X132121786Y-91989707D01*
X132010292Y-91878213D01*
X132010288Y-91878210D01*
X131879185Y-91790609D01*
X131879172Y-91790602D01*
X131733501Y-91730264D01*
X131733489Y-91730261D01*
X131578845Y-91699500D01*
X131578842Y-91699500D01*
X131421158Y-91699500D01*
X131421153Y-91699500D01*
X131264365Y-91730687D01*
X131194773Y-91724460D01*
X131171284Y-91712173D01*
X131090244Y-91658024D01*
X131090233Y-91658018D01*
X130944562Y-91597680D01*
X130944550Y-91597677D01*
X130789906Y-91566916D01*
X130789903Y-91566916D01*
X130632219Y-91566916D01*
X130632216Y-91566916D01*
X130477571Y-91597677D01*
X130477559Y-91597680D01*
X130331888Y-91658018D01*
X130331875Y-91658025D01*
X130200772Y-91745626D01*
X130200768Y-91745629D01*
X130089274Y-91857123D01*
X130089271Y-91857127D01*
X130001670Y-91988230D01*
X130001663Y-91988243D01*
X129941325Y-92133914D01*
X129941322Y-92133926D01*
X129910561Y-92288569D01*
X129910561Y-92446262D01*
X129941322Y-92600905D01*
X129941325Y-92600917D01*
X130001663Y-92746588D01*
X130001670Y-92746601D01*
X130089663Y-92878290D01*
X130110541Y-92944967D01*
X130110561Y-92947181D01*
X130110561Y-95988842D01*
X130090876Y-96055881D01*
X130074242Y-96076523D01*
X129472869Y-96677895D01*
X129411546Y-96711380D01*
X129409380Y-96711831D01*
X129274840Y-96738593D01*
X129274830Y-96738596D01*
X129129159Y-96798934D01*
X129129146Y-96798941D01*
X128998043Y-96886542D01*
X128998039Y-96886545D01*
X128886545Y-96998039D01*
X128886542Y-96998043D01*
X128798941Y-97129146D01*
X128798934Y-97129159D01*
X128738596Y-97274830D01*
X128738593Y-97274842D01*
X128707832Y-97429485D01*
X125163829Y-97429485D01*
X125195615Y-97367103D01*
X125251095Y-97258217D01*
X125316757Y-97056130D01*
X125316757Y-97056127D01*
X125350000Y-96846246D01*
X125350000Y-96633753D01*
X125316757Y-96423872D01*
X125316757Y-96423869D01*
X125251095Y-96221782D01*
X125154624Y-96032449D01*
X125115270Y-95978282D01*
X125115269Y-95978282D01*
X124482962Y-96610590D01*
X124465925Y-96547007D01*
X124400099Y-96432993D01*
X124307007Y-96339901D01*
X124192993Y-96274075D01*
X124129409Y-96257037D01*
X124761716Y-95624728D01*
X124707547Y-95585373D01*
X124707547Y-95585372D01*
X124698500Y-95580763D01*
X124647706Y-95532788D01*
X124630912Y-95464966D01*
X124653451Y-95398832D01*
X124698508Y-95359793D01*
X124707816Y-95355051D01*
X124787007Y-95297515D01*
X124879786Y-95230109D01*
X124879788Y-95230106D01*
X124879792Y-95230104D01*
X125030104Y-95079792D01*
X125030106Y-95079788D01*
X125030109Y-95079786D01*
X125155048Y-94907820D01*
X125155047Y-94907820D01*
X125155051Y-94907816D01*
X125251557Y-94718412D01*
X125317246Y-94516243D01*
X125334849Y-94405101D01*
X125364778Y-94341967D01*
X125424090Y-94305036D01*
X125457322Y-94300500D01*
X125578844Y-94300500D01*
X125578845Y-94300499D01*
X125733497Y-94269737D01*
X125879179Y-94209394D01*
X126010289Y-94121789D01*
X126121789Y-94010289D01*
X126209394Y-93879179D01*
X126269737Y-93733497D01*
X126300500Y-93578842D01*
X126300638Y-93578150D01*
X126333023Y-93516239D01*
X126334518Y-93514716D01*
X129712416Y-90136819D01*
X129773739Y-90103334D01*
X129800097Y-90100500D01*
X130420234Y-90100500D01*
X130487273Y-90120185D01*
X130489125Y-90121398D01*
X130620814Y-90209390D01*
X130620827Y-90209397D01*
X130766498Y-90269735D01*
X130766503Y-90269737D01*
X130921153Y-90300499D01*
X130921156Y-90300500D01*
X130921158Y-90300500D01*
X131078844Y-90300500D01*
X131078845Y-90300499D01*
X131233497Y-90269737D01*
X131379179Y-90209394D01*
X131510289Y-90121789D01*
X131621789Y-90010289D01*
X131709394Y-89879179D01*
X131769737Y-89733497D01*
X131800500Y-89578842D01*
X131800500Y-89421158D01*
X131800500Y-89421155D01*
X131800499Y-89421153D01*
X131769738Y-89266510D01*
X131769737Y-89266503D01*
X131713728Y-89131284D01*
X131709397Y-89120827D01*
X131709390Y-89120814D01*
X131621789Y-88989711D01*
X131621786Y-88989707D01*
X131510292Y-88878213D01*
X131510288Y-88878210D01*
X131379185Y-88790609D01*
X131379172Y-88790602D01*
X131233501Y-88730264D01*
X131233489Y-88730261D01*
X131078845Y-88699500D01*
X131078842Y-88699500D01*
X130921158Y-88699500D01*
X130921155Y-88699500D01*
X130766510Y-88730261D01*
X130766498Y-88730264D01*
X130620827Y-88790602D01*
X130620814Y-88790609D01*
X130489125Y-88878602D01*
X130422447Y-88899480D01*
X130420234Y-88899500D01*
X129579057Y-88899500D01*
X129420942Y-88899500D01*
X129268215Y-88940423D01*
X129268214Y-88940423D01*
X129268212Y-88940424D01*
X129268209Y-88940425D01*
X129218096Y-88969359D01*
X129218095Y-88969360D01*
X129182853Y-88989707D01*
X129131285Y-89019479D01*
X129131282Y-89019481D01*
X125485339Y-92665425D01*
X125424016Y-92698910D01*
X125421850Y-92699361D01*
X125266508Y-92730261D01*
X125266498Y-92730264D01*
X125115192Y-92792937D01*
X125114313Y-92790815D01*
X125055913Y-92802959D01*
X124990676Y-92777941D01*
X124949321Y-92721625D01*
X124944977Y-92651890D01*
X124978214Y-92591681D01*
X125030104Y-92539792D01*
X125030106Y-92539788D01*
X125030109Y-92539786D01*
X125155048Y-92367820D01*
X125155047Y-92367820D01*
X125155051Y-92367816D01*
X125251557Y-92178412D01*
X125317246Y-91976243D01*
X125350500Y-91766287D01*
X125350500Y-91553713D01*
X125317246Y-91343757D01*
X125251557Y-91141588D01*
X125155051Y-90952184D01*
X125155049Y-90952181D01*
X125155048Y-90952179D01*
X125030109Y-90780213D01*
X124879786Y-90629890D01*
X124707820Y-90504951D01*
X124707115Y-90504591D01*
X124699054Y-90500485D01*
X124648259Y-90452512D01*
X124631463Y-90384692D01*
X124653999Y-90318556D01*
X124699054Y-90279515D01*
X124707816Y-90275051D01*
X124798186Y-90209394D01*
X124879786Y-90150109D01*
X124879788Y-90150106D01*
X124879792Y-90150104D01*
X125030104Y-89999792D01*
X125030106Y-89999788D01*
X125030109Y-89999786D01*
X125155048Y-89827820D01*
X125155047Y-89827820D01*
X125155051Y-89827816D01*
X125251557Y-89638412D01*
X125317246Y-89436243D01*
X125350500Y-89226287D01*
X125350500Y-89013713D01*
X125317246Y-88803757D01*
X125251557Y-88601588D01*
X125155051Y-88412184D01*
X125155049Y-88412181D01*
X125155048Y-88412179D01*
X125030109Y-88240213D01*
X124879786Y-88089890D01*
X124707820Y-87964951D01*
X124707115Y-87964591D01*
X124699054Y-87960485D01*
X124648259Y-87912512D01*
X124631463Y-87844692D01*
X124653999Y-87778556D01*
X124699054Y-87739515D01*
X124707816Y-87735051D01*
X124729789Y-87719086D01*
X124879786Y-87610109D01*
X124879788Y-87610106D01*
X124879792Y-87610104D01*
X125030104Y-87459792D01*
X125030106Y-87459788D01*
X125030109Y-87459786D01*
X125155048Y-87287820D01*
X125155047Y-87287820D01*
X125155051Y-87287816D01*
X125251557Y-87098412D01*
X125317246Y-86896243D01*
X125350500Y-86686287D01*
X125350500Y-86473713D01*
X125317246Y-86263757D01*
X125251557Y-86061588D01*
X125155051Y-85872184D01*
X125155049Y-85872181D01*
X125155048Y-85872179D01*
X125030109Y-85700213D01*
X124879786Y-85549890D01*
X124707820Y-85424951D01*
X124707115Y-85424591D01*
X124699054Y-85420485D01*
X124648259Y-85372512D01*
X124631463Y-85304692D01*
X124653999Y-85238556D01*
X124699054Y-85199515D01*
X124707816Y-85195051D01*
X124729789Y-85179086D01*
X124879786Y-85070109D01*
X124879788Y-85070106D01*
X124879792Y-85070104D01*
X125030104Y-84919792D01*
X125030106Y-84919788D01*
X125030109Y-84919786D01*
X125155048Y-84747820D01*
X125155047Y-84747820D01*
X125155051Y-84747816D01*
X125251557Y-84558412D01*
X125317246Y-84356243D01*
X125350500Y-84146287D01*
X125350500Y-83933713D01*
X125317246Y-83723757D01*
X125251557Y-83521588D01*
X125155051Y-83332184D01*
X125155049Y-83332181D01*
X125155048Y-83332179D01*
X125030109Y-83160213D01*
X124916569Y-83046673D01*
X124883084Y-82985350D01*
X124888068Y-82915658D01*
X124929940Y-82859725D01*
X124960915Y-82842810D01*
X125092331Y-82793796D01*
X125207546Y-82707546D01*
X125293796Y-82592331D01*
X125344091Y-82457483D01*
X125350500Y-82397873D01*
X125350499Y-80602128D01*
X125344091Y-80542517D01*
X125293796Y-80407669D01*
X125293795Y-80407668D01*
X125293793Y-80407664D01*
X125207547Y-80292455D01*
X125207544Y-80292452D01*
X125092335Y-80206206D01*
X125092328Y-80206202D01*
X124957482Y-80155908D01*
X124957483Y-80155908D01*
X124897883Y-80149501D01*
X124897881Y-80149500D01*
X124897873Y-80149500D01*
X124897864Y-80149500D01*
X123102129Y-80149500D01*
X123102123Y-80149501D01*
X123042516Y-80155908D01*
X122907671Y-80206202D01*
X122907664Y-80206206D01*
X122792455Y-80292452D01*
X122792452Y-80292455D01*
X122706206Y-80407664D01*
X122706202Y-80407671D01*
X122655908Y-80542517D01*
X122649501Y-80602116D01*
X122649501Y-80602123D01*
X122649500Y-80602135D01*
X121500500Y-80602135D01*
X121500500Y-79778126D01*
X121520185Y-79711087D01*
X121572989Y-79665332D01*
X121642147Y-79655388D01*
X121662811Y-79660193D01*
X121717218Y-79677872D01*
X121787620Y-79689022D01*
X121904954Y-79707607D01*
X121904959Y-79707607D01*
X122095046Y-79707607D01*
X122199341Y-79691087D01*
X122282782Y-79677872D01*
X122463560Y-79619133D01*
X122632924Y-79532838D01*
X122786703Y-79421111D01*
X122921111Y-79286703D01*
X123032838Y-79132924D01*
X123119133Y-78963560D01*
X123177872Y-78782782D01*
X123195452Y-78671787D01*
X123207607Y-78595046D01*
X123207607Y-78404953D01*
X123177872Y-78217221D01*
X123177872Y-78217220D01*
X123177872Y-78217218D01*
X123160195Y-78162817D01*
X123158201Y-78092977D01*
X123194281Y-78033144D01*
X123256982Y-78002316D01*
X123278127Y-78000500D01*
X133721873Y-78000500D01*
X133788912Y-78020185D01*
G37*
%TD.AperFunction*%
%TD*%
M02*
